<svg height="512pt" viewBox="0 -28 512.00037 512" width="512pt" xmlns="http://www.w3.org/2000/svg"><path d="m298.589844 431.867188 206.75-358.097657c18.925781-32.785156-4.734375-73.769531-42.59375-73.769531h-413.492188c-37.859375 0-61.523437 40.984375-42.589844 73.769531l206.746094 358.097657c18.929688 32.785156 66.253906 32.785156 85.179688 0zm0 0" fill="#ff5a73"/><path d="m462.746094 41.796875c2.828125 0 4.980468 1.242187 6.394531 3.691406s1.414063 4.933594 0 7.382813l-206.746094 358.097656c-1.414062 2.449219-3.566406 3.691406-6.394531 3.691406s-4.980469-1.242187-6.394531-3.691406l-206.746094-358.097656c-1.417969-2.449219-1.417969-4.933594 0-7.382813 1.414063-2.449219 3.566406-3.691406 6.394531-3.691406zm0 0" fill="#e6e6e6"/></svg>