<svg height="512pt" viewBox="0 -25 512 511" width="512pt" xmlns="http://www.w3.org/2000/svg"><path d="m511.996094 143.585938c0 15.03125-22.480469 26.332031-26.886719 39.898437-4.5625 14.058594 6.824219 36.382813-1.695313 48.085937-8.601562 11.816407-33.40625 7.84375-45.226562 16.445313-11.703125 8.519531-15.542969 33.382813-29.601562 37.949219-13.566407 4.40625-31.226563-13.3125-46.261719-13.3125-15.035157 0-32.691407 17.71875-46.257813 13.3125-14.0625-4.566406-17.898437-29.429688-29.601562-37.949219-11.820313-8.601563-36.625-4.628906-45.230469-16.449219-8.515625-11.703125 2.871094-34.023437-1.695313-48.085937-4.40625-13.566407-26.882812-24.863281-26.882812-39.898438 0-15.03125 22.476562-26.332031 26.882812-39.894531 4.566407-14.0625-6.820312-36.386719 1.695313-48.085938 8.601563-11.820312 33.410156-7.847656 45.230469-16.449218 11.703125-8.519532 15.539062-33.382813 29.597656-37.949219 13.566406-4.40625 31.226562 13.3125 46.261719 13.3125 15.035156 0 32.695312-17.71875 46.261719-13.3125 14.058593 4.566406 17.898437 29.429687 29.601562 37.949219 11.820312 8.601562 36.625 4.628906 45.226562 16.449218 8.519532 11.703126-2.867187 34.023438 1.695313 48.085938 4.40625 13.566406 26.886719 24.863281 26.886719 39.898438zm0 0" fill="#f7de92"/><path d="m483.414062 231.570312c-8.601562 11.8125-33.40625 7.847657-45.230468 16.449219-11.703125 8.519531-15.535156 33.375-29.59375 37.949219-9.148438 2.96875-20.140625-4.121094-30.945313-9.042969.523438-.105469 1.039063-.238281 1.554688-.402343 14.0625-4.574219 17.902343-29.441407 29.605469-37.949219 11.8125-8.613281 36.621093-4.636719 45.222656-16.453125 8.519531-11.699219-2.867188-34.023438 1.699218-48.082032 4.410157-13.570312 26.886719-24.867187 26.886719-39.898437 0-15.039063-22.476562-26.339844-26.886719-39.90625-4.5625-14.050781 6.820313-36.382813-1.699218-48.085937-.433594-.597657-.90625-1.152344-1.421875-1.667969 11.648437 2.347656 24.96875 3.089843 30.808593 11.125 8.519532 11.703125-2.863281 34.023437 1.699219 48.085937 4.398438 13.566406 26.886719 24.855469 26.886719 39.894532 0 15.03125-22.488281 26.332031-26.886719 39.898437-4.5625 14.058594 6.820313 36.382813-1.699219 48.085937zm0 0" fill="#f5d573"/><path d="m445.746094 143.585938c0 46.070312-37.347656 83.421874-83.421875 83.421874-46.070313 0-83.421875-37.351562-83.421875-83.421874 0-46.074219 37.351562-83.421876 83.421875-83.421876 46.074219 0 83.421875 37.347657 83.421875 83.421876zm0 0" fill="#f7c22c"/><path d="m445.742188 143.585938c0 46.066406-37.339844 83.417968-83.417969 83.417968-29.109375 0-54.730469-14.902344-69.644531-37.496094 13.648437 9.746094 30.367187 15.496094 48.433593 15.496094 46.078125 0 83.417969-37.351562 83.417969-83.429687 0-16.976563-5.066406-32.757813-13.78125-45.933594 21.191406 15.132813 34.992188 39.929687 34.992188 67.945313zm0 0" fill="#eeb900"/><path d="m330.765625 287.472656c-2.21875-.476562-3.859375-2.316406-4.054687-4.574218-3.308594-37.867188-35.074219-67.574219-73.800782-67.574219-10.226562 0-19.964844 2.074219-28.828125 5.816406-1.957031.828125-4.214843.382813-5.691406-1.144531-18.152344-18.757813-43.585937-30.421875-71.75-30.421875-55.148437 0-99.855469 44.707031-99.855469 99.855469 0 2.230468.078125 4.441406.226563 6.636718.164062 2.417969-1.332031 4.675782-3.671875 5.316406-24.984375 6.859376-43.339844 29.726563-43.339844 56.886719 0 32.578125 26.410156 58.988281 58.992188 58.988281 23.640624 0 227.214843-2.714843 258.175781-2.714843 35.488281 0 64.257812-28.765625 64.257812-64.253907-.003906-30.824218-21.703125-56.578124-50.660156-62.816406zm0 0" fill="#c9f0ff"/><path d="m381.425781 350.289062c0 35.488282-28.773437 64.257813-64.261719 64.257813-2.871093 0-7.230468.019531-12.792968.070313 26.351562-8.515626 45.40625-33.25 45.40625-62.433594 0-25.957032-13.957032-46.589844-39.308594-53.484375-5.132812-1.398438-11.121094-2.46875-13.820312-7.054688-3.964844-6.738281-3.695313-17.515625-6.152344-25.058593-2.605469-7.992188-6.5625-15.535157-11.644532-22.234376-5.214843-6.875-11.601562-12.847656-18.8125-17.582031-4.570312-3.003906-16.472656-11.105469-22.214843-9.902343 4.863281-1.019532 9.910156-1.542969 15.082031-1.542969 38.722656 0 70.492188 29.707031 73.808594 67.574219.195312 2.257812 1.832031 4.101562 4.046875 4.574218 28.957031 6.242188 50.664062 31.996094 50.664062 62.816406zm0 0" fill="#9ae7fd"/><path d="m366.6875 368.800781c-7.378906-.125-14.363281 1.492188-20.582031 4.453125-2.65625 1.265625-5.792969-.015625-6.929688-2.726562-9.875-23.558594-33.152343-40.109375-60.296875-40.109375-27.148437 0-50.421875 16.550781-60.300781 40.109375-1.136719 2.710937-4.273437 3.992187-6.925781 2.726562-6.222656-2.960937-13.207032-4.578125-20.582032-4.453125-25 .414063-45.378906 21.140625-45.394531 46.144531-.015625 25.511719 20.664063 46.203126 46.175781 46.203126h174.050782c25.511718 0 46.191406-20.691407 46.179687-46.203126-.015625-25.007812-20.394531-45.730468-45.394531-46.144531zm0 0" fill="#64dcfc"/><path d="m412.078125 414.9375c.011719 15.886719-8.003906 29.90625-20.210937 38.226562 4.121093-6.910156 6.480468-14.996093 6.480468-23.628906 0-11.40625-4.484375-22.609375-12.144531-31.03125-9.613281-10.566406-23.34375-13.628906-36.855469-11.238281-4.65625.824219-8.785156 3.21875-13.3125 4.058594-8.320312 1.542969-11.164062-8.28125-14.394531-13.832031-3.757813-6.445313-8.625-12.238282-14.324219-17.054688-11.730468-9.925781-26.804687-15.433594-42.171875-15.433594-15.152343 0-29.089843 5.152344-40.164062 13.792969 11.785156-17.140625 31.53125-28.378906 53.894531-28.378906 27.144531 0 50.425781 16.554687 60.304688 40.113281 1.132812 2.707031 4.273437 3.984375 6.921874 2.71875 6.21875-2.957031 13.203126-4.574219 20.582032-4.449219 25 .410157 45.386718 21.136719 45.394531 46.136719zm0 0" fill="#00d1fc"/></svg>