<?xml version="1.0"?>
<svg xmlns="http://www.w3.org/2000/svg" xmlns:xlink="http://www.w3.org/1999/xlink" xmlns:svgjs="http://svgjs.com/svgjs" version="1.1" width="512" height="512" x="0" y="0" viewBox="0 0 391.765 391.765" style="enable-background:new 0 0 512 512" xml:space="preserve" class=""><g><g xmlns="http://www.w3.org/2000/svg"><path d="m391.765 343.023h-391.765l83.342-232.768h225.081z" fill="#000000" data-original="#64798a" style="" class=""/><path d="m371.826 343.023h-351.887l74.859-232.768h202.169z" fill="#3a556a" data-original="#3a556a" style="" class=""/><path d="m199.785 137.574h-7.805l.158-16.224h7.489z" fill="#ffffff" data-original="#e1e6e9" style="" class=""/><path d="m200.116 171.684h-8.468l.183-19.018h8.102z" fill="#ffffff" data-original="#e1e6e9" style="" class=""/><path d="m200.507 212.097h-9.25l.218-22.601h8.815z" fill="#ffffff" data-original="#e1e6e9" style="" class=""/><path d="m200.977 260.734h-10.189l.262-27.304h9.665z" fill="#ffffff" data-original="#e1e6e9" style="" class=""/><path d="m201.556 320.383h-11.347l.326-33.64h10.694z" fill="#ffffff" data-original="#e1e6e9" style="" class=""/><path d="m379.473 218.512c-2.442 0-4.422-1.98-4.422-4.422v-128.057h-358.337v128.057c0 2.442-1.98 4.422-4.422 4.422s-4.422-1.98-4.422-4.422v-132.509c0-2.442 1.98-4.422 4.422-4.422h367.181c2.442 0 4.422 1.98 4.422 4.422v132.509c0 2.442-1.98 4.422-4.422 4.422z" fill="#000000" data-original="#64798a" style="" class=""/><path d="m37.068 48.742h317.628c3.743 0 6.777 3.034 6.777 6.777v52.14c0 3.743-3.034 6.777-6.777 6.777h-317.628c-3.743 0-6.777-3.034-6.777-6.777v-52.14c.001-3.743 3.035-6.777 6.777-6.777z" fill="#0f4def" data-original="#89c5cd" style="" class=""/><path d="m154.466 78.682-12.91-14.681-12.91 14.681h7.553v20.498h10.714v-20.498z" fill="#ebf0f3" data-original="#ebf0f3" style=""/><path d="m263.119 78.682-12.91-14.681-12.911 14.681h7.554v20.498h10.714v-20.498z" fill="#ebf0f3" data-original="#ebf0f3" style=""/><g fill="#7fb6ba"><path d="m60.865 64.867h42.964v3.552h-42.964z" fill="#7fb6ba" data-original="#7fb6ba" style="" class=""/><path d="m60.865 74.834h42.964v3.552h-42.964z" fill="#7fb6ba" data-original="#7fb6ba" style="" class=""/><path d="m60.865 84.796h42.964v3.552h-42.964z" fill="#7fb6ba" data-original="#7fb6ba" style="" class=""/><path d="m60.865 94.763h42.964v3.552h-42.964z" fill="#7fb6ba" data-original="#7fb6ba" style="" class=""/><path d="m289.893 64.867h42.964v3.552h-42.964z" fill="#7fb6ba" data-original="#7fb6ba" style="" class=""/><path d="m289.893 74.834h42.964v3.552h-42.964z" fill="#7fb6ba" data-original="#7fb6ba" style="" class=""/><path d="m289.893 84.796h42.964v3.552h-42.964z" fill="#7fb6ba" data-original="#7fb6ba" style="" class=""/><path d="m289.893 94.763h42.964v3.552h-42.964z" fill="#7fb6ba" data-original="#7fb6ba" style="" class=""/><path d="m175.379 64.867h42.964v3.552h-42.964z" fill="#7fb6ba" data-original="#7fb6ba" style="" class=""/><path d="m175.379 74.834h42.964v3.552h-42.964z" fill="#7fb6ba" data-original="#7fb6ba" style="" class=""/><path d="m175.379 84.796h42.964v3.552h-42.964z" fill="#7fb6ba" data-original="#7fb6ba" style="" class=""/><path d="m175.379 94.763h42.964v3.552h-42.964z" fill="#7fb6ba" data-original="#7fb6ba" style="" class=""/></g></g></g></svg>
