<?xml version="1.0"?>
<svg xmlns="http://www.w3.org/2000/svg" xmlns:xlink="http://www.w3.org/1999/xlink" xmlns:svgjs="http://svgjs.com/svgjs" version="1.1" width="512" height="512" x="0" y="0" viewBox="0 0 512 512" style="enable-background:new 0 0 512 512" xml:space="preserve" class=""><g><g xmlns="http://www.w3.org/2000/svg" id="Flat"><path d="m288 408v80a7.99786 7.99786 0 0 1 -8 8h-40a48 48 0 0 1 0-96h40a7.99782 7.99782 0 0 1 8 8z" fill="#3e454d" data-original="#3e454d" style=""/><path d="m444 408v80a7.99786 7.99786 0 0 1 -8 8h-40a48 48 0 0 1 0-96h40a7.99782 7.99782 0 0 1 8 8z" fill="#3e454d" data-original="#3e454d" style=""/><circle cx="280" cy="448" fill="#d4e4f0" r="40" data-original="#d4e4f0" style="" class=""/><path d="m280 496a48 48 0 1 1 48-48 48.05405 48.05405 0 0 1 -48 48zm0-80a32 32 0 1 0 32 32 32.03635 32.03635 0 0 0 -32-32z" fill="#4f5761" data-original="#4f5761" style=""/><path d="m496 267.62v76.38h-80l25.33984-31.67 13.44043-16.8a83.97019 83.97019 0 0 1 41.21973-27.91z" fill="#4f5761" data-original="#4f5761" style=""/><path d="m496 344v112h-304v-48a63.85877 63.85877 0 0 1 1.71-14.73 63.19441 63.19441 0 0 1 9.48-21.43 63.92446 63.92446 0 0 1 52.81-27.84z" fill="#529ddf" data-original="#529ddf" style=""/><path d="m496 264v3.62a83.97019 83.97019 0 0 0 -41.21973 27.91l-13.44043 16.8-25.33984 31.67h-160l19.08008-19.08a207.98761 207.98761 0 0 1 147.08008-60.92z" fill="#68737f" data-original="#68737f" style=""/><path d="m382.70292 369.85942-9.75374 1.95074a94.1866 94.1866 0 0 0 -38.04043 17.00828l-14.90875 11.18156 7.87606 2.62535a64.00005 64.00005 0 0 0 32.79 2.04144l3.47658-.69532a32 32 0 0 0 24.76885-23.61747l.789-3.15592a6 6 0 0 0 -6.99757-7.33866z" fill="#d4e4f0" data-original="#d4e4f0" style="" class=""/><path d="m256 400-7.87988 2.63a64.059 64.059 0 0 1 -32.79 2.04l-3.47022-.7a31.97289 31.97289 0 0 1 -18.1499-10.7 63.19441 63.19441 0 0 1 9.48-21.43 94.16628 94.16628 0 0 1 37.90015 16.98z" fill="#d4e4f0" data-original="#d4e4f0" style="" class=""/><path d="m416 344 25.336-31.666 30.664 7.666v24z" fill="#3e454d" data-original="#3e454d" style=""/><path d="m224 456 40-32h48l40 32z" fill="#68737f" data-original="#68737f" style=""/><path d="m472 448a40 40 0 1 1 -40.83008-39.99c.27-.01.54981-.01.83008-.01s.56006 0 .83008.01a39.9991 39.9991 0 0 1 39.16992 39.99z" fill="#d4e4f0" data-original="#d4e4f0" style="" class=""/><circle cx="432" cy="448" fill="#68737f" r="8" data-original="#68737f" style=""/><path d="m480 368h16v16h-16z" fill="#d4e4f0" data-original="#d4e4f0" style="" class=""/><path d="m438.68994 400.47a48.0074 48.0074 0 1 0 41.31006 47.53 47.67358 47.67358 0 0 0 -41.31006-47.53zm24.30029 55.53a32.13259 32.13259 0 0 1 -18.99023 21.66 31.94624 31.94624 0 1 1 18.99023-21.66z" fill="#4f5761" data-original="#4f5761" style=""/><path d="m144 296h40v-56l40 48 56-48-16 72 64 16-56 40 32 40h-48l8 56-40-48-16 64-32-24z" fill="#fdca77" data-original="#fdca77" style="" class=""/><path d="m328 24v85.84a120.0076 120.0076 0 0 1 -66.33008 107.33l-29.66992 14.83-29.66992-14.83a120.0076 120.0076 0 0 1 -66.33008-107.33v-85.84a74.6486 74.6486 0 0 0 32 15.65 74.9333 74.9333 0 0 0 64-15.65 74.85718 74.85718 0 0 0 48 17.38 74.38071 74.38071 0 0 0 16-1.73 74.6486 74.6486 0 0 0 32-15.65z" fill="#ffffff" data-original="#699949" style="" class=""/><path d="m296 39.65v70.19a87.5418 87.5418 0 0 1 -48.64014 78.71l-15.35986 7.67-15.35986-7.67a87.5418 87.5418 0 0 1 -48.64014-78.71v-70.19a74.9333 74.9333 0 0 0 64-15.65 74.85718 74.85718 0 0 0 48 17.38 74.38071 74.38071 0 0 0 16-1.73z" fill="#ffffff" data-original="#7ab355" style="" class=""/><path d="m136 408v80a7.99786 7.99786 0 0 1 -8 8h-40a48 48 0 0 1 0-96h40a7.99782 7.99782 0 0 1 8 8z" fill="#3e454d" data-original="#3e454d" style=""/><path d="m79.6499 265.77-15.6499 78.23h-48v-69.65a83.86872 83.86872 0 0 1 40-10.35h2.40991a127.375 127.375 0 0 1 21.23999 1.77z" fill="#4f5761" data-original="#4f5761" style=""/><path d="m159.89014 311.89a124.46907 124.46907 0 0 1 -83.43014 32.11h-12.46l15.6499-78.23a129.28974 129.28974 0 0 1 70.24024 36.12z" fill="#3e454d" data-original="#3e454d" style=""/><path d="m16 456h176v-95.66a45.47034 45.47034 0 0 0 -20.25-37.84 45.55373 45.55373 0 0 1 -6.93-5.68l-4.93-4.93a124.46827 124.46827 0 0 1 -83.43 32.11h-60.46z" fill="#e04446" data-original="#e04446" style="" class=""/><path d="m56 264a83.86872 83.86872 0 0 0 -40 10.35v-10.35z" fill="#68737f" data-original="#68737f" style=""/><path d="m168 448a40 40 0 1 1 -40.83008-39.99c.27-.01.54981-.01.83008-.01s.56006 0 .83008.01a39.9991 39.9991 0 0 1 39.16992 39.99z" fill="#d4e4f0" data-original="#d4e4f0" style="" class=""/><path d="m192 360.34v39.66l-40-32a54.64211 54.64211 0 0 1 38.62988-16h.6001a45.37929 45.37929 0 0 1 .77002 8.34z" fill="#d6323f" data-original="#d6323f" style=""/><circle cx="128" cy="448" fill="#68737f" r="8" data-original="#68737f" style=""/><path d="m108.68652 384h-4.68652v-16h4.68652a19.18424 19.18424 0 0 0 13.65625-5.65674l11.31446 11.31348a35.08124 35.08124 0 0 1 -24.97071 10.34326z" fill="#d4e4f0" data-original="#d4e4f0" style="" class=""/><path d="m16 368h32v16h-32z" fill="#d4e4f0" data-original="#d4e4f0" style="" class=""/><path d="m128 496a48 48 0 1 1 48-48 48.05405 48.05405 0 0 1 -48 48zm0-80a32 32 0 1 0 32 32 32.03635 32.03635 0 0 0 -32-32z" fill="#4f5761" data-original="#4f5761" style=""/></g></g></svg>
