<?xml version="1.0" encoding="iso-8859-1"?>
<!-- Generator: Adobe Illustrator 19.0.0, SVG Export Plug-In . SVG Version: 6.00 Build 0)  -->
<svg version="1.1" id="Capa_1" xmlns="http://www.w3.org/2000/svg" xmlns:xlink="http://www.w3.org/1999/xlink" x="0px" y="0px"
	 viewBox="0 0 512 512" style="enable-background:new 0 0 512 512;" xml:space="preserve">
<path style="fill:#FFA92C;" d="M255.552,64.329c-76.439,0-138.404,64.628-138.404,144.351c0,44.323,19.159,83.972,49.304,110.451
	c0,0,26.438,29.83,26.438,51.564c25.076,0,100.246,0,125.324,0c0-21.731,26.429-51.554,26.437-51.564
	c30.146-26.48,49.306-66.129,49.306-110.452C393.956,128.957,331.989,64.329,255.552,64.329z"/>
<path style="fill:#F2961D;" d="M138.221,208.68c0-76.026,56.351-138.323,127.867-143.938c-80.57-6.326-148.94,60.033-148.94,143.938
	c0,44.323,19.159,83.972,49.304,110.451c0,0,26.438,29.83,26.438,51.564h21.073c0-21.734-26.438-51.564-26.438-51.564
	C157.38,292.652,138.221,253.003,138.221,208.68z"/>
<g>
	<path style="fill:#E2E2E2;" d="M235.514,376.3c-4.221,0-7.642-3.422-7.642-7.642v-25.253l-25.825-37.512
		c-1.786-2.593-1.347-2.57-1.347-25.547c0-4.221,3.422-7.642,7.642-7.642s7.642,3.422,7.642,7.642v18.838l25.825,37.511
		c1.796,2.609,1.347,2.047,1.347,31.963C243.156,372.879,239.734,376.3,235.514,376.3z"/>
	<path style="fill:#E2E2E2;" d="M275.592,376.3c-4.221,0-7.642-3.422-7.642-7.642v-27.629c0-3.187-0.954-0.991,27.172-41.845
		v-18.838c0-4.221,3.422-7.642,7.642-7.642s7.642,3.422,7.642,7.642c0,22.71,0.448,22.939-1.347,25.547l-25.825,37.512v25.253
		C283.234,372.879,279.812,376.3,275.592,376.3z"/>
</g>
<path style="fill:#FF8828;" d="M313.632,268.118c0,6.753-5.474,12.227-12.227,12.227H209.7c-6.753,0-12.227-5.474-12.227-12.227
	v-4.755c0-6.753,5.474-12.227,12.227-12.227h91.705c6.753,0,12.227,5.474,12.227,12.227V268.118z"/>
<path style="fill:#EF701B;" d="M301.405,265.741H209.7c-5,0-9.292-3.004-11.187-7.302c-1.273,2.887-1.04,4.736-1.04,9.679
	c0,6.753,5.474,12.227,12.227,12.227h91.705c6.753,0,12.227-5.474,12.227-12.227c0-4.985,0.226-6.807-1.04-9.679
	C310.697,262.737,306.404,265.741,301.405,265.741z"/>
<g>
	<path style="fill:#FFA92C;" d="M84.817,225.26H49.154c-4.221,0-7.642-3.422-7.642-7.642s3.422-7.642,7.642-7.642h35.663
		c4.22,0,7.642,3.422,7.642,7.642C92.459,221.839,89.037,225.26,84.817,225.26z"/>
	<path style="fill:#FFA92C;" d="M462.846,225.26h-35.663c-4.221,0-7.642-3.422-7.642-7.642s3.422-7.642,7.642-7.642h35.663
		c4.22,0,7.642,3.422,7.642,7.642C470.488,221.839,467.067,225.26,462.846,225.26z"/>
	<path style="fill:#FFA92C;" d="M79.32,328.176c-7.766,0-10.593-10.356-3.828-14.262l30.886-17.832
		c3.655-2.111,8.329-0.859,10.439,2.797c2.111,3.655,0.858,8.329-2.797,10.439C80.802,328.497,82.126,328.176,79.32,328.176z"/>
	<path style="fill:#FFA92C;" d="M406.904,138.142c-7.764,0-10.595-10.356-3.828-14.262l30.885-17.832
		c3.655-2.111,8.328-0.859,10.439,2.797c2.111,3.655,0.858,8.329-2.797,10.439C408.387,138.462,409.71,138.142,406.904,138.142z"/>
	<path style="fill:#FFA92C;" d="M430.642,324.1c-2.802,0-1.463,0.332-34.7-18.857c-3.655-2.11-4.908-6.784-2.797-10.439
		s6.785-4.908,10.439-2.797l30.886,17.832C441.227,313.739,438.414,324.1,430.642,324.1z"/>
	<path style="fill:#FFA92C;" d="M103.058,134.066c-2.802,0-1.462,0.333-34.699-18.857c-3.655-2.11-4.908-6.784-2.797-10.439
		c2.11-3.655,6.785-4.908,10.439-2.797l30.885,17.832C113.644,123.705,110.83,134.066,103.058,134.066z"/>
	<path style="fill:#FFA92C;" d="M344.394,68.245c-3.655-2.11-4.908-6.784-2.797-10.439l17.832-30.885
		c2.111-3.655,6.784-4.908,10.439-2.797c3.655,2.11,4.908,6.784,2.797,10.439l-17.832,30.885
		C352.722,69.104,348.048,70.356,344.394,68.245z"/>
	<path style="fill:#FFA92C;" d="M154.725,65.448l-17.832-30.885c-2.11-3.655-0.858-8.329,2.797-10.439
		c3.655-2.111,8.329-0.858,10.439,2.797l17.832,30.885c2.111,3.655,0.858,8.329-2.797,10.439
		C161.51,70.356,156.836,69.104,154.725,65.448z"/>
	<path style="fill:#FFA92C;" d="M256,45.929c-4.221,0-7.642-3.422-7.642-7.642V7.642C248.358,3.422,251.779,0,256,0
		c4.22,0,7.642,3.422,7.642,7.642v30.645C263.642,42.507,260.22,45.929,256,45.929z"/>
</g>
<g>
	<path style="fill:#585A60;" d="M330.441,393.111c0,6.753-5.475,12.227-12.227,12.227H192.891c-6.752,0-12.227-5.474-12.227-12.227
		v-12.226c0-6.753,5.475-12.227,12.227-12.227h125.323c6.752,0,12.227,5.474,12.227,12.227L330.441,393.111L330.441,393.111z"/>
	<path style="fill:#585A60;" d="M330.441,428.773c0,6.753-5.475,12.227-12.227,12.227H192.891c-6.752,0-12.227-5.474-12.227-12.227
		v-12.226c0-6.753,5.475-12.227,12.227-12.227h125.323c6.752,0,12.227,5.474,12.227,12.227L330.441,428.773L330.441,428.773z"/>
</g>
<path style="fill:#49B5CE;" d="M219.567,474.625c0.362,19.57,16.329,37.363,35.986,37.363s35.623-17.793,35.986-37.363H219.567z"/>
<path style="fill:#4A94CC;" d="M239.946,474.625h-20.379c0.434,23.451,22.918,43.354,46.175,35.716
	C251.032,505.512,240.243,490.669,239.946,474.625z"/>
<path style="fill:#585A60;" d="M330.441,464.435c0,6.752-5.475,12.227-12.227,12.227H192.891c-6.752,0-12.227-5.475-12.227-12.227
	v-12.226c0-6.754,5.475-12.227,12.227-12.227h125.323c6.752,0,12.227,5.474,12.227,12.227L330.441,464.435L330.441,464.435z"/>
<g>
	<path style="fill:#414356;" d="M318.213,459.341H192.891c-5.878,0-10.785-4.15-11.958-9.68c-0.356,1.682-0.27,1.381-0.27,14.774
		c0,6.752,5.475,12.227,12.227,12.227h125.323c6.752,0,12.227-5.475,12.227-12.227c0-13.518,0.081-13.119-0.27-14.774
		C328.998,455.19,324.092,459.341,318.213,459.341z"/>
	<path style="fill:#414356;" d="M318.213,423.679H192.891c-5.878,0-10.785-4.15-11.958-9.68c-0.356,1.682-0.27,1.381-0.27,14.774
		c0,6.752,5.475,12.227,12.227,12.227h125.323c6.752,0,12.227-5.475,12.227-12.227c0-13.517,0.081-13.119-0.27-14.774
		C328.998,419.528,324.092,423.679,318.213,423.679z"/>
	<path style="fill:#414356;" d="M318.213,388.017H192.891c-5.878,0-10.785-4.15-11.958-9.68c-0.356,1.683-0.27,1.381-0.27,14.774
		c0,6.753,5.475,12.227,12.227,12.227h125.323c6.752,0,12.227-5.475,12.227-12.227c0-13.519,0.081-13.119-0.27-14.774
		C328.998,383.867,324.092,388.017,318.213,388.017z"/>
</g>
<g>
</g>
<g>
</g>
<g>
</g>
<g>
</g>
<g>
</g>
<g>
</g>
<g>
</g>
<g>
</g>
<g>
</g>
<g>
</g>
<g>
</g>
<g>
</g>
<g>
</g>
<g>
</g>
<g>
</g>
</svg>
