<?xml version="1.0"?>
<svg xmlns="http://www.w3.org/2000/svg" xmlns:xlink="http://www.w3.org/1999/xlink" xmlns:svgjs="http://svgjs.com/svgjs" version="1.1" width="512" height="512" x="0" y="0" viewBox="0 0 512 512" style="enable-background:new 0 0 512 512" xml:space="preserve" class=""><g><path xmlns="http://www.w3.org/2000/svg" d="m481.001 205v235c0 3.41-1.14 6.55-3.06 9.07l-26.939-43.29v-200.78z" fill="#406cab" data-original="#9ac0f7" style="" class=""/><path xmlns="http://www.w3.org/2000/svg" d="m61.014 205v199.75l-28.009 44.71c-1.27-2.19-1.99-4.74-1.99-7.46v-237z" fill="#c1cedb" data-original="#bcdcfe" style="" class=""/><path xmlns="http://www.w3.org/2000/svg" d="m497 0h-481.984c-8.284 0-15 6.716-15 15v180c0 8.284 6.716 15 15 15h481.984c8.284 0 15-6.716 15-15v-180c0-8.284-6.716-15-15-15z" fill="#e0f4fe" data-original="#e0f4fe" style="" class=""/><path xmlns="http://www.w3.org/2000/svg" d="m512 15v180c0 8.28-6.72 15-15 15h-240.992v-210h240.992c8.28 0 15 6.72 15 15z" fill="#c1cedb" data-original="#bcdcfe" style="" class=""/><path xmlns="http://www.w3.org/2000/svg" d="m30.015 30h451.986v150h-451.986z" fill="#8d9ddb" data-original="#03e6ba" style="" class=""/><path xmlns="http://www.w3.org/2000/svg" d="m256.008 30h225.993v150h-225.993z" fill="#200e76" data-original="#03cdab" style="" class=""/><path xmlns="http://www.w3.org/2000/svg" d="m496.031 512h-480.985c-11.83 0-18.979-13-12.74-22.96l150.995-241c2.74-4.38 7.54-7.04 12.71-7.04h179.994c5.17 0 9.98 2.66 12.72 7.05l149.995 241c6.23 9.97-.95 22.92-12.689 22.95z" fill="#3e5959" data-original="#3e5959" style="" class=""/><path xmlns="http://www.w3.org/2000/svg" d="m496.031 512h-240.023v-271h89.997c5.17 0 9.98 2.66 12.72 7.05l149.995 241c6.23 9.97-.95 22.92-12.689 22.95z" fill="#293939" data-original="#293939" style="" class=""/><path xmlns="http://www.w3.org/2000/svg" d="m271.008 241v59c0 8.28-6.72 15-15 15s-15-6.72-15-15v-59z" fill="#e1e0dc" data-original="#fed941" style="" class=""/><path xmlns="http://www.w3.org/2000/svg" d="m271.008 241v59c0 8.28-6.72 15-15 15v-74z" fill="#d7d3c8" data-original="#fcbe29" style="" class=""/><path xmlns="http://www.w3.org/2000/svg" d="m271.008 450v62h-29.999v-62c0-8.28 6.72-15 15-15 8.279 0 14.999 6.72 14.999 15z" fill="#e1e0dc" data-original="#fed941" style="" class=""/><path xmlns="http://www.w3.org/2000/svg" d="m271.008 450v62h-15v-77c8.28 0 15 6.72 15 15z" fill="#d7d3c8" data-original="#fcbe29" style="" class=""/><path xmlns="http://www.w3.org/2000/svg" d="m256.008 345c-8.284 0-15 6.716-15 15v30c0 8.284 6.716 15 15 15s15-6.716 15-15v-30c0-8.284-6.716-15-15-15z" fill="#e1e0dc" data-original="#fed941" style="" class=""/><path xmlns="http://www.w3.org/2000/svg" d="m271.008 360v30c0 8.28-6.72 15-15 15v-60c8.28 0 15 6.72 15 15z" fill="#d7d3c8" data-original="#fcbe29" style="" class=""/><g xmlns="http://www.w3.org/2000/svg" fill="#e0f4fe"><path d="m236.009 120h-129.996c-8.284 0-15 6.716-15 15s6.716 15 15 15h129.996c8.284 0 15-6.716 15-15s-6.716-15-15-15z" fill="#e0f4fe" data-original="#e0f4fe" style="" class=""/><path d="m236.009 120h-129.996c-8.284 0-15 6.716-15 15s6.716 15 15 15h129.996c8.284 0 15-6.716 15-15s-6.716-15-15-15z" fill="#e0f4fe" data-original="#e0f4fe" style="" class=""/><path d="m276.007 60h-168.994c-8.284 0-15 6.716-15 15s6.716 15 15 15h168.995c8.284 0 15-6.716 15-15s-6.717-15-15.001-15z" fill="#e0f4fe" data-original="#e0f4fe" style="" class=""/></g><path xmlns="http://www.w3.org/2000/svg" d="m291.007 75c0 8.28-6.72 15-15 15h-19.999v-30h19.999c8.28 0 15 6.72 15 15z" fill="#c1cedb" data-original="#bcdcfe" style="" class=""/><path xmlns="http://www.w3.org/2000/svg" d="m419.637 97.601-33.233-33.234c-5.857-5.857-15.355-5.857-21.212 0l-31.819 31.82c-5.858 5.857-5.858 15.355 0 21.213 5.857 5.857 15.355 5.857 21.212 0l6.214-6.214v24.427c0 8.284 6.716 15 15 15s15-6.716 15-15v-24.427l7.628 7.628c5.858 5.858 15.355 5.858 21.212 0 5.856-5.858 5.856-15.356-.002-21.213z" fill="#c1cedb" data-original="#bcdcfe" style="" class=""/></g></svg>
