<?xml version="1.0" encoding="iso-8859-1"?>
<!-- Generator: Adobe Illustrator 19.0.0, SVG Export Plug-In . SVG Version: 6.00 Build 0)  -->
<svg version="1.1" id="Capa_1" xmlns="http://www.w3.org/2000/svg" xmlns:xlink="http://www.w3.org/1999/xlink" x="0px" y="0px"
	 viewBox="0 0 512 512" style="enable-background:new 0 0 512 512;" xml:space="preserve">
<path style="fill:#0078C0;" d="M506.849,396.733H5.152c-2.846,0-5.152-2.307-5.152-5.152V120.42c0-2.846,2.307-5.152,5.152-5.152
	h501.696c2.846,0,5.152,2.307,5.152,5.152v271.16C512.001,394.426,509.694,396.733,506.849,396.733z"/>
<path style="fill:#EFEFEF;" d="M272.586,254.686c-6.813,0-13.272,1.538-19.056,4.275l-24.186-35.17l3.279-15.215
	c0.079-0.369,0.122-0.737,0.147-1.103c5.873-0.731,10.826-5.062,12.19-10.897c1.252-5.356-0.542-11.476-15.284-11.476h-26.208
	c0,0-11.856,0-3.744,8.112c0,0,8.084,7.123,17.996,11.341c-0.081,0.249-0.15,0.505-0.207,0.767l-2.587,12.007l-91.567-5.262
	l0.995-3.639c0.955-3.493-0.643-7.182-3.846-8.873c-10.617-5.607-16.709-9.441-19.754-12.433c-1.753-1.723-1.909-2.456-1.781-3.405
	c3.64-1.495,16.729,0.969,27.821,5.321c3.973,1.559,8.456-0.391,10.019-4.362c1.564-3.971-0.388-8.458-4.36-10.022
	c-6.743-2.655-29.666-10.807-41.415-4.228c-3.879,2.172-6.439,5.771-7.209,10.135c-2.319,13.143,7.7,20.8,23.993,29.728
	l-12.69,46.394c-4.179-1.296-8.618-1.995-13.217-1.995c-24.656,0-44.715,20.059-44.715,44.714s20.059,44.714,44.715,44.714
	c24.655,0,44.714-20.059,44.714-44.714c0-14.407-6.856-27.236-17.469-35.419l3.788-13.85l66.015,44.033
	c-0.406,1.68-0.626,3.432-0.626,5.236c0,11.265,8.39,20.601,19.248,22.103l1.729,6.279c-3.863,0.429-6.867,3.701-6.867,7.678
	c0,4.269,3.46,7.729,7.729,7.729h15.653c4.269,0,7.729-3.46,7.729-7.729s-3.46-7.729-7.729-7.729h-0.497l-2.632-9.555
	c4.044-2.604,7.199-6.472,8.894-11.047h6.962c3.673,20.982,22.013,36.985,44.031,36.985c24.656,0,44.715-20.059,44.715-44.714
	C317.3,274.745,297.241,254.686,272.586,254.686z M111.169,299.4c0,16.132-13.124,29.257-29.257,29.257S52.655,315.532,52.655,299.4
	c0-16.132,13.125-29.257,29.258-29.257c3.189,0,6.257,0.52,9.133,1.468l-4.094,14.969l-11.485,5.959
	c-3.789,1.965-5.266,6.631-3.301,10.419c1.376,2.652,4.073,4.171,6.866,4.171c1.2,0,2.416-0.28,3.553-0.87l14.488-7.517
	c1.914-0.993,3.327-2.741,3.895-4.821l3.569-13.048C108.679,285.922,111.169,292.375,111.169,299.4z M213.83,281.4l10.327-37.87
	l16.746,24.351c-6.322,6.354-10.74,14.595-12.349,23.79h-6.962C220.059,287.532,217.331,283.97,213.83,281.4z M249.896,280.957
	l7.369,10.715h-12.892C245.462,287.701,247.365,284.065,249.896,280.957z M119.189,227.307l91.931,5.283l-12.152,44.56
	c-4.235,0.318-8.142,1.82-11.392,4.179l-70.332-46.913L119.189,227.307z M200.654,292.538c3.784,0,6.862,3.078,6.862,6.862
	c0,2.925-1.843,5.422-4.427,6.407c-0.577,0.024-1.16,0.105-1.74,0.265c-0.188,0.052-0.369,0.117-0.55,0.182
	c-0.049,0.001-0.096,0.007-0.145,0.007c-3.784,0-6.862-3.078-6.862-6.862C193.792,295.616,196.87,292.538,200.654,292.538z
	 M272.586,328.657c-13.457,0-24.814-9.135-28.213-21.528h27.586c2.87,0,5.505-1.591,6.84-4.131c1.336-2.54,1.154-5.612-0.472-7.977
	l-15.865-23.07c3.156-1.168,6.566-1.808,10.124-1.808c16.132,0,29.258,13.124,29.258,29.257
	C301.843,315.532,288.718,328.657,272.586,328.657z"/>
<path style="fill:#006699;" d="M512,120.422v271.158c0,2.844-2.308,5.152-5.152,5.152h-57.057V115.269h57.057
	C509.692,115.269,512,117.578,512,120.422z"/>
<rect x="363.06" y="115.27" style="fill:#EFEFEF;" width="15" height="281.46"/>
<g>
</g>
<g>
</g>
<g>
</g>
<g>
</g>
<g>
</g>
<g>
</g>
<g>
</g>
<g>
</g>
<g>
</g>
<g>
</g>
<g>
</g>
<g>
</g>
<g>
</g>
<g>
</g>
<g>
</g>
</svg>
