<svg id="Capa_1" enable-background="new 0 0 512 512" height="512" viewBox="0 0 512 512" width="512" xmlns="http://www.w3.org/2000/svg"><path d="m353.11 313.105h-194.22c-35.505 0-64.288 28.783-64.288 64.288v70.319c0 35.505 28.783 64.288 64.288 64.288h194.22c35.505 0 64.288-28.783 64.288-64.288v-70.319c0-35.505-28.782-64.288-64.288-64.288z" fill="#544f57"/><path d="m327.482 304.589h-142.964c-26.135 0-47.322 21.187-47.322 47.322v51.761c0 26.135 21.187 47.322 47.322 47.322h142.965c26.135 0 47.322-21.187 47.322-47.322v-51.761c-.001-26.136-21.187-47.322-47.323-47.322z" fill="#665e66"/><path d="m306.608 296.072h-101.216c-18.503 0-33.503 15-33.503 33.503v36.646c0 18.503 15 33.503 33.503 33.503h101.217c18.503 0 33.503-15 33.503-33.503v-36.646c0-18.503-15-33.503-33.504-33.503z" fill="#756e78"/><path d="m294.024 129.576v202.472c0 20.995-17.018 38.024-38.024 38.024s-38.024-17.029-38.024-38.024v-202.472z" fill="#e2dfe2"/><path d="m269.741 367.517c-4.265 1.648-8.891 2.555-13.743 2.555-21.005 0-38.024-17.029-38.024-38.024v-202.472h27.475v202.472c0 16.153 10.075 29.958 24.292 35.469z" fill="#cbcbcb"/><path d="m294.024 129.576v57.494c-11.517 5.501-24.415 8.581-38.024 8.581s-26.507-3.08-38.024-8.581v-57.494z" fill="#cbcbcb"/><circle cx="256" cy="88.428" fill="#6bbcd5" r="88.428"/><path d="m278.688 173.905c-7.242 1.926-14.845 2.946-22.685 2.946-48.841 0-88.431-39.59-88.431-88.42 0-48.841 39.59-88.431 88.431-88.431 7.84 0 15.442 1.02 22.685 2.946-37.849 10.003-65.746 44.483-65.746 85.484-.001 40.992 27.897 75.472 65.746 85.475z" fill="#5798af"/><path d="m304.802 54.986c-4.268 0-7.726 3.459-7.726 7.726v17.989h-17.081v-17.989c0-4.267-3.459-7.726-7.726-7.726s-7.726 3.459-7.726 7.726v17.989h-17.082v-17.989c0-4.267-3.459-7.726-7.726-7.726s-7.726 3.459-7.726 7.726v17.989h-17.081v-17.989c0-4.267-3.459-7.726-7.726-7.726s-7.726 3.459-7.726 7.726v25.716c0 4.267 3.459 7.726 7.726 7.726h24.808v17.989c0 4.267 3.459 7.726 7.726 7.726s7.726-3.459 7.726-7.726v-17.989h17.082v17.989c0 4.267 3.459 7.726 7.726 7.726s7.726-3.459 7.726-7.726v-17.989h17.081v17.989c0 4.267 3.459 7.726 7.726 7.726s7.726-3.459 7.726-7.726v-51.431c-.001-4.267-3.46-7.726-7.727-7.726z" fill="#e2dfe2"/></svg>