<?xml version="1.0" encoding="iso-8859-1"?>
<!-- Generator: Adobe Illustrator 19.0.0, SVG Export Plug-In . SVG Version: 6.00 Build 0)  -->
<svg version="1.1" id="Capa_1" xmlns="http://www.w3.org/2000/svg" xmlns:xlink="http://www.w3.org/1999/xlink" x="0px" y="0px"
	 viewBox="0 0 512 512" style="enable-background:new 0 0 512 512;" xml:space="preserve">
<path style="fill:#5D6D7E;" d="M224.983,26.586h62.029V8.86c0-2.268-0.878-4.549-2.591-6.262C282.67,0.86,280.42,0,278.141,0
	h-44.293c-2.281,0-4.536,0.86-6.267,2.598c-1.731,1.715-2.591,3.994-2.591,6.262v17.725H224.983z"/>
<path style="fill:#34495E;" d="M255.982,19.215C120.115,19.215,9.587,129.728,9.587,265.6c0,135.859,110.528,246.4,246.395,246.4
	c135.88,0,246.431-110.541,246.431-246.403C502.413,129.725,391.862,19.215,255.982,19.215z"/>
<g>
	<path style="fill:#FFFFFF;" d="M255.982,47.882c-120.23,0-217.71,97.462-217.71,217.71s97.48,217.728,217.71,217.728
		c120.253,0,217.723-97.48,217.723-217.728C473.705,145.349,376.238,47.882,255.982,47.882z"/>
	<polygon style="fill:#FFFFFF;" points="336.927,184.668 255.982,248.266 255.982,265.592 273.316,265.592 	"/>
</g>
<g>
	<polygon style="fill:#5D6D7E;" points="336.927,184.668 255.982,265.592 273.316,265.592 	"/>
	<path style="fill:#5D6D7E;" d="M332.856,188.736l-59.858,76.165h-16.323v-16.323L332.856,188.736L332.856,188.736z
		 M336.927,184.668l-80.945,63.598v17.326h17.334L336.927,184.668L336.927,184.668z"/>
</g>
<polygon style="fill:#FFFFFF;" points="175.05,346.542 255.982,282.949 255.982,265.592 238.661,265.592 "/>
<g>
	<polygon style="fill:#5D6D7E;" points="175.05,346.542 255.982,265.592 238.661,265.592 	"/>
	<path style="fill:#5D6D7E;" d="M179.126,342.449l59.871-76.165h16.317v16.287L179.126,342.449L179.126,342.449z M175.05,346.542
		l80.932-63.598v-17.357h-17.321L175.05,346.542L175.05,346.542z"/>
</g>
<polygon style="fill:#FFFFFF;" points="336.927,346.542 273.316,265.592 255.982,265.592 255.982,282.949 "/>
<g>
	<polygon style="fill:#5D6D7E;" points="336.927,346.542 255.982,265.592 255.982,282.949 	"/>
	<path style="fill:#5D6D7E;" d="M332.856,342.449l-76.18-59.876v-16.287h16.31L332.856,342.449L332.856,342.449z M336.927,346.542
		l-63.611-80.95h-17.334v17.357L336.927,346.542L336.927,346.542z"/>
</g>
<polygon style="fill:#FFFFFF;" points="175.05,184.668 238.661,265.592 255.982,265.592 255.982,248.22 "/>
<g>
	<polygon style="fill:#5D6D7E;" points="175.05,184.668 255.982,265.592 255.982,248.22 	"/>
	<path style="fill:#5D6D7E;" d="M179.144,188.718l76.165,59.858v16.323h-16.317L179.144,188.718L179.144,188.718z M175.05,184.668
		l63.611,80.927h17.321v-17.372L175.05,184.668L175.05,184.668z"/>
</g>
<polygon style="fill:#FFFFFF;" points="255.982,115.699 239.949,249.541 255.982,265.592 272.064,249.541 "/>
<g>
	<polygon style="fill:#5D6D7E;" points="255.982,115.699 255.982,265.592 272.064,249.541 	"/>
	<path style="fill:#5D6D7E;" d="M255.982,123.238l15.122,125.967l-15.122,15.104l-15.094-15.104L255.982,123.238L255.982,123.238z
		 M255.982,115.699l-16.033,133.837l16.033,16.051l16.079-16.051L255.982,115.699L255.982,115.699z"/>
</g>
<polygon style="fill:#FFFFFF;" points="255.982,415.491 272.064,281.644 255.982,265.592 239.949,281.644 "/>
<g>
	<polygon style="fill:#5D6D7E;" points="255.982,415.491 255.982,265.592 239.949,281.644 	"/>
	<path style="fill:#5D6D7E;" d="M255.982,407.913l-15.094-125.929l15.094-15.122l15.122,15.104L255.982,407.913L255.982,407.913z
		 M255.982,415.491l16.079-133.842l-16.079-16.051l-16.033,16.051L255.982,415.491L255.982,415.491z"/>
</g>
<polygon style="fill:#FFFFFF;" points="405.875,265.592 272.064,249.541 255.982,265.592 272.064,281.644 "/>
<g>
	<polygon style="fill:#5D6D7E;" points="405.875,265.592 255.982,265.592 272.064,281.644 	"/>
	<path style="fill:#5D6D7E;" d="M398.331,265.592l-125.975,15.112l-15.104-15.112l15.104-15.104L398.331,265.592L398.331,265.592z
		 M405.875,265.592l-133.811-16.051l-16.079,16.051l16.079,16.051L405.875,265.592L405.875,265.592z"/>
</g>
<polygon style="fill:#FFFFFF;" points="106.092,265.592 239.949,281.644 255.982,265.592 239.949,249.541 "/>
<g>
	<polygon style="fill:#5D6D7E;" points="106.092,265.592 255.982,265.592 239.949,249.541 	"/>
	<path style="fill:#5D6D7E;" d="M113.646,265.592l125.957-15.104l15.112,15.104l-15.112,15.112L113.646,265.592L113.646,265.592z
		 M106.092,265.592l133.857,16.051l16.033-16.051l-16.033-16.051L106.092,265.592L106.092,265.592z"/>
	<path style="fill:#5D6D7E;" d="M255.982,184.668c-44.69,0-80.932,36.224-80.932,80.927c0,44.708,36.242,80.95,80.932,80.95
		c44.703,0,80.942-36.242,80.942-80.95C336.927,220.89,300.685,184.668,255.982,184.668L255.982,184.668z"/>
</g>
<path style="fill:#FFFFFF;" d="M255.982,190.318c41.498,0,75.274,33.754,75.274,75.274c0,41.487-33.777,75.269-75.274,75.269
	c-41.487,0-75.241-33.782-75.241-75.269C180.741,224.072,214.495,190.318,255.982,190.318L255.982,190.318z"/>
<g>
	<path style="fill:#5D6D7E;" d="M255.982,484.895c-120.924,0-219.274-98.391-219.274-219.302
		c0-120.906,98.355-219.292,219.274-219.292s219.31,98.386,219.31,219.292C475.292,386.504,376.901,484.895,255.982,484.895z
		 M255.982,55.437c-28.357,0-55.877,5.558-81.774,16.53c-25.009,10.573-47.478,25.718-66.813,45.038
		c-19.3,19.295-34.445,41.769-45.02,66.796c-10.954,25.915-16.53,53.422-16.53,81.792c0,28.375,5.576,55.877,16.53,81.792
		c10.573,25.021,25.718,47.496,45.02,66.808c19.318,19.3,41.769,34.435,66.813,45.015c25.882,10.967,53.399,16.525,81.774,16.525
		c28.403,0,55.916-5.558,81.792-16.525c25.037-10.58,47.524-25.713,66.813-45.015c19.313-19.313,34.463-41.81,45.038-66.808
		c10.944-25.915,16.512-53.435,16.512-81.792c0-28.344-5.571-55.859-16.512-81.792c-10.573-25.009-25.725-47.501-45.038-66.78
		c-19.323-19.318-41.787-34.481-66.813-45.053C311.869,60.995,284.375,55.437,255.982,55.437z"/>
	<rect x="253.952" y="53.422" style="fill:#5D6D7E;" width="4.076" height="13.112"/>
	
		<rect x="202.819" y="59.898" transform="matrix(-0.9684 0.2492 -0.2492 -0.9684 419.8026 79.7596)" style="fill:#5D6D7E;" width="4.068" height="13.112"/>
	
		<rect x="154.905" y="78.822" transform="matrix(-0.8765 0.4814 -0.4814 -0.8765 335.5815 84.6897)" style="fill:#5D6D7E;" width="4.045" height="13.135"/>
	
		<rect x="113.202" y="109.138" transform="matrix(-0.7279 0.6857 -0.6857 -0.7279 278.4503 120.8843)" style="fill:#5D6D7E;" width="4.076" height="13.107"/>
	
		<rect x="80.349" y="148.857" transform="matrix(-0.5397 0.8418 -0.8418 -0.5397 257.6854 169.9505)" style="fill:#5D6D7E;" width="4.068" height="13.124"/>
	
		<rect x="58.438" y="195.51" transform="matrix(-0.3097 0.9508 -0.9508 -0.3097 271.3157 207.1681)" style="fill:#5D6D7E;" width="4.04" height="13.12"/>
	<polygon style="fill:#5D6D7E;" points="57.216,255.135 57.475,251.095 44.38,250.268 44.096,254.331 	"/>
	<polygon style="fill:#5D6D7E;" points="60.846,304.916 60.101,300.897 47.219,303.357 47.956,307.356 	"/>
	
		<rect x="63.396" y="351.102" transform="matrix(-0.9057 0.4239 -0.4239 -0.9057 283.0157 643.3369)" style="fill:#5D6D7E;" width="13.12" height="4.086"/>
	
		<rect x="91.056" y="394.675" transform="matrix(-0.7736 0.6337 -0.6337 -0.7736 424.536 641.7527)" style="fill:#5D6D7E;" width="13.13" height="4.086"/>
	<polygon style="fill:#5D6D7E;" points="140.657,427.871 137.357,425.428 129.651,436.073 132.951,438.474 	"/>
	<polygon style="fill:#5D6D7E;" points="184.632,451.453 180.841,449.912 175.992,462.139 179.802,463.634 	"/>
	
		<rect x="223.696" y="467.578" transform="matrix(-0.1272 0.9919 -0.9919 -0.1272 725.3358 300.973)" style="fill:#5D6D7E;" width="13.102" height="4.076"/>
	
		<rect x="279.708" y="463.083" transform="matrix(-0.9925 0.1223 -0.1223 -0.9925 618.8356 901.3014)" style="fill:#5D6D7E;" width="4.099" height="13.12"/>
	<polygon style="fill:#5D6D7E;" points="331.2,449.912 327.391,451.438 332.193,463.616 336.003,462.121 	"/>
	
		<rect x="374.77" y="425.342" transform="matrix(-0.811 0.585 -0.585 -0.811 935.1105 561.7349)" style="fill:#5D6D7E;" width="4.114" height="13.12"/>
	
		<rect x="412.44" y="390.135" transform="matrix(-0.637 0.7709 -0.7709 -0.637 984.3317 329.8485)" style="fill:#5D6D7E;" width="4.122" height="13.115"/>
	<polygon style="fill:#5D6D7E;" points="437.02,348.503 435.241,352.21 447.109,357.773 448.858,354.061 	"/>
	<polygon style="fill:#5D6D7E;" points="451.935,300.874 451.159,304.916 464.02,307.356 464.809,303.334 	"/>
	
		<rect x="454.668" y="250.6" transform="matrix(-0.9982 0.0604 -0.0604 -0.9982 936.8792 476.9892)" style="fill:#5D6D7E;" width="13.125" height="4.109"/>
	<polygon style="fill:#5D6D7E;" points="444.685,202.12 445.937,206.024 458.45,201.966 457.157,198.07 	"/>
	
		<rect x="423.05" y="153.426" transform="matrix(-0.8462 0.5328 -0.5328 -0.8462 875.9924 58.1217)" style="fill:#5D6D7E;" width="13.12" height="4.081"/>
	
		<rect x="390.183" y="113.666" transform="matrix(-0.6904 0.7234 -0.7234 -0.6904 754.3741 -91.4043)" style="fill:#5D6D7E;" width="13.125" height="4.098"/>
	<polygon style="fill:#5D6D7E;" points="350.108,90.143 353.682,92.145 359.995,80.666 356.429,78.682 	"/>
	
		<rect x="300.599" y="64.421" transform="matrix(-0.2516 0.9678 -0.9678 -0.2516 448.7668 -214.0765)" style="fill:#5D6D7E;" width="13.107" height="4.098"/>
</g>
<polygon style="fill:#80DCFF;" points="236.467,246.085 255.982,265.592 369.789,151.79 369.825,151.734 "/>
<polygon style="fill:#52BFEB;" points="275.525,285.094 256.018,265.559 369.825,151.734 369.876,151.698 "/>
<polygon style="fill:#FF7059;" points="236.503,246.085 256.018,265.574 142.205,379.405 142.152,379.423 "/>
<polygon style="fill:#E64732;" points="275.492,285.14 255.972,265.61 142.152,379.423 142.124,379.474 "/>
<g>
</g>
<g>
</g>
<g>
</g>
<g>
</g>
<g>
</g>
<g>
</g>
<g>
</g>
<g>
</g>
<g>
</g>
<g>
</g>
<g>
</g>
<g>
</g>
<g>
</g>
<g>
</g>
<g>
</g>
</svg>
