<svg viewBox="0 0 574.59 801.46" xmlns="http://www.w3.org/2000/svg"><path d="m559.5 800.3s-528.75-3.12-547 .45c0 0 7.34-338.1 35.47-435.37 15.74-54.45 52.33-86.49 91.94-105.25 7.06-3.35 14.23-6.3 21.38-8.87a288.77 288.77 0 0 1 46.13-12.09 341.42 341.42 0 0 1 54.8-5.22h.6c6.87-.11 12 .09 14.85.21h.5l2 .13c1.16-.08 2.35-.17 3.6-.21h2c1.07 0 2.12 0 3.19-.09s2.15 0 3.21 0a327.56 327.56 0 0 1 65.28 7.25l2.83.62a320.71 320.71 0 0 1 45.78 13.55 249.54 249.54 0 0 1 27.29 12.09c2.65 1.36 5.24 2.77 7.83 4.21 1.49.88 3 1.71 4.47 2.61s3.21 1.95 4.79 2.94a191 191 0 0 1 23.13 17.1c1.39 1.25 2.8 2.49 4.14 3.74 1.6 1.48 3.15 3 4.67 4.51 18.45 18.39 32.46 41.39 38.89 69.85 18.7 82.89 35.62 332.6 38.23 427.84z" fill="#a7a9ac"/><path d="m226.31 493.94s12.8-114.8 87.74-110.61c0 0 43.06.24 52.74 18.07l17.93-196.29-201.1 9.29s17.08 250.83 42.69 279.54z" fill="#231f20"/><path d="m189 278.79s71.11 26.21 95.47 29.41c0 0 60.33-13.55 94.32-40.1l8.34-71.19-199.73-1.69z" opacity=".3"/><path d="m451.27 387.86c-.07 1.95-.28 4.27-.64 6.89-.69 5.11-1.9 11.33-3.38 18.07-.59 2.61-1.21 5.29-1.86 8-.7 3-1.45 6-2.21 8.94-5.77 22.72-12.62 45.4-13.37 47.85l-.06.22c-1.27 3.31-2.44 6.66-3.54 10-1.17 3.66-2.26 7.34-3.24 11-1.29 4.7-2.41 9.37-3.41 13.94-.31 1.46-.62 2.9-.91 4.34s-.56 2.8-.81 4.17c-1.66 8.74-2.85 16.91-3.69 24-.15 1.17-.27 2.3-.4 3.4-.35 3.15-.62 6-.84 8.62v.3c-.16 1.94-.3 3.7-.4 5.25v.46s0 .18 0 .25c-.06 1-.12 1.95-.16 2.76 0 .38 0 .71-.06 1-.12 2.08-.14 3.23-.14 3.23-.29.69-.56 1.39-.85 2.1-.79 2-1.57 4.13-2.36 6.34-1.56 4.43-3.1 9.25-4.59 14.37-5.57 19-10.64 42-14.93 64.38-2 10.18-3.76 20.23-5.38 29.71-3.41 20-6 37.41-7.48 48-1 6.87-1.49 10.88-1.49 10.88 7.69 15.86-173.5-3.14-173.5-3.14-.15-5.81-.41-11.69-.8-17.59-.19-3.14-.43-6.29-.69-9.45-.18-2.4-.4-4.8-.63-7.21-.19-2-.39-4.1-.62-6.16-.61-5.87-1.31-11.75-2.08-17.59q-.88-6.71-1.89-13.33-.45-3-.91-5.88-.42-2.7-.87-5.37l-.42-2.59c-3.71-22-8.14-43.09-12.51-61.73q-1.71-7.26-3.37-14-1.19-4.8-2.34-9.3-1-4-2-7.67c-.08-.29-.15-.58-.23-.87-1.22-4.67-2.4-9-3.49-13-2.94-10.72-5.3-18.75-6.58-23.19-.28-.94-.5-1.71-.68-2.32a14.73 14.73 0 0 1 -.4-1.62c0-.42-1.47-6.84-3.78-16.6-8.14-34.45-26.58-110.51-26.58-110.51 1.85-.79 6.27-4 12.4-7.36l1.37-.73c1.43-.75 2.93-1.5 4.5-2.22a68.26 68.26 0 0 1 10.82-4 52.73 52.73 0 0 1 7-1.41 44.65 44.65 0 0 1 9.9-.28 114.23 114.23 0 0 0 23.28-.57c1.49-.19 3-.4 4.46-.65 17.33-2.84 34.83-9.75 43.29-22.63 7.72-11.78 8-34 6.81-50.49-.16-2.23-.34-4.35-.53-6.34-.17-1.77-.35-3.43-.54-4.94-.67-5.83-1.32-9.54-1.32-9.54 3.83-8.94 10.07-13.93 17.17-16.32 6.67-2.24 14.11-2.17 21-.92 2 .35 3.9.8 5.76 1.32a58.84 58.84 0 0 1 11.48 4.51c4.9 2.53 8 5.23 7.8 6.82 0 0-1 6.18-1.77 15.11-.1 1-.2 2.15-.27 3.27-.37 4.3-.65 9.07-.78 14-.38 15 .68 31.55 6 41 6.65 11.85 24.35 18.06 45 21.17 1.82.28 3.68.53 5.56.75a324.6 324.6 0 0 0 37.53 2.1h2.34c2.42 0 4.69 0 6.85.11 4.46.17 8.38.48 11.82.89a85.19 85.19 0 0 1 11.94 2.22c8.34 2.26 11.17 5 11.67 5.53z" fill="#976650"/><path d="m315.32 281.62a288.19 288.19 0 0 0 -2.81 32.38 127.57 127.57 0 0 1 -58-7c-.83-11.88-2.39-20.82-2.39-20.82 7.44-17.35 23.92-19.82 38.21-17.24l17.24 5.83c4.85 2.57 7.9 5.23 7.75 6.85z" opacity=".2"/><path d="m380.67 170.25c-.26.41-.5.8-.71 1.18-.54 2.73-.93 4.27-.93 4.27-.56-.73-.13-2.35.93-4.27 4.56-23.16 19.82-133-102-130.42-17.55.36-64.5 0-82.52 47.43s-5.22 133.27-5.22 133.27 40.79 82 93.44 83.47c50.53 1.37 91.34-80.18 91.34-89.91 3.79-24.02 4.37-29.57 5.67-45.02z" fill="#976650"/><path d="m379 175.7s.39-1.54.93-4.27c-1.03 1.92-1.46 3.57-.93 4.27z" fill="#976650"/><path d="m279.89 178.55s3.49 14.63-8.6 22.31c0 0-8.2 1.17-6.47 7.36 2.22 8 15.32 10.33 23.61 6.38 0 0-19.93-1.4-13.88-11.38 0 0 12.65-5.71 5.34-24.67z" fill="#530000" opacity=".2"/><path d="m367.64 144.4s-7.58-6.16-14.7-8.54-36.52.48-43.16 0c0 0-7.11 11.87 0 12.81 0 0 24.58-6.77 39.36-6.88z" fill="#3c2415"/><path d="m194.32 144.4s7.59-6.16 14.7-8.54 36.59-1.05 43.16 0c2.11.34 7.12 11.87 0 12.81 0 0-24.58-6.77-39.36-6.88z" fill="#3c2415"/><path d="m281.09 589a324.14 324.14 0 0 1 -36.69 12c-1.75.44-3.47.85-5.18 1.22-1 .21-1.9.42-2.83.59-1.93.41-3.85.77-5.71 1.07-23.53 4-41.44 1.14-53.79-10.21a39.82 39.82 0 0 1 -3.79-4c-.84-1-1.63-2-2.39-3.05-1-1.36-1.9-2.81-2.77-4.33-.24-.41-.49-.86-.72-1.29-.63-1.12-1.19-2.27-1.77-3.49-.32-.7-.64-1.42-.94-2.14-.87-2.09-1.7-4.27-2.41-6.59-.36-1.06-.69-2.15-1-3.24-4.91-17.55-1-34.94 5.9-49.86a123.78 123.78 0 0 1 8.5-15.34s0 0 0-.06c.47-.76 1-1.48 1.46-2.23l.09-.15c.51-.74 1-1.49 1.54-2.21v-.1c1.41-2 2.8-3.87 4.18-5.66a146.9 146.9 0 0 1 16.23-17.93c-1.25 18.12 7.25 37 19.2 54.18 2.13 3.07 4.37 6.07 6.68 9a3.47 3.47 0 0 0 .3.37c1.48 1.88 3 3.73 4.54 5.56 23.28 27.61 51.37 47.89 51.37 47.89z" fill="#f7b21e"/><path d="m427 553.89a65.5 65.5 0 0 1 -.54 8s0 0 0 0c-.18 1.52-.42 2.87-.65 4a32.08 32.08 0 0 1 -1.11 4.09c-.31.55-.58 1.09-.91 1.63-.66 1.18-1.34 2.31-2.05 3.39a70 70 0 0 1 -4.26 6 55.47 55.47 0 0 1 -31.12 20.14 62.09 62.09 0 0 1 -11.27 1.67c-.71.07-1.46.1-2.18.11-2.16.07-4.31 0-6.43 0-.47 0-.95-.07-1.42-.08-3-.21-5.94-.55-8.82-1-22.92-3.69-41.57-14.79-41.57-14.79a86.23 86.23 0 0 0 36.72-25.24c1-1.18 2-2.37 3-3.6a126 126 0 0 0 18.61-33.3c.63-1.57 1.2-3.13 1.73-4.66.25-.68.49-1.37.73-2 .6-1.83 1.17-3.61 1.7-5.37.19-.61.36-1.19.53-1.78 1-3.5 1.88-6.88 2.62-10.08a173 173 0 0 0 4.36-29c36.12 33.73 42.51 64.16 42.33 81.87z" fill="#f7b21e"/><path d="m279.89 786.28s9.49-5.07 15.82-3.8c0 0-1.26 7.59-15.82 3.8z" fill="#530000" opacity=".2"/><path d="m236.31 238.06 47.87 2.44 48.45-5.14s-10.75 26.8-49 27c-25.07.17-38.56-15.53-47.32-24.3z" fill="#fff"/><path d="m236.31 238.06 11.93-2.7v15.79z" fill="#231f20"/><path d="m332.63 235.36-13.38.46.6 17.44z" fill="#231f20"/><path d="m283.66 271c9.54.12 14.52-.69 22.5-3.56 14.68-5.29 26.47-32.12 26.47-32.12s-18.24 22-37.58 22.6c-4.74.16-24.9.53-24.9.53s-16.54-3.63-33.84-20.43c0 0 11.81 22.59 23.64 28.28 12.63 6.11 18.84 4.7 23.71 4.7z" fill="#976650"/><path d="m332.63 235.36s-21.22-5.8-28.8-6-12.17 3.66-19.33 3.75c-6.54.1-8.84-3.59-17.73-3.74s-30.46 8.64-30.46 8.64 35.34 4.27 47.39 4.16c0 .05 29.01-.49 48.93-6.81z" fill="#976650"/><path d="m309.35 178.55a33.44 33.44 0 0 1 26.79-19.46c20.12-2.36 26.2 7.76 26.2 7.76s-4.18 20.71-26 22.61c0 0-16.41 1.79-26.99-10.91z" fill="#fff"/><path d="m350.12 173.08a14 14 0 1 1 -14-14 14 14 0 0 1 14 14z" fill="#3c2415"/><path d="m309.35 178.55s13.15-29.24 47.89-11.7c0 0 .29 13.51-5.07 16.69 0 0 8.73-4.14 11.48-17.77 0 0-6.47-12.93-29.8-10.74-20.62 1.97-24.5 23.52-24.5 23.52z" fill="#231f20"/><path d="m344.64 173.08a8.51 8.51 0 1 1 -8.5-8.5 8.51 8.51 0 0 1 8.5 8.5z"/><g fill="#fff"><path d="m347.12 176.91c0 4.86-4.92 8.79-11 8.79s-11-3.93-11-8.79 4.92-8.79 11-8.79 11 3.93 11 8.79z" opacity=".2"/><path d="m354.76 168.87s-8.54 4.71-15.18 5c0 0-.95 6.42 2.84 5.47s11.42-3.06 12.34-10.47z" opacity=".8"/><path d="m340.92 169.71c1.28 2.28 2.08 1.06 4.39.58 1.24-.27-1.32-5.27-2.77-5.49a.34.34 0 0 1 .24.07c-2.36.34-2.95 2.91-1.86 4.84z" opacity=".8"/><path d="m253.19 178.55a33.43 33.43 0 0 0 -26.78-19.46c-20.13-2.36-26.21 7.76-26.21 7.76s4.18 20.71 26 22.61c0 0 16.4 1.79 26.99-10.91z"/></g><path d="m212.05 173.08a14 14 0 1 0 14-14 14 14 0 0 0 -14 14z" fill="#3c2415"/><path d="m217.53 173.08a8.51 8.51 0 1 0 8.51-8.5 8.52 8.52 0 0 0 -8.51 8.5z"/><path d="m215.06 176.91c0 4.86 4.91 8.79 11 8.79s11-3.93 11-8.79-4.91-8.79-11-8.79-11 3.93-11 8.79z" fill="#fff" opacity=".2"/><path d="m245.61 173s-9.38 2.68-15.91 1.43c0 0-2.36 6 1.55 6s11.81-.43 14.36-7.43z" fill="#fff" opacity=".8"/><path d="m231.32 171.27c.74 2.51 1.79 1.51 4.15 1.55 1.27 0-.09-5.43-1.47-6a.5.5 0 0 1 .22.13c-2.37-.17-3.53 2.22-2.9 4.32z" fill="#fff" opacity=".8"/><path d="m253.19 178.55s-13.15-29.24-47.9-11.7c0 0-.27 13.51 5.08 16.69 0 0-8.74-4.14-11.48-17.77 0 0 6.47-12.93 29.8-10.74 20.62 1.97 24.5 23.52 24.5 23.52z" fill="#231f20"/><path d="m276.4 585.42h42.55v3.96l-42.55 1.37z" fill="#231f20"/><g fill="#231f20" opacity=".7"><path d="m404.85 534.42c-3.83 2.92-13.72-4.63-16.73-9.22 2 4.66 1.42 12.61.18 16.89-5.32-1-3.63-13.81-3.63-18-.59 5.31-6 12.43-11.63 13.92-2.06-4.68 6.09-13.62 10.19-15.7-3.33 1.32-5.4 2.67-9.2 2.61-.32 0-.66 0-1 0 .63-1.57 1.2-3.13 1.73-4.66a91.38 91.38 0 0 1 9.75 1.56 60.53 60.53 0 0 1 -9-3.61c.6-1.83 1.17-3.61 1.7-5.37 1.51.91 3 1.85 4.23 2.79a33.3 33.3 0 0 1 -3.7-4.57c1-3.5 1.88-6.88 2.62-10.08a19 19 0 0 1 3.07 4.22 36.3 36.3 0 0 1 3.15 9.46c-1-7.06.58-16.52 4.14-21.32 2.23 4.26 1.5 9 1 13.6a77.51 77.51 0 0 1 -1.12 8.86c3.5-5 10.45-10.13 14.85-9.46-1.14 4.7-10.74 14.07-15.6 15a34.91 34.91 0 0 1 15 13.08z"/><path d="m427 553.89a65.5 65.5 0 0 1 -.54 8s0 0 0 0a12.76 12.76 0 0 1 -4.31 2.06 33.78 33.78 0 0 1 3.66 1.94 32.08 32.08 0 0 1 -1.11 4.09c-.31.55-.58 1.09-.91 1.63a20.9 20.9 0 0 1 -3.26-3.66 19.83 19.83 0 0 1 1.21 7.07 70 70 0 0 1 -4.26 6c-1.29-4.38-.5-11.43-.5-14.32-.57 5.31-5.95 12.4-11.63 13.92-2.06-4.7 6.09-13.62 10.19-15.72-3.34 1.34-5.41 2.69-9.2 2.62a50 50 0 0 1 -10-1.34c5.24-5.54 14.23-2.92 20.53-1.8-3.34-.79-23.07-8.87-18.53-13.13 1.55-1.45 10.09 3.08 15.41 6.91a28 28 0 0 1 -5.54-8c-1.1-2.66-3-10.42-1.22-12.25 3.2 3.41 6.58 5.65 8.8 9.84a39.14 39.14 0 0 1 3.17 9.44c-1-7 .54-16.5 4.1-21.29 2.24 4.25 1.49 9 1 13.6a79.19 79.19 0 0 1 -1.14 8.88 27.35 27.35 0 0 1 4.08-4.49z"/><path d="m374.06 593.25a48.48 48.48 0 0 1 12.32 8 62.09 62.09 0 0 1 -11.27 1.67 27.94 27.94 0 0 1 -3.41-4.07 19.65 19.65 0 0 1 1.23 4.18c-2.16.07-4.31 0-6.43 0 .1-2.34.23-4.38.23-5.73a19.08 19.08 0 0 1 -1.65 5.65c-3-.21-5.94-.55-8.82-1a33.3 33.3 0 0 1 8.42-7.19c-4.76 1.92-7.72 3.83-13.13 3.76a71.46 71.46 0 0 1 -14.31-1.92c7.46-7.9 20.26-4.15 29.26-2.56-4.76-1.14-32.9-12.67-26.43-18.74 2.22-2.08 14.44 4.42 22 9.88a38.65 38.65 0 0 1 -7.9-11.42 44.3 44.3 0 0 1 -2.78-11.84c1-1.18 2-2.37 3-3.6 3.93 3.83 7.84 6.93 10.55 12a54.13 54.13 0 0 1 4.44 13.2c-1.32-10 .88-23.34 6-30.12 3.18 6.09 2.12 12.84 1.39 19.4a112.94 112.94 0 0 1 -1.57 12.62c5-7.1 14.89-14.44 21.15-13.47-1.66 6.62-15.35 19.97-22.29 21.3z"/><path d="m241.53 599.51a27.65 27.65 0 0 1 2.87 1.49c-1.75.44-3.47.85-5.18 1.22a5.13 5.13 0 0 1 .61 1.19 6.14 6.14 0 0 1 -.65-1.18c-1 .21-1.9.42-2.83.59a3.86 3.86 0 0 0 0-.47c0 .17 0 .32-.07.5-1.93.41-3.85.77-5.71 1.07a19.5 19.5 0 0 1 4.34-3.37c-3.34 1.32-5.4 2.67-9.2 2.61a48.43 48.43 0 0 1 -10-1.32c5.21-5.54 14.2-2.94 20.52-1.83-3.35-.77-23.08-8.85-18.53-13.12 1.54-1.45 10.09 3.09 15.4 6.92a27.51 27.51 0 0 1 -5.52-8c-1.12-2.66-3-10.44-1.23-12.28 3.19 3.43 6.58 5.68 8.79 9.84a36.86 36.86 0 0 1 3.14 9.47c-1-7.05.57-16.5 4.13-21.33 2.25 4.27 1.51 9 1 13.61a78.41 78.41 0 0 1 -1.08 8.82c3.51-5 10.44-10.09 14.82-9.43-1.15 4.7-10.76 14.07-15.62 15z"/><path d="m246.24 561.47c-5.79 3.93-20.71-6.22-25.29-12.45 3 6.36 2.09 17.08.17 22.83-8-1.37-5.48-18.71-5.48-24.34-.89 7.19-9 16.83-17.66 18.88-3.15-6.38 9.25-18.49 15.47-21.32-5.06 1.81-8.22 3.64-14 3.56a83 83 0 0 1 -15.21-1.82c8-7.55 21.68-3.93 31.26-2.42-4.66-.88-35.2-12-28.26-17.84 2.35-2 15.33 4.17 23.41 9.37a37.16 37.16 0 0 1 -8.38-10.82c-1.72-3.6-4.62-14.15-1.88-16.64 4.85 4.65 10 7.7 13.33 13.36a48.39 48.39 0 0 1 4.79 12.73 39.72 39.72 0 0 1 -.37-8.38c2.13 3.07 4.37 6.07 6.68 9a9.09 9.09 0 0 1 -.25 1l.55-.66c1.48 1.88 3 3.73 4.54 5.56a19.86 19.86 0 0 1 -6.22 2.6 51.48 51.48 0 0 1 22.8 17.8z"/><path d="m190.71 589.43c-3.32 2.45-11.94-3.9-14.55-7.78 1.44 3.25 1.35 8.33.64 12a39.82 39.82 0 0 1 -3.79-4c-.27-3.33.13-7.13.13-9a13.17 13.17 0 0 1 -2.52 5.9c-1-1.36-1.9-2.81-2.77-4.33a17.18 17.18 0 0 1 4-3.09c-1.8.68-3.16 1.38-4.74 1.8-.63-1.12-1.19-2.27-1.77-3.49 2.6.23 5.17.82 7.38 1.2a61.47 61.47 0 0 1 -8.32-3.34c-.87-2.09-1.7-4.27-2.41-6.59a56.76 56.76 0 0 1 8.29 4.75 23.05 23.05 0 0 1 -4.84-6.76c-1-2.23-2.66-8.8-1.09-10.35 2.8 2.9 5.74 4.79 7.67 8.3a31.13 31.13 0 0 1 2.73 7.84c-.81-6 .54-13.81 3.63-17.84 1.95 3.61 1.31 7.59.85 11.48a61 61 0 0 1 -1 7.49c3-4.2 9.1-8.56 13-8-1 4-9.37 11.88-13.62 12.65a30 30 0 0 1 13.1 11.16z"/><path d="m196.32 513.08c-3.79 2.88-13.52-4.5-16.61-9.11 1.93 4.69 1.33 12.53.07 16.77-5.29-1-3.6-13.81-3.6-18-.51 4.56-4.54 10.42-9.26 12.94a123.78 123.78 0 0 1 8.5-15.34 4.46 4.46 0 0 0 .59.09c-.16 0-.34-.08-.55-.15.47-.76 1-1.48 1.46-2.23l.09-.15c.51-.74 1-1.49 1.54-2.21a21.79 21.79 0 0 1 -.47-2.43c.19.78.36 1.55.52 2.33 1.41-2 2.8-3.87 4.18-5.66-.15 1.46-.38 3-.68 4.47 3.49-5 10.43-10.13 14.83-9.45-1.15 4.71-10.76 14.07-15.61 15a34.51 34.51 0 0 1 15 13.13z"/></g><path d="m83.7 753.11s28.8.43 46.58 9.46c0 0 27.24 2.84 33.86-4.74 0 0 4.74-11.35 0-19.87 0 0-51.25-3.57-63-7.46a32.87 32.87 0 0 0 -21.22 0s-2.01 22.33 3.78 22.61z" fill="#4da825"/><path d="m504.23 659.43-12.53-9 11.53-12.49-5.73-5.72 7.05-7s-15-19-30.46-38.69c-.08-.1-35.27-41.73-35.35-41.85l23.63 7.44 56.47 72.26 1.18 6.52z" opacity=".2"/><path d="m451.32 386.12v.38l-.11 1.26-.55 7-1.26 16-.54 6.73-.58 7.35-3 37.74-.58 7.3-.67 8.47-4.72 59.55-.53 6.77-.62 7.71-1.37 17.23-.52 6.66-.78 9.78-.28 3.62s-.37 2.94-1 7.88c-.14 1.11-.28 2.3-.45 3.61q-.37 3-.82 6.68c-.35 2.89-.75 6-1.16 9.33-1.77 14.37-4 32.16-6 47.66-2 15.21-3.67 28.23-4.51 33.68-.12.8-.22 1.42-.31 1.89-.36 2-.27 9 .12 18.86.79 20.37-264 42.25-264 42.25l.47-3.88 1.08-8.85.92-7.68.41-3.45 2.27-18.73 1.31-10.92-.43-5.16-.51-6.27-.18-2.25-.29-3.51-2.13-26.17-3.94-48.22v-.18-.33l-.94-11.42-.32-3.92-.34-2.54-.42-3.27-1.44-11-1-7.41-1.06-8.09-3.9-29.68-.06-.53-.7-5.36-1.61-12.28-17.57-133.93a22.17 22.17 0 0 1 6.33-4.63 40.38 40.38 0 0 1 14.97-4.31c1.22-.14 2.48-.23 3.81-.28a4.75 4.75 0 0 1 2.72 1.07 40.84 40.84 0 0 1 5.22 4.73c3.17 3.19 6.54 6.56 9.49 6.86 0 0 10.21 19.08 37.17 34.54 1.57.9 3.19 1.79 4.86 2.65a141.55 141.55 0 0 0 30.2 11.4 178.89 178.89 0 0 0 39.19 5.3c1.34 0 2.69.08 4.05.09a157.17 157.17 0 0 0 78.68-19.85 174.37 174.37 0 0 0 42.78-33.5 139 139 0 0 0 9.6-11.43c.9-1.19 1.35-1.87 1.35-1.87a96.38 96.38 0 0 1 11.43.69c7.86.9 17.75 3.06 22.77 8.18z" fill="#a6dd5e"/><path d="m428.53 377.94c-8 17.9-42.84 81-138 80.48-87.48-.51-139.64-56.7-151.41-77.05 4.33-.17 19.32-4.68 25-4.11 0 0 33.47 65.7 120.55 66.64s132.43-66.64 132.43-66.64a95 95 0 0 1 11.43.68z" fill="#4da825"/><g fill="#fff" opacity=".6"><path d="m187.47 524.17v37.61h40.12l-7.93 24.94-1.28 4.06-4.7 14.79-15.75 49.6h39.83l4.1-14.08 6.1-21 2.75-9.44 2.52-8.65 1.1-3.78 7.28-25 13-44.64 1.27-4.38z"/><path d="m367.8 617.27 7.39-14.38 3.69-7.14 3.65-7.12.83-1.6a42.2 42.2 0 0 0 4.29-12.89 45.67 45.67 0 0 0 .6-7.45 48 48 0 0 0 -1.56-12.4 42.71 42.71 0 0 0 -5.12-11.8c-.43-.67-.87-1.34-1.35-2a43.76 43.76 0 0 0 -3.39-4.27.81.81 0 0 0 -.09-.1c-.57-.64-1.16-1.26-1.78-1.89-.45-.45-.92-.9-1.38-1.32l-.23-.23c-.84-.77-1.7-1.51-2.58-2.2a42.87 42.87 0 0 0 -21.52-9.16 51.23 51.23 0 0 0 -6.51-.42h-.08a48.06 48.06 0 0 0 -6.76.46 43.09 43.09 0 0 0 -8.47 2 41.41 41.41 0 0 0 -10.92 5.74 47.9 47.9 0 0 0 -6.09 5.24 44.13 44.13 0 0 0 -12.67 24.19 47.61 47.61 0 0 0 -.66 6.84v1.35a46.62 46.62 0 0 0 .28 5.2 43.62 43.62 0 0 0 3.57 13.45c.55 1.24 1.15 2.44 1.82 3.62.16.29.32.57.49.84a42.29 42.29 0 0 0 4.72 6.54 40.67 40.67 0 0 0 3.37 3.46 44.46 44.46 0 0 0 4.36 3.56c1.05.78 2.14 1.51 3.28 2.21l6.67-11.9.54-1 9.14-16.29v-.08l.4-.71a11.31 11.31 0 0 1 -2.73-3.62 8.85 8.85 0 0 1 -.74-3.57 9 9 0 0 1 8.83-8.83 14.24 14.24 0 0 1 4.09.53 6.52 6.52 0 0 1 4 2.86 5.07 5.07 0 0 1 .44.87 9 9 0 0 1 .63 3.52 10.63 10.63 0 0 1 -.35 2.72 14.68 14.68 0 0 1 -1.38 3.51l-1.44 2.7-.06.11-3.48 6.53-7.34 13.78-20.2 37.92-4.42 8.3-2.93 5.49-3.65 6.73h84.65v-37.9z"/></g><path d="m405.43 410.22s0 35.29-41.82 44.69c0 0-2-152.31 4.85-181.07 7.42-64.18 10.33-169.55-22.82-194.18l-9.14-7s-2.51-8.36-5.25-25.45a60.18 60.18 0 0 0 -3.44-13.29s1.11-1 2.91-2.48c2.58-2.1 19.4-5.42 19.4-5.42 1.6-.69-1.38.24 0 0 8.5-1.42 28.43 11.69 32.23 18.8 2.6 4.86 11.38 50 18.36 87 3.24 17.12 6.07 32.49 7.73 41.27 5.21 27.75-3.01 237.13-3.01 237.13z" fill="#3c2415"/><path d="m337 64-.5 8.66c-22.69-13.17-60.1-10.56-60.1-10.56-73.74 3.9-82.08 82.3-82.08 82.3-4.78 48.6-3.08 113 0 170.36 11.46 72.42 21.38 143.68 21.38 143.68-51.7-.95-60.21-37.65-60.21-37.65-6.59-14.93-8.84-62.32-8.84-62.32s-9.68-60-7.14-111.77c1.76-35.78 17.55-178.18 22.77-184.82s10.43-14.71 55-41.82 63.79-18.89 63.79-18.89a90.12 90.12 0 0 1 14.34 3.71c28.59 9.97 37.29 30.12 37.29 30.12a53.77 53.77 0 0 1 4.1 15.28 78.23 78.23 0 0 1 .2 13.72z" fill="#3c2415"/><path d="m393.69 181.09c-3.63-21.64-17.85-10.8-23-2.85-3.17 14.59-6.22 29.37-4.52 43.83l4.12-1.92s28.15-10.83 23.4-39.06z" fill="#976650"/><path d="m554 665.63c-6.67 10.72-60.84-13-71-27s-61-117.36-70.25-141.88c-2.71-7.3-2.87-20.68-1.22-35.77 3.86-35.74 17.79-81.27 31.1-79 0 0 16.65 6.69 25.81 20.78a32.49 32.49 0 0 1 2.75 4.83c8.14 17.45 88.39 214 97.56 238.81a136.19 136.19 0 0 0 -14.75 19.23z" fill="#a6dd5e"/><path d="m574.59 632.39s-6.46-20.24-15.09-21.53-58.5 36.75-71.37 49.06c0 0 3.33 12.44 9.58 19.91 0 0 13.39-11.09 36.09-22.64s36.54-18.32 40.79-24.8z" fill="#4da825"/><path d="m464.58 551.71s40.82 12.94 101.84 88.54c1.43 1.78 2.32 6.08 2.32 6.08s10.53 46.77 1.38 58.73c-8.67 11.31-43 1.15-51.21-3.59-13.42-7.71-45.91-49.99-54.33-149.76z" fill="#a77353"/><path d="m20.61 665.63c6.68 10.72 60.84-13 71-27s61-117.36 70.25-141.88c2.72-7.3 2.88-20.68 1.22-35.77-3.85-35.74-17.78-81.27-31.1-79 0 0-16.65 6.69-25.8 20.78a31.68 31.68 0 0 0 -2.76 4.83c-8.15 17.41-88.42 213.89-97.56 238.74a136.57 136.57 0 0 1 14.75 19.3z" fill="#a6dd5e"/><path d="m0 632.39s6.46-20.24 15.09-21.53 58.54 36.75 71.37 49.06c0 0-3.32 12.44-9.58 19.91 0 0-13.38-11.09-36.08-22.64s-36.55-18.32-40.8-24.8z" fill="#4da825"/><path d="m120.23 551.28s-51 13.37-112.06 89c-1.43 1.78-2.31 6.08-2.31 6.08s-10.54 46.74-1.38 58.7c8.67 11.31 43 1.15 51.21-3.59 13.42-7.71 56.13-50.47 64.54-150.19z" fill="#a77353"/><path d="m512.82 405.79c-8 8.77-20.61 10.27-28.21 3.36-7.59-6.92-7.29-19.63.69-28.4l12.35-13.58c8-8.76 20.61-10.27 28.2-3.35 7.6 6.91 7.3 19.63-.68 28.4z" fill="#414042"/><path d="m527.16 397.27-43.02 41.94-23.06 22.5-40.96 39.92h-.03l-1.1 1.1-.83.83h-.03l-11.11 10.84-16.37 15.95-1.93 1.88-9.35 9.11-5.71 5.59-1.28 1.25-53.2 51.85-7.82 7.62-7.41 7.24-18.25 17.77-10.27 10.03-7.66 7.44-4.21 4.14-3.82 3.72-14.7 14.31-2.05 2.04-.03.02-4.11 3.99-7.74 7.55-7.8 7.6-28.96 28.25-3.16 3.07-31.22 30.44-27.09 26.41-7.97 7.77-7.09 6.9-.86.83h-14.95-11.18-37.81l27.59-26.9 20.15-19.65 8.46-8.25.8-.77 7.89-7.67 13.21-12.89 16.08-15.67 1.07-1.06 9.23-8.99 1.84-1.82 21.77-21.2 3.95-3.87 12.74-12.4 62.36-60.78.56-.6.09-.06 10.34-10.06 28.68-27.98 13.7-13.36 12.79-12.48 6.41-6.22 3.25-3.19 4.82-4.67.03-.03 2.64-2.59 6.91-6.76.75-.71 7.91-7.72.66-.64 2.23-2.18 1.67-1.61 8.78-8.57 9.52-9.28 8.84-8.64.24-.2 11.16-10.9 3.99-3.9.03-.02 9.16-8.94 13.02-12.67 14.61-14.27 53.04-51.7 1.76 1.78 1.37 1.4 3.36 3.49 17.41 17.86 3.37 3.45.47.48z" fill="#594a42"/><path d="m502.48 372-23.31 22.71-27 26.31-13.63 13.28-6.54 6.37-31.49 30.69-16.8 16.37-5.12 5-5.26 5.12-5.42 5.3-5.69 5.51-.38.42-1.79 1.69-.24.27-6.1 5.95-10.36 10.06-6.18 6.07-1.1 1-3.79 3.7-19.2 18.72-12.38 12.16-30.27 29.49-9.29 9-42 41-24.73 24.1-11 10.72-7 6.82-3.75 3.66-21.26 20.75-.69.66-7.08 6.91-8 7.8s0 0 0 0l-15.63 15.21-8.46 8.24-8.07 7.86-19.64 19.17-17.5 17.08h-6.94l22.71-22.17 19.9-19.38 8.28-8.06 6.91-6.73 1.61-1.57 18.28-17.83 12.08-11.79.24-.23 16.28-15.87 1-1 17.53-17.09 3.21-3.13 20.75-20.23 53.13-51.8 9.43-9.19 29.48-28.74 13.06-12.72 18.28-17.84 2.62-2.53 3.69-3.6.62-.63 9.89-9.64 6.45-6.27.54-.51 4.68-4.59.65-.62 5.27-5.13 2.34-2.28 6.36-6.22 8.11-7.91 16.78-16.35 23.75-23.12 9.92-9.68 14.2-13.84 34.86-34 16.84-16.43z" fill="#c9c9c9"/><path d="m523.26 393.28-19.08 18.6-24.7 24.09-21.05 20.5-32.15 31.34-10.92 10.66-13.34 13.02-12.47 12.13-5.99 5.84-9.46 9.22-2.43 2.39-3.34 3.24-35.84 34.92-.09.09-11.52 11.25-.38.39-8.88 8.63-8.18 7.98-26.64 25.98-8.69 8.45-6.55 6.4-1.58 1.55-22.8 22.23-.03.04-.12.08-7.29 7.15-14.44 14.05-26.04 25.39-5.6 5.45-25.15 24.52-28.1 27.39-8.03 7.83-7.21 7.05-6.22 6.04h-6.94l10.99-10.68 7.32-7.14 8.06-7.9 28.85-28.1 19.91-19.4 7.53-7.35 23.7-23.1 13.27-12.95 8.48-8.25 30.04-29.28 8.33-8.13.03-.03 34.47-33.61 8.87-8.63 10.54-10.29.03-.04.89-.83.03-.03 28.34-27.63.03-.02 11.88-11.61 5.83-5.65 1.6-1.58 7.98-7.77 9.59-9.34 8.99-8.79 15.36-14.94 18.69-18.25 24.53-23.91 19.17-18.66 20.3-19.82 24.25-23.63z" fill="#c9c9c9"/><path d="m120.23 574.4 2.15-30 25.25-27.72s8.63 9 1 19c-7.42 9.77-6.6 14.77-6.6 14.77l1.85 15.83z" fill="#c57e68"/><path d="m473 579.18-5.39-28.8-24.42-28.89s-5.67 4.32-1.81 16a39.86 39.86 0 0 0 13.31 18.33l-6.23 15.31z" fill="#c57e68"/><path d="m515 698.7a221 221 0 0 0 -2.75-29.2q-1-6.32-2.39-12.51c-.4-1.83-.84-3.67-1.28-5.49-.6-2.41-1.24-4.81-1.91-7.18q-2.32-8.16-5.24-16.08c-.89-2.44-1.83-4.87-2.82-7.26 0 0 0 0 0-.05-.47-1.16-1-2.32-1.46-3.49-.51-1.17-1-2.35-1.55-3.52q-3.17-7-6.84-13.85c-.39-.74-.78-1.47-1.18-2.19a225.42 225.42 0 0 0 -14.92-23.43c-.28-.38-.55-.75-.84-1.12q-2.87-3.9-5.9-7.66c-.5-.61-1-1.22-1.5-1.82s-.89-1.1-1.35-1.65c-.12-.15-.25-.31-.39-.46a4.25 4.25 0 0 1 -.39-.5c-.66-.78-1.32-1.51-2-2.27-1.59-1.82-3.21-3.61-4.88-5.37-.92-1-1.86-2-2.8-2.91q-1.09-1.17-2.25-2.31c-1.07-1.09-2.15-2.15-3.25-3.2-.35-.34-.69-.65-1-1h-.07c-1.09-1.05-2.23-2.1-3.37-3.14q-1.68-1.53-3.41-3c-.85-.76-1.71-1.5-2.58-2.24-.16-.16-.35-.32-.52-.48s-.56-.48-.89-.73h-.05a2.29 2.29 0 0 0 -.3-.25c-1-.83-2-1.63-3.05-2.47-1.46-1.17-2.95-2.33-4.43-3.46l-1.21-.91c-1.58-1.19-3.17-2.35-4.8-3.49q-1.75-1.26-3.55-2.46l-.22-.15c-.47-.34-1-.66-1.43-1-3-2-6-4-9.16-5.79a0 0 0 0 0 0 0c-1.52-.93-3.08-1.86-4.69-2.74l-.3-.16c-1.45-.84-2.95-1.68-4.43-2.45-1.9-1-3.82-2-5.75-2.95-1-.5-2-1-3-1.45-.66-.33-1.32-.65-2-.95l-.58-.26c-1.92-.9-3.88-1.78-5.84-2.63q-3.51-1.51-7.08-2.89c-1.65-.63-3.33-1.28-5-1.85s-3.12-1.12-4.69-1.65c-1.51-.52-3-1-4.6-1.47a4.16 4.16 0 0 0 -.71-.21c-1.57-.51-3.12-1-4.72-1.41-1.84-.56-3.68-1-5.52-1.53-1.6-.39-3.2-.79-4.79-1.13s-2.91-.66-4.37-1a226.1 226.1 0 0 0 -22.52-3.56c-2.44-.25-4.88-.47-7.33-.64-1-.08-2.05-.15-3.07-.2l-3.92-.2c-.51 0-1 0-1.52-.05-1.68 0-3.37-.08-5.08-.08h-.65c-.53 0-1.11 0-1.65 0-3.65 0-7.33.09-10.95.28-1.89.08-3.75.18-5.59.33l-1.9.13c-.58.07-1.18.12-1.77.17-2.63.24-5.25.53-7.85.85-2.78.35-5.53.74-8.27 1.21-1.5.24-3 .5-4.45.78-2 .34-4 .76-6 1.22-4.8 1-9.54 2.17-14.21 3.53-1.36.36-2.71.75-4 1.2-.54.16-1.09.32-1.63.5-.21.06-.42.12-.63.2a212.1 212.1 0 0 0 -21.42 8q-6.4 2.78-12.59 6l-1 .54c-1.52.79-3 1.6-4.54 2.43-1.77 1-3.52 2-5.25 3-1.53.9-3 1.8-4.55 2.75-2.91 1.77-5.78 3.64-8.6 5.54q-2.27 1.56-4.49 3.19c-.63.44-1.25.9-1.88 1.35q-3.32 2.46-6.54 5l-3.15 2.04-1.41 1.18c-.31.24-.65.54-1 .83l-.82.69c-.38.31-.75.64-1.14 1l-1.09.95q-1.29 1.11-2.55 2.28c-1 .95-2.1 1.91-3.14 2.9-2.4 2.23-4.76 4.56-7 6.92-1.06 1.08-2.12 2.17-3.15 3.28s-1.86 2-2.77 3c-.41.46-.85.94-1.26 1.42-.72.8-1.43 1.63-2.14 2.46-1.14 1.33-2.25 2.67-3.36 4l-.15.16-1.45 1.81c-.32.38-.63.78-1 1.19a6 6 0 0 0 -.4.52c-1 1.21-1.9 2.4-2.79 3.61-.37.51-.76 1-1.18 1.57a.13.13 0 0 1 0 .09c-.39.52-.8 1.07-1.17 1.62-.19.25-.37.51-.54.75 0 0 0 0-.05.09-.84 1.11-1.62 2.27-2.41 3.42-2.06 3-4 6-5.89 9-.09.1-.11.23-.16.29s0 .06 0 .08a212.91 212.91 0 0 0 -13.85 26.23c-.78 1.73-1.53 3.49-2.26 5.25a217.62 217.62 0 0 0 -9.88 29.66c-.18.66-.34 1.34-.5 2-.76 3.07-1.46 6.18-2.09 9.3q-1.53 7.62-2.52 15.43c-.27 2.16-.52 4.33-.73 6.52-.14 1.38-.27 2.78-.37 4.18q-.7 8.79-.71 17.75 0 7.1.44 14v.09c.11 1.52.2 3.08.35 4.66 0 .25 0 .48.06.75a2.87 2.87 0 0 1 .05.41c.24 3 .58 5.94 1 8.9.07.49.13 1 .2 1.45q1.25 9.15 3.23 18 1.6 8.92 4.21 17.18.72 2.4 1.5 4.76c.56 1.71 1.16 3.36 1.72 5.07 1.87 5.14 3.92 10.23 6.16 15.22a2.85 2.85 0 0 0 .12.31c.24.51.46 1 .73 1.55h38.08c-.29-.51-.56-1-.82-1.55-1.11-2-2.17-4.11-3.18-6.19-.9-1.76-1.71-3.53-2.53-5.35-.7-1.56-1.4-3.11-2.05-4.72a187.6 187.6 0 0 1 -7.84-22.78c-.31-1.16-.62-2.33-.92-3.51-.44-1.81-.89-3.64-1.26-5.5q-.58-2.56-1.09-5.15c-.07-.49-.16-.93-.27-1.41-.49-2.83-1-5.67-1.33-8.54 0-.13 0-.27-.06-.41-.09-.61-.16-1.24-.21-1.88q-.82-6.63-1.15-13.4c0-.26 0-.54 0-.8v-.26c-.15-2.8-.23-5.57-.23-8.36a186.19 186.19 0 0 1 4-38.7s0 0 0 0a186.22 186.22 0 0 1 8.02-27.66c.1-.23.17-.46.26-.68a171.58 171.58 0 0 1 7.46-16.8q.5-1 1-2.07c.38-.74.76-1.46 1.14-2.17.68-1.3 1.38-2.58 2.11-3.85.34-.61.69-1.21 1-1.81s.53-.92.8-1.37v-.06s0 0 0 0c.39-.72.82-1.43 1.26-2.13l.51-.84c.48-.75.94-1.48 1.43-2.22q3.7-5.85 7.86-11.36a3.28 3.28 0 0 1 .4-.52s0 0 0 0c.57-.78 1.15-1.52 1.75-2.28 1-1.26 2-2.54 3-3.76 1.43-1.73 2.88-3.45 4.37-5.11.17-.21.35-.41.54-.62.89-1 1.79-2 2.72-3 1.6-1.74 3.25-3.43 4.93-5.11s0-.06.09-.09c.74-.74 1.46-1.46 2.21-2.18l.25-.24 1.17-1.1c.31-.3.64-.6 1-.89s.91-.86 1.38-1.28c1.71-1.56 3.44-3.1 5.2-4.58a.87.87 0 0 1 .15-.13c1-.91 2.12-1.8 3.2-2.64 1.4-1.17 2.81-2.28 4.24-3.36 2.57-2 5.2-3.89 7.88-5.71 2.24-1.54 4.54-3 6.87-4.49 3.23-2 6.54-3.93 9.89-5.76l2.25-1.18c2.57-1.35 5.19-2.64 7.84-3.86q4.58-2.12 9.26-4 7.74-3.09 15.8-5.5c.89-.27 1.79-.53 2.68-.77 4.16-1.19 8.39-2.22 12.67-3.12q7.11-1.5 14.44-2.44c1.76-.22 3.54-.44 5.31-.62.69-.06 1.37-.12 2.06-.16 2.33-.21 4.68-.38 7-.49 3.13-.16 6.28-.24 9.42-.24 1.44 0 2.84 0 4.26.09h.85c2.57 0 5.16.16 7.72.33 2.82.18 5.63.44 8.41.75q6.66.75 13.18 2 2.65.48 5.29 1.08c.78.15 1.62.33 2.43.5s1.82.43 2.72.67a3.14 3.14 0 0 1 .46.12c1.66.4 3.32.82 5 1.3a180.3 180.3 0 0 1 22.8 7.75c.79.33 1.56.67 2.33 1 .39.17.78.35 1.16.54.64.25 1.21.56 1.83.83l2.81 1.33c1.78.83 3.53 1.72 5.25 2.64.73.38 1.47.76 2.19 1.16 4.21 2.24 8.25 4.65 12.24 7.25 1.31.83 2.62 1.68 3.9 2.55q7 4.73 13.58 10.1a2.39 2.39 0 0 0 .26.21l.89.75a2.44 2.44 0 0 1 .39.33s0 0 0 0l1.93 1.61a.23.23 0 0 0 .08.07l2.1 1.83a.11.11 0 0 1 0 0c.55.47 1.11 1 1.66 1.47.93.85 1.87 1.7 2.79 2.57.56.53 1.11 1.05 1.66 1.59.82.78 1.6 1.58 2.39 2.39.18.16.34.33.53.51l.31.31c.82.79 1.59 1.62 2.37 2.47.57.59 1.14 1.19 1.68 1.79 1.74 1.86 3.43 3.75 5.07 5.69.53.61 1 1.22 1.55 1.85 2.19 2.59 4.27 5.25 6.27 8 .62.84 1.22 1.65 1.83 2.5 1.39 1.92 2.74 3.88 4 5.86.34.48.65 1 1 1.49.12.19.25.37.36.56.46.7.9 1.41 1.34 2.14s.76 1.19 1.13 1.79a.23.23 0 0 0 .05.1.27.27 0 0 1 .06.1c.49.8 1 1.61 1.47 2.44.81 1.38 1.62 2.78 2.38 4.18 1.47 2.65 2.86 5.32 4.19 8 .35.7.68 1.41 1 2.1 0 .1.1.21.16.34 2.11 4.45 4 9 5.78 13.67a4.94 4.94 0 0 1 .19.49 184.55 184.55 0 0 1 10.63 44.5c.21 1.74.39 3.48.53 5.25a.41.41 0 0 0 0 .1s0 .1 0 .13c.45 5.14.65 10.29.65 15.55 0 4.74-.17 9.45-.52 14.17 0 .54-.1 1.08-.13 1.66 0 .41-.06.82-.11 1.22-.11 1.3-.24 2.58-.4 3.86-.17 1.61-.37 3.18-.62 4.76v.11c-.57 4.39-1.33 8.71-2.25 13a180.9 180.9 0 0 1 -4.65 17.69 184.4 184.4 0 0 1 -13.49 31.86l-.82 1.55h38.1c.23-.51.46-1 .68-1.55a219 219 0 0 0 14.32-42.6c.6-2.77 1.16-5.59 1.66-8.41.1-.55.2-1.09.28-1.63.2-1.14.38-2.25.57-3.4.94-6 1.63-12.09 2.08-18.2 0-.81.11-1.61.15-2.41a8 8 0 0 0 0-1c.1-1.4.15-2.82.21-4.26.14-2.82.15-5.68.15-8.54.03-2.09.01-4.2-.1-6.31z" fill="#231f20"/><path d="m418.65 568.71c-.55-.5-1.11-1-1.66-1.47a.11.11 0 0 0 0 0l-2.1-1.83a.23.23 0 0 1 -.08-.07l-1.93-1.61s0 0 0 0a2.44 2.44 0 0 0 -.39-.33l-.89-.75a2.39 2.39 0 0 1 -.26-.21q-6.54-5.37-13.58-10.1c-1.28-.87-2.59-1.72-3.9-2.55-4-2.6-8-5-12.24-7.25-.72-.4-1.46-.78-2.19-1.16l-2.82 2.79-2.88 2.82q6.68 3.36 13 7.35 4.5 2.79 8.81 5.86c1.63 1.14 3.21 2.32 4.79 3.51s3.29 2.57 4.9 3.89c1.29 1.05 2.56 2.13 3.81 3.22.58.51 1.17 1 1.76 1.55l.46.41c.75.66 1.49 1.32 2.21 2 1.19 1.1 2.36 2.19 3.51 3.33.3.29.6.57.88.86a1.52 1.52 0 0 0 .2-.06 7.59 7.59 0 0 0 .78-.33 1.1 1.1 0 0 0 .31-.15zm59.78 68.18v-.06a195.68 195.68 0 0 0 -14.83-31.45c-.53-.9-1.06-1.77-1.61-2.66s0-.07-.07-.09c-.43-.76-.88-1.49-1.33-2.2-.27-.41-.5-.8-.78-1.22l-.16-.26c-.23-.36-.48-.75-.75-1.12-1-1.62-2.13-3.24-3.25-4.85-.62-.93-1.28-1.84-1.93-2.76-.38-.51-.75-1-1.16-1.57a2.84 2.84 0 0 1 -.2-.29l-.93-1.26c-3-4-6.07-7.85-9.33-11.57-.69-.77-1.36-1.54-2.07-2.3-1-1.17-2.11-2.34-3.21-3.49-.39-.43-.79-.85-1.18-1.26h-.06c-1.73-1.83-3.51-3.64-5.35-5.41-.59-.58-1.17-1.14-1.77-1.69s-1.1-1.05-1.66-1.56-1.33-1.21-2-1.81c-.27-.24-.55-.49-.82-.71s-.44-.4-.67-.58q-2.26-2-4.61-3.94c-.28-.24-.55-.48-.84-.7l-.44-.35c-1.18-1-2.4-1.92-3.61-2.85l-.57-.45c-2.22-1.71-4.47-3.37-6.77-5q-7.37-5.22-15.21-9.68c-.6-.34-1.18-.69-1.78-1-.22-.13-.44-.27-.68-.39-1.4-.79-2.84-1.56-4.28-2.3-.28-.16-.58-.31-.87-.46l-.58-.3c-1.31-.68-2.64-1.35-4-2l-1.06-.52c-1.22-.59-2.45-1.17-3.69-1.71-.19-.1-.39-.17-.58-.26l-.46-.21c-1.1-.51-2.22-1-3.36-1.46-5.24-2.22-10.64-4.24-16.15-6-1.77-.6-3.52-1.14-5.29-1.64s-3.29-1-4.95-1.37c-.62-.18-1.21-.31-1.83-.48-1.24-.31-2.49-.63-3.72-.91a197.22 197.22 0 0 0 -30.46-4.74c-.55-.06-1.08-.09-1.62-.12s-1-.07-1.45-.08c-2.67-.17-5.34-.25-8-.26-1.1-.08-2.24-.08-3.38-.08-5.76 0-11.52.25-17.15.77-.22 0-.47 0-.69.08s-.64.05-.95.09c-2.18.18-4.34.41-6.48.71a185.8 185.8 0 0 0 -29.08 6c-1 .26-2.09.57-3.16.88a189.21 189.21 0 0 0 -19.44 7.07c-.45.19-.89.37-1.33.57l-1.21.53c-2.41 1.07-4.8 2.18-7.16 3.36-.7.33-1.41.68-2.1 1-1.17.59-2.33 1.19-3.5 1.8q-4.15 2.17-8.17 4.57-2.59 1.52-5.12 3.13a192.5 192.5 0 0 0 -18.81 13.52q-2.78 2.24-5.46 4.58c-.77.68-1.55 1.36-2.33 2.09-.42.36-.82.75-1.23 1.12l-.16.15c-3 2.7-5.85 5.52-8.65 8.41l-.3.31-.29.3-1.55 1.66c-.52.55-1.05 1.11-1.52 1.67-3.24 3.51-6.31 7.14-9.27 10.89-.42.53-.86 1.08-1.28 1.64l-.3.41-.07.07c-2.61 3.38-5.12 6.84-7.5 10.39-.75 1.13-1.48 2.24-2.22 3.39a.3.3 0 0 0 -.07.11c-1.1 1.7-2.13 3.39-3.17 5.12-.92 1.54-1.81 3.13-2.72 4.72-1.17 2.09-2.32 4.2-3.42 6.37a193 193 0 0 0 -8.53 19.07c-.3.76-.58 1.55-.87 2.32a196.15 196.15 0 0 0 -11.07 47.17 197.93 197.93 0 0 0 -1.16 21.34c0 5.26.22 10.48.64 15.59 0 .39.06.77.1 1.17.15 1.69.3 3.39.5 5.06.06.7.15 1.46.22 2.16a1.61 1.61 0 0 0 .07.37 1.49 1.49 0 0 1 0 .21 193.81 193.81 0 0 0 3.76 21c.24 1.13.54 2.24.8 3.33.06.24.12.46.19.7s.17.66.26 1c.49 1.79 1 3.53 1.5 5.28.1.52.26 1 .4 1.5.81 2.65 1.68 5.26 2.57 7.85 1.94 5.54 4.12 10.91 6.51 16.22.67 1.56 1.41 3.1 2.16 4.63.72 1.51 1.49 3 2.27 4.49.12.24.25.48.38.71s.28.57.4.84h23.09c-.32-.51-.63-1-.92-1.55-2.73-4.52-5.2-9.19-7.51-14-.86-1.79-1.7-3.59-2.46-5.43-.73-1.56-1.41-3.18-2-4.78-1.54-3.77-2.94-7.59-4.2-11.49-1.62-5-3-10-4.18-15.13-.39-1.7-.76-3.38-1.11-5.08 0-.17 0-.34-.07-.49-.37-1.76-.67-3.51-.93-5.28 0-.13 0-.25-.06-.38-.74-4.44-1.3-8.92-1.67-13.47-.22-2.59-.38-5.25-.47-7.91 0-.32 0-.64 0-.95 0-.65-.08-1.26-.08-1.91 0-1.4 0-2.83 0-4.26 0-3.16 0-6.28.24-9.42a175.33 175.33 0 0 1 5.3-34.71 169.43 169.43 0 0 1 5.67-18c.17-.41.3-.8.49-1.25 1.49-3.91 3.1-7.77 4.9-11.55.21-.5.45-1 .7-1.49.36-.77.75-1.52 1.1-2.28l1.18-2.32c.1-.18.2-.36.29-.56 1-1.87 2-3.74 3-5.58.5-.88 1-1.72 1.51-2.57.74-1.28 1.5-2.55 2.3-3.79 1.45-2.37 3-4.68 4.56-7 .29-.47.63-.93 1-1.39.56-.81 1.12-1.57 1.7-2.37s0 0 0 0c.9-1.23 1.81-2.46 2.75-3.67.57-.75 1.14-1.48 1.73-2.21s1-1.31 1.57-2l.46-.55c.94-1.15 1.91-2.31 2.88-3.44.19-.2.33-.38.5-.59.9-1 1.81-2.05 2.74-3.05 1.06-1.16 2.12-2.28 3.21-3.41l1.38-1.39c.09-.11.18-.19.26-.28.45-.46.91-1 1.38-1.4.21-.2.41-.41.63-.6s.3-.31.46-.45c1.58-1.55 3.19-3.05 4.84-4.52s3.06-2.71 4.62-4q4.53-3.81 9.3-7.3a174.6 174.6 0 0 1 17.86-11.5q6.36-3.59 13-6.62c3.08-1.4 6.2-2.73 9.35-4q6.47-2.55 13.16-4.56c.77-.22 1.6-.47 2.37-.71a178.21 178.21 0 0 1 26-5.37c1.35-.16 2.72-.32 4.08-.46l.5-.05 2.34-.24c4-.39 8.11-.6 12.23-.7h3.85 1.45 3.36c2.68.09 5.35.21 8 .4s5.47.46 8.18.8l2.51.31c3.3.41 6.55.93 9.8 1.57 1.77.31 3.52.66 5.28 1 .63.16 1.27.3 1.91.49 1 .21 2 .43 2.89.67.27.09.51.13.75.23a168.84 168.84 0 0 1 24.05 8l2.38 1 1.17.52 3.54 1.63c1.31.61 2.59 1.21 3.83 1.88a11.48 11.48 0 0 1 1.49.74q6.68 3.36 13 7.35 4.5 2.79 8.81 5.86c1.63 1.14 3.21 2.32 4.79 3.51s3.29 2.57 4.9 3.89c1.29 1.05 2.56 2.13 3.81 3.22.58.51 1.17 1 1.76 1.55l.46.41c.75.66 1.49 1.32 2.21 2 1.19 1.1 2.36 2.19 3.51 3.33.3.29.6.57.88.86l.76.75c.21.21.42.44.64.65 1.2 1.22 2.42 2.5 3.6 3.77.3.31.6.64.89 1 .77.84 1.53 1.68 2.3 2.54 2 2.21 3.87 4.48 5.76 6.82v.06c.56.69 1.12 1.41 1.66 2.13.24.31.49.62.71.94.65.83 1.3 1.68 1.92 2.54.95 1.3 1.9 2.6 2.79 3.92 2.2 3.15 4.27 6.38 6.24 9.66.22.35.44.69.62 1 .52.84 1 1.67 1.45 2.52.14.2.25.4.38.6s.35.63.51 1c.24.39.46.78.67 1.18.05.1.1.17.14.26q2.56 4.68 4.82 9.55c.66 1.37 1.29 2.74 1.88 4.13 1.09 2.46 2.11 5 3.08 7.54a167.52 167.52 0 0 1 6.3 19.75 176.69 176.69 0 0 1 5.31 37.32c.12 2.15.14 4.26.14 6.4 0 4.43-.19 8.84-.47 13.17 0 .38 0 .75-.09 1.11a177.48 177.48 0 0 1 -3.22 22.24 176.71 176.71 0 0 1 -21.09 54c-.29.51-.6 1-.91 1.55h23.1c.26-.51.53-1 .8-1.55q4.17-8.08 7.61-16.58c1.94-4.81 3.73-9.73 5.27-14.7.42-1.24.8-2.49 1.13-3.74a191.77 191.77 0 0 0 6.45-30.41c.06-.43.11-.88.16-1.32l.2-1.52c.08-.64.13-1.23.2-1.85a3.92 3.92 0 0 0 0-.59c.06-.39.09-.81.12-1.18.46-4.87.73-9.8.8-14.75 0-1.18 0-2.38 0-3.57v-.26a195.8 195.8 0 0 0 -12.05-67.9z" fill="#3d3d3d"/><path d="m121.09 660.9s23 9.14 64.8 0l-6 53.48s-34 5.91-61 25.32-20.79-82.7 2.2-78.8z" fill="#383838"/><path d="m461.12 660.9s-23.05 9.14-64.8 0l6 53.48s34 5.91 61 25.32 20.8-82.7-2.2-78.8z" fill="#383838"/><path d="m402.29 714.39s-4.14 2.81-10.56 8c-2.51 2-5.36 4.37-8.46 7.07-16.22 14.13-39.06 37.36-53.18 66.22-.26.52-.51 1-.76 1.55s-1 0-1 0h-66.85l-.79-1.55c-1.43-2.82-3-5.77-4.76-8.81-2.74-4.76-5.8-9.76-9.31-14.87a178.79 178.79 0 0 0 -31.62-35.52 144.49 144.49 0 0 0 -14.76-11.07c-1.93-1.25-3.89-2.5-5.92-3.67-1.67-1-3.36-1.93-5.1-2.85-1.47-.78-3-1.55-4.58-2.29s-3.14-1.49-4.75-2.21l1.55-13.73.8-7.16.24-2.25.33-3 .55-4.76v-.42l.85-7.59.34-3.13.07-.6.39-3.27v-.28l.8-7.26s3.24-1.41 8.77-3.62c1-.4 2-.82 3.12-1.25 2.17-.86 4.62-1.79 7.27-2.78l3.17-1.17c3.38-1.25 7.05-2.57 10.92-3.87a366.86 366.86 0 0 1 41.2-11.73q4.09-.9 8.13-1.58c2.81-.52 5.58-1 8.29-1.32q2.55-.31 5-.57a5.61 5.61 0 0 0 .59-.06l3.27-.27q3.75-.25 7.32-.26a107.69 107.69 0 0 1 12.21.72h.41c1.61.16 3.24.36 4.85.6 2.87.43 5.77.91 8.7 1.49 24 4.62 49 13.88 63.78 19.92l2.71 1.11c4 1.64 7 3 8.77 3.76l1.89.86 1 8.89.29 2.52 2.11 19 .24 2.22z" fill="#060808"/><path d="m357.81 705.05a64.8 64.8 0 1 1 -64.8-64.8 64.8 64.8 0 0 1 64.8 64.8z" fill="#5a5b5b"/><path d="m351.75 705.05a58.74 58.74 0 1 1 -58.75-58.72 58.74 58.74 0 0 1 58.75 58.72z" fill="#131515"/><path d="m502.48 599.91c-2.06 28.29-32 43.12-37.85 42.35s-16.15-2.1-16.15-2.1l-.84-1.15-3.79-5.23-6.52-9-4.26-5.78-6.26-8.61-4.49-6.18-4.63-6.38 5.15-13.68c21.6-8.37 33.63-32.39 33.63-32.39s10-1.51 15.17 2.6c9.42 7.49 30.84 45.55 30.84 45.55z" fill="#976650"/><path d="m127.94 551.71c6.27 2.09 16.51 22 37.35 35.6l2.56 12.29-29.46 40.57-16.15 2.09s-36.65-16.78-36.69-42.66c0-13.13 21.7-40.48 29.68-45.29s6.45-4.69 12.71-2.6z" fill="#976650"/><path d="m559.5 800.29h-.64c-7.55.21-5.55.1-2.91 0h-2.13-24.48l-103.53.1h-12.27-15.6-10.05-58.56c-.3.6-1 0-1 0h-39.37-12l-100.15.1h-8.81-10.91-4.74l-137.67.11h-.42c.91.09 2 .25 2.92.39h.15l.43.09.37.07a2.24 2.24 0 0 1 .31.08c.22 0 .28.06.15.06-.36 0-2-.16-6-.71 9.1-13.92 17.07-25.73 26.28-36.32a150.24 150.24 0 0 1 33.86-28.9 1.06 1.06 0 0 0 .2-.12q3.43-2.18 6.93-4.27c.7-.44 1.41-.85 2.11-1.25 4.62-2.76 9.34-5.42 14.12-8h.1c1.74-.9 3.4-1.79 5.17-2.64s0 0 0 0c1.56-.85 3.14-1.66 4.73-2.39q4.5-2.25 9.08-4.36a3.17 3.17 0 0 1 .41-.17q14.33-6.61 29.46-12.06c.4-.18.79-.31 1.18-.45l.66-.24c3.07-1.11 6.17-2.16 9.29-3.18l.37-.13c.27-.07.53-.17.81-.27l.61-.18c1.43-.47 2.86-.92 4.31-1.37l1-.31c.87-.28 1.76-.55 2.66-.81l.66-.2c2.2-.68 4.42-1.31 6.64-1.91.43-.14.84-.25 1.26-.35s.83-.22 1.24-.35l.53-.14q2.82-.78 5.66-1.5c.25-.06.48-.13.73-.18l4.21-1c3.18-.78 6.39-1.51 9.62-2.21 2.22-.49 4.44-.95 6.68-1.39 6-1.2 12.06-2.26 18.15-3.21h.14c2.63-.38 5.3-.75 8-1.09h.1c1.29-.19 2.59-.38 3.93-.51h.05c1.67-.23 3.36-.44 5-.6a.13.13 0 0 1 .09 0c.65-.07 1.24-.16 1.91-.22h.08c6.07-.64 12.22-1.13 18.4-1.48q13-.86 26.17-.85c3.09 0 6.14 0 9.19.1 8.27.18 16.44.58 24.56 1.26 9.1.71 18.12 1.72 27 3h.05c2.36.34 4.69.71 7 1.11h.06q15.42 2.48 30.29 6.11l.34.09c.75.17 1.5.36 2.24.55s1.36.32 2 .5c1 .23 1.93.48 2.88.74 2.9.74 5.74 1.54 8.6 2.37s0 0 0 0l1.83.52c.28.08.56.15.82.25q2.55.72 5 1.5 6.75 2.06 13.35 4.37l.47.16c1 .34 1.91.66 2.85 1a7.62 7.62 0 0 1 .91.33c1 .35 2 .72 3 1.1 1.9.69 3.8 1.39 5.67 2.14l.45.15c6.83 2.64 13.56 5.48 20.14 8.53q7.93 3.57 15.64 7.56a.16.16 0 0 0 .09 0c3.14 1.6 6.23 3.24 9.31 5l.11.07a5.83 5.83 0 0 1 .74.39l.15.09q4.4 2.43 8.64 4.93l.16.1q11.63 6.89 22.5 14.52a2.43 2.43 0 0 1 .28.2c23.43 16.11 48 55.58 48 55.58z" fill="#595959"/><path d="m453.22 587.31s-9.31 17.93-26.41 23l-4.49-6.18s15.01-.24 30.9-16.82z" opacity=".2"/><path d="m462.19 602.29s-8.77 16.83-24.86 22.52l-4.26-5.81c4.43-.68 16.48-3.55 29.12-16.71z" opacity=".2"/><path d="m469.1 617.91s-7.52 14.47-21.46 21.1l-3.79-5.23c5.79-1.55 15.35-5.54 25.25-15.87z" opacity=".2"/><path d="m136 584.62s9.32 17.93 26.41 23l4.49-6.18s-15-.24-30.9-16.82z" opacity=".2"/><path d="m127 599.6s8.77 16.83 24.86 22.52l4.26-5.86c-4.39-.63-16.44-3.5-29.12-16.66z" opacity=".2"/><path d="m120.13 615.22s7.53 14.47 21.46 21.1l3.79-5.23c-5.79-1.54-15.38-5.54-25.25-15.87z" opacity=".2"/></svg>