<svg id="Layer_1" enable-background="new 0 0 497.002 497.002" height="512" viewBox="0 0 497.002 497.002" width="512" xmlns="http://www.w3.org/2000/svg"><g><path d="m454.071 497.002-14.982-90.738c-4.137-25.054-20.804-46.25-44.176-56.179l-59.664-25.346h-86.597-.3-86.597l-59.664 25.346c-23.372 9.929-40.039 31.125-44.176 56.179l-14.982 90.738z" fill="#d6f3ff"/><g><path d="m402.146 497.002-16.195-35.383 36.64-22.489 31.308 57.872z" fill="#9ee3ff"/><g><g><path d="m354.397 96.995 11.064-24.918c8.394-18.905-1.743-40.908-21.519-46.707l-77.787-22.813c-11.627-3.41-23.981-3.41-35.608 0l-77.788 22.813c-19.776 5.8-29.913 27.802-21.519 46.707l11.064 24.918 109.713 14.838z" fill="#344db3"/><g fill="#9ee3ff"><path d="m186.654 290.269-24.901 34.47 64.301 38.518 22.297-54.127z"/><path d="m310.047 290.269 24.901 34.47-64.3 38.518-22.297-54.127z"/></g><path d="m314.1 288.759-44.267 16.497c-13.86 5.165-29.104 5.165-42.964 0l-44.267-16.497c-24.222-9.027-40.297-32.246-40.297-58.206v-103.882h212.092v103.882c0 25.96-16.075 49.179-40.297 58.206z" fill="#fdcfa4"/><path d="m314.397 126.671v103.882c0 25.96-16.075 49.179-40.297 58.206l-44.267 16.497c-.491.183-.987.345-1.482.515 13.46 4.629 28.113 4.468 41.482-.515l44.267-16.497c24.222-9.027 40.297-32.246 40.297-58.206v-103.882z" fill="#fdc590"/><path d="m142.305 126.671c0 21.482 17.33 38.896 38.708 38.896h134.676c21.378 0 38.708-17.415 38.708-38.896l-106.046-14.838z" fill="#344db3"/><path d="m248.351 111.833-20 2.798 86.046 12.039c0 21.482-17.33 38.896-38.708 38.896h40c21.378 0 38.708-17.414 38.708-38.896z" fill="#1c37a6"/><path d="m142.305 96.995h212.092v29.676h-212.092z" fill="#ffbe00"/><path d="m343.942 25.37-77.787-22.813c-11.627-3.41-23.981-3.41-35.608 0l-2.196.644 75.592 22.168c19.776 5.8 29.913 27.802 21.519 46.707l-11.064 24.918h40l11.064-24.918c8.394-18.904-1.743-40.907-21.52-46.706z" fill="#1c37a6"/><path d="m314.397 96.995h40v29.676h-40z" fill="#f0b300"/><path d="m226.054 363.257 22.297-54.127 22.297 54.127-8.299 22.972h-26.246z" fill="#ffbe00"/></g><g><path d="m94.684 497.002 16.196-35.383-36.64-22.489-31.309 57.872z" fill="#9ee3ff"/><path d="m80.742 424.372-8.399 17.18c-3.399 6.952-2.782 15.197 1.612 21.566l.402.583c3.998 5.794 10.588 9.254 17.627 9.254 7.909 0 15.173-4.359 18.895-11.337l20.924-39.23" fill="#fdcfa4"/><path d="m416.089 424.372 8.399 17.18c3.399 6.952 2.782 15.197-1.612 21.566l-.402.583c-3.998 5.794-10.588 9.254-17.627 9.254-7.909 0-15.173-4.359-18.895-11.337l-20.924-39.23" fill="#fdcfa4"/><g><path d="m405.424 495.943c-16.826-71.167-80.766-124.127-157.074-124.127s-140.248 52.96-157.074 124.127m31.74 0c14.677-49.256 57.668-86.433 110.009-92.572v76.048c0 5.621-.606 11.155-1.772 16.524m34.195 0c-1.166-5.368-1.772-10.903-1.772-16.524v-76.048c52.341 6.139 95.332 43.316 110.009 92.572" fill="#8986a6"/></g><g fill="#fdcfa4"><path d="m80.742 424.372s25.203 27.817 47.071 16.293c21.868-11.525 20.503-48.861 11.548-52.866-12.529-5.604-46.357 12.291-58.619 36.573z"/><path d="m416.089 424.372s-25.203 27.817-47.071 16.293c-21.867-11.525-20.503-48.861-11.548-52.866 12.529-5.604 46.357 12.291 58.619 36.573z"/></g></g></g><g><path d="m248.351 264.717c-12.169 0-23.58-5.123-32.131-14.425-6.353-6.908 4.405-17.376 11.043-10.15 5.677 6.175 13.166 9.575 21.088 9.575s15.411-3.4 21.088-9.575c6.35-6.912 17.685 2.928 11.043 10.15-8.551 9.302-19.962 14.425-32.131 14.425z" fill="#dd9962"/></g></g></g></svg>