<svg viewBox="0 0 610 618.52" xmlns="http://www.w3.org/2000/svg" xmlns:xlink="http://www.w3.org/1999/xlink"><radialGradient id="a" cx="303.731" cy="14.283" gradientUnits="userSpaceOnUse" r="574.2392"><stop offset="0" stop-color="#d8e4eb"/><stop offset="1" stop-color="#8f9da3"/></radialGradient><radialGradient id="b" cx="303.7482" cy="16.8028" gradientUnits="userSpaceOnUse" r="569.2426"><stop offset=".2" stop-color="#f7fbfc"/><stop offset=".7" stop-color="#d8e4eb"/><stop offset="1" stop-color="#afbfc7"/></radialGradient><radialGradient id="c" cx="301.88" cy="-39.78" gradientTransform="matrix(.86 0 0 .86 44.14 51.22)" gradientUnits="userSpaceOnUse" r="661.45"><stop offset=".2" stop-color="#f7fbfc"/><stop offset="1" stop-color="#dae7ed"/></radialGradient><clipPath id="d" transform="translate(0 8.52)"><circle cx="305" cy="295" r="248.79"/></clipPath><radialGradient id="e" cx="303.4128" cy="-21.7338" gradientUnits="userSpaceOnUse" r="950.1366"><stop offset=".2" stop-color="#5e97ff"/><stop offset=".7" stop-color="#254b94"/><stop offset="1" stop-color="#1a3566"/></radialGradient><radialGradient id="f" cx="309.25" cy="-44.34" gradientTransform="matrix(.86 0 0 .86 44.14 42.7)" gradientUnits="userSpaceOnUse" r="672.62"><stop offset=".2" stop-color="#5e97ff"/><stop offset=".7" stop-color="#1b376d"/><stop offset="1" stop-color="#112242"/></radialGradient><radialGradient id="g" cx="309.25" cy="-44.35" gradientTransform="matrix(.86 0 0 .86 44.14 51.22)" r="672.62" xlink:href="#f"/><radialGradient id="h" cx="309.25" cy="-44.35" gradientTransform="matrix(.86 0 0 .86 44.14 42.7)" r="672.62" xlink:href="#c"/><radialGradient id="i" cx="309.25" cy="-44.35" r="672.62" xlink:href="#c"/><circle cx="305" cy="313.52" fill="#fff" r="305"/><circle cx="305" cy="313.42" fill="#fefefe" r="304.8"/><circle cx="305" cy="313.31" fill="#fdfdfd" r="304.6"/><circle cx="305" cy="313.21" fill="#fcfcfd" r="304.39"/><circle cx="305" cy="313.11" fill="#fbfcfc" r="304.19"/><circle cx="305" cy="313.01" fill="#fafbfb" r="303.99"/><circle cx="305" cy="312.91" fill="#f9fafa" r="303.79"/><circle cx="305" cy="312.81" fill="#f8f9fa" r="303.59"/><circle cx="305" cy="312.71" fill="#f7f8f9" r="303.38"/><circle cx="305" cy="312.61" fill="#f6f7f8" r="303.18"/><circle cx="305" cy="312.51" fill="#f5f7f7" r="302.98"/><circle cx="305" cy="312.41" fill="#f4f6f7" r="302.78"/><circle cx="305" cy="312.3" fill="#f3f5f6" r="302.58"/><circle cx="305" cy="312.2" fill="#f2f4f5" r="302.37"/><circle cx="305" cy="312.1" fill="#f1f3f4" r="302.17"/><circle cx="305" cy="312" fill="#f0f2f3" r="301.97"/><circle cx="305" cy="311.9" fill="#eff1f3" r="301.77"/><circle cx="305" cy="311.8" fill="#eef1f2" r="301.57"/><circle cx="305" cy="311.7" fill="#edf0f1" r="301.36"/><circle cx="305" cy="311.6" fill="#eceff0" r="301.16"/><circle cx="305" cy="311.5" fill="#ebeef0" r="300.96"/><circle cx="305" cy="311.4" fill="#eaedef" r="300.76"/><circle cx="305" cy="311.29" fill="#e9ecee" r="300.56"/><circle cx="305" cy="311.19" fill="#e8ebed" r="300.35"/><circle cx="305" cy="311.09" fill="#e7ebed" r="300.15"/><circle cx="305" cy="310.99" fill="#e6eaec" r="299.95"/><circle cx="305" cy="310.89" fill="#e5e9eb" r="299.75"/><circle cx="305" cy="310.79" fill="#e4e8ea" r="299.55"/><circle cx="305" cy="310.69" fill="#e3e7ea" r="299.34"/><circle cx="305" cy="310.59" fill="#e2e6e9" r="299.14"/><circle cx="305" cy="310.49" fill="#e1e6e8" r="298.94"/><circle cx="305" cy="310.39" fill="#e0e5e7" r="298.74"/><circle cx="305" cy="310.28" fill="#dfe4e6" r="298.54"/><circle cx="305" cy="310.18" fill="#dee3e6" r="298.33"/><circle cx="305" cy="310.08" fill="#dde2e5" r="298.13"/><circle cx="305" cy="309.98" fill="#dce1e4" r="297.93"/><circle cx="305" cy="309.88" fill="#dbe0e3" r="297.73"/><circle cx="305" cy="309.78" fill="#dae0e3" r="297.53"/><circle cx="305" cy="309.68" fill="#d9dfe2" r="297.32"/><circle cx="305" cy="309.58" fill="#d8dee1" r="297.12"/><circle cx="305" cy="309.48" fill="#d7dde0" r="296.92"/><circle cx="305" cy="309.38" fill="#d6dce0" r="296.72"/><circle cx="305" cy="309.27" fill="#d5dbdf" r="296.52"/><circle cx="305" cy="309.17" fill="#d4dbde" r="296.31"/><circle cx="305" cy="309.07" fill="#d3dadd" r="296.11"/><circle cx="305" cy="308.97" fill="#d2d9dc" r="295.91"/><circle cx="305" cy="308.87" fill="#d1d8dc" r="295.71"/><circle cx="305" cy="308.77" fill="#d0d7db" r="295.51"/><circle cx="305" cy="308.67" fill="#cfd6da" r="295.3"/><circle cx="305" cy="308.57" fill="#ced5d9" r="295.1"/><circle cx="305" cy="308.47" fill="#ced5d9" r="294.9"/><circle cx="305" cy="308.37" fill="#cdd4d8" r="294.7"/><circle cx="305" cy="308.26" fill="#ccd3d7" r="294.49"/><circle cx="305" cy="308.16" fill="#cbd2d6" r="294.29"/><circle cx="305" cy="308.06" fill="#cad1d6" r="294.09"/><circle cx="305" cy="307.96" fill="#c9d0d5" r="293.89"/><circle cx="305" cy="307.86" fill="#c8cfd4" r="293.69"/><circle cx="305" cy="307.76" fill="#c7cfd3" r="293.48"/><circle cx="305" cy="307.66" fill="#c6ced2" r="293.28"/><circle cx="305" cy="307.56" fill="#c5cdd2" r="293.08"/><circle cx="305" cy="307.46" fill="#c4ccd1" r="292.88"/><circle cx="305" cy="307.36" fill="#c3cbd0" r="292.68"/><circle cx="305" cy="307.25" fill="#c2cacf" r="292.47"/><circle cx="305" cy="307.15" fill="#c1cacf" r="292.27"/><circle cx="305" cy="307.05" fill="#c0c9ce" r="292.07"/><circle cx="305" cy="306.95" fill="#bfc8cd" r="291.87"/><circle cx="305" cy="306.85" fill="#bec7cc" r="291.67"/><circle cx="305" cy="306.75" fill="#bdc6cc" r="291.46"/><circle cx="305" cy="306.65" fill="#bcc5cb" r="291.26"/><circle cx="305" cy="306.55" fill="#bbc4ca" r="291.06"/><circle cx="305" cy="306.45" fill="#bac4c9" r="290.86"/><circle cx="305" cy="306.35" fill="#b9c3c8" r="290.66"/><circle cx="305" cy="306.24" fill="#b8c2c8" r="290.45"/><circle cx="305" cy="306.14" fill="#b7c1c7" r="290.25"/><circle cx="305" cy="306.04" fill="#b6c0c6" r="290.05"/><circle cx="305" cy="305.94" fill="#b5bfc5" r="289.85"/><circle cx="305" cy="305.84" fill="#b4bfc5" r="289.65"/><circle cx="305" cy="305.74" fill="#b3bec4" r="289.44"/><circle cx="305" cy="305.64" fill="#b2bdc3" r="289.24"/><circle cx="305" cy="305.54" fill="#b1bcc2" r="289.04"/><circle cx="305" cy="305.44" fill="#b0bbc2" r="288.84"/><circle cx="305" cy="305.34" fill="#afbac1" r="288.64"/><circle cx="305" cy="305.23" fill="#aeb9c0" r="288.43"/><circle cx="305" cy="305.13" fill="#adb9bf" r="288.23"/><circle cx="305" cy="305.03" fill="#acb8bf" r="288.03"/><circle cx="305" cy="304.93" fill="#abb7be" r="287.83"/><circle cx="305" cy="304.83" fill="#aab6bd" r="287.63"/><circle cx="305" cy="304.73" fill="#a9b5bc" r="287.42"/><circle cx="305" cy="304.63" fill="#a8b4bb" r="287.22"/><circle cx="305" cy="304.53" fill="#a7b3bb" r="287.02"/><circle cx="305" cy="304.43" fill="#a6b3ba" r="286.82"/><circle cx="305" cy="304.32" fill="#a5b2b9" r="286.62"/><circle cx="305" cy="304.22" fill="#a4b1b8" r="286.41"/><circle cx="305" cy="304.12" fill="#a3b0b8" r="286.21"/><circle cx="305" cy="304.02" fill="#a2afb7" r="286.01"/><circle cx="305" cy="303.92" fill="#a1aeb6" r="285.81"/><circle cx="305" cy="303.82" fill="#a0aeb5" r="285.61"/><circle cx="305" cy="303.72" fill="#9fadb5" r="285.4"/><circle cx="305" cy="303.62" fill="#9eacb4" r="285.2"/><circle cx="305" cy="303.52" fill="#9dabb3" r="285"/><circle cx="305" cy="303.52" fill="url(#a)" r="287.5"/><circle cx="305" cy="303.52" fill="url(#b)" r="285"/><circle cx="305" cy="303.52" fill="url(#c)" r="267.5"/><g clip-path="url(#d)"><circle cx="305" cy="303.52" fill="url(#e)" r="303.52"/></g><path d="m358.64 390.7c-3 .7-5.15 2.74-7.37 4.58-6.52 5.41-12.81 11.11-19.42 16.4-3.76 3-7.81 5.7-12.91 6.27-3.62.4-6.05-1-6.84-4.57a18.37 18.37 0 0 1 .9-9.66c1.7-5.27 3.61-10.48 5.53-15.68 2.27-6.13 4.65-12.22 7-18.34 4.05-10.7 8.14-21.38 12.11-32.11 5-13.52 10.65-26.8 14.67-40.68a60.51 60.51 0 0 0 2.67-21.46 33.81 33.81 0 0 0 -2.3-10.71c-2.67-6.5-7.49-10.44-13.61-12.91a41.26 41.26 0 0 0 -15-2.54 47.83 47.83 0 0 0 -7.54.69c-4.62.7-9.25 1.38-13.82 2.35-7.86 1.69-14.9 5.45-21.95 9.12a114.71 114.71 0 0 0 -26.87 19.76c-5.95 5.78-11.67 11.82-17.24 18-3 3.32-6 6.76-7.55 11.13-1 2.85-2.18 5.49.42 8.2 1.53 1.61 4.29 2.69 6.25 1.59a31.45 31.45 0 0 0 6.34-4.27c4.77-4.49 9.27-9.27 14-13.83 4.14-4 8.47-7.88 14-10a21.92 21.92 0 0 1 7.42-1.8c3.65 0 6.35 3.79 5.54 7.47a69.91 69.91 0 0 1 -2.81 9.36c-2.93 7.88-6 15.7-9 23.55-3.42 8.88-6.78 17.78-10.28 26.63s-7.28 17.48-10.61 26.33c-3.55 9.45-7.13 18.93-9.92 28.62-2.21 7.65-3.3 15.63-4.79 23.49a36.16 36.16 0 0 0 .33 14.83 21.33 21.33 0 0 0 8.66 13.16c5.57 3.93 12.08 4.84 19.05 5.06 3-.23 6.41-.27 9.72-.79a83.78 83.78 0 0 0 26-8.51c6.67-3.51 13.2-7.34 19.49-11.5a148 148 0 0 0 27.36-22.67c5.94-6.41 11.61-13 16-20.51 2.15-3.66 3.9-7.51 1.39-11.85a5.07 5.07 0 0 0 -5.02-2.2z" fill="url(#f)" transform="translate(0 8.52)"/><circle cx="346.89" cy="206.44" fill="url(#g)" r="35.23"/><path d="m358.64 372.07c-3 .7-5.15 2.73-7.37 4.57-6.52 5.41-12.81 11.11-19.42 16.4-3.76 3-7.81 5.71-12.91 6.27-3.62.4-6.05-.95-6.84-4.57a18.37 18.37 0 0 1 .9-9.66c1.7-5.27 3.61-10.48 5.53-15.68 2.27-6.13 4.65-12.22 7-18.33 4.05-10.7 8.14-21.39 12.11-32.12 5-13.52 10.65-26.8 14.67-40.68a60.48 60.48 0 0 0 2.67-21.45 33.87 33.87 0 0 0 -2.3-10.72c-2.67-6.49-7.49-10.44-13.61-12.91a41.48 41.48 0 0 0 -15-2.54 47.83 47.83 0 0 0 -7.54.69c-4.62.7-9.25 1.38-13.82 2.36-7.86 1.68-14.9 5.45-21.95 9.12a114.39 114.39 0 0 0 -26.87 19.75c-5.95 5.78-11.67 11.82-17.24 18-3 3.32-6 6.77-7.55 11.13-1 2.85-2.18 5.49.42 8.21 1.53 1.6 4.29 2.68 6.25 1.59a31.08 31.08 0 0 0 6.34-4.28c4.77-4.49 9.27-9.26 14-13.83 4.14-4 8.47-7.87 14-10a21.7 21.7 0 0 1 7.42-1.81c3.65 0 6.35 3.8 5.54 7.47a70 70 0 0 1 -2.81 9.37c-2.93 7.88-6 15.7-9 23.54-3.42 8.88-6.78 17.79-10.28 26.64s-7.28 17.47-10.61 26.32c-3.55 9.46-7.13 18.93-9.92 28.62-2.21 7.66-3.3 15.64-4.79 23.49a36.22 36.22 0 0 0 .33 14.84 21.38 21.38 0 0 0 8.66 13.16c5.57 3.93 12.08 4.83 19.05 5.05 3-.23 6.41-.26 9.72-.78a83.8 83.8 0 0 0 26-8.52c6.67-3.5 13.2-7.34 19.49-11.49a148 148 0 0 0 27.36-22.67c5.94-6.42 11.61-13 16-20.52 2.15-3.66 3.9-7.51 1.39-11.84a5 5 0 0 0 -5.02-2.19z" fill="url(#h)" transform="translate(0 8.52)"/><circle cx="346.89" cy="187.8" fill="url(#i)" r="35.23"/></svg>