<svg viewBox="0 0 47.68 47.67" xmlns="http://www.w3.org/2000/svg" xmlns:xlink="http://www.w3.org/1999/xlink"><clipPath id="a" transform="translate(-5.87 -5.87)"><path d="m0 0h59.41v59.41h-59.41z"/></clipPath><g clip-path="url(#a)"><path d="m50.84 29.31a21.09 21.09 0 1 1 -21.09-21.09 21.09 21.09 0 0 1 21.09 21.09" fill="#fff" fill-rule="evenodd" transform="translate(-5.87 -5.87)"/><path d="m26.66 24.2c.64 1.54 1.17 3.14 1.6 4.55a1.74 1.74 0 0 1 .93 1.25 9.57 9.57 0 0 1 -.66 4 1 1 0 0 1 -1 .57v1.57h-2.27v-1.44h-8.09v1.45h-2.17v-1.53c-.79.07-1.18-.66-1.42-1.37-.2-.94-1-3.52.47-4.48.54-1.53 1.17-3.15 1.67-4.57z" fill="#e30613" transform="translate(-5.87 -5.87)"/><path d="m25.92 25a12.57 12.57 0 0 1 1.21 3.64 62.73 62.73 0 0 0 -11.95.09 33.34 33.34 0 0 1 1.25-3.73z" fill="#fff" transform="translate(-5.87 -5.87)"/><path d="m43.89 24c.64 1.54 1.17 3.15 1.6 4.55a1.76 1.76 0 0 1 .93 1.26c.2 1.61-.31 2.62-.66 4a.94.94 0 0 1 -1 .56v1.63h-2.27v-1.45h-8.09v1.45h-2.19v-1.53c-.8.07-1.19-.66-1.42-1.37-.2-1-1-3.53.47-4.48.54-1.54 1.17-3.16 1.67-4.58z" transform="translate(-5.87 -5.87)"/><path d="m43.15 24.88a12.57 12.57 0 0 1 1.21 3.64 61.92 61.92 0 0 0 -12 .1 33.49 33.49 0 0 1 1.25-3.74z" fill="#fff" transform="translate(-5.87 -5.87)"/><path d="m8.68 30.04h30.42v.68h-30.42z"/><path d="m29.7 5.87a23.84 23.84 0 1 0 23.84 23.83 23.83 23.83 0 0 0 -23.84-23.83m0 41.34a17.51 17.51 0 1 1 17.51-17.51 17.51 17.51 0 0 1 -17.51 17.51" fill="#e30613" fill-rule="evenodd" transform="translate(-5.87 -5.87)"/></g></svg>