<?xml version="1.0"?>
<svg xmlns="http://www.w3.org/2000/svg" xmlns:xlink="http://www.w3.org/1999/xlink" xmlns:svgjs="http://svgjs.com/svgjs" version="1.1" width="512" height="512" x="0" y="0" viewBox="0 0 497 497" style="enable-background:new 0 0 512 512" xml:space="preserve" class=""><g><g xmlns="http://www.w3.org/2000/svg"><g><path d="m216 497v-480.171c0-9.294 7.535-16.829 16.829-16.829h31.347c9.292 0 16.824 7.532 16.824 16.824v480.176z" fill="#f5f6f9" data-original="#a9b2cc" style="" class=""/></g><path d="m264.176 0h-31.347c-.279 0-.551.028-.826.042 8.905.434 15.997 7.77 15.997 16.782v480.176h33v-480.176c0-9.292-7.532-16.824-16.824-16.824z" fill="#e6ebfb" data-original="#8f9bbf" style="" class=""/><circle cx="248.5" cy="248.833" fill="#ff2e2e" r="208.667" data-original="#ff2e2e" style="" class=""/><circle cx="248.5" cy="248.833" fill="#ffffff" r="178.667" data-original="#ffffff" style="" class=""/><path d="m248.5 70.167c-6.761 0-13.432.391-20 1.126 89.137 9.975 158.667 85.785 158.667 177.541s-69.53 167.565-158.667 177.54c6.568.735 13.239 1.126 20 1.126 98.517 0 178.667-80.149 178.667-178.667s-80.15-178.666-178.667-178.666z" fill="#e1edf7" data-original="#e1edf7" style="" class=""/><g><g><g><g><path d="m225.474 256.494c-3.042 0-5.903-1.864-7.028-4.881l-14.971-41.578c-1.119-3.105-4.014-5.139-7.232-5.139h-48.941c-3.218 0-6.113 2.034-7.203 5.061l-15.046 41.588c-1.41 3.895-5.71 5.908-9.604 4.501-3.895-1.409-5.91-5.709-4.501-9.604l15.042-41.579c3.225-8.948 11.791-14.967 21.312-14.967h48.941c9.521 0 18.087 6.019 21.315 14.976l14.942 41.5c1.447 3.881-.526 8.201-4.407 9.648-.864.321-1.749.474-2.619.474z" fill="#ff2e2e" data-original="#ff2e2e" style="" class=""/></g><g fill="#ff2e2e"><path d="m222.518 280.349h-101.492c-6.627 0-12-5.372-12-12v-16.325c0-6.627 5.372-12 12-12h101.492c6.627 0 12 5.372 12 12v16.325c0 6.627-5.373 12-12 12z" fill="#ff2e2e" data-original="#ff2e2e" style="" class=""/><g><path d="m137.51 302.763h-9.345c-4.279 0-7.748-3.469-7.748-7.748v-14.666h24.84v14.666c0 4.279-3.468 7.748-7.747 7.748z" fill="#000000" data-original="#000000" style="" class=""/><path d="m215.38 302.763h-9.345c-4.279 0-7.748-3.469-7.748-7.748v-14.666h24.84v14.666c.001 4.279-3.468 7.748-7.747 7.748z" fill="#000000" data-original="#000000" style="" class=""/></g></g></g></g><g><g><g><path d="m378.929 256.494c-3.042 0-5.903-1.864-7.028-4.881l-14.971-41.578c-1.119-3.105-4.014-5.139-7.232-5.139h-48.941c-3.218 0-6.113 2.034-7.203 5.061l-15.046 41.588c-1.41 3.895-5.71 5.908-9.604 4.501-3.895-1.409-5.91-5.709-4.501-9.604l15.042-41.579c3.225-8.948 11.791-14.967 21.312-14.967h48.941c9.521 0 18.087 6.019 21.315 14.976l14.942 41.5c1.447 3.881-.526 8.201-4.407 9.648-.863.321-1.748.474-2.619.474z" fill="#4e4f59" data-original="#4e4f59" style="" class=""/></g><g fill="#4e4f59"><path d="m375.974 280.349h-101.492c-6.627 0-12-5.372-12-12v-16.325c0-6.627 5.372-12 12-12h101.492c6.627 0 12 5.372 12 12v16.325c-.001 6.627-5.373 12-12 12z" fill="#4e4f59" data-original="#4e4f59" style="" class=""/><g><path d="m290.965 302.763h-9.345c-4.279 0-7.748-3.469-7.748-7.748v-14.666h24.84v14.666c.001 4.279-3.468 7.748-7.747 7.748z" fill="#000000" data-original="#000000" style="" class=""/><path d="m368.835 302.763h-9.345c-4.279 0-7.748-3.469-7.748-7.748v-14.666h24.84v14.666c.001 4.279-3.468 7.748-7.747 7.748z" fill="#000000" data-original="#000000" style="" class=""/></g></g></g></g></g></g></g></svg>
