<svg height="500pt" viewBox="0 -5 500.947 500" width="500pt" xmlns="http://www.w3.org/2000/svg"><path d="m225.527344 259.429688-33.929688 19.957031 93.800782 53.886719 149.6875-85.320313 41.910156 19.957031 23.949218-91.804687-131.722656 33.925781 33.929688 19.960938-21.953125 11.972656-91.808594 53.386718zm0 0" fill="#ff5d42"/><path d="m191.597656 279.386719v25.945312l93.800782 53.886719v-25.945312zm0 0" fill="#c73d2c"/><path d="m435.085938 247.953125-149.6875 85.320313.125 26.070312 149.5625-87.441406zm0 0" fill="#912621"/><path d="m435.085938 247.953125v23.949219l41.910156 23.949218v-27.941406zm0 0" fill="#c73d2c"/><path d="m476.996094 267.910156v27.941406l23.949218-89.808593v-29.9375zm0 0" fill="#912621"/><path d="m369.222656 210.03125v25.945312l11.976563 5.988282 21.953125-11.972656zm0 0" fill="#c73d2c"/><path d="m137.710938 349.738281 39.917968-21.953125 99.789063 59.875 29.9375-17.964844 39.914062 93.804688-143.695312-33.929688 13.96875-7.980468 23.949219-13.972656zm0 0" fill="#0ec478"/><path d="m203.574219 429.570312v29.9375l143.695312 31.933594v-27.941406zm0 0" fill="#089970"/><path d="m137.710938 349.738281v27.941407l79.832031 43.910156 23.949219-13.972656zm0 0" fill="#089970"/><path d="m75.839844 243.960938 227.523437-129.726563 83.824219 49.894531-33.929688 19.957032-45.902343-27.9375-189.601563 109.765624 19.960938 12.285157 15.964844 7.675781-153.679688 25.945312 43.910156-87.816406zm0 0" fill="#82d3ff"/><path d="m353.257812 184.085938v25.945312l33.929688-19.957031v-25.945313zm0 0" fill="#1f5c9c"/><path d="m307.355469 156.148438v25.945312l45.902343 27.9375v-25.945312zm0 0" fill="#639deb"/><path d="m117.753906 265.914062 19.960938 12.285157 169.640625-96.105469v-25.945312zm0 0" fill="#1f5c9c"/><path d="m153.679688 285.875v25.945312l-153.679688 23.949219v-23.949219zm0 0" fill="#1f5c9c"/><path d="m197.585938 132.199219 35.925781-21.957031-79.832031-45.902344-23.953126-13.972656 39.917969-21.953126-137.710937-27.941406 29.9375 89.8125 33.925781-19.957031zm0 0" fill="#ffd900"/><path d="m197.585938 132.199219v25.945312l35.925781-21.957031v-25.945312zm0 0" fill="#c77e00"/><path d="m31.933594.472656v25.945313l29.9375 91.808593v-27.941406zm0 0" fill="#e8ae00"/><path d="m95.796875 70.328125-33.925781 19.957031v27.941406l33.925781-17.964843zm0 0" fill="#c77e00"/><path d="m129.726562 50.367188 23.953126 13.972656 15.964843-9.980469v-25.945313zm0 0" fill="#c77e00"/><path d="m95.796875 70.328125v29.933594l101.789063 57.882812v-25.945312zm0 0" fill="#e8ae00"/></svg>