<svg height="512" viewBox="0 0 48 48" width="512" xmlns="http://www.w3.org/2000/svg"><g id="_15-oil" data-name="15-oil"><path d="m39 43v4h-30v-4h2 26z" fill="#7989af"/><path d="m47 11v8h-6v-6l2-2z" fill="#41c67d"/><path d="m37 3v16h-26v-16a2.006 2.006 0 0 1 2-2h22a2.006 2.006 0 0 1 2 2zm-4 12v-10h-18v10z" fill="#7989af"/><path d="m15 5h18v10h-18z" fill="#66b4ff"/><path d="m37 39v4h-26v-24h26zm-6-8a7 7 0 1 0 -7 7 6.995 6.995 0 0 0 7-7z" fill="#41c67d"/><path d="m24 24a7 7 0 1 1 -7 7 6.995 6.995 0 0 1 7-7zm0 11a3 3 0 0 0 3-3c0-1.66-3-5-3-5s-3 3.34-3 5a3 3 0 0 0 3 3z" fill="#ccd3eb"/><path d="m27 32a3 3 0 0 1 -6 0c0-1.66 3-5 3-5s3 3.34 3 5z" fill="#586889"/><path d="m39 43v4h-30v-4h2 26z" fill="#7989af"/><path d="m37 3v16h-26v-16a2.006 2.006 0 0 1 2-2h22a2.006 2.006 0 0 1 2 2z" fill="#7989af"/><path d="m37 39v4h-26v-24h26z" fill="#41c67d"/><path d="m46 11h-2v-3a2.852 2.852 0 0 0 -3-3v-2a4.821 4.821 0 0 1 5 5z" fill="#192b44"/><path d="m41 40h-4v-2h4a3 3 0 0 0 3-3v-16h2v16a5.006 5.006 0 0 1 -5 5z" fill="#192b44"/><circle cx="24" cy="31" fill="#07a260" r="8"/><path d="m24 24a7 7 0 1 1 -7 7 6.995 6.995 0 0 1 7-7z" fill="#ccd3eb"/><path d="m27 32a3 3 0 0 1 -6 0c0-1.66 3-5 3-5s3 3.34 3 5z" fill="#586889"/><path d="m21.517 30.431a3.684 3.684 0 0 0 -.517 1.569 2.99 2.99 0 0 0 5.264 1.951 6 6 0 0 1 -4.747-3.52z" fill="#2b3e5b"/><path d="m9 43h30v2h-30z" fill="#adb5d5"/><path d="m11 41h26v2h-26z" fill="#07a260"/><path d="m11 19h26v2h-26z" fill="#07a260"/><path d="m35 1h-22a2.006 2.006 0 0 0 -2 2v16h26v-16a2.006 2.006 0 0 0 -2-2zm1 17h-24v-14.222a1.818 1.818 0 0 1 1.846-1.778h20.308a1.818 1.818 0 0 1 1.846 1.778z" fill="#96a1c3"/><path d="m14 4h20v12h-20z" fill="#415372"/><path d="m15 5h18v10h-18z" fill="#66b4ff"/><path d="m20 5a9.995 9.995 0 0 0 10 10h3v-10z" fill="#70d9ff"/><path d="m47 11v8h-6v-6l2-2z" fill="#41c67d"/><path d="m41 13v6l1-1v-4z" fill="#07a260"/><path d="m44 12-1-1-2 2 1 1z" fill="#4de890"/><path d="m46 12h1v-1h-2-2l1 1z" fill="#82ffb4"/><path d="m47 19h-6l1-1h5z" fill="#0e7950"/><rect fill="#0e7950" height="1" rx=".5" width="16" x="11" y="41"/><rect fill="#0e7950" height="1" rx=".5" width="2" x="28" y="41"/><rect fill="#65769c" height="1" rx=".5" width="6" x="27" y="18"/><rect fill="#65769c" height="1" rx=".5" width="2" x="34" y="18"/><path d="m9 46h30v1h-30z" fill="#2b3e5b"/><path d="m36 3.778a1.818 1.818 0 0 0 -1.846-1.778h-20.308a1.818 1.818 0 0 0 -1.846 1.778v8.4a37.787 37.787 0 0 0 2.521 5.822h21.479z" fill="#96a1c3"/><path d="m19.107 24.681a8 8 0 0 1 12.239 9.486 37.664 37.664 0 0 0 5.654 2.213v-15.38h-20.677a38.122 38.122 0 0 0 2.784 3.681z" fill="#57ff9b"/><path d="m24 23a7.953 7.953 0 0 0 -4.893 1.681c.216.253.431.508.654.755a7 7 0 0 1 10.7 8.276c.3.154.59.309.89.455a8 8 0 0 0 -7.351-11.167z" fill="#41c67d"/><path d="m22.813 28.455c.632-.836 1.187-1.455 1.187-1.455s2.618 2.916 2.962 4.653a37.966 37.966 0 0 0 3.494 2.059 7 7 0 0 0 -10.695-8.276 38.3 38.3 0 0 0 3.052 3.019z" fill="#f0f3ff"/><path d="m22.813 28.455a38.14 38.14 0 0 0 4.149 3.2c-.344-1.739-2.962-4.655-2.962-4.655s-.555.619-1.187 1.455z" fill="#7989af"/><path d="m16.323 21h20.677v-2h-21.912c.393.679.802 1.348 1.235 2z" fill="#41c67d"/><path d="m35 1a1.98 1.98 0 0 1 .777.158 1.98 1.98 0 0 0 -.777-.158z" fill="#96a1c3"/><path d="m36.657 1.884a2.018 2.018 0 0 0 -.541-.541 2.018 2.018 0 0 1 .541.541z" fill="#96a1c3"/><path d="m12 3.778a1.818 1.818 0 0 1 1.846-1.778h20.308a1.818 1.818 0 0 1 1.846 1.778v14.222h-21.479c.182.338.376.668.567 1h21.912v-16a1.984 1.984 0 0 0 -.343-1.116 2.023 2.023 0 0 0 -.88-.726 1.98 1.98 0 0 0 -.777-.158h-22a2.006 2.006 0 0 0 -2 2v5.655q.417 1.794 1 3.518z" fill="#ccd3eb"/><path d="m14 4h20v12h-20z" fill="#586889"/><path d="m15 5h18v10h-18z" fill="#66b4ff"/><path d="m20 5a9.995 9.995 0 0 0 10 10h3v-10z" fill="#91e2ff"/><rect fill="#7989af" height="1" rx=".5" width="6" x="27" y="18"/><rect fill="#7989af" height="1" rx=".5" width="2" x="34" y="18"/><g fill="#f6fafd"><ellipse cx="24.746" cy="29.5" rx=".413" ry=".574" transform="matrix(.707 -.707 .707 .707 -13.613 26.152)"/><ellipse cx="34.746" cy="31.5" rx=".413" ry=".574" transform="matrix(.707 -.707 .707 .707 -12.096 33.811)"/><ellipse cx="45.746" cy="13.5" rx=".413" ry=".574" transform="matrix(.707 -.707 .707 .707 3.86 36.316)"/><ellipse cx="23" cy="8" rx=".825" ry="1.148" transform="matrix(.707 -.707 .707 .707 1.083 18.614)"/><ellipse cx="33" cy="33" rx=".825" ry="1.148" transform="matrix(.707 -.707 .707 .707 -13.669 33.016)"/><ellipse cx="26" cy="11" rx="1.65" ry="2.297" transform="matrix(.707 -.707 .707 .707 -.159 21.616)"/></g></g></svg>