<svg id="Capa_1" enable-background="new 0 0 512 512" height="512" viewBox="0 0 512 512" width="512" xmlns="http://www.w3.org/2000/svg"><g><g><g><path d="m437 136c-8.284 0-15-6.716-15-15 0-41.355 33.645-75 75-75 8.284 0 15 6.716 15 15s-6.716 15-15 15c-24.813 0-45 20.187-45 45 0 8.285-6.716 15-15 15z" fill="#f89580"/></g></g><path d="m512 181c0 8.29-6.72 15-15 15-24.81 0-45 20.19-45 45v150c0 41.36-33.64 75-75 75h-362c-8.28 0-15-6.71-15-15 0-41.35 33.64-75 75-75h60l225-105v-90c0-41.39 35.45-75 77-75 41.36 0 75 33.649 75 75z" fill="#ffe1ba"/><path d="m512 181c0 8.29-6.72 15-15 15-24.81 0-45 20.19-45 45v150c0 41.36-33.64 75-75 75h-182v-118l165-77v-90c0-41.39 35.45-75 77-75 41.36 0 75 33.649 75 75z" fill="#ffbfab"/><g><path d="m195 76c-98.68 0-179.24 74.1-192.8 165.429-8.61 57.99 8.79 116.16 47.74 159.59 2.85 3.17 6.91 4.98 11.17 4.98h223.89c57.9 0 105-47.1 105-105v-30c0-108.379-88.01-194.999-195-194.999z" fill="#c86e59"/></g><path d="m390 271v30c0 57.9-47.1 105-105 105h-90v-330c106.99 0 195 86.62 195 195z" fill="#a34f3e"/><g><path d="m195 136c-74.44 0-135 60.56-135 135 0 23.52 6.29 46.25 18.68 67.55 2.69 4.61 7.62 7.45 12.96 7.45h206.72c5.34 0 10.27-2.84 12.96-7.45 12.39-21.3 18.68-44.03 18.68-67.55 0-74.44-60.56-135-135-135z" fill="#474f54"/><path d="m330 271c0 23.52-6.29 46.25-18.68 67.55-2.69 4.61-7.62 7.45-12.96 7.45h-103.36v-210c74.44 0 135 60.56 135 135z" fill="#32393f"/></g><g><path d="m195 286c-3.839 0-7.678-1.464-10.606-4.393l-42.409-42.409c-5.858-5.858-5.858-15.355 0-21.213 5.857-5.858 15.355-5.858 21.213 0l42.409 42.409c5.858 5.858 5.858 15.355 0 21.213-2.929 2.929-6.768 4.393-10.607 4.393z" fill="#ff641a"/></g></g></svg>