<?xml version="1.0" encoding="utf-8"?>
<!-- Generator: Adobe Illustrator 21.1.0, SVG Export Plug-In . SVG Version: 6.00 Build 0)  -->
<svg xmlns="http://www.w3.org/2000/svg" xmlns:xlink="http://www.w3.org/1999/xlink" version="1.1" id="Layer_1" x="0px" y="0px" width="512" height="512" viewBox="0 0 200 200" enable-background="new 0 0 200 200" xml:space="preserve">
<g>
	<g>
		<path fill="#5D6D7E" d="M65.911,11.362c-0.585,0-1.164,0.224-1.611,0.659c-0.438,0.452-0.668,1.029-0.668,1.611V197.73    c0,0.582,0.231,1.164,0.668,1.597c0.447,0.452,1.024,0.673,1.611,0.673h68.182c0.577,0,1.159-0.221,1.6-0.673    c0.452-0.433,0.67-1.015,0.67-1.597V13.632c0-0.582-0.217-1.159-0.67-1.611c-0.442-0.435-1.024-0.659-1.6-0.659    C134.094,11.362,65.911,11.362,65.911,11.362z"/>
		<path fill="#283A4D" d="M131.742,11.362H68.258V6.818c0-1.746,0.659-3.492,1.996-4.824C71.592,0.661,73.333,0,75.077,0h49.843    c1.755,0,3.5,0.661,4.822,1.995c1.337,1.332,2.002,3.078,2.002,4.824v4.543H131.742z"/>
		<g>
			<g>
				<rect x="136.364" y="15.984" fill="#283A4D" width="4.543" height="58.179"/>
				<rect x="136.364" y="76.592" fill="#283A4D" width="4.543" height="58.179"/>
				<rect x="136.364" y="137.199" fill="#283A4D" width="4.543" height="58.179"/>
			</g>
		</g>
		<path fill="#C1D354" d="M122.727,166.285c0,12.552-10.177,22.722-22.727,22.722c-12.555,0-22.725-10.17-22.725-22.722    c0-12.555,10.17-22.725,22.725-22.725C112.55,143.562,122.727,153.73,122.727,166.285z"/>
		<path fill="#FF9D4D" d="M122.727,105.678c0,12.559-10.177,22.725-22.727,22.725c-12.555,0-22.725-10.166-22.725-22.725    c0-12.555,10.17-22.727,22.725-22.727C112.55,82.951,122.727,93.125,122.727,105.678z"/>
		<path fill="#F28124" d="M122.727,45.072c0,12.559-10.177,22.734-22.727,22.734c-12.555,0-22.725-10.175-22.725-22.734    c0-12.548,10.17-22.725,22.725-22.725C112.55,22.345,122.727,32.523,122.727,45.072z"/>
		<g>
			<g>
				<path fill="#34495E" d="M128.409,166.285h-2.275c0-14.417-11.723-26.14-26.134-26.14s-26.136,11.723-26.136,26.14h-2.268      c0-15.667,12.738-28.409,28.404-28.409S128.409,150.62,128.409,166.285z"/>
				<path fill="#34495E" d="M128.409,105.678h-2.275c0-14.408-11.723-26.133-26.134-26.133s-26.136,11.723-26.136,26.133h-2.268      c0-15.665,12.738-28.411,28.404-28.411C115.667,77.267,128.409,90.015,128.409,105.678z"/>
				<path fill="#34495E" d="M128.409,45.072h-2.275c0-14.41-11.723-26.136-26.134-26.136S73.864,30.662,73.864,45.072h-2.268      c0-15.667,12.738-28.402,28.404-28.402C115.667,16.667,128.409,29.405,128.409,45.072z"/>
			</g>
		</g>
		<g>
			<g>
				<polygon fill="#34495E" points="145.452,45.072 140.907,45.072 140.907,16.667 157.045,16.667     "/>
				<polygon fill="#34495E" points="145.452,105.678 140.907,105.678 140.907,77.267 157.045,77.267     "/>
				<polygon fill="#34495E" points="145.452,166.285 140.907,166.285 140.907,137.875 157.045,137.875     "/>
			</g>
		</g>
		<g>
			<g>
				<rect x="59.093" y="15.984" fill="#283A4D" width="4.54" height="58.179"/>
				<rect x="59.093" y="76.592" fill="#283A4D" width="4.54" height="58.179"/>
				<rect x="59.093" y="137.199" fill="#283A4D" width="4.54" height="58.179"/>
			</g>
		</g>
		<g>
			<g>
				<polygon fill="#34495E" points="54.543,45.072 59.093,45.072 59.093,16.667 42.955,16.667     "/>
				<polygon fill="#34495E" points="54.543,105.678 59.093,105.678 59.093,77.267 42.955,77.267     "/>
				<polygon fill="#34495E" points="54.543,166.285 59.093,166.285 59.093,137.875 42.955,137.875     "/>
			</g>
		</g>
		
			<ellipse transform="matrix(0.7071 -0.7072 0.7072 0.7071 1.1599 74.9134)" fill="#FAAD46" cx="90.999" cy="36.057" rx="8.016" ry="6.661"/>
		
			<ellipse transform="matrix(0.7072 -0.707 0.707 0.7072 -41.6983 92.633)" fill="#FFCF66" cx="90.991" cy="96.661" rx="8.017" ry="6.659"/>
		<path fill="#DBEBA0" d="M96.657,151.6c2.601,2.606,2.168,7.248-0.962,10.377c-3.125,3.13-7.775,3.563-10.377,0.957    c-2.601-2.596-2.173-7.246,0.961-10.371C89.411,149.426,94.056,149.004,96.657,151.6z"/>
	</g>
</g>
</svg>
