<?xml version="1.0"?>
<svg xmlns="http://www.w3.org/2000/svg" xmlns:xlink="http://www.w3.org/1999/xlink" xmlns:svgjs="http://svgjs.com/svgjs" version="1.1" width="512" height="512" x="0" y="0" viewBox="0 0 59 59" style="enable-background:new 0 0 512 512" xml:space="preserve" class=""><g><g xmlns="http://www.w3.org/2000/svg" id="Page-1" fill="none" fill-rule="evenodd"><g id="002---Car-Parking" fill-rule="nonzero"><path id="Shape" d="m27 51h5v6c0 1.1045695-.8954305 2-2 2h-1c-1.1045695 0-2-.8954305-2-2z" fill="#464f5d" data-original="#464f5d" style="" class=""/><path id="Shape" d="m52 51h5v6c0 1.1045695-.8954305 2-2 2h-1c-1.1045695 0-2-.8954305-2-2z" fill="#464f5d" data-original="#464f5d" style="" class=""/><path id="Shape" d="m37.31 1h-33.64c-1.50648662.01622927-2.72377073 1.23351338-2.74 2.74v33.62c.05992067 1.4713426 1.26744697 2.6347986 2.74 2.64h19.87c-.1898749-.308953-.3283422-.646678-.41-1-.0886687-.3258582-.1324064-.662302-.13-1 0-2.209139 1.790861-4 4-4h.6l1.48-5.2c.9943332-3.4241672 4.1244154-5.7849574 7.69-5.8h3.23v-19.31c-.0005519-1.48541732-1.2045827-2.68944811-2.69-2.69z" fill="#3b97d3" data-original="#3b97d3" style="" class=""/><path id="Shape" d="m37.32 0h-33.59c-2.0532742.02545538-3.71004209 1.68666501-3.73 3.74v33.65c.08354158 2.004656 1.72368449 3.5920329 3.73 3.61h20.63c-.0714288-.058124-.1382918-.1216438-.2-.19-.248227-.2354906-.4574978-.5088928-.62-.81-.1898749-.308953-.3283422-.646678-.41-1h-19.4c-.91918023-.0042602-1.67668523-.7223574-1.73-1.64v-33.59c.00081528-.96170115.76856867-1.74720607 1.73-1.77h33.59c.9303713.00330832 1.6822132.75962548 1.68 1.69v19.31h2v-19.31c-.0010909-2.03357762-1.6464328-3.68339061-3.68-3.69z" fill="#ecf0f1" data-original="#ecf0f1" style="" class=""/><path id="Shape" d="m30 40h-3c-1.1011688-.0081672-1.9918328-.8988312-2-2 .0032948-1.1032019.8967981-1.9967052 2-2h3z" fill="#1f3c88" data-original="#e64c3c" style="" class=""/><path id="Shape" d="m54 36.5v-.5h3c1.1032019.0032948 1.9967052.8967981 2 2-.0081672 1.1011688-.8988312 1.9918328-2 2h-3z" fill="#1f3c88" data-original="#e64c3c" style="" class=""/><path id="Shape" d="m11 33v-25c0-1.1045695.8954305-2 2-2h8.165c5.080352-.06659026 9.3557736 3.78882664 9.813 8.849.1773881 2.6257554-.7412496 5.2076235-2.5373122 7.1312184-1.7960626 1.9235948-4.3089489 3.0169112-6.9406878 3.0197816h-5.5v8c0 1.1045695-.8954305 2-2 2h-1c-1.1045695 0-2-.8954305-2-2zm5-13h5.5c2.4852814 0 4.5-2.0147186 4.5-4.5s-2.0147186-4.5-4.5-4.5h-5.5z" fill="#ffffff" data-original="#ffffff" style="" class=""/><path id="Shape" d="m52.036 29.626 2.964 10.374h-26l2.964-10.374c.6134724-2.146487 2.5755675-3.6262201 4.808-3.626h10.456c2.2324325-.0002201 4.1945276 1.479513 4.808 3.626z" fill="#9fc9d3" data-original="#9fc9d3" style="" class=""/><path id="Shape" d="m35 33c-.4043959-.0000863-.7689341-.2437275-.923678-.6173454-.1547439-.373618-.0692299-.8036603.216678-1.0896546l2-2c.3923789-.3789722 1.0160848-.3735524 1.4018186.0121814s.3911536 1.0094397.0121814 1.4018186l-2 2c-.1874927.1875494-.4418052.2929434-.707.293z" fill="#ffffff" data-original="#ffffff" style="" class=""/><path id="Shape" d="m37 37c-.4043959-.0000863-.7689341-.2437275-.923678-.6173454-.1547439-.373618-.0692299-.8036603.216678-1.0896546l6-6c.3923789-.3789722 1.0160848-.3735524 1.4018186.0121814s.3911536 1.0094397.0121814 1.4018186l-6 6c-.1874927.1875494-.4418052.2929434-.707.293z" fill="#ffffff" data-original="#ffffff" style="" class=""/><path id="Shape" d="m55.6 43.114c-.4464878-.0003258-.8386624-.2965993-.961-.726l-3.564-12.488c-.496263-1.7131325-2.062446-2.8940817-3.846-2.9h-10.458c-1.783554.0059183-3.349737 1.1868675-3.846 2.9l-3.492 12.224c-.1518783.5310218-.7054782.8383783-1.2365.6865s-.8383783-.7054782-.6865-1.2365l3.49-12.222c.74358-2.571399 3.0942591-4.3440824 5.771-4.352h10.458c2.6767409.0079176 5.02742 1.780601 5.771 4.352l3.567 12.486c.0731202.2550066.0419179.5286176-.0867396.7606137s-.3442258.4033636-.5992604.4763863c-.0913791.0260904-.1859695.0392186-.281.039z" fill="#95a5a5" data-original="#95a5a5" style=""/><path id="Shape" d="m29 40h26c2.209139 0 4 1.790861 4 4v6c0 1.1045695-.8954305 2-2 2h-30c-1.1045695 0-2-.8954305-2-2v-6c0-2.209139 1.790861-4 4-4z" fill="#1f3c88" data-original="#e64c3c" style="" class=""/><path id="Shape" d="m35 48h-5c-.5522847 0-1-.4477153-1-1v-1.847c.0000028-.2898154.1257384-.565375.3446411-.7553081.2189027-.189933.5094389-.2755559.7963589-.2346919l5 .714c.4928351.070191.8589952.4921916.859.99v1.133c0 .5522847-.4477153 1-1 1z" fill="#f3d55b" data-original="#f3d55b" style=""/><path id="Shape" d="m49 48h5c.5522847 0 1-.4477153 1-1v-1.847c-.0000028-.2898154-.1257384-.565375-.3446411-.7553081-.2189027-.189933-.5094389-.2755559-.7963589-.2346919l-5 .714c-.4928351.070191-.8589952.4921916-.859.99v1.133c0 .5522847.4477153 1 1 1z" fill="#f3d55b" data-original="#f3d55b" style=""/><g fill="#c03a2b"><path id="Shape" d="m44 45h-4c-.5522847 0-1-.4477153-1-1s.4477153-1 1-1h4c.5522847 0 1 .4477153 1 1s-.4477153 1-1 1z" fill="#c03a2b" data-original="#c03a2b" style="" class=""/><path id="Shape" d="m44 49h-4c-.5522847 0-1-.4477153-1-1s.4477153-1 1-1h4c.5522847 0 1 .4477153 1 1s-.4477153 1-1 1z" fill="#c03a2b" data-original="#c03a2b" style="" class=""/></g></g></g></g></svg>
