<svg viewBox="0 0 657.42 803.43" xmlns="http://www.w3.org/2000/svg" xmlns:xlink="http://www.w3.org/1999/xlink"><linearGradient id="a" gradientUnits="userSpaceOnUse" x1="310.59" x2="310.59" y2="192.92"><stop offset="0" stop-color="#796654"/><stop offset="1" stop-color="#5c3836"/></linearGradient><linearGradient id="b" gradientUnits="userSpaceOnUse" x1="356.65" x2="356.65" y1="538.29" y2="369.06"><stop offset=".01" stop-color="#231f20"/><stop offset="1" stop-color="#463836"/></linearGradient><path d="m613.76 803.16h-585.85c.06-.72.12-1.45.14-2.2 1-15.37 2.35-36.89 4.18-62.35 0-.2 0-.4 0-.61 2.2-30.59 5-66.84 8.41-105 2.76-30.83 5.91-62.89 9.42-94.19 7.95-70.61 17.82-137.44 29.47-177.72 16-55.32 53.16-87.89 93.42-106.94 7.17-3.4 14.46-6.4 21.72-9 8.21-2.93 16.43-5.38 24.48-7.43 7.65-2 15.16-3.57 22.4-4.85a347 347 0 0 1 55.68-5.3h.61 8.07c3 0 5.39.15 7 .21h.51l2.06.13c1.18-.08 2.39-.17 3.66-.21h2c1.08 0 2.14 0 3.23-.09s2.19 0 3.26 0q3 0 6.12.08a341.12 341.12 0 0 1 60.21 7.29l2.88.62q5.21 1.15 10.51 2.48a317.17 317.17 0 0 1 36 11.28 254.94 254.94 0 0 1 27.73 12.3c2.71 1.38 5.33 2.81 8 4.28 1.51.89 3 1.72 4.53 2.65s3.27 2 4.87 3a195.46 195.46 0 0 1 23.51 17.38c1.41 1.27 2.84 2.53 4.2 3.79 1.62 1.51 3.2 3 4.74 4.58a144.66 144.66 0 0 1 35.91 58.22q2 6.22 3.53 12.84c1.31 5.83 2.66 12.53 4 20q.36 1.93.72 4c.13.69.25 1.38.38 2.08 3.48 19.63 7.1 43.71 10.74 70.43 5.87 42.95 11.78 92.66 17.19 141.3 5 45.4 9.66 89.88 13.39 127.1.12 1.19.24 2.38.35 3.56 2.86 26.86 5.05 49.86 6.62 66.29z" fill="#a2907b"/><path d="m527.91 410.71s-.08.45-.25 1.32c-.22 1.15-.57 3-1.06 5.51-.43 2.3-1 5.13-1.61 8.42-.55 2.9-1.18 6.16-1.88 9.74-4.89 25.42-12.84 66.36-20.49 104-.56 2.7-1.1 5.39-1.65 8.06 0 .12-.05.22-.06.34-.11.49-.22 1-.32 1.48-.58 2.88-1.18 5.73-1.75 8.54-.56 2.65-1.1 5.27-1.64 7.84q-1 4.59-1.88 9-1.69 7.88-3.24 15c-1 4.62-2 8.94-2.87 12.9-.24 1-.48 2-.7 3a.45.45 0 0 0 0 .11q-.86 3.66-1.63 6.81a.13.13 0 0 1 0 .06q-.64 2.63-1.22 4.85l-.43 1.65c-.05.17-.09.34-.13.51-.81 3-1.5 5.22-2 6.68-.74 2-1.51 4-2.26 5.9-6.28 16-12.71 29.38-14.51 33.08-.33.66-.5 1-.5 1l-.87 9-2.42 25.32-1.95 20.42-2.73 28.5-5.1 53.43h-87.33c-.31.62-1 0-1 0h-165l-5.84-46.18-.9-7.09-.76-6.1-2.68-21.39-1.25-10.15-.76-6.15-.51-4-.2-1.55-.26-2.16-3.66-29.06-.36-2.86-.43-1-10.89-25.12-3.12-7.18c-.3-.53-.62-1.1-.94-1.71-.21-.41-.42-.83-.63-1.27s-.41-.85-.61-1.3c-.7-1.49-1.42-3.14-2.15-4.93-.33-.84-.67-1.73-1-2.65s-.78-2.06-1.16-3.16-.84-2.39-1.26-3.63c-.2-.58-.39-1.16-.59-1.76-.26-.76-.51-1.52-.76-2.31-.09-.26-.17-.54-.26-.82q-1-3.15-2.06-6.57-1.37-4.57-2.78-9.58-1.74-6.24-3.54-13-1.17-4.53-2.37-9.24c-.33-1.33-.66-2.67-1-4l-1.7-7c-.16-.67-.32-1.33-.49-2-1.06-4.41-2.11-8.9-3.15-13.43-14.36-61.98-26.83-131.63-26.83-131.63s0 0 0 0l.44-.12c1.09-.31 4-1.13 8.36-2.36 6.69-1.9 16.66-4.77 28.06-8.17 11.24-3.34 23.85-7.21 36.09-11.16 12.77-4.12 25.14-8.35 35.09-12.2 5.57-2.16 10.4-4.2 14.11-6a30.28 30.28 0 0 0 6.84-4.25 14.27 14.27 0 0 0 2.84-4.16c2.45-5 4.12-12.92 5.26-21.84.56-4.33 1-8.9 1.32-13.52.85-12 1-24.3 1-33.31 0-8.23-.21-13.7-.21-13.7.8-1.28 1.65-2.5 2.52-3.68s1.81-2.32 2.77-3.39a53.49 53.49 0 0 1 13.14-10.69c1.19-.71 2.41-1.36 3.66-2 .66-.32 1.32-.64 2-.94s1.29-.58 2-.86l.42-.16c.32-.14.64-.27 1-.39.84-.34 1.71-.65 2.57-.95 1.35-.46 2.7-.9 4.08-1.29q3.13-.88 6.34-1.53a93.54 93.54 0 0 1 12.95-1.63 108.93 108.93 0 0 1 16.77.28h.05a117.32 117.32 0 0 1 16.44 2.63s0 0 0 0c.56.12 1.13.27 1.67.4l.51.13c2.43.61 4.78 1.3 7 2 .77.24 1.52.51 2.26.77l.33.11.77.28 2.15.82.75.31.29.12.11.05c.66.27 1.3.56 1.92.83.67.29 1.3.59 1.92.9 1.26.61 2.46 1.24 3.57 1.89.55.32 1.08.65 1.61 1s1 .67 1.5 1a28.26 28.26 0 0 1 3.23 2.57c.19.17.38.34.55.51s.33.33.5.52.33.35.48.52a12.26 12.26 0 0 1 1.36 1.79 9.42 9.42 0 0 1 .51.84 8.17 8.17 0 0 1 1 3.14v.59c.25 3.53.51 8.48.81 14.24.56 10.33 1.31 23.34 2.66 35.81.47 4.41 1 8.76 1.68 12.88.15 1 .32 2 .48 2.93 1.84 10.78 4.4 19.78 8 24.26a9.1 9.1 0 0 0 2.58 2.29l.37.2c1.35.65 3.72 1.52 6.89 2.61 4.37 1.47 10.28 3.31 17.18 5.36 1.66.51 3.38 1 5.16 1.53 10.33 3 22.37 6.45 34.57 9.84 13.24 3.67 26.66 7.34 38.33 10.51l5.09 1.36 5.52 1.5c9.58 2.57 17.11 4.57 21 5.61l2.92.79z" fill="#ffc4a1"/><path d="m378 329c-59.06 21.07-108.94-4.25-124.24-16.7 1.63-23 0-30 0-30 29.67-47.61 119.24-23.46 120.71-4 .97 12.31-.42 27.7 3.53 50.7z" opacity=".1"/><path d="m407.92 260.58c.29 11.09-11.53 19.65-30.11 30.93-5.95 3.62-23.41 18.75-23.41 18.75s0 16.41-28.94 18.42c-31.73 2.19-49.86-5.86-52-17.95 0 0-6.74-4.42-10.28-7.37-19.65-16.34-43.4-29.27-43.69-42.17-.81-35.51-.09-81.66-.09-81.66s-5.39-69.6 2-93.75 51.69-40.9 84.6-42.26c26.16-1.07 85.85 8.72 97.93 52.33 0 0 6.41 26.59 3.06 77.56.01 0 .01 50.59.93 87.17z" fill="#ffc4a1"/><path d="m321.28 181.76a141.89 141.89 0 0 1 7.47 44.24s-13.41 3.35-24.81 0c0 0 9.39 8.72 29.51 5.36 0 .04 4.55-26.12-12.17-49.6z" fill="#530000" opacity=".2"/><path d="m221.3 178.93s-10.73-23.32-24.14-10.57c0 0-4 12.07 4 53 0 0 10.32 12.08 18.24 14.09z" fill="#ffc4a1"/><path d="m405.55 178.93s10.74-23.32 24.15-10.57c0 0 4 12.07-4 53 0 0-10.32 12.08-18.24 14.09z" fill="#ffc4a1"/><path d="m296.56 155.61c-.94-3.22 0-8.72-6-8.72s-23.48.67-28.85 0-20.12-4-27.5 4.36c0 0-4 8.82-4.69 13.29 0 0 11.4-2.22 22.13-3.56s33.54 4.45 38.91 3.56 7.3-4.49 6-8.93z" fill="#594a42"/><path d="m334.87 155.61c.94-3.22 0-8.72 6-8.72s23.48.67 28.84 0 20.12-4 27.5 4.36c0 0 4 8.82 4.7 13.29 0 0-11.4-2.22-22.14-3.56s-33.53 4.45-38.9 3.56-7.3-4.49-6-8.93z" fill="#594a42"/><path d="m204.75 164.63s-9.47-58.63-5.45-76.09c0 0-4.53-26.16 5.45-38.23l2.1 4s10.56-21.46 16.6-28.17l6 6.71s38.27-23.46 74.49-32.85c0 0-3.35 6.71 0 11.4 0 0 51.65-7.37 73.78-2 0 0-6.35 14.94 4.69 16.1 12.74 1.34 27.5 8.72 24.53 26.83 0 0 20.41 6.7 14.78 28.84 0 0 3.62 27.44-1.75 83.47l-14.27 28.28s6.9-108.4-39.38-116.45c0 0 2.68 20.79 1.34 32.19 0 0-49-26.16-81.83-28.84 0 0 0 11.82 4.7 16.64 0 0-30.86-5.24-44.27-11.94 0 0-9.39 15.42-16.77 25.48s-10.06 81.15-10.06 81.15z" fill="url(#a)"/><path d="m391.13 181.76s-12.74-11.39-26.83-9.39-20.12 15.43-20.12 15.43 8.05 12.29 23.48 12.19 23.47-18.23 23.47-18.23z" fill="#fff"/><path d="m354.4 186.06a13.26 13.26 0 1 0 13.26-13.25 13.26 13.26 0 0 0 -13.26 13.25z" fill="#627642"/><path d="m377.81 188.47c0 5.22-4.54 9.45-10.16 9.45s-10.15-4.23-10.15-9.45 4.55-9.45 10.15-9.45 10.16 4.24 10.16 9.45z" fill="#fff" opacity=".2"/><path d="m359.69 184.72a7.87 7.87 0 1 0 7.87-7.87 7.88 7.88 0 0 0 -7.87 7.87z"/><path d="m344.18 187.8s10.22-15 26-12.69c14.74 2.16 21 6.65 21 6.65a29.47 29.47 0 0 0 -21.85-11.76s-18.11-3-25.15 17.8z" fill="#bc9583"/><path d="m384.52 181.76s-4.57 4.34-13.75 2.73c0 0-2.63 2.66 0 4s11.87-1.15 13.75-3.34 0-3.39 0-3.39z" fill="#fff" opacity=".6"/><path d="m371.86 178.55a1.86 1.86 0 0 1 1.23 0c.72 1 2 5.17-.69 4.32-.26-1.7-.51-6.05-2.69-6.69-3.54-1-1.66 5.55-1.57 7 2.75 1.43 3.36-1.35 2.63-3.41-.06-.2-.14-.41-.22-.66z" fill="#fff" opacity=".8"/><path d="m243.57 181.76s12.75-11.39 26.83-9.39 20.13 15.43 20.13 15.43-8 12.29-23.48 12.19-23.48-18.23-23.48-18.23z" fill="#fff"/><path d="m280.31 186.06a13.26 13.26 0 1 1 -13.26-13.25 13.26 13.26 0 0 1 13.26 13.25z" fill="#627642"/><path d="m277.2 188.47c0 5.22-4.54 9.45-10.15 9.45s-10.15-4.23-10.15-9.45 4.54-9.45 10.15-9.45 10.15 4.24 10.15 9.45z" fill="#fff" opacity=".2"/><path d="m290.53 187.8s-10.27-15.3-27.31-12.38c-12.76 2.19-19.65 6.34-19.65 6.34a29.47 29.47 0 0 1 21.8-11.76s18.11-3 25.16 17.8z" fill="#bc9583"/><path d="m259.18 185.31a7.87 7.87 0 1 0 7.87-7.88 7.87 7.87 0 0 0 -7.87 7.88z"/><path d="m284 182.89s-4.57 4.34-13.74 2.71c0 0-2.63 2.66 0 4s11.87-1.16 13.74-3.36 0-3.35 0-3.35z" fill="#fff" opacity=".6"/><path d="m271.35 179.67a1.9 1.9 0 0 1 1.22 0c.72 1.05 2 5.16-.68 4.33-.27-1.71-.52-6.05-2.7-6.69-3.53-1-1.65 5.54-1.56 7 2.74 1.45 3.36-1.34 2.63-3.4-.07-.19-.14-.42-.22-.65z" fill="#fff" opacity=".8"/><path d="m263.22 250.85s44.58 4.26 54.75 4.87l51.63-4.87c-5.88 5.12-30.27 30.86-57.36 26.84 0 0-8.3.65-26.78-13.84 0 0-21.13-11.15-22.24-13z" fill="#fff"/><path d="m369.6 250.85-12.1 1.14v7.42z" fill="#414042"/><path d="m263.22 250.85 11.7 1.11v7.45z" fill="#414042"/><path d="m263.22 250.85h40.72s19.86 2.47 30.06 0h35.6s-33.83 8.32-38.05 8.78-16.4 1.88-20.15 0z" fill="#ff9c90"/><path d="m263.22 250.85s32.32 19.57 40.72 20.51 29.24 0 30.54 0 35.12-20.51 35.12-20.51-25.16 24.15-35.12 27.49-27.26 1.61-33.86-.23-31.69-19.11-37.4-27.26z" fill="#ff9c90"/><path d="m544.27 415.49-1.07 3.75-.43 1.5-37.2 130.64-1.57 5.51-1.57 5.47-1.87 6.64-1.39 4.87-.88 3.13-.66 2.31-1.28 7.3-1.35 7.5-1.43 8.12-1.17 6.77-.4 2.4-.09.54-.3 1.71-1.3 7.35-.72 4-.91 5.19-.21 1.19-.75 4.2-.43 2.47v.22l-.35 2-1.69 9.59-2.53 14.35-.1.54-2.62 14.52-4.66 26.42-3.49 19.7-3.85 21.61c0 2.7 2.09 26.31 4.9 56.16h-107.47c-.31.62-1 0-1 0h-184.51l2.08-30.45.33-4.79.59-8.54.51-7.36.48-6.91-3.38-19.42-.91-5.31-1-5.89-.92-5.37-1.26-7.26-4.86-28-1.58-9.14-1.21-6.72-2-11.69-.93-5.29-.58-3.33-.78-4.5-.24-1.38-.52-3v-.06l-.92-5.26-.38-2.22-.7-4-1.7-9.79-.28-1.57-.78-4.55v-.1l-.5-1.62s0 0 0 0l-2.66-8.48-.43-1.37-1.22-3.79-3-9.68-.31-1-1.87-6-1.61-5.18-1.38-4.2-.87-2.82-3.87-12.37-38.26-122.58-2-6.48-.15-.5-.1-.28s.9-.57 3.14-1.72c4.24-2.19 13.25-6.47 29.93-13 12.52-4.86 29.35-11 51.72-18.35h.07c10.92-3.61 23.14-7.52 36.84-11.73l9.07-2.76c4.26-1.28 8.66-2.61 13.19-4 0 0 .58.49 1.71 1.34 7.41 5.56 38.22 26.75 77.83 26.15h.59c17.1-.35 35.83-4.8 55-16.34q4.16-2.48 8.35-5.44c1.36-1 2.74-2 4.1-3 0 0 3.62.71 9.75 2l5.12 1.1c2.57.56 5.43 1.18 8.5 1.88 10.88 2.43 24.59 5.63 39 9.37h.11c15.43 4 31.69 8.58 46.16 13.46l4.81 1.65c1.74.63 3.45 1.24 5.12 1.86 3.06 1.14 6 2.29 8.79 3.44a124.28 124.28 0 0 1 16 7.81 6.49 6.49 0 0 1 .6.37c.4.24.78.49 1.15.73.86.55 1.66 1.11 2.41 1.68a25.16 25.16 0 0 1 4.23 3.79z" fill="#c7dbe5"/><path d="m313.86 395.6-12.77 17.74 12.77 20.59h23.43l10.65-19.16-12.77-19.17z" fill="#be495f"/><path d="m291.65 433.93 35.64-19.16 33.54 27.23 25.66-27.21s4 92.07-7.49 123.52c0 0 62.58-143.27 36.11-166.91 0 0-13.08-3.28-17.26-2l-73.34 21.1z" fill="url(#b)" opacity=".2"/><path d="m249.72 339.34s8.3 24.06 74.79 51.16l-32.86 43.43-60.16-66.56z" fill="#f1f2f2"/><path d="m381.33 339.34s-20.5 35.13-56.82 51.16l34.13 43.43 43.36-65.83z" fill="#f1f2f2"/><path d="m312.78 803.16c0-1.12-.07-2.23-.11-3.36-.26-9.45-.55-19.46-.85-29.91q-.09-3.2-.18-6.44c-.76-26.88-1.55-56.42-2.13-86.75-.18-8.92-.34-17.91-.45-26.92 0-1.78-.06-3.55-.08-5.33 0-.37 0-.75 0-1.14 0-2.22 0-4.45-.08-6.67 0-.88 0-1.75 0-2.63 0-1.4 0-2.79-.06-4.18-.08-8.34-.14-16.67-.17-24.94 0-3.4 0-6.81 0-10.21 0-2.31 0-4.6 0-6.89q0-3.18 0-6.33c0-4.27.09-8.54.15-12.76 0-2.1.05-4.17.08-6.25.2-12.22.47-24.17.79-35.55.08-2.56.15-5.09.23-7.59.14-4.43.27-8.75.42-13 .32-9 .65-17.41 1-25.19 1-23.82 2-41.22 2.4-47.42.09-1.62.14-2.48.14-2.48h23.43l.14 2.45 2.85 47.1 1.53 25.13.78 13 .45 7.53 1.23 20.25.36 6 .39 6.49 2 33.41.38 6.48.27 4.36.2 3.12 1.67 27.74.41 6.88.17 2.85.41 6.71.46 7.71 1.17 19.27 1.46 24.12.86 14.28 2.57 42.52.18 3.09.23 3.63.07 1.17 2 33.3.2 3.36z" fill="#be4946"/><path d="m301.33 563.38s28.62-3.56 34.06-5 3.79 2.84 0 5-34.06 6.39-34.06 6.39z" fill="#d1d3d4"/><path d="m150.79 734.48-5.43 8 5.43 11.94-6.5 10.74-13.93 5.1-60.78-13.65 60.87-14.17 11.71-16.72 12.33-143.6 13.1 36c-5.81 52.56-16.8 116.36-16.8 116.36z" fill="#231f20" opacity=".1"/><path d="m497.62 579.34-1.05 6.66-1.33 8.43-2.23 14-.58 3.7-.11.67-1.79 11.34-.33 2.11-.73 4.62-1.07 6.72-.44 2.81-.22 1.43-3.61 22.75-6.62 42-3.14 19.86-2.91 18.42 2.46 16.34v.22l6.28 41.71h-114.77c-.31.62-1 0-1 0h-191.43l.29-3.36.13-1.57 2-23.56.73-8.66.64-7.5 1-11.5-2.68-19-.4-2.85-.86-6-.78-5.52-1.41-10-5.57-39.44-2.22-15.7-1-7.11-.69-4.85-1.54-10.88-.58-4.2-.12-.83-.7-5-.62-4.39-.24-1.67-1.14-8.06-1.47-10.39-1.26-9v-.07s2.18-3.79 5.49-10.68c.24-.49.48-1 .73-1.53.65-1.37 1.34-2.85 2-4.43 1.84-4.07 3.88-8.81 6-14.15.43-1.08.86-2.21 1.3-3.35s1-2.59 1.49-3.93c3.08-8.34 6.22-17.81 9.07-28.21 9.35-34.1 15.65-78.18 6.9-124.43-.59-3.15-1.25-6.32-2-9.5h.07c1.42-.61 24.28-10.34 36.84-11.73 0 0-.09 3.18.18 9.05.79 18.14 5 61.88 25.49 116.07q4.29 11.26 9.53 23.11c1.71 3.83 3.52 7.73 5.41 11.65q1.65 3.42 3.39 6.86a444.5 444.5 0 0 0 32.29 54.26c.86 1.24 1.73 2.5 2.62 3.75s1.92 2.69 2.9 4c1.45 2 2.92 4 4.4 6q4.56 6 9.39 12.11c.49.6 1 1.21 1.47 1.82l.27.33.17.21 3 3.6c1.21 1.45 2.42 2.9 3.67 4.35.91 1.1 1.85 2.19 2.8 3.27l.43 1.16q7-10.18 13.25-20.5 2.38-3.91 4.64-7.83c2-3.39 3.89-6.8 5.75-10.2q3.81-7 7.32-14c6.92-13.77 13-27.48 18.25-40.94a.43.43 0 0 0 0 0 1.89 1.89 0 0 1 .09-.21c.57-1.49 1.14-3 1.71-4.43.9-2.39 1.79-4.77 2.65-7.13s1.78-4.9 2.61-7.32q.85-2.42 1.66-4.8c.61-1.83 1.22-3.66 1.81-5.47 1-3.06 1.95-6.1 2.88-9.1s1.87-6.2 2.74-9.26c14.55-50.56 18.8-92.37 20-110.95.23-3.34.36-5.93.43-7.68 0-.29 0-.56 0-.8 0-1.23.06-1.88.06-1.88 3.08.07 36.87 10.59 39 11.25h.11q0 5.28.14 10.45c.39 15.87 1.45 30.88 3 45 .21 1.92.44 3.81.66 5.7.24 2.06.51 4.1.77 6.12 1.42 10.77 3.12 20.94 5 30.51q.56 2.89 1.15 5.72c.46 2.23.93 4.41 1.42 6.56 2.29 10.33 4.78 19.84 7.3 28.5 2.18 7.5 4.4 14.34 6.53 20.52.53 1.48 1 2.91 1.54 4.31q2.12 5.85 4.09 10.78c.62 1.57 1.23 3.09 1.83 4.5.78 1.87 1.52 3.62 2.24 5.23.32.77.65 1.5 1 2.2 1.55 3.49 2.89 6.27 3.93 8.35 1.4 2.96 2.25 4.46 2.25 4.46z" fill="#414042"/><path d="m326.58 765.85.71-38.54-4.29-50.76-2.46-29.5-.54-6.15-.57-6.67-.12-1.46-.49-5.86-.53-6.36-.29-3.55 1.47 1.84.27.33.17.21 2.92 3.66 3.55 4.45 3.4 4.27v.64 8 6.15c.05 8.08.13 18.76.24 30.12.24 23.79.65 50.53 1.32 62.56l1.42 26.51.33 6.14 1.5 27.94.17 3.36h-9l.07-3.36.5-27.82z" opacity=".2"/><g fill="#808285"><path d="m357.76 649.88a8.76 8.76 0 1 1 -8.76-8.77 8.77 8.77 0 0 1 8.76 8.77z"/><path d="m357.76 709.25a8.76 8.76 0 1 1 -8.76-8.78 8.77 8.77 0 0 1 8.76 8.78z"/><path d="m357.76 764.59a8.76 8.76 0 1 1 -8.76-8.78 8.76 8.76 0 0 1 8.76 8.78z"/><path d="m398.8 790.68 33.29 12.48h-28.59l-4.7-1.84z"/><path d="m256.5 790.68v10.64l-4.7 1.84h-28.59z"/></g><path d="m501.62 538.29v.19l-.64 9.25v.46l-.11 1.46-.69 10-.48 6.9-.5 7.36-1.54 5.44-1.09 6.65-1.33 8.43-2.23 14-.58 3.7-.11.67-1.79 11.34-.33 2.11-.73 4.62-1.07 6.72-.44 2.81-.22 1.43-3.61 22.75-6.62 42-3.14 19.86-2.91 18.42c0 1.3 1 7.3 2.46 16.34v.22c1.74 10.64 4.15 25.42 6.44 41.71h-14.58l-7.78-48.76-.2-4.64-1.26-29.73-.9-21.52-.85-20.22 3.5-13.18 6.94-26.17 6.77-18.66.66-1.86 5-13.67.94-2.6 2.41-6.69.13-.35 1.28-3.51 3.57-9.9 2.41-6.64 3.06-8.47.67-1.82 3.67-10.15 2.17-6 1.64-4.52 2-5.6z" fill="#231f20" opacity=".2"/><path d="m188.35 745.59-.51 2.18-2.06 8.87-2.4 10.28-1.38 5.79-7 30.45h-2l.28-3.36.13-1.57 2-23.56.73-8.66.64-7.5 1-11.5-2.68-19-.4-2.85-.86-6-.78-5.52-1.41-10-5.57-39.44-2.22-15.7-1-7.11-.69-4.85-1.54-10.88-.58-4.2-.12-.83-.7-5-.62-4.39v-.85l.29-9.16-.5-1.62s0 0 0 0l-2.66-8.48-.43-1.37-.84-7.55v-.12l-1.93-17.22-1.45-13-.33-3 1.09 2.68 3.86 9.45 4.29 10.41.71 1.71 5.9 14.48 3.24 7.9 2.1 5.17 3.91 9.58.56 1.33 3.19 7.83 2.5 6.15 1.86 4.53 1.35 35.36 1.25 32.82.08 2.13.06 1.68.17 4.38.26 6.65.37 9.92z" fill="#231f20" opacity=".2"/><path d="m650.23 740.74c-5.42 10.66-34.86 3.78-59.4-14.08a106.51 106.51 0 0 1 -15.46-13.59l-3.37-7.54-39-88.34a153.2 153.2 0 0 1 -15.4-26.46c-21-47.31-56.54-148.54-16.25-181.54 0 0 50.34-15.15 85.18 79.46 16.47 44.82 32.47 90.74 44.72 126.67 13.58 39.9 22.56 67.46 22.56 67.46s10.12 22.37-3.58 57.96z" fill="#c7dbe5"/><path d="m650.54 733.81c-4.53 11.07-34.43 6.64-60.37-9.13-7.1-6.14-14-12.75-20.47-19.5-12.85-13.5-23.77-27.52-30.3-39.26-13.67-24.6-24.25-48.37-29.08-68.49-4.47-18.63-4-34.14 3.45-44.33 0 0 52.09 18.06 95.64 70.21l39.93 52.46s11.91 21.44 1.2 58.04z" fill="#ffc4a1"/><path d="m7.79 735.22c5.59 10.57 34.91 3.2 59.16-15.05a106.15 106.15 0 0 0 15.23-13.85l3.21-7.59 37.56-89a62.56 62.56 0 0 0 17.3-23.2c20.24-47.65 18.06-149.5 10.92-185.28 0 0-60-18.64-83.86 80.85-11.12 46.44-31 91.26-42.61 127.38a0 0 0 0 1 0 0c-12.94 40.17-21.46 67.87-21.46 67.87s-9.73 22.51 4.55 57.87z" fill="#c7dbe5"/><path d="m11 733.63c4.88 10.92 34.63 5.54 60.05-11 6.9-6.36 13.61-13.19 19.84-20.14 12.41-13.9 22.89-28.26 29-40.2 12.89-25 22.71-49.11 26.9-69.38 3.88-18.76 9.27-23.42 1.49-33.36 0 0-57.83 8.87-99.71 62.37l-38.25 53.7s-11.18 21.76.68 58.01z" fill="#ffc4a1"/><path d="m551.88 402.11c-8.11 8.91-20.94 10.44-28.67 3.42-7.71-7-7.41-19.95.7-28.86l12.55-13.8c8.11-8.9 20.94-10.43 28.66-3.4 7.72 7 7.41 19.94-.69 28.85z" fill="#414042"/><path d="m566.45 393.46-43.71 42.61-23.44 22.86-41.61 40.57h-.04l-1.12 1.12-.84.84h-.03l-11.29 11.01-16.63 16.2-1.97 1.92-9.5 9.25-5.8 5.69-1.3 1.27-54.05 52.68-7.95 7.75-7.53 7.35-18.55 18.05-10.43 10.2-7.78 7.56-4.29 4.21-3.87 3.78-14.94 14.54-2.08 2.06-.03.03-4.18 4.06-7.87 7.67-7.92 7.72-29.43 28.7-3.2 3.12-31.73 30.93-27.52 26.84-8.11 7.89-7.2 7.02-.88.84h-15.18-11.37-38.41l28.04-27.34 20.47-19.96 8.59-8.38.82-.79 8.01-7.79 13.43-13.11 16.33-15.91 1.09-1.07 9.38-9.15 1.88-1.84 22.11-21.54 4.02-3.93 12.94-12.61 63.37-61.76.57-.61.09-.06 10.5-10.22 29.15-28.43 13.91-13.58 13.01-12.68 6.5-6.32 3.3-3.24 4.9-4.74.03-.03 2.69-2.64 7.02-6.86.76-.72 8.04-7.84.67-.66 2.27-2.21 1.69-1.64 8.92-8.71 9.68-9.43 8.98-8.77.24-.21 11.34-11.07 4.06-3.97.02-.02 9.32-9.08 13.22-12.88 14.85-14.5 53.89-52.53 1.79 1.82 1.4 1.42 3.41 3.54 17.69 18.15 3.42 3.51.48.48z" fill="#594a42"/><path d="m541.37 367.75-23.69 23.07-27.4 26.74-13.88 13.52-6.62 6.48-32 31.19-17.09 16.65-5.2 5.08-5.36 5.2-5.5 5.39-5.78 5.6-.39.42-1.82 1.72-.24.28-6.19 6-10.53 10.22-6.29 6.17-1.12 1.07-3.84 3.75-19.51 19-12.58 12.28-30.76 30-9.44 9.19-42.67 41.63-25.14 24.49-11.16 10.89-7.17 6.96-3.81 3.72-21.59 21.07-.69.67-7.2 7-8.14 7.93s0 0 0 0l-15.82 15.47-8.59 8.4-8.16 8-20 19.48-17.81 17.32h-7l23.08-22.5 20.23-19.72 8.41-8.2 7-6.84 1.63-1.6 18.57-18.11 12.28-12 .24-.24 16.55-16.12 1-1 17.82-17.37 3.26-3.18 21.09-20.56 54-52.63 9.58-9.35 29.95-29.19 13.27-12.94 18.58-18.11 2.65-2.58 3.76-3.66.63-.63 10-9.8 6.56-6.38.55-.51 4.75-4.66.66-.64 5.36-5.2 2.33-2.27 6.46-6.32 8.24-8.05 17-16.61 24.14-23.52 10.18-9.83 14.43-14.07 35.42-34.51 17.15-16.69z" fill="#c9c9c9"/><path d="m562.48 389.41-19.39 18.9-25.1 24.47-21.38 20.83-32.67 31.85-11.1 10.83-13.55 13.22-12.67 12.34-6.08 5.92-9.61 9.38-2.48 2.42-3.39 3.3-36.42 35.48-.09.08-11.7 11.44-.4.39-9.02 8.77-8.31 8.11-27.07 26.4-8.83 8.59-6.65 6.5-1.61 1.58-23.16 22.59-.04.04-.12.08-7.4 7.26-14.68 14.28-26.46 25.8-5.69 5.53-25.55 24.92-28.55 27.83-8.17 7.95-7.32 7.17-6.32 6.14h-7.05l11.16-10.85 7.44-7.26 8.2-8.02 29.3-28.55 20.24-19.72 7.65-7.48 24.08-23.46 13.49-13.17 8.61-8.37 30.53-29.76 8.46-8.26.03-.02 35.02-34.15 9.02-8.78 10.71-10.46.03-.03.9-.85.04-.03 28.79-28.07.03-.03 12.07-11.79 5.93-5.74 1.62-1.61 8.11-7.89 9.74-9.5 9.14-8.93 15.6-15.18 19-18.54 24.92-24.29 19.48-18.96 20.63-20.14 24.64-24.01z" fill="#c9c9c9"/><path d="m158.11 566.52-3.06-26.52 22.17-26.1s11.59 4.42 7.68 16.26-9.85 16-9.85 16l1.88 16.08z" fill="#eeb390"/><path d="m499.8 566.52 3.06-26.52-22.18-26.1s-11.59 4.42-7.67 16.26 9.85 16 9.85 16l-1.86 16.03z" fill="#eeb390"/><path d="m553.36 686.38a224.53 224.53 0 0 0 -6.73-38.38 224.24 224.24 0 0 0 -9.16-27.22s0 0 0 0a214.71 214.71 0 0 0 -10-21.2c-.38-.75-.78-1.48-1.2-2.22a225.57 225.57 0 0 0 -15.15-23.81c-.52-.71-1-1.42-1.6-2.13s0 0 0 0l-1.62-2.14c-1.67-2.19-3.38-4.35-5.13-6.45a4.19 4.19 0 0 0 -.28-.34c-.34-.43-.71-.87-1.08-1.32l-.4-.48-.11-.12a3.79 3.79 0 0 1 -.31-.39l-.37-.43c-.33-.4-.67-.78-1-1.18l-.29-.33-.3-.35c-.93-1.06-1.86-2.11-2.81-3.15-1.63-1.79-3.32-3.57-5-5.29-.81-.85-1.62-1.69-2.45-2.52-1-1-2.08-2.06-3.13-3.07l-1.05-1c-.51-.49-1-1-1.57-1.49s-1.17-1.07-1.75-1.6c-2-1.87-4.09-3.7-6.21-5.46-.17-.16-.36-.32-.54-.46s-.57-.49-.9-.76l-.31-.26c-1-.86-2.05-1.67-3.1-2.51-2.34-1.88-4.7-3.71-7.11-5.49s-4.85-3.48-7.33-5.16c-.47-.34-1-.67-1.45-1-1.16-.78-2.32-1.54-3.49-2.29-1.91-1.25-3.83-2.44-5.8-3.61q-2.48-1.53-5.07-3c-1.45-.85-3-1.71-4.49-2.49-2.92-1.58-5.91-3.09-8.9-4.51-.87-.42-1.73-.85-2.61-1.23-4-1.87-8.09-3.63-12.24-5.27l-.86-.35c-1.68-.62-3.38-1.28-5.1-1.85-1.56-.61-3.16-1.15-4.77-1.68-.88-.31-1.77-.61-2.66-.89l-2-.61a2.41 2.41 0 0 0 -.41-.13l-.32-.08-1.51-.48c-1.09-.33-2.16-.65-3.28-.94-1.24-.39-2.48-.72-3.73-1.05-.62-.16-1.24-.32-1.86-.5-1.62-.42-3.25-.8-4.88-1.16-1.46-.33-2.95-.66-4.44-1a229.49 229.49 0 0 0 -22.88-3.61c-2.47-.27-5-.48-7.46-.65l-3.11-.22-1.29-.06h-.05-.69c-.65 0-1.31-.07-2-.08-.52 0-1 0-1.55 0-1.72-.07-3.44-.1-5.17-.1h-.66c-.56 0-1.14 0-1.67 0h-2.36c-2.94 0-5.88.12-8.78.27-1.64.06-3.29.17-4.9.29-.27 0-.52 0-.79.05h-.38c-.5.05-1 .08-1.54.11s-1.19.12-1.78.17l-2.3.23c-1.9.18-3.8.4-5.69.64-2.84.35-5.63.75-8.4 1.21-1.53.26-3 .52-4.52.8-2 .36-4.06.78-6.08 1.24q-7.29 1.5-14.43 3.59c-1.38.38-2.74.77-4.11 1.22-2.57.77-5.11 1.61-7.64 2.48l-.32.11q-3.24 1.11-6.42 2.33c-6.52 2.48-12.91 5.26-19.12 8.32q-2.21 1.1-4.4 2.24a231.08 231.08 0 0 0 -23.3 13.91c-.43.29-.85.58-1.28.89-1 .67-2 1.37-2.94 2.08q-4.55 3.27-8.91 6.77c-1.43 1.15-2.85 2.29-4.27 3.49-.32.24-.65.54-1 .85-1.92 1.6-3.83 3.26-5.71 5s-3.75 3.42-5.57 5.2c-.56.55-1.13 1.1-1.69 1.67-1 1-2 2-3.06 3.09-2.05 2.08-4.07 4.21-6 6.39v.06c-.42.48-.86 1-1.28 1.44-.73.83-1.45 1.65-2.16 2.5l-2.11 1.53a2.88 2.88 0 0 0 -.22.27c-.53.63-1.06 1.28-1.58 1.93l-.11.12c-.43.5-.86 1-1.26 1.55-.13.15-.23.29-.35.44s-.28.34-.41.51a8.47 8.47 0 0 0 -.57.67c-.15.2-.29.37-.42.56l-1.81 2.3c-.34.45-.67.9-1 1.36-.12.14-.23.29-.35.45-.28.37-.55.75-.86 1.15 0 0 0 .06-.06.09-.59.78-1.18 1.59-1.73 2.41 0 0 0 0-.06.07-.28.38-.56.74-.81 1.14-.55.77-1.08 1.56-1.62 2.35-2.11 3-4.1 6.05-6 9.18-.09.08-.12.22-.18.3s0 0 0 .06a220.69 220.69 0 0 0 -10.83 19.66c-1.92 4-3.76 8.12-5.48 12.29a223.88 223.88 0 0 0 -16.29 67.21q-.8 9.4-.79 19c0 4.81.13 9.55.45 14.27v.08c.11 1.55.2 3.14.36 4.73 0 .25 0 .5.06.77v.41c.26 3 .59 6 1 9 .06.49.13 1 .2 1.48.5 3.7 1.08 7.37 1.77 11 .45 2.46 1 4.9 1.5 7.34s1.11 4.88 1.76 7.31c.25 1.07.54 2.15.85 3.21.59 2.22 1.24 4.42 1.92 6.62.22.75.45 1.47.67 2.2l.84 2.61c.57 1.73 1.18 3.4 1.75 5.14 1.91 5.22 4 10.39 6.26 15.46a2.12 2.12 0 0 0 .14.31c.22.53.46 1.06.73 1.57h38.69c-.29-.53-.56-1-.84-1.57q-1.68-3.11-3.24-6.28c-.91-1.81-1.73-3.58-2.57-5.44-.71-1.58-1.41-3.17-2.08-4.8-.47-1.15-1-2.31-1.4-3.46q-2.27-5.7-4.15-11.59c-.49-1.5-.95-3-1.39-4.5q-1.05-3.52-2-7.13c-.45-1.85-.9-3.71-1.3-5.59s-.75-3.51-1.08-5.26c-.1-.49-.18-.94-.28-1.43-.5-2.87-1-5.76-1.35-8.67-.08-.47-.15-.94-.19-1.42 0-.3-.07-.61-.09-.91-.09-.76-.19-1.5-.27-2.27-.42-3.75-.74-7.53-.9-11.35 0-.26 0-.54 0-.8v-.11c-.14-2.83-.24-5.66-.24-8.49a189.29 189.29 0 0 1 4.11-39.32.06.06 0 0 1 0 0 187 187 0 0 1 6.51-23.3c.53-1.58 1.1-3.13 1.7-4.68a181.08 181.08 0 0 1 7.83-17.78l.12-.22c.32-.62.63-1.23 1-1.85l.26-.52c.29-.57.6-1.14.9-1.7.13-.26.28-.53.43-.79s.3-.58.46-.88c.4-.74.82-1.48 1.24-2.22.19-.35.39-.69.59-1s.31-.54.47-.8c.27-.48.55-.94.82-1.42s0 0 0 0a2.88 2.88 0 0 1 .22-.38c.33-.61.69-1.19 1.06-1.79l.5-.85c.47-.76.94-1.48 1.41-2.23a.13.13 0 0 1 0-.05c.27-.42.54-.81.81-1.22 1-1.51 2-3 3-4.46 1.37-2 2.77-3.91 4.2-5.83a5.82 5.82 0 0 1 .4-.55c.57-.78 1.17-1.54 1.78-2.3 1-1.28 2-2.57 3-3.81a175.32 175.32 0 0 1 12.77-14s0-.08.1-.1q1.8-1.82 3.68-3.57a188.74 188.74 0 0 1 17.78-14.9l1.07-.79a186.49 186.49 0 0 1 18.31-11.79q6.58-3.74 13.5-6.94 7.08-3.3 14.47-6l1-.38h.15q4.85-1.74 9.83-3.22c.91-.28 1.81-.56 2.71-.78a188.27 188.27 0 0 1 27.56-5.66c1.79-.23 3.58-.45 5.39-.63h.23.33c.5 0 1-.09 1.53-.12l2.64-.21c1.5-.12 3-.21 4.53-.28 3.17-.16 6.37-.24 9.58-.24 1.46 0 2.86 0 4.32.08h.86 1.09c2.26.05 4.51.16 6.74.31l1 .07 1.24.1c2.11.16 4.19.35 6.27.59a177.45 177.45 0 0 1 18.77 3.12c.82.14 1.65.33 2.46.51s1.88.43 2.79.65l.44.13c1.69.43 3.37.85 5.07 1.33.85.24 1.7.48 2.53.73l1.26.38a3.73 3.73 0 0 1 .44.14c.68.19 1.34.39 2 .6a.75.75 0 0 1 .18.07c4.43 1.39 8.76 3 13 4.66 1.16.48 2.33 1 3.48 1.45s2.37 1 3.55 1.57c.65.26 1.24.56 1.88.84l2.84 1.36c1.83.84 3.6 1.74 5.35 2.69 5.06 2.61 9.91 5.45 14.66 8.53 1.39.88 2.76 1.78 4.12 2.72 3.79 2.53 7.49 5.23 11.06 8.07s6.8 5.55 10.05 8.51c.91.82 1.82 1.64 2.71 2.49 1.45 1.33 2.86 2.72 4.25 4.16l.53.52c.94.91 1.84 1.86 2.73 2.82.69.71 1.38 1.44 2 2.18q3.3 3.55 6.38 7.3c2.16 2.59 4.26 5.22 6.24 7.93a.75.75 0 0 1 .14.17c.54.74 1.08 1.4 1.6 2.16l.17.24s0 .06.07.09c.42.58.84 1.17 1.24 1.76 1 1.38 1.93 2.79 2.84 4.19.36.49.68 1 1 1.51l.35.53c.18.28.36.57.52.85.05.08.11.14.15.22s.15.24.22.37.32.48.46.73c.41.61.77 1.22 1.16 1.83a.27.27 0 0 0 0 .11.14.14 0 0 1 .05.08c.28.46.56.93.82 1.39.08.12.15.22.22.34s.17.28.25.43a3.7 3.7 0 0 1 .21.33c.82 1.4 1.64 2.83 2.42 4.25q2.24 4 4.26 8.16c.34.72.69 1.42 1 2.13 0 .12.11.22.16.36.57 1.2 1.13 2.42 1.67 3.64 1.5 3.36 2.9 6.74 4.21 10.21a188.32 188.32 0 0 1 11 45.72c.2 1.76.39 3.54.53 5.32v.13s0 .11 0 .15c.45 5.19.65 10.45.65 15.79q0 7.23-.53 14.39c0 .57-.1 1.11-.12 1.69s-.07.84-.12 1.25c-.11 1.31-.24 2.61-.41 3.92-.17 1.63-.37 3.23-.63 4.84v.1.27c-.56 4.37-1.33 8.68-2.27 13-.28 1.33-.56 2.65-.87 4-1 4.53-2.26 9-3.66 13.4a4.26 4.26 0 0 1 -.15.47.65.65 0 0 1 0 .13 182.55 182.55 0 0 1 -7.95 20.74c-1.77 3.94-3.69 7.83-5.75 11.63-.27.53-.55 1-.84 1.57h39.14c.23-.53.48-1 .7-1.57a223.54 223.54 0 0 0 9.68-25.72c.79-2.57 1.53-5.15 2.22-7.76.24-.87.47-1.75.69-2.62.62-2.44 1.19-4.89 1.74-7.37q.62-2.85 1.16-5.78c.17-.91.35-1.84.5-2.75.11-.56.2-1.1.3-1.66.21-1.15.39-2.3.57-3.46q1.47-9.14 2.13-18.49c.05-.82.12-1.63.14-2.45a6.53 6.53 0 0 0 .06-1c.1-1.41.16-2.86.22-4.32.14-2.88.15-5.76.15-8.68q-.04-10.33-.9-20.14z" fill="#353435"/><path d="m516.92 636.94a199.3 199.3 0 0 0 -15.09-32c-.53-.9-1.07-1.8-1.64-2.71a.19.19 0 0 0 -.05-.09s0 0 0 0c-.18-.28-.34-.57-.51-.83-.28-.48-.57-.93-.85-1.39s-.5-.81-.78-1.24c-.05-.09-.12-.17-.17-.26s0 0 0 0c-.24-.38-.51-.77-.79-1.15-.58-.92-1.16-1.83-1.78-2.73a3.62 3.62 0 0 0 -.22-.32c-.11-.2-.25-.39-.38-.58s-.34-.52-.53-.77-.24-.36-.37-.55c-.5-.74-1-1.48-1.55-2.21a1.34 1.34 0 0 0 -.11-.14c-.09-.15-.21-.3-.3-.44l-1.18-1.6s0 0 0 0a2.68 2.68 0 0 0 -.23-.3c-.3-.44-.62-.86-.94-1.3l-.87-1.15q-1.29-1.71-2.64-3.38c-1.43-1.84-2.91-3.66-4.45-5.43-.49-.6-1-1.2-1.52-1.79-2.14-2.44-4.32-4.82-6.57-7.16-1.77-1.87-3.58-3.73-5.45-5.51s-3.66-3.46-5.52-5.13c-2.31-2-4.65-4.08-7.05-6-1.17-1-2.33-1.88-3.52-2.81q-5.61-4.37-11.53-8.33c-3.9-2.64-7.9-5.11-12-7.45-.83-.49-1.68-1-2.52-1.43-1.72-1-3.46-1.9-5.22-2.81-1.54-.8-3.06-1.57-4.63-2.32-1.77-.88-3.58-1.73-5.39-2.51-1.27-.61-2.57-1.16-3.88-1.71s-2.32-1-3.49-1.43c-4.24-1.7-8.56-3.26-12.93-4.67-.49-.17-1-.33-1.47-.47h-.12a.25.25 0 0 0 -.11 0l-.75-.24c-1-.31-1.94-.6-2.92-.88-.21-.05-.41-.11-.62-.18-1.46-.41-2.93-.84-4.4-1.21l-1.87-.47c-1.27-.32-2.53-.65-3.78-.94a199.75 199.75 0 0 0 -30.97-4.92l-.84-.06h-.57-.23c-.5-.06-1-.08-1.47-.1l-3.42-.17c-1.58-.05-3.15-.09-4.74-.1-.33 0-.65 0-1 0s-.9 0-1.37 0h-1.07c-5.75 0-11.47.25-17.08.77h-.35-.12l-.62.07-.91.08c-2.22.21-4.4.44-6.59.73a192.67 192.67 0 0 0 -29.54 6.08c-1.05.26-2.15.58-3.21.9q-4.6 1.39-9.11 3a.9.9 0 0 0 -.23.08c-1.05.37-2.09.76-3.13 1.16q-8.77 3.32-17.17 7.44-3.76 1.83-7.44 3.84a195.78 195.78 0 0 0 -21.95 13.78l-1.59 1.17q-6.65 4.89-12.84 10.3c-.8.71-1.59 1.41-2.37 2.13q-5.26 4.72-10.2 9.85c-.7.76-1.43 1.51-2.16 2.31-3.83 4.1-7.49 8.34-11 12.77l-.16.2c-.38.49-.77 1-1.15 1.48l-.3.41a.55.55 0 0 0 -.06.08q-1.32 1.71-2.59 3.43c-.67.91-1.33 1.82-2 2.75-1.05 1.45-2.06 2.92-3.06 4.41-.25.38-.51.75-.76 1.14l-.67 1a1.14 1.14 0 0 0 -.15.23c-.23.33-.45.68-.66 1a.29.29 0 0 0 -.07.12c-.28.42-.56.86-.82 1.3-.41.62-.81 1.26-1.19 1.9s-.61 1-.92 1.49l-.29.49c-1 1.58-1.85 3.18-2.77 4.8-.39.73-.81 1.44-1.19 2.17-.78 1.42-1.55 2.85-2.29 4.31a198 198 0 0 0 -9.55 21.74 199.25 199.25 0 0 0 -11.29 48.01 194.4 194.4 0 0 0 -1.18 21.69c0 5.34.21 10.64.64 15.85 0 .39.06.78.1 1.18.15 1.73.31 3.45.5 5.15.07.71.15 1.48.24 2.2 0 .19.07.41.07.58q.67 5.33 1.6 10.57c.64 3.63 1.38 7.2 2.23 10.75.25 1.15.55 2.25.82 3.38.09.37.2.74.29 1.1.05.2.11.39.16.59.49 1.81 1 3.57 1.51 5.36.12.52.28 1 .42 1.5.06.19.11.37.18.55.26.88.54 1.76.83 2.63.52 1.62 1.06 3.22 1.6 4.81 2 5.62 4.18 11.09 6.63 16.48.69 1.58 1.44 3.16 2.2 4.72.36.73.71 1.46 1.08 2.17s.81 1.59 1.24 2.39a5.56 5.56 0 0 0 .37.73c.13.27.28.56.42.83h23.45c-.32-.53-.65-1-.94-1.57-2.76-4.59-5.29-9.31-7.63-14.16-.87-1.83-1.71-3.64-2.5-5.5-.73-1.6-1.42-3.24-2.06-4.86a175.13 175.13 0 0 1 -8.49-27.07c-.4-1.72-.8-3.46-1.13-5.17a3.12 3.12 0 0 0 -.09-.46c-.36-1.79-.66-3.58-.93-5.38 0-.21-.06-.41-.09-.62-.74-4.44-1.28-8.9-1.67-13.43-.22-2.65-.38-5.36-.46-8.06 0-.32 0-.64 0-.95 0-.65-.08-1.27-.08-2 0-1.4 0-2.86 0-4.32 0-3.21 0-6.37.22-9.57.14-2.57.32-5.11.57-7.66a177.58 177.58 0 0 1 4.83-27.62c0-.06 0-.14 0-.21a169.43 169.43 0 0 1 5.66-18.09c.15-.42.29-.83.49-1.27.66-1.75 1.35-3.47 2.07-5.19s1.35-3.18 2.08-4.74c.26-.61.54-1.21.82-1.8.16-.36.34-.73.51-1.09a2.26 2.26 0 0 1 .17-.35s0 0 0-.07c.27-.57.55-1.09.8-1.64.1-.22.21-.43.3-.64.41-.78.8-1.58 1.21-2.36l.29-.57c.65-1.23 1.3-2.45 2-3.66.36-.67.73-1.35 1.12-2 .5-.9 1-1.76 1.53-2.61.75-1.3 1.53-2.59 2.31-3.86.16-.27.32-.53.49-.78 1.33-2.14 2.7-4.22 4.15-6.28.3-.48.63-1 1-1.42.57-.82 1.12-1.61 1.71-2.41.93-1.27 1.84-2.5 2.81-3.73 1.09-1.43 2.22-2.84 3.34-4.24 1.12-1.35 2.25-2.71 3.4-4 .19-.2.33-.4.51-.6 2.49-2.84 5-5.6 7.72-8.26.46-.48.92-1 1.39-1.42a181.64 181.64 0 0 1 17.7-15.3c.26-.21.54-.41.81-.6a181.17 181.17 0 0 1 33.05-19.67c4.11-1.88 8.28-3.62 12.55-5.18a.13.13 0 0 1 .09 0c.09 0 .2-.06.29-.11q4.9-1.8 9.94-3.32l2.41-.73a181.66 181.66 0 0 1 26.38-5.44q2.06-.27 4.14-.48h.4.11c.78-.1 1.59-.17 2.37-.24 1.32-.12 2.65-.23 4-.32 2.81-.2 5.63-.32 8.47-.38h3.92 1.54 3.41.3c2.62.08 5.23.22 7.82.39l1.51.12h.14c.49 0 1 .08 1.49.14 1.73.14 3.46.34 5.18.55 2.83.32 5.64.7 8.44 1.18 1.36.21 2.71.46 4.06.73 1.79.32 3.56.67 5.36 1.07.64.16 1.29.31 2 .49 1 .21 2 .44 2.93.69a7.81 7.81 0 0 1 .77.21q3.6.91 7.13 2l.3.09a.58.58 0 0 0 .16 0c1.14.35 2.25.71 3.38 1.08a.75.75 0 0 1 .24.08c4.11 1.32 8.15 2.82 12.11 4.45q.56.21 1.11.45l2.42 1c1.63.73 3.24 1.46 4.8 2.19 1.33.62 2.64 1.23 3.91 1.9a14 14 0 0 1 1.5.76 172.73 172.73 0 0 1 21.29 12.79l.9.63c3.33 2.36 6.59 4.84 9.74 7.43s6.09 5.13 9 7.85c1.34 1.24 2.67 2.51 4 3.8.49.47.95.93 1.4 1.42 1.25 1.24 2.47 2.53 3.67 3.81s2.18 2.36 3.25 3.57q3 3.38 5.83 6.94l1.7 2.17c.44.56.86 1.12 1.27 1.69s.94 1.23 1.39 1.85c1 1.33 1.92 2.65 2.84 4l.82 1.19c.56.8 1.09 1.6 1.62 2.41q2 3.06 3.9 6.22c.23.35.44.7.64 1.06s.6 1 .87 1.49c.2.36.4.68.58 1a.24.24 0 0 1 0 .1 5.43 5.43 0 0 1 .32.51c.17.31.34.61.5.94s.45.8.68 1.21a.68.68 0 0 1 .09.17.28.28 0 0 1 .05.09c.9 1.65 1.78 3.32 2.61 5 .23.42.44.84.65 1.27.21.43.43.87.63 1.32.35.69.68 1.38 1 2.08.67 1.39 1.3 2.8 1.91 4.22 1.12 2.51 2.16 5.07 3.16 7.67a170.43 170.43 0 0 1 6.39 20.07c.93 3.71 1.76 7.46 2.46 11.25s0 0 0 0a178.93 178.93 0 0 1 2.92 26.59c.11 2.17.14 4.33.14 6.5v2.25c0 3.74-.21 7.48-.45 11.15 0 .37-.05.74-.09 1.11-.15 1.83-.34 3.64-.53 5.46q-.79 7.15-2.14 14.09c-.18 1-.39 2-.61 3v.05c-.54 2.56-1.12 5.1-1.77 7.62-.36 1.38-.73 2.74-1.11 4.12a179.74 179.74 0 0 1 -18.54 43.14c-.3.53-.61 1-.93 1.57h23.47c.27-.53.55-1 .82-1.57 2.82-5.47 5.42-11.1 7.74-16.84 1.31-3.27 2.57-6.6 3.71-10 .27-.75.53-1.5.75-2.26s.61-1.8.89-2.7c.2-.58.37-1.16.54-1.75s.41-1.36.61-2a191.4 191.4 0 0 0 4.61-19.32c.74-3.93 1.35-7.92 1.84-11.93.07-.45.12-.91.17-1.36l.19-1.53c.09-.65.15-1.25.21-1.88a4.16 4.16 0 0 0 0-.6c.06-.4.1-.82.14-1.2.45-4.95.73-9.95.79-15 0-1.21.06-2.41.06-3.62v-.26a199.09 199.09 0 0 0 -12.14-68.92zm-58-66.78c-.89-.85-1.8-1.67-2.71-2.49q-4.87-4.44-10.05-8.51c-3.57-2.84-7.27-5.54-11.06-8.07-1.36-.94-2.73-1.84-4.12-2.72-4.75-3.08-9.6-5.92-14.66-8.53l-5.8 5.7a172.73 172.73 0 0 1 21.29 12.79l.9.63c3.33 2.36 6.59 4.84 9.74 7.43s6.09 5.13 9 7.85c1.34 1.24 2.67 2.51 4 3.8a.7.7 0 0 0 .2-.08l.24-.09c.24-.08.48-.19.72-.29.57-.24 1.14-.48 1.71-.75s.84-.39 1.28-.59c1.25-.61 2.45-1.26 3.64-1.92-1.5-1.44-2.91-2.83-4.36-4.16z" fill="#131515"/><path d="m153.84 661.33s23.42 9.28 65.84 0l-6.06 54.35s-34.55 6-62 25.72-21.15-84.03 2.22-80.07z" fill="#262828"/><path d="m499.35 661.33s-23.43 9.28-65.85 0l6.06 54.35s34.55 6 62 25.72 21.15-84.03-2.21-80.07z" fill="#262828"/><path d="m439.56 715.69s-4.2 2.85-10.73 8.08c-2.55 2-5.44 4.44-8.59 7.18-16.48 14.35-39.69 38-54 67.28-.26.53-.52 1-.77 1.58s-1 0-1 0h-67.99c-.26-.53-.52-1-.8-1.58-1.45-2.87-3.07-5.87-4.83-9-2.78-4.84-5.9-9.92-9.47-15.1a181.51 181.51 0 0 0 -32.09-36.06 150.68 150.68 0 0 0 -15-11.24c-2-1.27-4-2.54-6-3.73-1.7-1-3.42-2-5.19-2.89-1.49-.79-3.07-1.58-4.65-2.33s-3.19-1.52-4.82-2.24l1.57-14 .82-7.28.25-2.28.33-3.1.56-4.84v-.42l.86-7.72.35-3.17.07-.62.39-3.32v-.29l.82-7.36s3.29-1.45 8.91-3.69c1-.4 2.05-.83 3.17-1.26 2.2-.88 4.69-1.82 7.39-2.83l3.21-1.19c3.44-1.27 7.17-2.61 11.1-3.93a370.47 370.47 0 0 1 41.86-11.92q4.17-.91 8.27-1.61 4.29-.78 8.42-1.34c1.73-.21 3.44-.4 5.13-.58a5.61 5.61 0 0 0 .59-.06l3.32-.27c2.55-.18 5-.26 7.44-.26a111.3 111.3 0 0 1 12.41.72h.42c1.63.16 3.29.36 4.92.61 2.92.43 5.87.92 8.84 1.51 24.41 4.69 49.79 14.1 64.81 20.24l2.76 1.12c4 1.68 7.09 3 8.91 3.83l1.92.88 1 9 .29 2.56 2.26 19.43.24 2.25z" fill="#060808"/><path d="m394.37 706.2a65.84 65.84 0 1 1 -65.84-65.84 65.84 65.84 0 0 1 65.84 65.84z" fill="#5a5b5b"/><path d="m388.21 706.2a59.68 59.68 0 1 1 -59.68-59.68 59.67 59.67 0 0 1 59.68 59.68z" fill="#131515"/><path d="m544 603.62c-2.1 28.75-41.07 38.78-41.07 38.78l-16.4-2.14-.85-1.17-3.86-5.32-6.62-9.11-4.33-5.95-6.39-8.71-4.56-6.27-4.7-6.48v-19.14c21.94-8.5 37.45-31.47 37.45-31.47l17.33 6.36z" fill="#eeb390"/><path d="m165.23 546.64s15.51 23 37.46 31.47v19.08l-31.27 43.08-16.42 2.13s-39-10-41.07-38.78l33.95-50.62z" fill="#eeb390"/><path d="m613.23 803.16h-247.8c-.31.62-1 0-1 0h-336c.42-.53.87-1.08 1.31-1.62a310.48 310.48 0 0 1 21.88-23.08q10.83-10.38 22.77-19.84l.92-.71a.19.19 0 0 1 .1-.08c.82-.66 1.64-1.31 2.48-1.93s1.52-1.2 2.29-1.75q11.76-9 24.5-17l.2-.13q11.4-7.25 23.53-13.71h.1c1.75-.92 3.46-1.82 5.23-2.68 1.58-.85 3.2-1.66 4.81-2.43 1.43-.71 2.86-1.41 4.31-2.1l.65-.31c1.4-.68 2.83-1.35 4.26-2a4.54 4.54 0 0 1 .43-.19q3.15-1.45 6.34-2.85c5.55-2.43 11.21-4.74 16.93-6.91 1.6-.63 3.18-1.22 4.79-1.79a3.47 3.47 0 0 1 .45-.17l1.4-.52c.41-.17.81-.32 1.21-.45.22-.09.45-.17.67-.24 1.33-.48 2.68-1 4-1.42l2-.69.32-.1c1-.34 2-.69 3-1l.4-.14.83-.27.62-.19 5.35-1.71 2.7-.82.67-.2c3.06-.95 6.18-1.82 9.28-2.65l.54-.14c2.16-.6 4.34-1.17 6.51-1.71s0 0 0 0q10.29-2.61 20.84-4.7 9.15-1.83 18.44-3.26h.14c2.7-.39 5.4-.78 8.13-1.13h.09c1.33-.19 2.64-.37 4-.52h.05c1.69-.23 3.42-.44 5.16-.62s0 0 .05 0c.67 0 1.27-.14 2-.21h.07q6.12-.63 12.33-1.1c2.11-.14 4.23-.29 6.36-.41s4.51-.28 6.76-.37c1.92-.1 3.84-.18 5.78-.25h1.48q.63 0 1.29 0 5.63-.16 11.3-.16h2.52c1.58 0 3.14 0 4.72.06h2.37.05c6.6.14 13.12.42 19.6.87l1.16.08c.41 0 .82 0 1.23.09l2.94.23q3.18.24 6.33.54c2.18.2 4.34.43 6.5.65 1.77.2 3.55.4 5.31.62q4.67.57 9.29 1.22h.06c2.4.35 4.76.72 7.13 1.13h.06q17 2.76 33.42 6.85c.69.16 1.38.33 2 .52 3.94 1 7.8 2 11.67 3.16 2.62.74 5.22 1.49 7.8 2.3q5.47 1.68 10.83 3.5c.91.31 1.83.62 2.73.94 1.14.4 2.26.78 3.37 1.18l.72.25.21.08c1 .36 2 .76 3 1.14q2.91 1.05 5.77 2.17a3.43 3.43 0 0 1 .45.16h.07c1.11.42 2.22.86 3.34 1.3l2.17.89c.6.23 1.19.49 1.79.74q6.61 2.7 13.1 5.71c2.08.94 4.15 1.89 6.2 2.87 2.61 1.23 5.19 2.51 7.76 3.82.63.31 1.28.65 1.92 1h.09c.53.27 1.06.54 1.58.82 2.65 1.37 5.26 2.77 7.88 4.23a.67.67 0 0 0 .12.06 5.91 5.91 0 0 1 .74.4l.16.1c3 1.63 5.9 3.31 8.77 5 .06 0 .12.06.17.1 7.87 4.67 15.51 9.57 22.84 14.75l.3.2q2.84 2 5.61 4.05 6 4.38 11.75 9l.39.3 2 1.66.14.12a318.67 318.67 0 0 1 34.22 32.35c2.63 2.86 5.17 5.78 7.65 8.72z" fill="#292929"/><path d="m491.31 586.55s-9.46 18.22-26.83 23.4l-4.56-6.27s15.25-.28 31.39-17.13z" opacity=".2"/><path d="m500.43 601.77s-8.91 17.11-25.26 22.89l-4.33-5.95c4.5-.65 16.75-3.56 29.59-16.94z" opacity=".2"/><path d="m507.45 617.64s-7.65 14.71-21.8 21.45l-3.86-5.32c5.88-1.57 15.6-5.63 25.66-16.13z" opacity=".2"/><path d="m169 583.82s9.46 18.22 26.83 23.4l4.56-6.27s-15.25-.28-31.39-17.13z" opacity=".2"/><path d="m159.88 599s8.91 17.11 25.26 22.89l4.33-5.95c-4.47-.6-16.75-3.52-29.59-16.94z" opacity=".2"/><path d="m152.86 614.91s7.65 14.71 21.8 21.45l3.86-5.32c-5.88-1.57-15.6-5.63-25.66-16.13z" opacity=".2"/></svg>