<svg viewBox="0 0 610 610" xmlns="http://www.w3.org/2000/svg" xmlns:xlink="http://www.w3.org/1999/xlink"><radialGradient id="a" cx="302.47" cy="5.94" gradientUnits="userSpaceOnUse" r="571.43"><stop offset="0" stop-color="#d8e4eb"/><stop offset="1" stop-color="#8f9da3"/></radialGradient><radialGradient id="b" cx="302.49" cy="8.46" gradientUnits="userSpaceOnUse" r="566.46"><stop offset=".2" stop-color="#f7fbfc"/><stop offset=".7" stop-color="#d8e4eb"/><stop offset="1" stop-color="#afbfc7"/></radialGradient><radialGradient id="c" cx="302.49" cy="8.66" gradientUnits="userSpaceOnUse" r="566.07"><stop offset=".2" stop-color="#f7fbfc"/><stop offset="1" stop-color="#dae7ed"/></radialGradient><radialGradient id="d" cx="306.27" cy="7.29" r="576.67" xlink:href="#b"/><radialGradient id="e" cx="306.27" cy="7.29" gradientTransform="matrix(.16986552 .98546725 -.98546725 .16986552 478.66 -188.02)" r="576.67" xlink:href="#b"/><circle cx="305" cy="305" fill="#fff" r="305"/><circle cx="305" cy="304.9" fill="#fefefe" r="304.8"/><circle cx="305" cy="304.8" fill="#fdfdfd" r="304.6"/><circle cx="305" cy="304.7" fill="#fcfcfd" r="304.39"/><circle cx="305" cy="304.6" fill="#fbfcfc" r="304.19"/><circle cx="305" cy="304.49" fill="#fafbfb" r="303.99"/><circle cx="305" cy="304.39" fill="#f9fafa" r="303.79"/><circle cx="305" cy="304.29" fill="#f8f9fa" r="303.59"/><circle cx="305" cy="304.19" fill="#f7f8f9" r="303.38"/><circle cx="305" cy="304.09" fill="#f6f7f8" r="303.18"/><circle cx="305" cy="303.99" fill="#f5f7f7" r="302.98"/><circle cx="305" cy="303.89" fill="#f4f6f7" r="302.78"/><circle cx="305" cy="303.79" fill="#f3f5f6" r="302.58"/><circle cx="305" cy="303.69" fill="#f2f4f5" r="302.37"/><circle cx="305" cy="303.59" fill="#f1f3f4" r="302.17"/><circle cx="305" cy="303.48" fill="#f0f2f3" r="301.97"/><circle cx="305" cy="303.38" fill="#eff1f3" r="301.77"/><circle cx="305" cy="303.28" fill="#eef1f2" r="301.57"/><circle cx="305" cy="303.18" fill="#edf0f1" r="301.36"/><circle cx="305" cy="303.08" fill="#eceff0" r="301.16"/><circle cx="305" cy="302.98" fill="#ebeef0" r="300.96"/><circle cx="305" cy="302.88" fill="#eaedef" r="300.76"/><circle cx="305" cy="302.78" fill="#e9ecee" r="300.56"/><circle cx="305" cy="302.68" fill="#e8ebed" r="300.35"/><circle cx="305" cy="302.58" fill="#e7ebed" r="300.15"/><circle cx="305" cy="302.47" fill="#e6eaec" r="299.95"/><circle cx="305" cy="302.37" fill="#e5e9eb" r="299.75"/><circle cx="305" cy="302.27" fill="#e4e8ea" r="299.55"/><circle cx="305" cy="302.17" fill="#e3e7ea" r="299.34"/><circle cx="305" cy="302.07" fill="#e2e6e9" r="299.14"/><circle cx="305" cy="301.97" fill="#e1e6e8" r="298.94"/><circle cx="305" cy="301.87" fill="#e0e5e7" r="298.74"/><circle cx="305" cy="301.77" fill="#dfe4e6" r="298.54"/><circle cx="305" cy="301.67" fill="#dee3e6" r="298.33"/><circle cx="305" cy="301.57" fill="#dde2e5" r="298.13"/><circle cx="305" cy="301.46" fill="#dce1e4" r="297.93"/><circle cx="305" cy="301.36" fill="#dbe0e3" r="297.73"/><circle cx="305" cy="301.26" fill="#dae0e3" r="297.53"/><circle cx="305" cy="301.16" fill="#d9dfe2" r="297.32"/><circle cx="305" cy="301.06" fill="#d8dee1" r="297.12"/><circle cx="305" cy="300.96" fill="#d7dde0" r="296.92"/><circle cx="305" cy="300.86" fill="#d6dce0" r="296.72"/><circle cx="305" cy="300.76" fill="#d5dbdf" r="296.52"/><circle cx="305" cy="300.66" fill="#d4dbde" r="296.31"/><circle cx="305" cy="300.56" fill="#d3dadd" r="296.11"/><circle cx="305" cy="300.45" fill="#d2d9dc" r="295.91"/><circle cx="305" cy="300.35" fill="#d1d8dc" r="295.71"/><circle cx="305" cy="300.25" fill="#d0d7db" r="295.51"/><circle cx="305" cy="300.15" fill="#cfd6da" r="295.3"/><circle cx="305" cy="300.05" fill="#ced5d9" r="295.1"/><circle cx="305" cy="299.95" fill="#ced5d9" r="294.9"/><circle cx="305" cy="299.85" fill="#cdd4d8" r="294.7"/><circle cx="305" cy="299.75" fill="#ccd3d7" r="294.49"/><circle cx="305" cy="299.65" fill="#cbd2d6" r="294.29"/><circle cx="305" cy="299.55" fill="#cad1d6" r="294.09"/><circle cx="305" cy="299.44" fill="#c9d0d5" r="293.89"/><circle cx="305" cy="299.34" fill="#c8cfd4" r="293.69"/><circle cx="305" cy="299.24" fill="#c7cfd3" r="293.48"/><circle cx="305" cy="299.14" fill="#c6ced2" r="293.28"/><circle cx="305" cy="299.04" fill="#c5cdd2" r="293.08"/><circle cx="305" cy="298.94" fill="#c4ccd1" r="292.88"/><circle cx="305" cy="298.84" fill="#c3cbd0" r="292.68"/><circle cx="305" cy="298.74" fill="#c2cacf" r="292.47"/><circle cx="305" cy="298.64" fill="#c1cacf" r="292.27"/><circle cx="305" cy="298.54" fill="#c0c9ce" r="292.07"/><circle cx="305" cy="298.43" fill="#bfc8cd" r="291.87"/><circle cx="305" cy="298.33" fill="#bec7cc" r="291.67"/><circle cx="305" cy="298.23" fill="#bdc6cc" r="291.46"/><circle cx="305" cy="298.13" fill="#bcc5cb" r="291.26"/><circle cx="305" cy="298.03" fill="#bbc4ca" r="291.06"/><circle cx="305" cy="297.93" fill="#bac4c9" r="290.86"/><circle cx="305" cy="297.83" fill="#b9c3c8" r="290.66"/><circle cx="305" cy="297.73" fill="#b8c2c8" r="290.45"/><circle cx="305" cy="297.63" fill="#b7c1c7" r="290.25"/><circle cx="305" cy="297.53" fill="#b6c0c6" r="290.05"/><circle cx="305" cy="297.42" fill="#b5bfc5" r="289.85"/><circle cx="305" cy="297.32" fill="#b4bfc5" r="289.65"/><circle cx="305" cy="297.22" fill="#b3bec4" r="289.44"/><circle cx="305" cy="297.12" fill="#b2bdc3" r="289.24"/><circle cx="305" cy="297.02" fill="#b1bcc2" r="289.04"/><circle cx="305" cy="296.92" fill="#b0bbc2" r="288.84"/><circle cx="305" cy="296.82" fill="#afbac1" r="288.64"/><circle cx="305" cy="296.72" fill="#aeb9c0" r="288.43"/><circle cx="305" cy="296.62" fill="#adb9bf" r="288.23"/><circle cx="305" cy="296.52" fill="#acb8bf" r="288.03"/><circle cx="305" cy="296.41" fill="#abb7be" r="287.83"/><circle cx="305" cy="296.31" fill="#aab6bd" r="287.63"/><circle cx="305" cy="296.21" fill="#a9b5bc" r="287.42"/><circle cx="305" cy="296.11" fill="#a8b4bb" r="287.22"/><circle cx="305" cy="296.01" fill="#a7b3bb" r="287.02"/><circle cx="305" cy="295.91" fill="#a6b3ba" r="286.82"/><circle cx="305" cy="295.81" fill="#a5b2b9" r="286.62"/><circle cx="305" cy="295.71" fill="#a4b1b8" r="286.41"/><circle cx="305" cy="295.61" fill="#a3b0b8" r="286.21"/><circle cx="305" cy="295.51" fill="#a2afb7" r="286.01"/><circle cx="305" cy="295.4" fill="#a1aeb6" r="285.81"/><circle cx="305" cy="295.3" fill="#a0aeb5" r="285.61"/><circle cx="305" cy="295.2" fill="#9fadb5" r="285.4"/><circle cx="305" cy="295.1" fill="#9eacb4" r="285.2"/><circle cx="305" cy="295" fill="#9dabb3" r="285"/><circle cx="305" cy="295" fill="url(#a)" r="287.5"/><circle cx="305" cy="295" fill="url(#b)" r="285"/><circle cx="305" cy="295" fill="url(#c)" r="267.5"/><path d="m363.82 401.53c-3.28.76-5.65 3-8.08 5-7.15 5.93-14 12.18-21.3 18-4.12 3.3-8.56 6.26-14.15 6.87-4 .44-6.64-1-7.51-5a20.21 20.21 0 0 1 1-10.59c1.86-5.78 4-11.49 6.07-17.19 2.49-6.73 5.1-13.41 7.63-20.11 4.44-11.74 8.93-23.46 13.28-35.22 5.48-14.83 11.68-29.39 16.08-44.61 2.23-7.71 3.54-15.5 2.94-23.53a37.54 37.54 0 0 0 -2.52-11.75c-2.94-7.12-8.22-11.45-14.94-14.16-5.19-2.1-10.83-2.71-16.44-2.78a51.17 51.17 0 0 0 -8.27.75c-5.07.77-10.15 1.52-15.16 2.59-8.62 1.84-16.33 6-24.07 10a125.17 125.17 0 0 0 -29.46 21.66c-6.53 6.34-12.81 13-18.91 19.72-3.28 3.64-6.53 7.42-8.28 12.2-1.14 3.13-2.39 6 .46 9 1.68 1.76 4.71 2.94 6.86 1.75a34.22 34.22 0 0 0 7-4.7c5.23-4.91 10.16-10.15 15.3-15.16 4.54-4.42 9.3-8.63 15.32-10.93a24.27 24.27 0 0 1 8.14-2c4 0 7 4.17 6.08 8.19a77.78 77.78 0 0 1 -3.08 10.27c-3.21 8.64-6.59 17.22-9.9 25.83-3.76 9.74-7.44 19.5-11.28 29.2s-8 19.17-11.63 28.88c-3.9 10.36-7.82 20.76-10.88 31.38-2.42 8.39-3.62 17.15-5.25 25.76a39.66 39.66 0 0 0 .36 16.27 23.38 23.38 0 0 0 9.49 14.43c6.11 4.31 13.25 5.3 20.9 5.55 3.31-.26 7-.3 10.65-.87a92 92 0 0 0 28.55-9.33c7.31-3.85 14.47-8.06 21.37-12.61a161.82 161.82 0 0 0 30-24.86c6.52-7 12.74-14.23 17.59-22.5 2.35-4 4.28-8.24 1.52-13a5.52 5.52 0 0 0 -5.48-2.4z" fill="url(#d)"/><circle cx="350.93" cy="190.11" fill="url(#e)" r="38.63" transform="matrix(.16986552 -.98546725 .98546725 .16986552 103.96 503.64)"/><g fill="#5d5d5d"><path d="m363.82 379.31c-3.28.77-5.65 3-8.08 5-7.15 5.93-14 12.18-21.3 18-4.12 3.3-8.56 6.25-14.15 6.87-4 .44-6.64-1.05-7.51-5a20.2 20.2 0 0 1 1-10.59c1.86-5.78 4-11.49 6.07-17.2 2.49-6.72 5.1-13.4 7.63-20.11 4.44-11.73 8.93-23.45 13.28-35.22 5.48-14.82 11.68-29.38 16.08-44.6 2.23-7.71 3.54-15.5 2.94-23.53a37.54 37.54 0 0 0 -2.52-11.76c-2.94-7.12-8.22-11.44-14.94-14.16-5.19-2.09-10.83-2.7-16.44-2.77a51.17 51.17 0 0 0 -8.27.75c-5.07.76-10.15 1.51-15.16 2.58-8.62 1.85-16.33 6-24.07 10a125.73 125.73 0 0 0 -29.46 21.66c-6.53 6.35-12.81 13-18.91 19.72-3.28 3.64-6.53 7.42-8.28 12.21-1.14 3.12-2.39 6 .46 9 1.68 1.75 4.71 2.94 6.86 1.74a34.59 34.59 0 0 0 7-4.69c5.23-4.92 10.16-10.16 15.3-15.17 4.54-4.42 9.3-8.63 15.32-10.92a24 24 0 0 1 8.14-2c4 0 7 4.16 6.08 8.19a78.69 78.69 0 0 1 -3.08 10.27c-3.21 8.64-6.59 17.22-9.9 25.82-3.76 9.74-7.44 19.51-11.28 29.21s-8 19.16-11.63 28.87c-3.9 10.37-7.82 20.76-10.88 31.39-2.42 8.39-3.62 17.14-5.25 25.75a39.71 39.71 0 0 0 .36 16.28 23.43 23.43 0 0 0 9.49 14.43c6.11 4.3 13.25 5.3 20.9 5.54 3.31-.25 7-.29 10.65-.86a91.73 91.73 0 0 0 28.55-9.34c7.31-3.84 14.47-8.05 21.37-12.6a162.27 162.27 0 0 0 30-24.87c6.52-7 12.74-14.22 17.59-22.49 2.35-4 4.28-8.24 1.52-13a5.55 5.55 0 0 0 -5.48-2.4z"/><circle cx="350.93" cy="167.9" r="38.63" transform="matrix(.90311058 -.42940806 .42940806 .90311058 -38.1 166.97)"/></g></svg>