<svg viewBox="0 0 512 512" xmlns="http://www.w3.org/2000/svg"><path d="m0 0h512v512h-512z" fill="#e2e2e7"/><path d="m256 0h256v512h-256zm0 0" fill="#d3d3d8"/><path d="m30 30h452v452h-452zm0 0" fill="#3aaaff"/><path d="m256 30h226v452h-226zm0 0" fill="#0095ff"/><path d="m328.300781 339.398438c-2.101562 1.203124-31.5 17.101562-33.898437 18.300781 5.996094-35.101563 24.597656-87.902344 28.496094-129.597657 2.703124-29.402343-16.5-46.203124-46.199219-39.300781-7.199219 1.800781-14.097657 3.597657-20.699219 6-47.398438 16.199219-83.398438 45.296875-109.796875 66.597657l23.097656 36.601562c16.5-7.199219 17.101563-7.800781 35.398438-13.199219-8.097657 36.898438-22.199219 86.699219-24.898438 122.097657-2.398437 31.5 20.101563 49.5 51 42.601562 9-1.800781 17.101563-4.5 25.203125-7.5 38.695313-13.800781 67.796875-38.699219 98.097656-68.101562zm0 0" fill="#e2e2e7"/><path d="m314.800781 65.199219c-17.699219-7.5-40.5-5.398438-58.800781 4.5-5.097656 2.699219-9.601562 6-13.800781 9.902343-17.101563 16.199219-23.398438 40.496094-15.597657 60.597657 5.097657 13.199219 15.597657 22.800781 29.398438 27.601562 6 2.097657 12.898438 3.300781 20.097656 3.597657h1.5c38.101563 0 65.402344-26.699219 65.402344-59.699219 0-.300781 0-.300781 0-.601563 0-21.597656-10.5-38.097656-28.199219-45.898437zm0 0" fill="#e2e2e7"/><g fill="#d3d3d8"><path d="m276.097656 171.398438c-7.199218-.296876-14.097656-1.5-20.097656-3.597657v-98.101562c18.300781-9.902344 41.101562-12 58.800781-4.5 17.699219 7.796875 28.199219 24.300781 28.199219 45.898437v.601563c0 33-27.300781 59.699219-65.402344 59.699219zm0 0"/><path d="m354.101562 373.898438c-30.300781 29.402343-59.402343 54.300781-98.101562 68.101562v-247.199219c6.597656-2.402343 13.5-4.199219 20.699219-6 29.699219-6.902343 48.902343 9.898438 46.199219 39.300781-3.898438 41.699219-22.5 94.496094-28.5 129.597657 2.402343-1.199219 31.800781-17.097657 33.898437-18.300781zm0 0"/></g></svg>