<svg viewBox="0 0 218.37 176.08" xmlns="http://www.w3.org/2000/svg" xmlns:xlink="http://www.w3.org/1999/xlink"><radialGradient id="a" cx="167.8" cy="-170.25" gradientTransform="matrix(1 0 0 -1 -57.66 -14.51)" gradientUnits="userSpaceOnUse" r="15.74"><stop offset="0"/><stop offset=".8"/><stop offset=".93" stop-color="#2b2b2b"/><stop offset=".96" stop-color="#1a1a1a"/><stop offset="1"/></radialGradient><radialGradient id="b" cx="166.89" cy="-102.6" r="87.98" xlink:href="#a"/><radialGradient id="c" cx="505.47" cy="-349.86" fx="473.127815" gradientTransform="matrix(-.01 -1 -1.76 .01 -504.13 611.91)" gradientUnits="userSpaceOnUse" r="42.73"><stop offset="0"/><stop offset=".28"/><stop offset=".57"/><stop offset=".78" stop-color="#171717"/><stop offset=".87" stop-color="#121212"/><stop offset="1"/></radialGradient><radialGradient id="d" cx="163.16" cy="-296.34" gradientTransform="matrix(1 .02 .01 -.74 -49.46 -165.09)" gradientUnits="userSpaceOnUse" r="75.75"><stop offset="0"/><stop offset=".84" stop-color="#696969"/><stop offset=".87" stop-color="#404040"/><stop offset=".93" stop-color="#969696"/><stop offset=".99" stop-color="#2e2e2e"/></radialGradient><radialGradient id="e" cx="166.29" cy="-105.7" gradientTransform="matrix(1 0 0 -1 -57.66 -14.51)" gradientUnits="userSpaceOnUse" r="18.34"><stop offset=".02" stop-color="#e0e0e0"/><stop offset=".36" stop-color="#bfbfbf"/><stop offset=".72" stop-color="#2e2e2e"/><stop offset=".81"/><stop offset=".88" stop-color="#b5b5b5"/><stop offset=".92" stop-color="#404040"/><stop offset="1"/></radialGradient><clipPath id="f"><path d="m108.93 105.7a14.44 14.44 0 1 1 14.45-14.44 14.44 14.44 0 0 1 -14.45 14.44z"/></clipPath><path d="m41.67 71s1.24 5.78 15.13 5.78c11.94 0 23.76-3.65 33.48-5.78s23.38-11.25 33.1-5.18 32.05 10.51 40.44 11.38 16.31-5.87 16.64-13-2.92-15-2.92-15 15.56 25.6 15.27 42.09-11 46-11 46 .48-38.76-12.81-42.29c-15-4.12-29.9-3.18-39.59 10.7s-12.2 25.5-11.73 42.51c.43 15.08 6.2 9 15 8.48s7.41 5.41 7.41 5.41l-4.65 6.9a271.87 271.87 0 0 0 -30.07 2.77c-14.63 2.32-19.9-6.83-19.9-6.83l4.41-6.12s13.94 4.56 13.29-11.85c-.31-7.77-1.31-9.63-3.35-23.69-2-13.83-15.62-30.19-29.75-30.58s-17-1.09-25.6 8.46c-9.16 10.18 2.27 25.73 2.27 25.73-7.54 1.89-22.34-26.79-20.49-43.45s12.17-31 12.17-31l8.32-.15s-8.16 8.81-5.07 18.71z" fill="#414042"/><path d="m130.38 154.93s-6.13 2-7.95 1.16-2.32-3.48-3.47-6-.67-3.15-3.48-3.48a47.74 47.74 0 0 0 -5.35-.14 47.55 47.55 0 0 0 -5.34.14c-2.82.33-2.32 1-3.48 3.48s-1.66 5.13-3.48 6-8-1.16-8-1.16c1 1.82 7.79 2.82 7.79 2.82s-.83 2.32 4.64 5.13a17.24 17.24 0 0 0 3.23 1.25v.74a26.38 26.38 0 0 0 4.59 0 26.47 26.47 0 0 0 4.6 0v-.74a17.24 17.24 0 0 0 3.23-1.25c5.47-2.81 4.64-5.13 4.64-5.13s6.84-1 7.83-2.82z" fill="url(#a)"/><path d="m109.22.11a88 88 0 1 0 88 88 88 88 0 0 0 -88-88zm0 157.64a69.66 69.66 0 1 1 69.66-69.66 69.65 69.65 0 0 1 -69.66 69.66z" fill="url(#b)"/><path d="m158.43 74.93a129.43 129.43 0 0 1 -17.67-4.7c-8.18-2.79-16-6.7-26.67-7.71a10.51 10.51 0 0 0 -1.12-.11c-1.66-.12-3.38-.17-5.19-.14a35.7 35.7 0 0 0 -5.33.9c-8.78 1.44-15.83 4.63-22.92 7.05a143.5 143.5 0 0 1 -18.28 4.89 3 3 0 0 0 -1.93 3c.06 3.1.41 12.86.44 14 0 2.33 3 2.14 9.83 3.32 5.67 1 17.8 7 24.21 15.88s7.32 26.34 8 31.67c.43 3.63 4.05 2.64 4.05 2.64h8.69s3.61 1 4-2.64c.63-5.33 1.56-22.84 8-31.67s18.46-14.92 24.16-15.9c6.85-1.18 9.17-1.18 9.23-3.51 0-1.13.37-10.89.44-14a3 3 0 0 0 -1.94-2.97z" fill="url(#c)"/><path d="m184.41 42.59a88.17 88.17 0 0 0 -150.95 0c1.95.22 5.65.31 7.34-1.7 2.31-2.72 21.94-35.78 68.13-35.78s65.82 33.06 68.13 35.78c1.7 2.01 5.39 1.92 7.35 1.7z" fill="url(#d)"/><path d="m108.93 72.23a18.65 18.65 0 1 1 -18.65 18.65 18.65 18.65 0 0 1 18.65-18.65z" fill="url(#e)"/><g clip-path="url(#f)"><path d="m95.75 80h4.16a9.14 9.14 0 0 0 18.28 0h4.17a13.31 13.31 0 0 1 -26.61 0z"/></g><g clip-path="url(#f)"><path d="m87.3 78.22h4.16a17.47 17.47 0 1 0 34.94 0h4.17a21.64 21.64 0 0 1 -43.27 0z"/></g><path d="m13.65 77 2.49-6.38a31.41 31.41 0 0 1 -6.38-14 108.76 108.76 0 0 1 -1.32-21.52c.15-2.8 2.44-6.84 5.56-7.1s2.18-1.09 3.27-2.8 1.05-4.4 3.73-4.87 5.45-1.56 7-3.74 4.66-5.29 7-5.44 6.22 1.4 8.25 0 5-3 8.09-1.71 3.08-.27 5.43 5.17c.3.7.74 2 .74 2s-2.51 1.77-4.34 3.27a42.09 42.09 0 0 0 -3.88 3.58s1.24 6.2 2 10.25a35.41 35.41 0 0 0 3.63 9s1.31 2 6.32-5.72a7.89 7.89 0 0 1 4.76-3.53s1.49 6.32 1 8.65-3.73 13.07-4.66 16.81-4.67 3.73-6.23 7.16-7 9-10.58 16.33-6.1 18.17-6.1 18.17-11-16.3-17.84-16.58-13.23 7.26-13.23 7.26z" fill="#e7ad83"/><path d="m202.31 75.26-2.49-6.38a31.28 31.28 0 0 0 6.38-14 108.88 108.88 0 0 0 1.32-21.49c-.15-2.8-2.44-6.83-5.52-7.15s-2.18-1.08-3.27-2.8-1.09-4.35-3.73-4.82-5.45-1.56-7-3.73-4.67-5.29-7-5.45-6.22 1.4-8.24 0-5-3-8.09-1.71-3.09-.27-5.44 5.17c-.3.71-.74 2-.74 2s2.53 1.81 4.31 3.31a40.71 40.71 0 0 1 3.88 3.59s-1.24 6.2-2 10.24a35.67 35.67 0 0 1 -3.68 8.96s-1.31 2-6.32-5.72a7.89 7.89 0 0 0 -4.68-3.53s-1.49 6.32-1 8.65 3.73 13.08 4.67 16.81 4.67 3.73 6.22 7.16 7 9 10.58 16.34 6.1 18.16 6.1 18.16 11-16.3 17.86-16.61 13.23 7.29 13.23 7.29z" fill="#e7ad83"/><g fill="#9baabe"><path d="m26.31 161.05 18-69s-1.34-9.82-17.92-11.54c-11.15-1.16-16.21 2.29-16.21 2.29l-10.18 22.2a109.84 109.84 0 0 0 26.31 56.05z"/><path d="m218.37 108.59-12.59-27.5s-5.06-3.45-16.18-2.29c-16.6 1.72-17.92 11.54-17.92 11.54l19.1 73.31a109.92 109.92 0 0 0 27.59-55.06z"/></g></svg>