<svg viewBox="0 0 347.73 348.91" xmlns="http://www.w3.org/2000/svg" xmlns:xlink="http://www.w3.org/1999/xlink"><clipPath id="a"><circle cx="238.97" cy="334.64" r="10.44" transform="matrix(.99998026 -.00628314 .00628314 .99998026 -2.09 1.5)"/></clipPath><clipPath id="b"><path d="m244.2 219.46a14 14 0 1 1 -14-14.05 14 14 0 0 1 14 14.05z"/></clipPath><clipPath id="c"><path d="m151.46 43.69a11.73 11.73 0 1 1 -11.73-11.69 11.73 11.73 0 0 1 11.73 11.69z"/></clipPath><clipPath id="d"><path d="m242.52 30.05h26.62v7.23h-26.62z" transform="matrix(.69841529 -.71569273 .71569273 .69841529 53.06 193.25)"/></clipPath><clipPath id="e"><path d="m83.73 71.01h8.82v32.46h-8.82z" transform="matrix(.71030824 -.70389076 .70389076 .71030824 -35.88 87.32)"/></clipPath><clipPath id="f"><path d="m267.24 186.39h32.46v8.82h-32.46z" transform="matrix(.86949493 -.49394187 .49394187 .86949493 -57.25 164.94)"/></clipPath><path d="m130.52 21.31a20 20 0 1 1 -20-20 20 20 0 0 1 20 20z" fill="#db1715"/><path d="m94.53 18.18h32.23v5.47h-32.23z" fill="#fff"/><path d="m96.89 10.75a10.78 10.78 0 0 1 1.72-.12 3.63 3.63 0 0 1 2.31.58 2.52 2.52 0 0 1 1 2.14 2.89 2.89 0 0 1 -.92 2.28 4.11 4.11 0 0 1 -2.61.73 11.07 11.07 0 0 1 -1.45-.09zm1.27 4.59a3.1 3.1 0 0 0 .45 0 1.75 1.75 0 0 0 1.92-2 1.61 1.61 0 0 0 -1.79-1.79 3.13 3.13 0 0 0 -.58.05z" fill="#fff"/><path d="m105.09 16.39a2.63 2.63 0 0 1 -2.64-2.87 2.73 2.73 0 0 1 2.74-2.95 2.62 2.62 0 0 1 2.67 2.85 2.68 2.68 0 0 1 -2.76 3zm.06-1c.86 0 1.36-.81 1.36-1.91s-.48-1.88-1.36-1.88-1.37.85-1.37 1.9.51 1.89 1.36 1.89z" fill="#fff"/><path d="m110.38 16.3v-5.63h1.49l1.13 2.06a19 19 0 0 1 .92 1.93c-.07-.74-.1-1.5-.1-2.36v-1.63h1.18v5.63h-1.3l-1.2-2.17a21.62 21.62 0 0 1 -1-2c0 .75.06 1.54.06 2.46v1.7z" fill="#fff"/><path d="m118.53 16.39a2.63 2.63 0 0 1 -2.65-2.87 2.74 2.74 0 0 1 2.74-2.95 2.63 2.63 0 0 1 2.68 2.85 2.68 2.68 0 0 1 -2.76 3zm.06-1c.86 0 1.35-.81 1.35-1.91s-.47-1.88-1.35-1.88-1.37.85-1.37 1.9.51 1.89 1.36 1.89z" fill="#fff"/><path d="m123 11.74h-1.52v-1.07h4.32v1.07h-1.53v4.56h-1.27z" fill="#fff"/><path d="m101.81 29.74h-2.08v1.33h2.32v1h-3.59v-5.58h3.47v1h-2.2v1.21h2.08z" fill="#fff"/><path d="m102.91 32.12v-5.63h1.49l1.17 2.06a17.06 17.06 0 0 1 .92 1.93 21.79 21.79 0 0 1 -.1-2.35v-1.64h1.17v5.63h-1.34l-1.22-2.12a19.34 19.34 0 0 1 -1-2v2.46 1.7z" fill="#fff"/><path d="m109.77 27.56h-1.52v-1.07h4.33v1.07h-1.58v4.56h-1.27z" fill="#fff"/><path d="m116.6 29.74h-2.07v1.33h2.32v1h-3.59v-5.58h3.47v1h-2.2v1.21h2.07z" fill="#fff"/><path d="m117.71 26.57a10.67 10.67 0 0 1 1.7-.12 2.8 2.8 0 0 1 1.82.45 1.41 1.41 0 0 1 .53 1.18 1.47 1.47 0 0 1 -1 1.37 1.39 1.39 0 0 1 .75 1c.18.65.35 1.38.46 1.6h-1.31a8 8 0 0 1 -.38-1.31c-.16-.71-.4-.9-.93-.91h-.35v2.22h-1.26zm1.29 2.43h.51c.63 0 1-.32 1-.81s-.35-.78-.94-.78a2.37 2.37 0 0 0 -.58 0z" fill="#fff"/><path d="m202.63 257.11a18.38 18.38 0 1 1 -18.37-18.38 18.36 18.36 0 0 1 18.37 18.38z" fill="#db1715"/><path d="m169.51 254.23h29.66v5.04h-29.66z" fill="#fff"/><path d="m171.69 247.39a9.12 9.12 0 0 1 1.57-.11 3.38 3.38 0 0 1 2.13.53 2.32 2.32 0 0 1 .88 2 2.63 2.63 0 0 1 -.86 2.1 3.69 3.69 0 0 1 -2.4.67 9.53 9.53 0 0 1 -1.32-.08zm1.16 4.22a1.71 1.71 0 0 0 .41 0 1.62 1.62 0 0 0 1.77-1.82 1.48 1.48 0 0 0 -1.64-1.64 2.94 2.94 0 0 0 -.54 0z" fill="#fff"/><path d="m179.23 252.58a2.42 2.42 0 0 1 -2.43-2.64 2.51 2.51 0 0 1 2.52-2.71 2.41 2.41 0 0 1 2.46 2.62 2.46 2.46 0 0 1 -2.54 2.73zm.06-.93c.79 0 1.24-.74 1.24-1.76s-.43-1.73-1.24-1.73-1.26.78-1.26 1.75.47 1.74 1.25 1.74z" fill="#fff"/><path d="m184.1 252.5v-5.19h1.37l1.07 1.9a17.06 17.06 0 0 1 .85 1.78 21.1 21.1 0 0 1 -.1-2.17v-1.51h1.08v5.19h-1.23l-1.11-2a18.28 18.28 0 0 1 -.9-1.83c0 .69.06 1.42.06 2.27v1.56z" fill="#fff"/><path d="m191.6 252.58a2.42 2.42 0 0 1 -2.43-2.64 2.51 2.51 0 0 1 2.52-2.71 2.41 2.41 0 0 1 2.46 2.62 2.46 2.46 0 0 1 -2.54 2.73zm.06-.93c.79 0 1.24-.74 1.24-1.76s-.44-1.73-1.24-1.73-1.27.78-1.27 1.75.47 1.74 1.26 1.74z" fill="#fff"/><path d="m195.68 248.3h-1.4v-1h4v1h-1.41v4.2h-1.17z" fill="#fff"/><path d="m176.21 264.87h-1.91v1.23h2.13v1h-3.3v-5.18h3.19v1h-2v1.07h1.91z" fill="#fff"/><path d="m177.23 267.06v-5.18h1.37l1.07 1.9a16 16 0 0 1 .85 1.77 18.5 18.5 0 0 1 -.1-2.17v-1.5h1.08v5.18h-1.23l-1.11-2c-.3-.56-.65-1.22-.9-1.83 0 .69.06 1.42.06 2.27v1.56z" fill="#fff"/><path d="m183.54 262.86h-1.4v-1h4v1h-1.41v4.2h-1.17z" fill="#fff"/><path d="m189.83 264.87h-1.91v1.23h2.13v1h-3.3v-5.18h3.19v1h-2v1.07h1.91z" fill="#fff"/><path d="m190.85 262a9.22 9.22 0 0 1 1.56-.11 2.61 2.61 0 0 1 1.68.41 1.32 1.32 0 0 1 .48 1.09 1.38 1.38 0 0 1 -.91 1.27 1.29 1.29 0 0 1 .69 1 12.72 12.72 0 0 0 .42 1.47h-1.21a8.16 8.16 0 0 1 -.35-1.21c-.15-.65-.37-.82-.85-.83h-.36v2h-1.16zm1.16 2.22h.46c.59 0 .93-.29.93-.74s-.32-.72-.86-.72a2.49 2.49 0 0 0 -.53 0z" fill="#fff"/><circle cx="104.05" cy="291.11" fill="#db1715" r="10.77"/><path d="m95.41 289.42h17.39v2.95h-17.39z" fill="#fff"/><path d="m96.68 285.41a6.31 6.31 0 0 1 .93-.06 2 2 0 0 1 1.25.31 1.38 1.38 0 0 1 .51 1.16 1.55 1.55 0 0 1 -.5 1.23 2.23 2.23 0 0 1 -1.41.39 4.78 4.78 0 0 1 -.78-.05zm.69 2.48h.24a.94.94 0 0 0 1-1.06.87.87 0 0 0 -1-1 1.66 1.66 0 0 0 -.31 0z" fill="#fff"/><path d="m101.11 288.46a1.42 1.42 0 0 1 -1.43-1.55 1.48 1.48 0 0 1 1.48-1.59 1.42 1.42 0 0 1 1.44 1.54 1.44 1.44 0 0 1 -1.49 1.6zm0-.55c.46 0 .73-.44.73-1s-.26-1-.73-1-.74.46-.74 1 .28 1 .74 1z" fill="#fff"/><path d="m104 288.41v-3h.8l.63 1.11a9.93 9.93 0 0 1 .5 1 12.59 12.59 0 0 1 -.06-1.27v-.88h.64v3h-.73l-.65-1.17a9.77 9.77 0 0 1 -.52-1.08v1.33.92z" fill="#fff"/><path d="m108.36 288.46a1.42 1.42 0 0 1 -1.43-1.55 1.48 1.48 0 0 1 1.48-1.59 1.42 1.42 0 0 1 1.44 1.54 1.44 1.44 0 0 1 -1.49 1.6zm0-.55c.46 0 .73-.44.73-1s-.26-1-.73-1-.74.46-.74 1 .27 1 .74 1z" fill="#fff"/><path d="m110.75 286h-.82v-.58h2.33v.58h-.83v2.46h-.68z" fill="#fff"/><path d="m99.33 295.66h-1.11v.72h1.24v.56h-1.93v-3h1.87v.57h-1.18v.63h1.11z" fill="#fff"/><path d="m99.93 296.94v-3h.8l.64 1.12a9.86 9.86 0 0 1 .49 1c0-.4-.05-.81-.05-1.27v-.89h.63v3h-.72l-.65-1.17a10.64 10.64 0 0 1 -.53-1.07v1.33.91z" fill="#fff"/><path d="m103.63 294.48h-.82v-.58h2.34v.58h-.83v2.46h-.69z" fill="#fff"/><path d="m107.32 295.66h-1.12v.72h1.25v.56h-1.94v-3h1.88v.57h-1.19v.63h1.12z" fill="#fff"/><path d="m107.92 294a5.34 5.34 0 0 1 .91-.07 1.48 1.48 0 0 1 1 .25.74.74 0 0 1 .29.63.8.8 0 0 1 -.54.74.76.76 0 0 1 .41.56 7.17 7.17 0 0 0 .24.86h-.7a3.56 3.56 0 0 1 -.21-.71c-.09-.38-.22-.48-.5-.48h-.2v1.19h-.68zm.68 1.3h.27c.34 0 .54-.17.54-.44s-.19-.41-.5-.41a1.07 1.07 0 0 0 -.31 0z" fill="#fff"/><path d="m16.87 256.52a13.6 13.6 0 1 1 13.59-13.59 13.61 13.61 0 0 1 -13.59 13.59zm0-24.88a11.29 11.29 0 1 0 11.29 11.29 11.3 11.3 0 0 0 -11.29-11.29z" fill="#db1715"/><path d="m16.13 239.69h-4.13l-.23 1.61h.69a4.84 4.84 0 0 1 2.78.76 3 3 0 0 1 1.29 2.67c0 2-1.7 3.72-4.54 3.72a6.68 6.68 0 0 1 -2.95-.61l.47-1.84a5.92 5.92 0 0 0 2.38.52c1 0 2.12-.49 2.12-1.61s-.86-1.78-3-1.78a9.45 9.45 0 0 0 -1.42.1l.69-5.54h5.83z" fill="#1d1d1b"/><path d="m21.9 248.42c-2.73 0-3.9-2.42-3.9-5.42s1.28-5.49 4-5.49 3.94 2.53 3.94 5.43c0 3.25-1.32 5.52-4 5.52zm0-1.88c1 0 1.48-1.2 1.48-3.61s-.51-3.58-1.5-3.58-1.51 1.19-1.51 3.58.57 3.61 1.51 3.61z" fill="#1d1d1b"/><path d="m148.2 120.55a11.48 11.48 0 1 1 11.47-11.47 11.49 11.49 0 0 1 -11.47 11.47zm0-21a9.53 9.53 0 1 0 9.53 9.53 9.53 9.53 0 0 0 -9.53-9.53z" fill="#db1715"/><path d="m147.57 106.34h-3.46l-.19 1.36h.57a4 4 0 0 1 2.35.64 2.54 2.54 0 0 1 1.09 2.26c0 1.66-1.43 3.13-3.83 3.13a5.67 5.67 0 0 1 -2.49-.51l.38-1.57a4.92 4.92 0 0 0 2 .44c.87 0 1.79-.41 1.79-1.36s-.73-1.5-2.52-1.5a6.71 6.71 0 0 0 -1.19.09l.57-4.67h4.92z" fill="#1d1d1b"/><path d="m152.45 113.71c-2.31 0-3.33-2.08-3.34-4.6s1.09-4.64 3.39-4.64 3.33 2.13 3.33 4.58c0 2.75-1.11 4.66-3.37 4.66zm0-1.58c.81 0 1.25-1 1.25-3s-.43-3-1.27-3-1.27 1-1.27 3 .48 3 1.27 3z" fill="#1d1d1b"/><path d="m329.89 125.12a15 15 0 1 1 15-15 15 15 0 0 1 -15 15zm0-27.47a12.46 12.46 0 1 0 12.46 12.46 12.47 12.47 0 0 0 -12.46-12.46z" fill="#db1715"/><path d="m329.07 106.54h-4.53l-.25 1.77h.76a5.33 5.33 0 0 1 3.07.84 3.36 3.36 0 0 1 1.42 2.95c0 2.18-1.87 4.1-5 4.1a7.29 7.29 0 0 1 -3.25-.67l.51-2a6.54 6.54 0 0 0 2.62.57c1.13 0 2.33-.54 2.33-1.78s-1-2-3.28-2a10 10 0 0 0 -1.57.11l.76-6.11h6.43z" fill="#1d1d1b"/><path d="m335.45 116.17c-3 0-4.35-2.71-4.37-6s1.43-6.06 4.44-6.06 4.35 2.79 4.35 6c0 3.59-1.45 6.09-4.4 6.09zm0-2.07c1.06 0 1.63-1.33 1.63-4s-.55-4-1.65-4-1.67 1.31-1.67 4 .63 4 1.67 4z" fill="#1d1d1b"/><path d="m149.75 314.43a15 15 0 1 1 15-15 15 15 0 0 1 -15 15zm0-27.47a12.46 12.46 0 1 0 12.46 12.46 12.48 12.48 0 0 0 -12.46-12.42z" fill="#db1715"/><path d="m148.93 295.85h-4.53l-.25 1.78h.75a5.34 5.34 0 0 1 3.08.84 3.35 3.35 0 0 1 1.41 2.95c0 2.18-1.87 4.1-5 4.1a7.42 7.42 0 0 1 -3.25-.66l.5-2.05a6.54 6.54 0 0 0 2.62.57c1.14 0 2.34-.54 2.34-1.78s-1-2-3.29-2a9.74 9.74 0 0 0 -1.56.11l.75-6.11h6.44z" fill="#1d1d1b"/><path d="m155.31 305.48c-3 0-4.35-2.71-4.37-6s1.42-6.06 4.44-6.06 4.35 2.79 4.35 6c0 3.59-1.46 6.09-4.4 6.09zm0-2.07c1.06 0 1.64-1.33 1.64-4s-.56-3.95-1.65-3.95-1.68 1.31-1.68 3.95.63 4 1.68 4z" fill="#1d1d1b"/><path d="m93.51 78.26a10.77 10.77 0 1 1 10.76-10.77 10.78 10.78 0 0 1 -10.76 10.77zm0-19.71a8.94 8.94 0 1 0 8.94 8.94 8.95 8.95 0 0 0 -8.94-8.94z" fill="#db1715"/><path d="m92.92 64.93h-3.25l-.18 1.27h.54a3.86 3.86 0 0 1 2.21.6 2.4 2.4 0 0 1 1 2.12c0 1.56-1.34 2.94-3.59 2.94a5.3 5.3 0 0 1 -2.34-.48l.37-1.47a4.69 4.69 0 0 0 1.88.41c.81 0 1.67-.38 1.67-1.27s-.68-1.41-2.36-1.41a7.16 7.16 0 0 0 -1.12.08l.54-4.38h4.62z" fill="#1d1d1b"/><path d="m97.5 71.84c-2.17 0-3.12-2-3.14-4.32s1-4.35 3.19-4.35 3.12 2 3.12 4.3c0 2.57-1 4.37-3.16 4.37zm0-1.49c.76 0 1.17-.95 1.17-2.86s-.39-2.83-1.18-2.83-1.2.94-1.2 2.83.45 2.86 1.2 2.86z" fill="#1d1d1b"/><path d="m136.31 2.03h24.5v25.65h-24.5z" fill="#1d1d1b"/><path d="m155.57 7.18a9.12 9.12 0 0 0 -13.45 0h-3.24v13.63l10.12 4.68 9.34-4.68v-13.63z" fill="#fff"/><path d="m147 11.88a7.39 7.39 0 0 0 -.9 0c-2.05.16-3 1.22-3.22 2.36h.05a2.82 2.82 0 0 1 2.09-.78 3 3 0 0 1 3.06 3.22 3.54 3.54 0 0 1 -3.63 3.57c-2.65 0-3.94-2-3.94-4.31a6 6 0 0 1 1.77-4.41 5.9 5.9 0 0 1 3.79-1.44 4.86 4.86 0 0 1 .93 0zm-2.58 6.7c.8 0 1.32-.74 1.32-1.75a1.51 1.51 0 0 0 -1.48-1.7 1.48 1.48 0 0 0 -1.35.87 1.31 1.31 0 0 0 -.1.59c0 1.05.54 2 1.59 2z" fill="#1d1d1b"/><path d="m152.69 20.28c-2.55 0-3.67-2.29-3.69-5.09s1.2-5.11 3.75-5.11 3.68 2.35 3.68 5.05c0 3-1.23 5.15-3.72 5.15zm0-1.74c.9 0 1.38-1.13 1.38-3.38s-.47-3.34-1.39-3.34-1.42 1.11-1.42 3.34.54 3.38 1.42 3.38z" fill="#1d1d1b"/><path d="m77.14 214.43h24.5v25.65h-24.5z" fill="#1d1d1b"/><path d="m96.4 219.58a9.14 9.14 0 0 0 -13.45 0h-3.24v13.63l10.11 4.68 9.34-4.68v-13.63z" fill="#fff"/><path d="m87.84 224.29a5.8 5.8 0 0 0 -.9 0c-2 .15-3 1.21-3.22 2.35a2.83 2.83 0 0 1 2.1-.78 3 3 0 0 1 3 3.22 3.54 3.54 0 0 1 -3.63 3.57c-2.65 0-3.94-2-3.94-4.31a5.5 5.5 0 0 1 5.56-5.85 4.86 4.86 0 0 1 .93 0zm-2.58 6.71c.8 0 1.32-.74 1.32-1.74a1.49 1.49 0 0 0 -2.83-.84 1.31 1.31 0 0 0 -.1.59c0 1 .54 2 1.59 2z" fill="#1d1d1b"/><path d="m93.52 232.68c-2.55 0-3.67-2.29-3.69-5.08s1.2-5.12 3.75-5.12 3.68 2.35 3.68 5.06c0 3-1.23 5.14-3.72 5.14zm0-1.74c.9 0 1.38-1.13 1.38-3.38s-.47-3.34-1.39-3.34-1.42 1.11-1.42 3.34.54 3.38 1.42 3.38z" fill="#1d1d1b"/><path d="m205.13 236.08h15.39v16.12h-15.39z" fill="#1d1d1b" transform="matrix(.35543326 -.93470166 .93470166 .35543326 -91.01 356.31)"/><path d="m209.88 238.31a5.74 5.74 0 0 0 -3 7.89l-.72 1.91 8 3 5-4.89-.66-6.53-8-3z" fill="#fff"/><path d="m210.73 244.38c-.06.15-.11.32-.18.54a2 2 0 0 0 .67 2.41 1.81 1.81 0 0 1 0-1.41 1.88 1.88 0 0 1 2.57-1.07 2.23 2.23 0 0 1 1.29 2.93 2.44 2.44 0 0 1 -3.41 1.35 3.44 3.44 0 0 1 -2.2-4.57 3.81 3.81 0 0 1 .2-.55zm3.36 3c.18-.48-.14-1-.73-1.17a1 1 0 0 0 -1.32.48.9.9 0 0 0 .2 1 .67.67 0 0 0 .33.2c.62.21 1.29.12 1.52-.49z" fill="#1d1d1b"/><path d="m216.94 242.92c-.57 1.5-2.17 1.65-3.81 1s-2.74-1.84-2.17-3.34 2.2-1.64 3.79-1c1.78.68 2.75 1.87 2.19 3.33zm-1-.4c.2-.53-.35-1.07-1.67-1.57s-2.07-.47-2.28.08.34 1.07 1.65 1.57 2.1.44 2.29-.08z" fill="#1d1d1b"/><path d="m322.12 167.48h24.5v25.65h-24.5z" fill="#1d1d1b"/><path d="m341.38 172.63a9.14 9.14 0 0 0 -13.45 0h-3.24v13.64l10.11 4.67 9.34-4.67v-13.64z" fill="#fff"/><path d="m332.82 177.34a5.64 5.64 0 0 0 -.89 0c-2.06.15-3 1.21-3.22 2.35a2.9 2.9 0 0 1 2.1-.77 3 3 0 0 1 3 3.22 3.54 3.54 0 0 1 -3.63 3.57c-2.64 0-3.93-2-3.93-4.32a6.08 6.08 0 0 1 6.48-5.86zm-2.58 6.7c.8 0 1.32-.75 1.32-1.75a1.49 1.49 0 0 0 -2.83-.84 1.31 1.31 0 0 0 -.1.59c0 1.05.55 2 1.59 2z" fill="#1d1d1b"/><path d="m338.5 185.74c-2.55 0-3.67-2.3-3.69-5.09s1.2-5.12 3.75-5.12 3.68 2.35 3.68 5.06c0 3-1.23 5.15-3.72 5.15zm0-1.75c.9 0 1.39-1.12 1.39-3.37s-.48-3.34-1.4-3.34-1.41 1.11-1.41 3.34.53 3.37 1.41 3.37z" fill="#1d1d1b"/><path d="m220.38 107.34h24.5v25.65h-24.5z" fill="#1d1d1b"/><path d="m239.65 112.49a9.14 9.14 0 0 0 -13.45 0h-3.2v13.64l10.1 4.67 9.35-4.67v-13.64z" fill="#fff"/><path d="m231.09 117.2a7.14 7.14 0 0 0 -.9 0c-2.05.16-3 1.22-3.22 2.36h.03a2.82 2.82 0 0 1 2.09-.77 3 3 0 0 1 3 3.22 3.52 3.52 0 0 1 -3.63 3.56c-2.64 0-3.93-2-3.93-4.31a5.49 5.49 0 0 1 5.56-5.85 4.87 4.87 0 0 1 .93 0zm-2.59 6.69c.81 0 1.33-.74 1.33-1.74a1.51 1.51 0 0 0 -1.48-1.7 1.48 1.48 0 0 0 -1.35.86 1.17 1.17 0 0 0 -.11.59c.05 1 .55 2 1.6 2z" fill="#1d1d1b"/><path d="m236.77 125.59c-2.55 0-3.68-2.29-3.69-5.08s1.2-5.12 3.75-5.12 3.68 2.35 3.68 5.06c0 3-1.24 5.14-3.73 5.14zm0-1.74c.89 0 1.38-1.13 1.38-3.37s-.47-3.35-1.4-3.35-1.41 1.11-1.41 3.35.53 3.37 1.41 3.37z" fill="#1d1d1b"/><path d="m24.24 131.42h24.5v25.65h-24.5z" fill="#1d1d1b"/><path d="m43.5 136.57a8.55 8.55 0 0 0 -6.72-3 8.55 8.55 0 0 0 -6.72 3h-3.24v13.63l10.1 4.67 9.35-4.67v-13.63z" fill="#fff"/><path d="m34.94 141.27a5.67 5.67 0 0 0 -.89 0c-2 .15-3 1.22-3.22 2.36a2.86 2.86 0 0 1 2.1-.78 3 3 0 0 1 3.07 3.25 3.53 3.53 0 0 1 -3.63 3.57c-2.64 0-3.93-2-3.93-4.31a5.91 5.91 0 0 1 1.78-4.36 5.8 5.8 0 0 1 3.8-1.44 5 5 0 0 1 .92 0zm-2.58 6.73c.81 0 1.32-.75 1.32-1.75a1.5 1.5 0 0 0 -1.47-1.7 1.47 1.47 0 0 0 -1.35.87 1.12 1.12 0 0 0 -.11.59c.05 1.05.55 2 1.6 2z" fill="#1d1d1b"/><path d="m40.63 149.67c-2.56 0-3.68-2.29-3.69-5.09s1.2-5.12 3.75-5.12 3.67 2.36 3.67 5.06c0 3-1.23 5.15-3.72 5.15zm0-1.75c.89 0 1.38-1.12 1.38-3.37s-.47-3.34-1.4-3.34-1.41 1.11-1.41 3.34.53 3.37 1.41 3.37z" fill="#1d1d1b"/><path d="m275.34 311.66a2.85 2.85 0 0 1 .1 4l-14.28 15a2.86 2.86 0 0 1 -4.05.1l-15.42-14.66a2.86 2.86 0 0 1 -.1-4l14.29-15a2.85 2.85 0 0 1 4-.1z" fill="#db1715"/><path d="m256.57 326.86-11.89-11.3 2.07-2.18 6 2.43c1.72.7 3.66 1.63 5.36 2.52-1.67-1.38-3.31-2.87-5.11-4.58l-3.46-3.29 1.63-1.71 11.9 11.25-1.86 2-6.27-2.6c-1.75-.73-3.79-1.62-5.56-2.55 1.65 1.45 3.35 3 5.29 4.87l3.58 3.4z" fill="#fff"/><path d="m268.13 315.09c-2.32 2.44-6.35 1.35-9.74-1.87-3.56-3.39-4.71-7.51-2.41-9.94s6.47-1.32 9.75 1.8c3.91 3.72 4.71 7.58 2.42 10zm-2.05-2.09c1.2-1.26.18-3.61-2.15-5.82-2.14-2-4.63-3.08-5.86-1.79s-.11 3.72 2.12 5.83 4.69 3 5.88 1.79z" fill="#fff"/><path d="m326.75 202.81a1.63 1.63 0 0 1 .56 2.24l-6.06 10.16a1.63 1.63 0 0 1 -2.24.56l-10.42-6.22a1.63 1.63 0 0 1 -.57-2.24l6.07-10.16a1.64 1.64 0 0 1 2.24-.56z" fill="#db1715"/><path d="m318.21 213.63-8-4.79.89-1.48 3.63.6c1 .18 2.24.45 3.3.73-1.11-.56-2.21-1.18-3.42-1.91l-2.34-1.4.69-1.16 8 4.8-.79 1.33-3.82-.66c-1.06-.19-2.31-.43-3.41-.73 1.1.6 2.24 1.26 3.55 2l2.42 1.44z" fill="#fff"/><path d="m323.17 205.63c-1 1.65-3.37 1.55-5.66.18s-3.56-3.59-2.59-5.23 3.43-1.54 5.65-.22c2.65 1.58 3.58 3.63 2.6 5.26zm-1.41-.92c.51-.85-.36-2-1.93-3s-3-1.13-3.48-.26.4 2.08 1.9 3 3 1.1 3.51.26z" fill="#fff"/><path d="m315.33 130.85a1 1 0 0 1 .35 1.39l-3.77 6.32a1 1 0 0 1 -1.39.35l-6.52-3.91a1 1 0 0 1 -.35-1.4l3.78-6.32a1 1 0 0 1 1.39-.35z" fill="#db1715"/><path d="m310 137.58-5-3 .55-.92 2.26.38c.65.11 1.39.28 2.05.45-.69-.34-1.37-.73-2.13-1.18l-1.45-.87.43-.72 5 3-.5.83-2.37-.41c-.66-.12-1.44-.27-2.12-.45.69.37 1.4.78 2.21 1.27l1.51.9z" fill="#fff"/><path d="m313.1 132.6c-.61 1-2.09 1-3.51.11s-2.22-2.23-1.61-3.25 2.13-1 3.51-.14c1.65 1 2.22 2.26 1.62 3.27zm-.87-.58c.32-.53-.22-1.26-1.2-1.84s-1.84-.71-2.17-.17.25 1.3 1.19 1.86 1.86.68 2.18.16z" fill="#fff"/><path d="m145.82 257.65a1.29 1.29 0 0 1 -1.52 1l-9.3-1.75a1.3 1.3 0 0 1 -1-1.53l1.83-9.52a1.31 1.31 0 0 1 1.53-1l9.27 1.79a1.3 1.3 0 0 1 1 1.52z" fill="#db1715"/><path d="m135.38 254.19 1.41-7.34 1.35.26.54 2.89c.15.84.27 1.81.35 2.68.12-1 .29-2 .5-3.09l.41-2.13 1.06.2-1.4 7.34-1.21-.23-.55-3c-.15-.86-.31-1.86-.38-2.77-.15 1-.34 2-.57 3.22l-.42 2.21z" fill="#fff"/><path d="m142.74 255.73c-1.51-.29-2.08-2.11-1.68-4.2s1.72-3.65 3.22-3.36 2.09 2.15 1.7 4.18c-.46 2.41-1.75 3.67-3.24 3.38zm.3-1.31c.78.15 1.43-.82 1.71-2.25s0-2.54-.75-2.69-1.46.87-1.72 2.24 0 2.55.76 2.7z" fill="#fff"/><path d="m200.11 89.4a2.64 2.64 0 0 1 .89 3.6l-9.8 16.41a2.65 2.65 0 0 1 -3.62.91l-16.83-10.06a2.63 2.63 0 0 1 -.91-3.61l9.8-16.41a2.63 2.63 0 0 1 3.61-.91z" fill="#db1715"/><path d="m186.31 106.88-13-7.75 1.42-2.39 5.88 1c1.68.29 3.62.73 5.33 1.19-1.78-.9-3.56-1.91-5.53-3.08l-3.77-2.25 1.12-1.88 13 7.75-1.28 2.15-6.16-1.07c-1.72-.3-3.74-.69-5.52-1.17v.05c1.78 1 3.62 2 5.74 3.3l3.91 2.34z" fill="#fff"/><path d="m194.32 94c-1.59 2.66-5.44 2.5-9.14.29-3.89-2.32-5.76-5.79-4.17-8.45s5.54-2.49 9.12-.35c4.28 2.55 5.77 5.86 4.2 8.49zm-2.27-1.49c.82-1.38-.57-3.28-3.12-4.8-2.33-1.39-4.79-1.82-5.63-.42s.66 3.37 3.09 4.82 4.84 1.78 5.65.41z" fill="#fff"/><path d="m239.71 245.11a1.7 1.7 0 0 1 .59 2.33l-6.3 10.56a1.69 1.69 0 0 1 -2.32.59l-10.8-6.46a1.69 1.69 0 0 1 -.59-2.32l6.29-10.54a1.69 1.69 0 0 1 2.32-.58z" fill="#db1715"/><path d="m230.85 256.34-8.33-5 .92-1.53 3.77.62c1.08.18 2.32.47 3.42.76-1.15-.58-2.29-1.23-3.55-2l-2.42-1.44.71-1.2 8.34 5-.83 1.38-3.95-.69c-1.11-.19-2.4-.44-3.54-.75 1.14.62 2.32 1.3 3.68 2.12l2.51 1.49z" fill="#fff"/><path d="m236 248c-1 1.71-3.5 1.61-5.87.19s-3.7-3.72-2.68-5.42 3.56-1.6 5.86-.23c2.74 1.64 3.7 3.76 2.69 5.45zm-1.46-.95c.53-.89-.37-2.11-2-3.08s-3.08-1.17-3.62-.27.42 2.16 2 3.09 3.11 1.14 3.63.27z" fill="#fff"/><path d="m299.18 75.09h24.1v24.46h-24.1z" fill="#fcc000" transform="matrix(.71873332 -.69528585 .69528585 .71873332 26.83 240.96)"/><path d="m311.06 105.17-17.67-18.27 18-17.43 17.68 18.27zm-16.31-18.25 16.34 16.89 16.63-16.09-16.34-16.89z" fill="#1d1d1b"/><path d="m307.23 75.64h8.08v22.97h-8.08z" fill="#1d1d1b"/><path d="m313.6 81.11a2.31 2.31 0 1 1 -2.31-2.31 2.31 2.31 0 0 1 2.31 2.31z" fill="#e42016"/><path d="m313.6 86.52a2.31 2.31 0 1 1 -2.31-2.32 2.31 2.31 0 0 1 2.31 2.32z" fill="#f9e900"/><path d="m313.6 92a2.31 2.31 0 1 1 -2.31-2.32 2.3 2.3 0 0 1 2.31 2.32z" fill="#149239"/><path d="m167.59 293.24h24.1v24.46h-24.1z" fill="#fcc000" transform="matrix(.01657987 -.99986254 .99986254 .01657987 -128.76 480.02)"/><path d="m192.14 318.21-25.41-.42.41-25.06 25.42.42zm-24.44-1.37 23.5.39.38-23.14-23.5-.38z" fill="#1d1d1b"/><path d="m175.49 293.81h8.08v22.97h-8.08z" fill="#1d1d1b" transform="matrix(.70723018 -.70698336 .70698336 .70723018 -163.29 216.33)"/><path d="m176.93 299.4a2.32 2.32 0 1 1 -3.27 0 2.33 2.33 0 0 1 3.27 0z" fill="#e42016"/><path d="m180.75 303.22a2.32 2.32 0 1 1 -3.27 0 2.33 2.33 0 0 1 3.27 0z" fill="#f9e900"/><path d="m184.59 307.06a2.32 2.32 0 0 1 -3.27 3.28 2.32 2.32 0 0 1 3.27-3.28z" fill="#149239"/><path d="m256.53 214.02h24.1v24.46h-24.1z" fill="#fcc000" transform="matrix(.71873332 -.69528585 .69528585 .71873332 -81.76 250.38)"/><path d="m268.41 244.1-17.67-18.27 18-17.43 17.67 18.27zm-16.32-18.25 16.34 16.89 16.63-16.09-16.34-16.89z" fill="#1d1d1b"/><path d="m264.58 214.57h8.08v22.96h-8.08z" fill="#1d1d1b"/><path d="m271 220a2.32 2.32 0 1 1 -2.31-2.31 2.32 2.32 0 0 1 2.31 2.31z" fill="#e42016"/><path d="m271 225.44a2.32 2.32 0 1 1 -2.31-2.31 2.32 2.32 0 0 1 2.31 2.31z" fill="#f9e900"/><path d="m271 230.88a2.32 2.32 0 1 1 -2.31-2.32 2.32 2.32 0 0 1 2.31 2.32z" fill="#149239"/><path d="m28.16 164.34h24.1v24.46h-24.1z" fill="#fcc000" transform="matrix(.71873332 -.69528585 .69528585 .71873332 -111.46 77.62)"/><path d="m40 194.41-17.64-18.26 18-17.43 17.69 18.28zm-16.28-18.24 16.34 16.89 16.63-16.06-16.34-16.92z" fill="#1d1d1b"/><path d="m36.2 164.88h8.08v22.97h-8.08z" fill="#1d1d1b"/><path d="m42.58 170.36a2.32 2.32 0 1 1 -2.32-2.31 2.31 2.31 0 0 1 2.32 2.31z" fill="#e42016"/><path d="m42.58 175.76a2.32 2.32 0 1 1 -2.32-2.31 2.32 2.32 0 0 1 2.32 2.31z" fill="#f9e900"/><path d="m42.58 181.19a2.32 2.32 0 1 1 -2.32-2.31 2.32 2.32 0 0 1 2.32 2.31z" fill="#149239"/><path d="m39.23 59.03h28.72v29.14h-28.72z" fill="#fcc000" transform="matrix(.7080934 -.70611878 .70611878 .7080934 -36.33 59.33)"/><path d="m53.71 94.87-21.39-21.45 21.15-21.08 21.39 21.44zm-19.77-21.44 19.77 19.82 19.53-19.47-19.78-19.78z" fill="#1d1d1b"/><path d="m48.82 59.68h9.63v27.36h-9.63z" fill="#1d1d1b" transform="matrix(.99988472 -.01518378 .01518378 .99988472 -1.11 .82)"/><path d="m56.3 66.16a2.76 2.76 0 1 1 -2.8-2.71 2.75 2.75 0 0 1 2.8 2.71z" fill="#e42016"/><path d="m56.4 72.6a2.76 2.76 0 1 1 -2.8-2.71 2.76 2.76 0 0 1 2.8 2.71z" fill="#f9e900"/><path d="m56.5 79.07a2.76 2.76 0 1 1 -2.8-2.71 2.76 2.76 0 0 1 2.8 2.71z" fill="#149239"/><circle cx="238.97" cy="334.64" fill="#e07c0c" r="10.44" transform="matrix(.99998026 -.00628314 .00628314 .99998026 -2.09 1.5)"/><path d="m239 345.4a10.76 10.76 0 1 1 10.76-10.76 10.77 10.77 0 0 1 -10.76 10.76zm0-20.88a10.12 10.12 0 1 0 10.12 10.12 10.13 10.13 0 0 0 -10.12-10.12z" fill="#1d1d1b"/><g clip-path="url(#a)" fill="#1d1d1b"><path d="m226.87 333.82h24.18v2.2h-24.18z" transform="matrix(.54566326 -.83800454 .83800454 .54566326 -172.09 352.43)"/><path d="m238.14 323.1h2.2v24.18h-2.2z" transform="matrix(.72417186 -.68961954 .68961954 .72417186 -165.16 257.41)"/></g><path d="m230.2 332.63a10 10 0 0 1 1.53-.11 2.5 2.5 0 0 1 1.64.41 1.26 1.26 0 0 1 .48 1.06 1.34 1.34 0 0 1 -.9 1.24 1.31 1.31 0 0 1 .68.95c.15.58.31 1.24.4 1.44h-1.17a6.05 6.05 0 0 1 -.35-1.19c-.14-.64-.36-.8-.83-.81h-.34v2h-1.14zm1.14 2.18h.45c.57 0 .91-.28.91-.73s-.32-.7-.84-.7a2.37 2.37 0 0 0 -.52 0z" fill="#1d1d1b"/><path d="m244.28 332.63a10 10 0 0 1 1.53-.11 2.53 2.53 0 0 1 1.65.41 1.28 1.28 0 0 1 .47 1.06 1.34 1.34 0 0 1 -.9 1.24 1.28 1.28 0 0 1 .68.95c.16.58.31 1.24.41 1.44h-1.18a7.25 7.25 0 0 1 -.34-1.19c-.15-.64-.37-.8-.84-.81h-.34v2h-1.14zm1.14 2.18h.45c.57 0 .91-.28.91-.73s-.31-.7-.84-.7a2.37 2.37 0 0 0 -.52 0z" fill="#1d1d1b"/><path d="m244.2 219.46a14 14 0 1 1 -14-14.05 14 14 0 0 1 14 14.05z" fill="#e07c0c"/><path d="m230.16 233.94a14.48 14.48 0 1 1 14.47-14.48 14.5 14.5 0 0 1 -14.47 14.48zm0-28.1a13.62 13.62 0 1 0 13.61 13.62 13.64 13.64 0 0 0 -13.61-13.62z" fill="#1d1d1b"/><g clip-path="url(#b)" fill="#1d1d1b"><path d="m213.89 218.35h32.52v2.96h-32.52z" transform="matrix(.54551699 -.83809976 .83809976 .54551699 -79.64 292.78)"/><path d="m229.05 203.94h2.96v32.53h-2.96z" transform="matrix(.72441254 -.68936672 .68936672 .72441254 -88.27 219.61)"/></g><path d="m218.37 216.76a12.13 12.13 0 0 1 2-.15 3.4 3.4 0 0 1 2.21.55 1.7 1.7 0 0 1 .64 1.43 1.82 1.82 0 0 1 -1.21 1.67 1.7 1.7 0 0 1 .92 1.26c.21.78.41 1.67.54 1.94h-1.58a8.88 8.88 0 0 1 -.46-1.59c-.2-.86-.49-1.09-1.13-1.1h-.45v2.69h-1.53zm1.53 2.93h.61c.76 0 1.22-.39 1.22-1s-.42-1-1.13-1a3.85 3.85 0 0 0 -.7.05z" fill="#1d1d1b"/><path d="m237.31 216.76a12.27 12.27 0 0 1 2.06-.15 3.36 3.36 0 0 1 2.2.55 1.7 1.7 0 0 1 .64 1.43 1.82 1.82 0 0 1 -1.2 1.67 1.71 1.71 0 0 1 .91 1.26 18.22 18.22 0 0 0 .55 1.94h-1.59a8.88 8.88 0 0 1 -.46-1.59c-.19-.86-.49-1.09-1.13-1.1h-.45v2.69h-1.53zm1.53 2.93h.61c.77 0 1.22-.39 1.22-1s-.42-1-1.13-1a3.85 3.85 0 0 0 -.7.05z" fill="#1d1d1b"/><path d="m151.46 43.69a11.73 11.73 0 1 1 -11.73-11.69 11.73 11.73 0 0 1 11.73 11.69z" fill="#e07c0c"/><path d="m139.73 55.78a12.1 12.1 0 1 1 12.09-12.09 12.11 12.11 0 0 1 -12.09 12.09zm0-23.46a11.37 11.37 0 1 0 11.36 11.37 11.38 11.38 0 0 0 -11.36-11.37z" fill="#1d1d1b"/><g clip-path="url(#c)" fill="#1d1d1b"><path d="m126.14 42.76h27.16v2.47h-27.16z" transform="matrix(.54580951 -.83790929 .83790929 .54580951 26.6 137.06)"/><path d="m138.8 30.72h2.47v27.16h-2.47z" transform="matrix(.72405149 -.68974593 .68974593 .72405149 8.08 108.8)"/></g><path d="m129.88 41.43a10.86 10.86 0 0 1 1.72-.12 2.84 2.84 0 0 1 1.84.45 1.43 1.43 0 0 1 .56 1.24 1.5 1.5 0 0 1 -1 1.39 1.42 1.42 0 0 1 .76 1c.18.66.35 1.4.46 1.62h-1.32a6.93 6.93 0 0 1 -.39-1.33c-.16-.72-.41-.9-.94-.91h-.38v2.24h-1.28zm1.28 2.45h.5c.65 0 1-.32 1-.82s-.36-.79-.95-.79a3 3 0 0 0 -.58 0z" fill="#1d1d1b"/><path d="m145.7 41.43a11 11 0 0 1 1.72-.12 2.86 2.86 0 0 1 1.84.45 1.43 1.43 0 0 1 .53 1.2 1.5 1.5 0 0 1 -1 1.39 1.4 1.4 0 0 1 .76 1c.18.66.35 1.4.46 1.62h-1.33a8.18 8.18 0 0 1 -.38-1.33c-.16-.72-.41-.9-.94-.91h-.36v2.24h-1.3zm1.3 2.45h.5c.65 0 1-.32 1-.82s-.36-.79-.95-.79a3 3 0 0 0 -.58 0z" fill="#1d1d1b"/><rect fill="#fff" height="24.04" rx="5.15" width="70.07" x="152.2" y="322.8"/><rect fill="#1d1d1b" height="21.98" rx="4.12" width="68.01" x="152.98" y="323.65"/><path d="m217.12 347.1h-59.76a5.41 5.41 0 0 1 -5.41-5.41v-13.69a5.41 5.41 0 0 1 5.41-5.41h59.76a5.42 5.42 0 0 1 5.42 5.41v13.74a5.42 5.42 0 0 1 -5.42 5.36zm-59.76-24.05a4.91 4.91 0 0 0 -4.9 4.9v13.74a4.9 4.9 0 0 0 4.9 4.89h59.76a4.9 4.9 0 0 0 4.9-4.89v-13.69a4.91 4.91 0 0 0 -4.9-4.9z" fill="#1d1d1b"/><path d="m215.75 330.87h-45c1-4 1.66-6.22 1.66-6.22l-16.47 9.35v.74.73l16.43 9.39s-.53-1.68-1.3-4.76h44.68z" fill="#fff"/><path d="m174.94 339a3.05 3.05 0 0 1 -3.07-3.33 3.17 3.17 0 0 1 3.18-3.42 3.05 3.05 0 0 1 3.1 3.31 3.1 3.1 0 0 1 -3.15 3.44zm.07-1.17c1 0 1.57-.94 1.57-2.22s-.58-2.21-1.58-2.21-1.59 1-1.59 2.21.59 2.19 1.58 2.19z" fill="#1d1d1b"/><path d="m179.11 338.86v-6.53h1.73l1.35 2.39a20.88 20.88 0 0 1 1.07 2.24 26 26 0 0 1 -.12-2.73v-1.9h1.36v6.53h-1.5l-1.4-2.52c-.38-.71-.82-1.54-1.13-2.3 0 .87.07 1.79.07 2.85v2z" fill="#1d1d1b"/><path d="m189.68 336.1h-2.4v1.55h2.72v1.21h-4.15v-6.53h4v1.21h-2.55v1.36h2.4z" fill="#1d1d1b"/><path d="m193.62 338.86-1.55-6.53h1.58l.49 2.68c.15.79.29 1.63.39 2.3.11-.72.26-1.5.43-2.31l.55-2.67h1.57l.52 2.75c.15.77.26 1.47.35 2.19.1-.72.24-1.49.38-2.27l.53-2.67h1.5l-1.68 6.53h-1.6l-.55-2.81a19.29 19.29 0 0 1 -.31-2c-.12.73-.22 1.35-.38 2l-.62 2.81z" fill="#1d1d1b"/><path d="m202.15 337.19-.45 1.67h-1.53l2-6.53h1.93l2 6.53h-1.59l-.51-1.67zm1.66-1.11-.41-1.38c-.1-.39-.22-.89-.32-1.26-.08.38-.19.88-.29 1.26l-.39 1.38z" fill="#1d1d1b"/><path d="m207.55 338.86v-2.67l-2.07-3.86h1.7l.66 1.57c.2.48.35.82.5 1.25.15-.41.3-.78.5-1.25l.66-1.57h1.65l-2.15 3.81v2.72z" fill="#1d1d1b"/><rect fill="#fff" height="19.82" rx="4.25" width="57.74" x="152.54" y="213.41"/><rect fill="#1d1d1b" height="18.12" rx="3.4" width="56.04" x="153.17" y="214.12"/><path d="m206 233.44h-49.22a4.46 4.46 0 0 1 -4.46-4.46v-11.32a4.46 4.46 0 0 1 4.46-4.46h49.22a4.46 4.46 0 0 1 4.46 4.46v11.34a4.46 4.46 0 0 1 -4.46 4.44zm-49.25-19.82a4 4 0 0 0 -4 4v11.38a4 4 0 0 0 4 4h49.25a4 4 0 0 0 4-4v-11.34a4 4 0 0 0 -4-4z" fill="#1d1d1b"/><path d="m204.9 220.06h-37.12c.8-3.3 1.38-5.12 1.38-5.12l-13.55 7.74v.6.61l13.55 7.74s-.44-1.39-1.08-3.92h36.82z" fill="#fff"/><path d="m171.27 226.74a2.52 2.52 0 0 1 -2.53-2.74 2.61 2.61 0 0 1 2.62-2.82 2.51 2.51 0 0 1 2.55 2.73 2.55 2.55 0 0 1 -2.63 2.83zm.06-1c.82 0 1.29-.77 1.29-1.82s-.46-1.8-1.29-1.8-1.33.88-1.33 1.88.48 1.8 1.3 1.8z" fill="#1d1d1b"/><path d="m174.71 226.65v-5.38h1.42l1.12 2a17.42 17.42 0 0 1 .88 1.85c-.07-.71-.09-1.44-.09-2.25v-1.57h1.11v5.38h-1.27l-1.15-2.07a21 21 0 0 1 -.94-1.9c0 .72.06 1.47.06 2.35v1.62z" fill="#1d1d1b"/><path d="m183.42 224.38h-2v1.27h2.21v1h-3.43v-5.38h3.32v1h-2.1v1.12h2z" fill="#1d1d1b"/><path d="m186.66 226.65-1.27-5.38h1.3l.4 2.21c.12.65.24 1.34.32 1.89.09-.59.21-1.23.35-1.9l.46-2.2h1.29l.43 2.27c.12.63.21 1.2.29 1.8.08-.6.2-1.23.31-1.87l.44-2.2h1.24l-1.39 5.38h-1.32l-.45-2.31c-.1-.55-.19-1.05-.26-1.66-.1.6-.18 1.11-.31 1.66l-.51 2.31z" fill="#1d1d1b"/><path d="m193.69 225.27-.37 1.38h-1.26l1.64-5.38h1.59l1.68 5.38h-1.31l-.42-1.38zm1.37-.91-.34-1.14-.26-1c-.08.32-.16.73-.24 1l-.33 1.14z" fill="#1d1d1b"/><path d="m198.14 226.65v-2.2l-1.7-3.18h1.4l.54 1.3c.17.39.29.67.41 1 .12-.33.25-.64.41-1l.54-1.3h1.36l-1.77 3.14v2.24z" fill="#1d1d1b"/><path d="m246.08 72.76a4 4 0 0 1 -.07-5.58l7.35-7.53a4 4 0 0 1 5.58-.07l32.78 32a4 4 0 0 1 .07 5.58l-7.35 7.54a4 4 0 0 1 -5.58.06z" fill="#fff"/><path d="m283.82 103.88a3.15 3.15 0 0 1 -4.46.06l-32.78-31.94a3.17 3.17 0 0 1 -.06-4.47l7.35-7.53a3.17 3.17 0 0 1 4.47-.05l32.78 32a3.17 3.17 0 0 1 .06 4.47z" fill="#1d1d1b"/><path d="m281.61 106.05a4.15 4.15 0 0 1 -2.89-1.17l-32.78-32a4.09 4.09 0 0 1 -1.25-2.88 4.15 4.15 0 0 1 1.18-3l7.35-7.53a4.08 4.08 0 0 1 3-1.25 4.13 4.13 0 0 1 2.9 1.18l32.78 32a4.14 4.14 0 0 1 .07 5.86l-7.35 7.53a4.1 4.1 0 0 1 -3.01 1.26zm-25.43-47.4a3.7 3.7 0 0 0 -2.68 1.13l-7.35 7.54a3.67 3.67 0 0 0 -1.06 2.68 3.72 3.72 0 0 0 1.12 2.64l32.78 32a3.74 3.74 0 0 0 2.62 1.07 3.73 3.73 0 0 0 2.69-1.13l7.35-7.58a3.75 3.75 0 0 0 -.07-5.3l-32.78-32a3.71 3.71 0 0 0 -2.62-1.05z" fill="#1d1d1b"/><path d="m286.65 95.24-24.71-24.09c2.68-1.69 4.24-2.52 4.24-2.52l-14-3.64-.4.4-.39.4 4 13.94s.61-1.2 1.83-3.31l24.51 23.91z" fill="#fff"/><path d="m259.93 77.85a2.33 2.33 0 0 1 .09-3.46 2.43 2.43 0 0 1 3.57-.18 2.33 2.33 0 0 1 -.06 3.47 2.37 2.37 0 0 1 -3.59.18zm.66-.6c.55.53 1.37.32 2.05-.38s.86-1.49.3-2-1.39-.31-2.05.36-.84 1.51-.3 2z" fill="#1d1d1b"/><path d="m262.28 80 3.49-3.58.94.92-.53 2a16.47 16.47 0 0 1 -.62 1.79c.42-.52.87-1 1.4-1.56l1-1 .75.73-3.49 3.58-.85-.83.63-2.05a19.39 19.39 0 0 1 .61-1.87c-.44.51-.92 1-1.49 1.6l-1.12 1.02z" fill="#1d1d1b"/><path d="m269.55 84.16-1.32-1.28-.83.85 1.47 1.43-.64.67-2.23-2.22 3.44-3.61 2.2 2.15-.65.66-1.39-1.36-.73.74 1.32 1.29z" fill="#1d1d1b"/><path d="m270.23 87.79 2.64-4.41.87.84-1.16 1.78c-.34.51-.72 1-1 1.46.44-.33.95-.68 1.47-1l1.73-1.16.86.84-1.19 1.79c-.32.49-.64.93-1 1.38.44-.34.93-.69 1.42-1l1.75-1.31.82.8-4.44 2.71-.88-.85 1.2-1.84a15.24 15.24 0 0 1 .91-1.27c-.45.34-.84.63-1.28.9l-1.84 1.21z" fill="#1d1d1b"/><path d="m275.81 91.43-1.15.68-.84-.82 4.59-2.51 1 1-2.37 4.66-.87-.85.62-1.18zm1.5.28.51-1c.15-.27.35-.61.5-.86-.26.17-.58.38-.84.53l-1 .55z" fill="#1d1d1b"/><path d="m277.87 95.24 1.43-1.47.93-3.21.93.9-.48 1.21c-.14.37-.25.64-.39 1 .3-.15.58-.27.94-.42l1.2-.51.91.89-3.22.93-1.44 1.44z" fill="#1d1d1b"/><path d="m303.63 146.54a3.29 3.29 0 0 1 3.29-3.29h8.77a3.29 3.29 0 0 1 3.29 3.28v38.15a3.29 3.29 0 0 1 -3.29 3.29h-8.69a3.28 3.28 0 0 1 -3.29-3.28z" fill="#fff"/><path d="m307.08 187.15a2.62 2.62 0 0 1 -2.63-2.62l-.05-38.15a2.64 2.64 0 0 1 2.63-2.64h8.77a2.63 2.63 0 0 1 2.63 2.63l.05 38.15a2.63 2.63 0 0 1 -2.63 2.63z" fill="#1d1d1b"/><path d="m307 188.14a3.46 3.46 0 0 1 -3.45-3.45v-38.15a3.45 3.45 0 0 1 3.45-3.45h8.77a3.46 3.46 0 0 1 3.45 3.45l.05 38.15a3.47 3.47 0 0 1 -3.45 3.46zm8.72-44.74h-8.77a3.09 3.09 0 0 0 -2.21.91 3.13 3.13 0 0 0 -.91 2.21v38.15a3.14 3.14 0 0 0 3.13 3.12h8.77a3.12 3.12 0 0 0 3.12-3.13l-.05-38.15a3.12 3.12 0 0 0 -3.11-3.11z" fill="#1d1d1b"/><path d="m313.87 183.8v-28.75c2.55.62 4 1.06 4 1.06l-6-10.48h-.94l-6 10.5s1.07-.34 3-.84v28.52z" fill="#fff"/><path d="m308.67 157.76a1.94 1.94 0 0 1 2.11-2 2 2 0 0 1 2.19 2 2.16 2.16 0 0 1 -4.3-.06zm.74.05c0 .63.61 1 1.42 1s1.39-.35 1.39-1-.63-1-1.41-1-1.4.38-1.4 1z" fill="#1d1d1b"/><path d="m308.74 160.43h4.16v1.1l-1.52.87a12.47 12.47 0 0 1 -1.43.68c.55-.05 1.11-.07 1.75-.07h1.21v.87h-4.17v-1l1.61-.9c.45-.24 1-.52 1.47-.72-.56 0-1.15 0-1.83 0h-1.25z" fill="#1d1d1b"/><path d="m310.51 167.17v-1.54h-1v1.71h-.77v-2.64h4.17v2.57h-.77v-1.63h-.87v1.54z" fill="#1d1d1b"/><path d="m308.75 169.68 4.16-1v1l-1.71.32c-.5.09-1 .18-1.46.24.46.06 1 .16 1.48.27l1.7.35v1l-1.76.33c-.48.1-.93.17-1.39.23.46.06 1 .15 1.45.24l1.7.34v1l-4.17-1.07v-1l1.79-.36c.42-.08.81-.15 1.29-.2-.47-.07-.87-.14-1.29-.24l-1.79-.39z" fill="#1d1d1b"/><path d="m309.83 175.13-1.07-.29v-1l4.16 1.27v1.23l-4.16 1.3v-1l1.07-.32zm.7 1.06.88-.27.81-.2-.81-.18-.88-.26z" fill="#1d1d1b"/><path d="m308.76 178.57h1.71l2.45-1.32v1.08l-1 .42c-.31.13-.53.23-.8.33.26.09.5.19.8.31l1 .42v1.06l-2.43-1.37h-1.74z" fill="#1d1d1b"/><path d="m53.76 190.06a42.26 42.26 0 0 0 18.52 4.6c7.67 0 11.72-3.18 11.72-8.11 0-4.49-3.5-7.23-12.38-10.3-12.27-4.38-20.38-11.17-20.38-22 0-12.6 10.63-22.13 27.94-22.13 8.44 0 14.47 1.64 18.85 3.72l-3.73 13.35a34.43 34.43 0 0 0 -15.3-3.51c-7.23 0-10.73 3.4-10.73 7.12 0 4.72 4 6.8 13.69 10.52 13.04 4.82 19.04 11.62 19.04 22.14 0 12.38-9.43 22.89-29.7 22.89-8.43 0-16.76-2.3-20.92-4.6z" fill="#db1715"/><path d="m126.74 147.33h-19.94v-14h56.75v14h-20.16v59.82h-16.65z" fill="#db1715"/><path d="m200.61 208.35c-21.81 0-34.74-16.54-34.74-37.58 0-22.13 14.25-38.67 35.94-38.67 22.68 0 35.06 17 35.06 37.36 0 24.32-14.57 38.89-36.15 38.89zm.76-13.25c11.29 0 17.75-10.63 17.75-25.09 0-13.26-6.24-24.66-17.75-24.66s-18 11.18-18 25 6.69 24.76 17.86 24.76z" fill="#db1715"/><path d="m247.83 134.29a136.16 136.16 0 0 1 22.57-1.54c10.3 0 17.75 2 22.68 6 4.71 3.62 7.78 9.75 7.78 17s-2.3 13.48-6.68 17.53c-5.7 5.26-14.24 7.78-24.11 7.78a28.45 28.45 0 0 1 -5.69-.44v26.52h-16.55zm16.55 33.52a25.32 25.32 0 0 0 5.58.44c8.88 0 14.36-4.49 14.36-11.94 0-6.79-4.6-10.85-13-10.85a30.06 30.06 0 0 0 -6.9.55z" fill="#db1715"/><rect fill="#fff" height="26.95" rx="3.42" width="40.21" x="168.58" y="1.52"/><path d="m167.67 25.05v-20.05a4.33 4.33 0 0 1 4.33-4.38h33.37a4.33 4.33 0 0 1 4.33 4.38v20.1a4.33 4.33 0 0 1 -4.33 4.33h-33.37a4.33 4.33 0 0 1 -4.33-4.38zm40.21-20.05a2.51 2.51 0 0 0 -2.51-2.52h-33.37a2.52 2.52 0 0 0 -2.51 2.52v20.1a2.51 2.51 0 0 0 2.51 2.46h33.37a2.51 2.51 0 0 0 2.51-2.51z" fill="#1d1d1b"/><path d="m179.36 24.91v-15.18c2.52.32 3.91.56 3.91.56l-5.9-5.54h-.93l-5.9 5.54s1.05-.18 3-.44v15.06z" fill="#1d1d1b"/><path d="m198 7.43a3.49 3.49 0 0 1 3.8-3.51 3.62 3.62 0 0 1 3.91 3.63 3.48 3.48 0 0 1 -3.78 3.55c-2.45 0-3.93-1.47-3.93-3.66zm1.34.08c0 1.14 1.08 1.79 2.54 1.79s2.49-.63 2.49-1.79-1.13-1.82-2.53-1.82-2.5.68-2.5 1.81z" fill="#1d1d1b"/><path d="m198.1 12.2h7.47v2l-2.74 1.56a22.23 22.23 0 0 1 -2.56 1.21 30.81 30.81 0 0 1 3.13-.14h2.17v1.55h-7.47v-1.77l2.9-1.61a25.87 25.87 0 0 1 2.64-1.3c-1 .05-2.05.07-3.27.07h-2.27z" fill="#1d1d1b"/><path d="m201.26 24.28v-2.74h-1.77v3.06h-1.39v-4.75h7.47v4.6h-1.39v-2.91h-1.55v2.74z" fill="#1d1d1b"/><path d="m184.82 6.3 7.46-1.78v1.81l-3.06.56c-.9.17-1.87.33-2.63.45.82.12 1.72.3 2.65.49l3 .63v1.79l-3.14.6c-.88.17-1.67.29-2.51.4.84.11 1.71.28 2.61.43l3 .61v1.72l-7.46-1.93v-1.79l3.26-.63c.75-.14 1.45-.26 2.3-.35-.84-.14-1.55-.26-2.3-.43l-3.21-.71z" fill="#1d1d1b"/><path d="m186.73 16.05-1.91-.52v-1.75l7.46 2.28v2.21l-7.46 2.32v-1.82l1.91-.57zm1.27 1.89 1.58-.46 1.44-.37c-.44-.1-1-.22-1.44-.33l-1.58-.49z" fill="#1d1d1b"/><path d="m184.82 22.22h3.05l4.41-2.36v1.94l-1.79.75c-.54.23-.94.4-1.43.58.46.16.9.34 1.43.56l1.79.76v1.89l-4.35-2.46h-3.11z" fill="#1d1d1b"/><rect fill="#fff" height="26.95" rx="3.42" width="40.21" x="109.15" y="213.72"/><path d="m108.24 237.24v-20.1a4.34 4.34 0 0 1 4.34-4.33h33.36a4.33 4.33 0 0 1 4.33 4.33v20.1a4.34 4.34 0 0 1 -4.33 4.34h-33.36a4.35 4.35 0 0 1 -4.34-4.34zm40.21-20.1a2.51 2.51 0 0 0 -2.51-2.51h-33.36a2.51 2.51 0 0 0 -2.52 2.51v20.1a2.52 2.52 0 0 0 2.52 2.52h33.36a2.51 2.51 0 0 0 2.51-2.52z" fill="#1d1d1b"/><path d="m119.94 237.11v-15.19c2.52.33 3.91.56 3.91.56l-5.91-5.54h-.94l-5.91 5.54s1-.18 3-.44v15.07z" fill="#1d1d1b"/><path d="m138.55 219.63a3.49 3.49 0 0 1 3.8-3.51 3.62 3.62 0 0 1 3.91 3.63 3.48 3.48 0 0 1 -3.77 3.54c-2.46 0-3.94-1.47-3.94-3.65zm1.34.07c0 1.14 1.08 1.8 2.54 1.8s2.49-.63 2.49-1.8-1.13-1.81-2.52-1.81-2.51.67-2.51 1.8z" fill="#1d1d1b"/><path d="m138.68 224.4h7.46v2l-2.74 1.55a24.89 24.89 0 0 1 -2.55 1.22 30.6 30.6 0 0 1 3.15-.17h2.17v1.55h-7.46v-1.75l2.88-1.59a25.64 25.64 0 0 1 2.63-1.29c-1 .06-2.05.08-3.26.08h-2.25z" fill="#1d1d1b"/><path d="m141.83 236.48v-2.75h-1.77v3.07h-1.38v-4.75h7.46v4.59h-1.38v-2.91h-1.55v2.75z" fill="#1d1d1b"/><path d="m125.39 218.49 7.47-1.77v1.8l-3.07.57-2.63.44c.82.12 1.72.3 2.65.49l3.05.63v1.8l-3.15.59c-.87.17-1.67.29-2.5.4.83.1 1.7.27 2.6.43l3.05.61v1.71l-7.47-1.93v-1.82l3.21-.63c.75-.15 1.45-.27 2.31-.36-.85-.13-1.56-.25-2.31-.43l-3.21-.71z" fill="#1d1d1b"/><path d="m127.31 228.24-1.92-.52v-1.72l7.47 2.28v2.21l-7.47 2.32v-1.81l1.92-.58zm1.26 1.9 1.58-.47 1.44-.36c-.44-.1-1-.22-1.44-.33l-1.58-.45z" fill="#1d1d1b"/><path d="m125.39 234.41h3.06l4.41-2.36v1.95l-1.8.75c-.54.24-.94.4-1.43.58.47.17.9.34 1.43.57l1.8.75v1.89l-4.36-2.45h-3.11z" fill="#1d1d1b"/><rect fill="#fff" height="33.45" rx="2.85" width="22.42" x="323" y="128.74"/><path d="m342.57 162.63h-16.73a3.28 3.28 0 0 1 -3.28-3.28v-27.76a3.28 3.28 0 0 1 3.28-3.29h16.73a3.29 3.29 0 0 1 3.29 3.29v27.76a3.29 3.29 0 0 1 -3.29 3.28zm-16.73-33.45a2.41 2.41 0 0 0 -2.4 2.41v27.76a2.41 2.41 0 0 0 2.4 2.41h16.73a2.41 2.41 0 0 0 2.41-2.41v-27.76a2.41 2.41 0 0 0 -2.41-2.41z" fill="#20a2dc"/><rect fill="#20a2dc" height="31.97" rx="2.72" width="21.43" x="323.49" y="129.48"/><path d="m342.2 161.69h-16a3 3 0 0 1 -2.95-3v-26.49a3 3 0 0 1 2.95-2.95h16a3 3 0 0 1 3 2.95v26.53a3 3 0 0 1 -3 2.96zm-16-32a2.49 2.49 0 0 0 -2.48 2.49v26.53a2.49 2.49 0 0 0 2.48 2.49h16a2.5 2.5 0 0 0 2.49-2.49v-26.51a2.5 2.5 0 0 0 -2.49-2.49z" fill="#fff"/><path d="m331.35 137.41v5.76h5.57v-5.76h3.37v14.94h-3.37v-6.23h-5.57v6.23h-3.35v-14.94z" fill="#fff"/><path d="m273.06 107.43a1.9 1.9 0 0 1 -.08 2.68l-8.1 7.66a1.9 1.9 0 0 1 -2.68-.08l-12.71-13.44a1.91 1.91 0 0 1 .08-2.69l8.1-7.65a1.9 1.9 0 0 1 2.68.07z" fill="#fff"/><path d="m273.18 110.32-8.1 7.66a2.19 2.19 0 0 1 -3.1-.09l-12.7-13.44a2.19 2.19 0 0 1 .09-3.1l8.1-7.66a2.18 2.18 0 0 1 3.09.09l12.71 13.45a2.18 2.18 0 0 1 -.09 3.09zm-23.41-8.54a1.61 1.61 0 0 0 -.07 2.27l12.71 13.44a1.61 1.61 0 0 0 2.27.07l8.1-7.66a1.61 1.61 0 0 0 .07-2.27l-12.71-13.45a1.61 1.61 0 0 0 -2.27-.06z" fill="#20a2dc"/><path d="m272.54 107.36a1.81 1.81 0 0 1 -.08 2.56l-7.74 7.32a1.81 1.81 0 0 1 -2.56-.07l-12.16-12.85a1.82 1.82 0 0 1 .08-2.57l7.74-7.31a1.81 1.81 0 0 1 2.56.07z" fill="#20a2dc"/><path d="m272.57 110-7.74 7.31a2 2 0 0 1 -2.79-.08l-12.14-12.81a2 2 0 0 1 .08-2.78l7.74-7.32a2 2 0 0 1 2.79.08l12.14 12.85a2 2 0 0 1 -.08 2.75zm-22.38-8.17a1.66 1.66 0 0 0 -.06 2.34l12.14 12.85a1.67 1.67 0 0 0 2.34.07l7.75-7.32a1.66 1.66 0 0 0 .06-2.34l-12.14-12.82a1.66 1.66 0 0 0 -2.34-.06z" fill="#fff"/><path d="m256.21 103.24 2.63 2.79 2.7-2.54-2.64-2.79 1.63-1.55 6.84 7.24-1.63 1.54-2.85-3-2.7 2.55 2.85 3-1.63 1.52-6.84-7.24z" fill="#fff"/><path d="m280.69 273.65a1.91 1.91 0 0 1 -.07 2.69l-8.11 7.66a1.9 1.9 0 0 1 -2.68-.07l-12.71-13.45a1.9 1.9 0 0 1 .08-2.68l8.1-7.66a1.89 1.89 0 0 1 2.68.08z" fill="#fff"/><path d="m280.82 276.55-8.11 7.65a2.17 2.17 0 0 1 -3.09-.08l-12.71-13.45a2.18 2.18 0 0 1 .09-3.09l8.1-7.66a2.2 2.2 0 0 1 3.1.08l12.7 13.45a2.2 2.2 0 0 1 -.08 3.1zm-23.42-8.55a1.61 1.61 0 0 0 -.06 2.27l12.66 13.44a1.6 1.6 0 0 0 2.27.07l8.1-7.66a1.6 1.6 0 0 0 .07-2.27l-12.71-13.44a1.61 1.61 0 0 0 -2.27-.07z" fill="#20a2dc"/><path d="m280.17 273.58a1.83 1.83 0 0 1 -.07 2.57l-7.75 7.31a1.81 1.81 0 0 1 -2.56-.07l-12.14-12.85a1.81 1.81 0 0 1 .07-2.56l7.74-7.32a1.81 1.81 0 0 1 2.56.07z" fill="#20a2dc"/><path d="m280.2 276.26-7.74 7.32a2 2 0 0 1 -2.78-.08l-12.15-12.85a2 2 0 0 1 .08-2.79l7.74-7.32a2 2 0 0 1 2.79.08l12.14 12.86a2 2 0 0 1 -.08 2.78zm-22.38-8.17a1.66 1.66 0 0 0 -.06 2.34l12.14 12.85a1.66 1.66 0 0 0 2.35.07l7.75-7.35a1.67 1.67 0 0 0 .07-2.34l-12.15-12.85a1.65 1.65 0 0 0 -2.34-.07z" fill="#fff"/><path d="m263.84 269.47 2.64 2.79 2.69-2.55-2.64-2.79 1.63-1.54 6.84 7.23-1.63 1.54-2.85-3-2.7 2.54 2.86 3-1.68 1.55-6.79-7.24z" fill="#fff"/><path d="m132.68 64.59a2.41 2.41 0 0 1 -.56 3.37l-11.56 8.27a2.42 2.42 0 0 1 -3.37-.57l-13.71-19.18a2.42 2.42 0 0 1 .52-3.38l11.56-8.26a2.44 2.44 0 0 1 3.38.56z" fill="#fff"/><path d="m132.34 68.27-11.56 8.26a2.81 2.81 0 0 1 -3.9-.65l-13.71-19.19a2.8 2.8 0 0 1 .65-3.89l11.56-8.26a2.79 2.79 0 0 1 3.9.65l13.72 19.18a2.81 2.81 0 0 1 -.66 3.9zm-28.08-14.86a2 2 0 0 0 -.48 2.85l13.71 19.19a2 2 0 0 0 2.85.47l11.57-8.26a2 2 0 0 0 .47-2.85l-13.71-19.19a2 2 0 0 0 -2.85-.48z" fill="#20a2dc"/><rect fill="#20a2dc" height="27.16" rx="2.31" transform="matrix(.81370991 -.58127117 .58127117 .81370991 -13.19 79.92)" width="18.2" x="108.98" y="46.95"/><path d="m131.62 67.8-11.05 7.89a2.52 2.52 0 0 1 -3.51-.58l-13.06-18.34a2.51 2.51 0 0 1 .59-3.5l11-7.9a2.51 2.51 0 0 1 3.5.59l13.11 18.34a2.52 2.52 0 0 1 -.58 3.5zm-26.84-14.21a2.11 2.11 0 0 0 -.49 2.95l13.1 18.34a2.11 2.11 0 0 0 2.94.49l11-7.9a2.1 2.1 0 0 0 .49-2.94l-13.1-18.34a2.1 2.1 0 0 0 -2.94-.49z" fill="#fff"/><path d="m112.13 56.38 2.85 4 3.84-2.75-2.84-4 2.32-1.63 7.38 10.33-2.33 1.67-3.07-4.3-3.85 2.74 3.08 4.31-2.33 1.66-7.38-10.41z" fill="#fff"/><path d="m160.58 256.92a1.38 1.38 0 0 1 -1.85.64l-7.34-3.56a1.39 1.39 0 0 1 -.64-1.86l5.93-12.14a1.39 1.39 0 0 1 1.86-.64l7.34 3.58a1.39 1.39 0 0 1 .64 1.85z" fill="#fff"/><path d="m158.63 257.75-7.34-3.57a1.61 1.61 0 0 1 -.74-2.14l5.94-12.18a1.59 1.59 0 0 1 2.14-.74l7.34 3.57a1.61 1.61 0 0 1 .74 2.15l-5.93 12.16a1.61 1.61 0 0 1 -2.15.75zm-.19-18.25a1.18 1.18 0 0 0 -1.57.54l-5.93 12.19a1.18 1.18 0 0 0 .54 1.57l7.34 3.57a1.18 1.18 0 0 0 1.57-.54l5.93-12.18a1.17 1.17 0 0 0 -.54-1.57z" fill="#20a2dc"/><path d="m160.5 256.54a1.34 1.34 0 0 1 -1.78.62l-7-3.42a1.32 1.32 0 0 1 -.61-1.77l5.67-11.64a1.33 1.33 0 0 1 1.77-.62l7 3.42a1.34 1.34 0 0 1 .62 1.78z" fill="#20a2dc"/><path d="m158.67 257.26-7-3.41a1.45 1.45 0 0 1 -.67-1.93l5.67-11.64a1.44 1.44 0 0 1 1.93-.67l7 3.42a1.44 1.44 0 0 1 .67 1.93l-5.67 11.63a1.44 1.44 0 0 1 -1.93.67zm-.18-17.44a1.22 1.22 0 0 0 -1.62.56l-5.67 11.62a1.22 1.22 0 0 0 .56 1.62l7 3.42a1.22 1.22 0 0 0 1.62-.56l5.67-11.64a1.21 1.21 0 0 0 -.56-1.63z" fill="#fff"/><path d="m159.1 244.29-1.23 2.53 2.44 1.19 1.23-2.53 1.48.72-3.19 6.55-1.48-.71 1.33-2.74-2.44-1.19-1.33 2.74-1.48-.72 3.19-6.55z" fill="#fff"/><path d="m72.74 295.75a1.85 1.85 0 0 1 0 2.62l-7.69 7.68a1.83 1.83 0 0 1 -2.61 0l-12.74-12.75a1.85 1.85 0 0 1 0-2.61l7.68-7.69a1.86 1.86 0 0 1 2.62 0z" fill="#fff"/><path d="m73 298.57-7.69 7.69a2.13 2.13 0 0 1 -3 0l-12.81-12.75a2.12 2.12 0 0 1 0-3l7.68-7.69a2.14 2.14 0 0 1 3 0l12.82 12.73a2.14 2.14 0 0 1 0 3.02zm-23.1-7.68a1.56 1.56 0 0 0 0 2.21l12.75 12.75a1.56 1.56 0 0 0 2.21 0l7.68-7.68a1.56 1.56 0 0 0 0-2.21l-12.75-12.75a1.56 1.56 0 0 0 -2.21 0z" fill="#20a2dc"/><path d="m72.23 295.7a1.77 1.77 0 0 1 0 2.5l-7.34 7.34a1.77 1.77 0 0 1 -2.5 0l-12.18-12.18a1.77 1.77 0 0 1 0-2.5l7.34-7.35a1.79 1.79 0 0 1 2.5 0z" fill="#20a2dc"/><path d="m72.34 298.31-7.34 7.34a1.93 1.93 0 0 1 -2.72 0l-12.18-12.19a1.91 1.91 0 0 1 0-2.71l7.34-7.34a1.93 1.93 0 0 1 2.72 0l12.18 12.18a1.93 1.93 0 0 1 0 2.72zm-22-7.34a1.61 1.61 0 0 0 0 2.28l12.16 12.18a1.62 1.62 0 0 0 2.28 0l7.35-7.35a1.61 1.61 0 0 0 0-2.28l-12.19-12.18a1.61 1.61 0 0 0 -2.28 0z" fill="#fff"/><path d="m56.21 292.14 2.65 2.65 2.55-2.56-2.64-2.64 1.54-1.59 6.86 6.86-1.54 1.55-2.86-2.86-2.56 2.55 2.86 2.9-1.55 1.55-6.86-6.86z" fill="#fff"/><path d="m273.94 51.38c-4.8 4.91-15.29 2.47-21.4-3.49a17.9 17.9 0 0 1 -5.12-9.17l-.1-.51.51-.09a6.61 6.61 0 0 0 3.59-1.91 6.68 6.68 0 0 0 1.87-4v-.39l.4-.06a6.69 6.69 0 0 0 5.8-6.22v-.55l.55.07a17.68 17.68 0 0 1 9.81 5c6.15 5.94 8.88 16.41 4.09 21.32z" fill="#fff"/><path d="m274.12 51.56c-5 5.12-15.8 2.33-21.76-3.49a18.1 18.1 0 0 1 -5.19-9.3l-.17-.77.77-.14a6.46 6.46 0 0 0 5.23-5.63l.06-.6.6-.08a6.45 6.45 0 0 0 5.57-6l.05-.82.82.11a18 18 0 0 1 10 5c5.96 5.87 9.01 16.6 4.02 21.72zm-26.5-13.14v.25a17.59 17.59 0 0 0 5.05 9c5.79 5.65 16.24 8.4 21 3.49s1.79-15.29-4-20.94a17.49 17.49 0 0 0 -9.68-4.91h-.27v.27a7 7 0 0 1 -6 6.47h-.2v.2a7 7 0 0 1 -5.66 6.09z" fill="#1d1d1b"/><path d="m260 25.61a7.22 7.22 0 0 1 -6.24 6.7 7.22 7.22 0 0 1 -5.88 6.31 17.26 17.26 0 0 0 5 8.9c5.92 5.78 16.07 8.22 20.67 3.5s1.92-14.8-4-20.58a17.17 17.17 0 0 0 -9.55-4.83z" fill="#30277c"/><g clip-path="url(#d)"><path d="m260 25.61a7.22 7.22 0 0 1 -6.24 6.7 7.23 7.23 0 0 1 -5.87 6.31 17.17 17.17 0 0 0 5 8.9c5.92 5.78 14.45 6.64 19 1.92s3.54-13.23-2.38-19a17.17 17.17 0 0 0 -9.51-4.83z" fill="#e41813"/><path d="m246.72 35.5h23.1v1.09h-23.1z" fill="#fff" transform="matrix(.69841529 -.71569273 .71569273 .69841529 52.1 195.72)"/></g><g fill="#fff"><path d="m249.68 39.55 1.7 1.66-.37.38-1.7-1.65z"/><path d="m251.7 40.88-1.7-1.66.43-.44 1 .25a6.55 6.55 0 0 1 .85.29 7.32 7.32 0 0 1 -.74-.66l-.5-.48.35-.35 1.69 1.65-.39.41-1-.28a9.06 9.06 0 0 1 -.88-.29c.24.21.48.44.76.71l.51.49z"/><path d="m252.34 37.47-.44.46-.33-.31 1.28-1.31.32.32-.45.46 1.37 1.34-.37.38z"/><path d="m255 36.05-.61.63.41.39.67-.7.32.31-1.05 1.08-1.7-1.65 1-1 .31.31-.64.66.35.34.61-.62z"/><path d="m254.38 34.79a4.43 4.43 0 0 1 .46-.55 1.25 1.25 0 0 1 .68-.42.59.59 0 0 1 .5.19.63.63 0 0 1 .13.71.59.59 0 0 1 .53.09c.25.13.52.3.62.33l-.39.39a2.9 2.9 0 0 1 -.51-.27c-.26-.16-.38-.14-.54 0l-.11.11.66.65-.37.38zm1.1.33.15-.15a.37.37 0 0 0 .05-.55.34.34 0 0 0 -.51.06 1.43 1.43 0 0 0 -.16.18z"/><path d="m257.13 34.53a1.41 1.41 0 0 0 .52-.32c.17-.18.19-.34.08-.45s-.25-.08-.52.05a.79.79 0 0 1 -1 0 .78.78 0 0 1 .12-1.14 1.3 1.3 0 0 1 .5-.35l.23.38a1 1 0 0 0 -.42.28c-.17.16-.17.32-.08.4s.24.06.55-.08a.75.75 0 0 1 .93.06c.29.28.32.73-.14 1.2a1.75 1.75 0 0 1 -.57.38z"/><path d="m257.78 31.9-.44.46-.34-.36 1.27-1.3.32.31-.45.47 1.37 1.34-.37.38z"/><path d="m260 31.55.32.55-.39.39-1.19-2.17.49-.5 2.16 1.18-.4.41-.56-.3zm.14-.71-.47-.24-.41-.24c.08.12.18.27.25.39l.26.46z"/><path d="m260.34 29.27-.44.46-.33-.31 1.28-1.31.32.32-.45.46 1.37 1.34-.37.39z"/><path d="m263 27.86-.61.62.4.39.68-.69.32.3-1.06 1.08-1.69-1.65 1-1.05.31.31-.65.66.36.35.61-.63z"/><path d="m266.66 49.06-1.94-1.89-3.51 3.59-1.21-1.2-2-7.89 2.28-2.34 4.77 4.67.94-1 1.43 1.39-.94 1 1.94 1.89zm-3.36-3.28-1.8-1.78c-.49-.48-1-1-1.47-1.53.27.78.52 1.46.76 2.24l.73 2.81z"/><path d="m268 34.59-3.07 3.15 1.07 1.38c.15-.18.29-.35.48-.55a5.22 5.22 0 0 1 2.64-1.57 3.23 3.23 0 0 1 3 1c1.51 1.48 1.58 4.08-.55 6.27a7.3 7.3 0 0 1 -2.67 1.81l-1.09-1.74a6.42 6.42 0 0 0 2.19-1.41c.77-.79 1.21-2 .35-2.84s-2-.66-3.59 1a10 10 0 0 0 -1 1.16l-3.76-4.71 4.37-4.47z"/><path d="m66.17 109c-5.89-5.94-2.7-18.68 4.69-26a21.87 21.87 0 0 1 11.29-6.06l.62-.11.1.63a8.16 8.16 0 0 0 7 6.77l.49.06v.49a8.18 8.18 0 0 0 7.48 7.19l.67.06-.11.66a21.53 21.53 0 0 1 -6.26 11.87c-7.3 7.28-20.07 10.35-25.97 4.44z"/></g><path d="m66 109.18c-6.14-6.2-2.52-19.31 4.69-26.46a22.08 22.08 0 0 1 11.45-6.13l.94-.17.15.94a7.9 7.9 0 0 0 2.17 4.25 7.78 7.78 0 0 0 4.6 2.26l.73.09.08.73a7.87 7.87 0 0 0 7.19 6.92l1 .08-.16 1a21.87 21.87 0 0 1 -6.35 12c-7.25 7.19-20.4 10.69-26.49 4.49zm16.56-32h-.31a21.56 21.56 0 0 0 -11.12 6c-7 6.94-10.58 19.63-4.68 25.57s18.55 2.48 25.55-4.47a21.27 21.27 0 0 0 6.18-11.69v-.33h-.34a8.49 8.49 0 0 1 -7.76-7.47v-.24h-.25a8.48 8.48 0 0 1 -5-2.44 8.38 8.38 0 0 1 -2.34-4.59z" fill="#1d1d1b"/><path d="m97.88 92.54a8.67 8.67 0 0 1 -5.55-2.54 8.76 8.76 0 0 1 -2.5-5.17 8.81 8.81 0 0 1 -7.57-7.29 21.1 21.1 0 0 0 -11 5.88c-7.16 7.1-10.34 19.42-4.68 25.13s18 2.64 25.17-4.46a21 21 0 0 0 6.13-11.55z" fill="#30277c"/><g clip-path="url(#e)"><path d="m97.88 92.55a8.81 8.81 0 0 1 -8-7.75 8.81 8.81 0 0 1 -7.58-7.29 21.1 21.1 0 0 0 -11 5.88c-7.16 7.1-8.38 17.48-2.72 23.19s16 4.58 23.21-2.52a21 21 0 0 0 6.09-11.51z" fill="#e41813"/><path d="m84.52 76.09h1.33v28.17h-1.33z" fill="#fff" transform="matrix(.71030824 -.70389076 .70389076 .71030824 -38.8 86.09)"/></g><path d="m81.08 79.63-2 2-.46-.47 2.06-2z" fill="#fff"/><path d="m79.43 82.07 2-2 .54.54-.33 1.17a7.43 7.43 0 0 1 -.37 1 10.92 10.92 0 0 1 .82-.89l.59-.59.43.42-2.06 2-.48-.49.43-1.17a10.41 10.41 0 0 1 .36-1.06c-.26.29-.54.58-.88.91l-.62.62z" fill="#fff"/><path d="m83.57 82.92-.57-.55.39-.39 1.61 1.58-.4.38-.6-.56-1.63 1.62-.46-.46z" fill="#fff"/><path d="m85.24 86.2-.74-.75-.49.48.83.84-.38.38-1.29-1.31 2-2 1.26 1.26-.39.38-.79-.8-.43.42.75.76z" fill="#fff"/><path d="m86.8 85.46a6.49 6.49 0 0 1 .66.57 1.45 1.45 0 0 1 .49.83.72.72 0 0 1 -.24.62.76.76 0 0 1 -.86.13.68.68 0 0 1 -.11.64c-.17.3-.38.63-.42.75l-.47-.48a4 4 0 0 1 .34-.61c.21-.32.18-.47 0-.67l-.19-.11-.81.8-.45-.46zm-.43 1.33.19.19c.23.23.48.25.66.07s.15-.41-.06-.62a2.26 2.26 0 0 0 -.22-.2z" fill="#fff"/><path d="m87.06 88.82a1.56 1.56 0 0 0 .38.64c.21.21.41.24.55.1s.1-.3-.06-.63-.25-.87 0-1.17a1 1 0 0 1 1.39.16 1.7 1.7 0 0 1 .41.63l-.47.27a1.44 1.44 0 0 0 -.32-.53c-.2-.2-.4-.2-.5-.1s-.08.3.09.67.2.85-.09 1.14-.9.37-1.46-.19a2 2 0 0 1 -.45-.71z" fill="#fff"/><path d="m90.26 89.67-.55-.56.39-.38 1.56 1.57-.39.39-.56-.56-1.66 1.65-.46-.46z" fill="#fff"/><path d="m90.63 92.32-.63.38-.48-.48 2.68-1.41.6.61-1.42 2.67-.49-.5.37-.68zm.87.18.3-.56.3-.5c-.15.1-.34.22-.49.3l-.61.26z" fill="#fff"/><path d="m93.4 92.84-.55-.55.39-.39 1.56 1.58-.39.38-.55-.56-1.66 1.7-.46-.46z" fill="#fff"/><path d="m95.07 96.12-.74-.76-.49.49.83.84-.38.38-1.29-1.31 2-2 1.3 1.24-.38.38-.79-.8-.43.42.75.75z" fill="#fff"/><path d="m69.15 100.14 2.35-2.33-4.32-4.35 1.5-1.46 9.66-2.23 2.8 2.83-5.76 5.71 1.15 1.17-1.72 1.71-1.15-1.19-2.35 2.33zm4.07-4 2.18-2.14c.59-.59 1.22-1.16 1.89-1.76-1 .31-1.8.61-2.75.89l-3.44.83z" fill="#fff"/><path d="m86.76 102-3.76-3.79-1.7 1.27c.22.2.42.37.66.61a6.3 6.3 0 0 1 1.85 3.29 3.92 3.92 0 0 1 -1.3 3.65c-1.83 1.82-5 1.85-7.63-.8a8.76 8.76 0 0 1 -2.15-3.29l2.14-1.29a7.65 7.65 0 0 0 1.71 2.69c.94 1 2.4 1.52 3.44.48s.86-2.43-1.09-4.4a11.53 11.53 0 0 0 -1.4-1.22l5.78-4.47 5.36 5.42z" fill="#fff"/><path d="m298.7 217.67c-7.28 4.14-18.75-2.26-23.89-11.32a21.87 21.87 0 0 1 -2.9-12.47l.06-.63.63.06a8.17 8.17 0 0 0 8.38-5l.18-.45.48.07a8.2 8.2 0 0 0 8.91-5.33l.22-.64.61.27a21.53 21.53 0 0 1 9.82 9.15c5.15 9.03 4.8 22.16-2.5 26.29z" fill="#fff"/><path d="m298.85 218c-7.58 4.31-19.3-2.61-24.31-11.44a22 22 0 0 1 -2.93-12.65l.08-1 .94.09a7.85 7.85 0 0 0 8.06-4.83l.27-.68.73.11a7.86 7.86 0 0 0 8.56-5.13l.34-.95.92.41a21.85 21.85 0 0 1 10 9.27c4.98 8.8 4.93 22.44-2.66 26.8zm-26.6-24.36v.32a21.5 21.5 0 0 0 2.85 12.29c4.87 8.58 16.19 15.34 23.46 11.2s7.26-17.31 2.39-25.89a21.24 21.24 0 0 0 -9.67-9l-.31-.14-.11.32a8.5 8.5 0 0 1 -3.8 4.52 8.41 8.41 0 0 1 -5.44 1h-.24l-.09.23a8.48 8.48 0 0 1 -8.7 5.21z" fill="#1d1d1b"/><path d="m291.13 182.78a8.82 8.82 0 0 1 -9.58 5.75 8.79 8.79 0 0 1 -9 5.4 21 21 0 0 0 2.8 12.07c5 8.77 16 15.06 23 11.09s7.25-16.69 2.27-25.46a20.91 20.91 0 0 0 -9.49-8.85z" fill="#30277c"/><g clip-path="url(#f)"><path d="m291.13 182.78a8.71 8.71 0 0 1 -3.94 4.69 8.82 8.82 0 0 1 -5.63 1.06 8.84 8.84 0 0 1 -9 5.41 21 21 0 0 0 2.81 12.1c5 8.77 14.69 12.66 21.68 8.69s8.61-14.29 3.63-23.06a20.91 20.91 0 0 0 -9.55-8.89z" fill="#e41813"/><path d="m271.44 193.75h28.17v1.33h-28.17z" fill="#fff" transform="matrix(.86949493 -.49394187 .49394187 .86949493 -58.77 166.42)"/></g><path d="m274.28 195.62 1.43 2.52-.57.32-1.43-2.46z" fill="#fff"/><path d="m276.2 197.86-1.43-2.52.67-.37 1 .62a8.06 8.06 0 0 1 .9.63 10.58 10.58 0 0 1 -.64-1l-.42-.73.52-.3 1.43 2.51-.59.34-1.09-.66a8.64 8.64 0 0 1 -.94-.64c.21.32.42.67.65 1.08l.44.76z" fill="#fff"/><path d="m278.1 194.08-.67.39-.27-.48 1.93-1.1.27.48-.69.39 1.16 2-.57.32z" fill="#fff"/><path d="m281.71 193.32-.93.53.34.59 1-.58.27.46-1.6.91-1.43-2.51 1.55-.88.27.47-1 .55.3.52.92-.52z" fill="#fff"/><path d="m281.4 191.63a5.46 5.46 0 0 1 .72-.49 1.5 1.5 0 0 1 .93-.26.69.69 0 0 1 .53.4.74.74 0 0 1 -.09.86.72.72 0 0 1 .6.28 7.85 7.85 0 0 0 .61.6l-.59.33a4 4 0 0 1 -.5-.49c-.25-.28-.41-.3-.64-.17l-.17.09.56 1-.56.32zm1.17.76.23-.13c.28-.16.37-.4.24-.62s-.35-.26-.61-.11a1.23 1.23 0 0 0 -.25.17z" fill="#fff"/><path d="m284.71 192.26a1.66 1.66 0 0 0 .71-.21c.27-.14.34-.33.25-.5s-.26-.18-.62-.11-.91 0-1.12-.35-.07-1 .52-1.3a1.84 1.84 0 0 1 .71-.24l.14.53a1.42 1.42 0 0 0 -.6.18c-.24.14-.3.32-.22.45s.26.15.67.09.87 0 1.07.39.13 1-.56 1.35a1.93 1.93 0 0 1 -.81.25z" fill="#fff"/><path d="m286.36 189.39-.68.39-.27-.48 1.93-1.1.28.48-.69.39 1.16 2-.57.33z" fill="#fff"/><path d="m289 189.72.19.74-.59.34-.66-3 .75-.42 2.21 2.07-.62.34-.56-.53zm.4-.79-.46-.44-.4-.42.16.55.15.62z" fill="#fff"/><path d="m290.25 187.18-.68.39-.27-.48 1.93-1.1.27.48-.69.39 1.16 2-.57.32z" fill="#fff"/><path d="m293.85 186.42-.93.53.35.6 1-.59.26.47-1.6.9-1.43-2.51 1.55-.88.27.47-1 .56.29.52.93-.53z" fill="#fff"/><path d="m291 212.5-1.63-2.88-5.34 3-1-1.83.37-9.91 3.47-2 4 7.05 1.43-.81 1.2 2.11-1.43.81 1.63 2.87zm-2.83-5-1.52-2.66c-.41-.72-.79-1.48-1.19-2.28h-.06c.05 1 .12 1.89.14 2.88l-.1 3.53v.05z" fill="#fff"/><path d="m297.38 196-4.67 2.65.78 2c.25-.16.46-.31.76-.48a6.36 6.36 0 0 1 3.66-.93 4 4 0 0 1 3.19 2.21c1.27 2.24.47 5.31-2.77 7.16a8.65 8.65 0 0 1 -3.74 1.21l-.68-2.4a7.79 7.79 0 0 0 3-.94c1.17-.67 2.09-1.93 1.37-3.2s-2.13-1.46-4.54-.1a11.22 11.22 0 0 0 -1.55 1l-2.79-6.74 6.62-3.76z" fill="#fff"/><path d="m51.75 215.48h-1.37c-4.86 0-8.79 3.14-8.79 7v8.26h-3.93l5.66 8.26h.87l5.81-8.24h-4.28v-6.07a4.89 4.89 0 0 1 4.89-4.89h.76a4.9 4.9 0 0 1 4.9 4.89v14.22h4.28v-16.41c0-3.88-3.94-7.02-8.8-7.02z"/><path d="m51.58 249.19a20.48 20.48 0 1 1 20.49-20.48 20.51 20.51 0 0 1 -20.49 20.48zm0-37.49a17 17 0 1 0 17 17 17 17 0 0 0 -17-17z" fill="#db1715"/><path d="m50.01 208.63h3.71v39.86h-3.71z" fill="#db1715" transform="matrix(.85680753 -.51563637 .51563637 .85680753 -110.43 59.48)"/><path d="m154.42 265.47h-.67c-2.38 0-4.31 1.54-4.31 3.44v4h-1.93l2.78 4h.42l2.85-4h-2.1v-3a2.41 2.41 0 0 1 2.4-2.4h.38a2.4 2.4 0 0 1 2.39 2.4v7h2.1v-8c0-1.91-1.93-3.44-4.31-3.44z"/><path d="m154.34 282a10 10 0 1 1 10-10.05 10.06 10.06 0 0 1 -10 10.05zm0-18.39a8.34 8.34 0 1 0 8.34 8.34 8.35 8.35 0 0 0 -8.34-8.34z" fill="#db1715"/><path d="m153.57 262.1h1.82v19.55h-1.82z" fill="#db1715" transform="matrix(.85680753 -.51563637 .51563637 .85680753 -118.06 118.57)"/><path d="m283.73 244.89h-.73c-2.72 0-4.93 1.76-4.93 3.93v4.63h-2.2l3.17 4.63h.49l3.26-4.63h-2.4v-3.4a2.75 2.75 0 0 1 2.74-2.75h.43a2.74 2.74 0 0 1 2.74 2.75v8h2.4v-9.2c-.04-2.2-2.24-3.96-4.97-3.96z"/><path d="m283.64 263.79a11.49 11.49 0 1 1 11.49-11.49 11.5 11.5 0 0 1 -11.49 11.49zm0-21a9.54 9.54 0 1 0 9.54 9.54 9.55 9.55 0 0 0 -9.54-9.57z" fill="#db1715"/><path d="m282.76 241.04h2.08v22.35h-2.08z" fill="#db1715" transform="matrix(.85662748 -.51593542 .51593542 .85662748 -89.45 182.61)"/><path d="m107.28 326.52h-.91c-3.23 0-5.84 2.09-5.84 4.66v5.49h-2.61l3.76 5.48h.57l3.86-5.48h-2.84v-4a3.24 3.24 0 0 1 3.25-3.25h.48a3.25 3.25 0 0 1 3.25 3.25v9.44h2.84v-10.9c.03-2.6-2.58-4.69-5.81-4.69z"/><path d="m107.17 348.91a13.61 13.61 0 1 1 13.6-13.6 13.62 13.62 0 0 1 -13.6 13.6zm0-24.91a11.31 11.31 0 1 0 11.3 11.31 11.32 11.32 0 0 0 -11.3-11.31z" fill="#db1715"/><path d="m106.12 321.97h2.47v26.48h-2.47z" fill="#db1715" transform="matrix(.85671752 -.5157859 .5157859 .85671752 -157.53 103.42)"/><path d="m155.25 65.68h-1.19c-4.23 0-7.67 2.74-7.67 6.11v7.21h-3.39l4.92 7.2h.76l5.06-7.2h-3.74v-5.29a4.27 4.27 0 0 1 4.27-4.27h.66a4.27 4.27 0 0 1 4.27 4.27v12.39h3.73v-14.31c-.01-3.37-3.44-6.11-7.68-6.11z"/><path d="m155.1 95.06a17.85 17.85 0 1 1 17.9-17.85 17.87 17.87 0 0 1 -17.9 17.85zm0-32.68a14.83 14.83 0 1 0 14.83 14.83 14.84 14.84 0 0 0 -14.83-14.83z" fill="#db1715"/><path d="m153.73 59.71h3.24v34.74h-3.24z" fill="#db1715" transform="matrix(.85671752 -.5157859 .5157859 .85671752 -17.5 91.16)"/><path d="m246 13.31a7.89 7.89 0 0 1 -.79 3.58 7.11 7.11 0 0 1 -2.29 2.63 11 11 0 0 1 -3.69 1.63 21.08 21.08 0 0 1 -5.14.55h-2.5v7.68a.46.46 0 0 1 -.15.33 1.06 1.06 0 0 1 -.5.24 6.52 6.52 0 0 1 -.92.15c-.39 0-.88.06-1.48.06s-1.08 0-1.47-.06a6.63 6.63 0 0 1 -.94-.15 1 1 0 0 1 -.48-.24.49.49 0 0 1 -.14-.33v-21.62a1.54 1.54 0 0 1 .49-1.31 2.36 2.36 0 0 1 1.53-.45h7.05c.71 0 1.38 0 2 .07a22.51 22.51 0 0 1 2.3.28 11.89 11.89 0 0 1 2.72.78 8.22 8.22 0 0 1 2.4 1.47 6 6 0 0 1 1.48 2.06 6.63 6.63 0 0 1 .52 2.65zm-6.36.35a3.64 3.64 0 0 0 -.56-2.08 3.46 3.46 0 0 0 -1.36-1.2 5.37 5.37 0 0 0 -1.7-.5 18.24 18.24 0 0 0 -1.84-.1h-2.59v8.15h2.73a8.14 8.14 0 0 0 2.44-.31 4.51 4.51 0 0 0 1.61-.88 3.69 3.69 0 0 0 .94-1.36 4.43 4.43 0 0 0 .29-1.72z" fill="#1d1d1b"/><path d="m233.17 35.7a17.85 17.85 0 1 1 17.83-17.85 17.87 17.87 0 0 1 -17.83 17.85zm0-32.67a14.83 14.83 0 1 0 14.83 14.82 14.84 14.84 0 0 0 -14.83-14.85z" fill="#db1715"/><path d="m231.8.35h3.24v34.74h-3.24z" fill="#db1715" transform="matrix(.85680753 -.51563637 .51563637 .85680753 24.29 122.9)"/><path d="m27.06 207.73a6.89 6.89 0 0 1 -.69 3.15 6.31 6.31 0 0 1 -2 2.32 9.7 9.7 0 0 1 -3.25 1.43 18.31 18.31 0 0 1 -4.53.49h-2.2v6.76a.42.42 0 0 1 -.14.3 1.07 1.07 0 0 1 -.43.21 5.66 5.66 0 0 1 -.82.13c-.34 0-.77 0-1.3 0s-.95 0-1.3 0a5.44 5.44 0 0 1 -.82-.13 1 1 0 0 1 -.43-.21.44.44 0 0 1 -.12-.3v-19a1.34 1.34 0 0 1 .5-1.15 2.06 2.06 0 0 1 1.31-.39h6.16c.62 0 1.21 0 1.78.06s1.24.12 2 .25a10.19 10.19 0 0 1 2.39.69 7.13 7.13 0 0 1 2.07 1.29 5.26 5.26 0 0 1 1.3 1.81 5.85 5.85 0 0 1 .52 2.29zm-5.6.31a3.25 3.25 0 0 0 -.46-1.84 3.1 3.1 0 0 0 -1.2-1.06 4.69 4.69 0 0 0 -1.5-.43 14.13 14.13 0 0 0 -1.62-.09h-2.31v7.18h2.4a7 7 0 0 0 2.15-.28 3.78 3.78 0 0 0 1.42-.77 3.45 3.45 0 0 0 .83-1.2 3.94 3.94 0 0 0 .29-1.55z" fill="#1d1d1b"/><path d="m15.8 227.46a15.73 15.73 0 1 1 15.73-15.73 15.75 15.75 0 0 1 -15.73 15.73zm0-28.79a13.06 13.06 0 1 0 13.06 13.06 13.07 13.07 0 0 0 -13.06-13.06z" fill="#db1715"/><path d="m14.59 196.31h2.85v30.61h-2.85z" fill="#db1715" transform="matrix(.85644734 -.5162344 .5162344 .85644734 -106.95 38.65)"/><path d="m234.88 300.11a6.31 6.31 0 0 1 -.62 2.84 5.73 5.73 0 0 1 -1.82 2.08 8.61 8.61 0 0 1 -2.92 1.28 16.31 16.31 0 0 1 -4.07.44h-2v6.08a.37.37 0 0 1 -.12.27 1 1 0 0 1 -.39.19 4.92 4.92 0 0 1 -.74.11c-.3 0-.69.05-1.17.05s-.85 0-1.16-.05a4.73 4.73 0 0 1 -.74-.11.94.94 0 0 1 -.39-.19.4.4 0 0 1 -.11-.27v-17.12a1.23 1.23 0 0 1 .45-1 1.9 1.9 0 0 1 1.18-.34h5.59c.56 0 1.09 0 1.6.05a16.73 16.73 0 0 1 1.82.22 9.53 9.53 0 0 1 2.16.62 6.47 6.47 0 0 1 1.85 1.16 4.61 4.61 0 0 1 1.18 1.63 5.38 5.38 0 0 1 .42 2.06zm-5 .28a2.82 2.82 0 0 0 -.44-1.65 2.75 2.75 0 0 0 -1.08-1 4.49 4.49 0 0 0 -1.34-.39 13.83 13.83 0 0 0 -1.46-.08h-2.05v6.46h2.16a6.28 6.28 0 0 0 1.93-.25 3.49 3.49 0 0 0 1.28-.7 3 3 0 0 0 .75-1.07 3.58 3.58 0 0 0 .21-1.32z" fill="#1d1d1b"/><path d="m224.75 317.84a14.14 14.14 0 1 1 14.14-14.14 14.15 14.15 0 0 1 -14.14 14.14zm0-25.88a11.74 11.74 0 1 0 11.75 11.74 11.76 11.76 0 0 0 -11.75-11.7z" fill="#db1715"/><path d="m223.67 289.84h2.56v27.51h-2.56z" fill="#db1715" transform="matrix(.85662748 -.51593542 .51593542 .85662748 -124.39 159.6)"/><path d="m242.59 83.59a6.47 6.47 0 0 1 -.65 3 6 6 0 0 1 -1.89 2.17 8.9 8.9 0 0 1 -3.05 1.29 17.08 17.08 0 0 1 -4.24.46h-2.06v6.33a.37.37 0 0 1 -.13.28.92.92 0 0 1 -.41.2 4.86 4.86 0 0 1 -.76.12c-.32 0-.72 0-1.22 0s-.89 0-1.21 0a5.18 5.18 0 0 1 -.78-.12.87.87 0 0 1 -.4-.2.43.43 0 0 1 -.11-.28v-17.84a1.28 1.28 0 0 1 .47-1.08 2 2 0 0 1 1.23-.36h5.82c.58 0 1.14 0 1.67.06s1.16.11 1.9.23a9.41 9.41 0 0 1 2.24.65 6.87 6.87 0 0 1 1.93 1.2 4.88 4.88 0 0 1 1.23 1.7 5.66 5.66 0 0 1 .42 2.19zm-5.25.29a3 3 0 0 0 -.46-1.72 2.91 2.91 0 0 0 -1.13-1 4.5 4.5 0 0 0 -1.4-.4 12.5 12.5 0 0 0 -1.51-.09h-2.14v6.73h2.3a6.45 6.45 0 0 0 2-.26 3.48 3.48 0 0 0 1.33-.73 3.06 3.06 0 0 0 .78-1.12 3.62 3.62 0 0 0 .23-1.41z" fill="#1d1d1b"/><path d="m232 102.06a14.73 14.73 0 1 1 14.73-14.73 14.74 14.74 0 0 1 -14.73 14.73zm0-27a12.24 12.24 0 1 0 12.23 12.23 12.24 12.24 0 0 0 -12.23-12.19z" fill="#db1715"/><path d="m230.9 72.89h2.67v28.66h-2.67z" fill="#db1715" transform="matrix(.85644734 -.5162344 .5162344 .85644734 -11.69 132.41)"/><path d="m55.19 108.16a7 7 0 0 1 -.69 3.16 6.19 6.19 0 0 1 -2 2.31 9.42 9.42 0 0 1 -3.25 1.43 18.31 18.31 0 0 1 -4.53.49h-2.22v6.76a.41.41 0 0 1 -.13.3 1 1 0 0 1 -.44.21 4.4 4.4 0 0 1 -.82.13c-.33 0-.77 0-1.3 0s-1 0-1.29 0a4.53 4.53 0 0 1 -.83-.13.91.91 0 0 1 -.43-.21.44.44 0 0 1 -.12-.3v-19a1.38 1.38 0 0 1 .5-1.16 2.13 2.13 0 0 1 1.32-.38h6.21 1.78s1.24.12 2 .25a10.4 10.4 0 0 1 2.39.69 7.13 7.13 0 0 1 2.1 1.29 5.23 5.23 0 0 1 1.31 1.82 6 6 0 0 1 .44 2.34zm-5.6.31a3.16 3.16 0 0 0 -.49-1.83 3.06 3.06 0 0 0 -1.2-1.07 4.69 4.69 0 0 0 -1.5-.43 14.13 14.13 0 0 0 -1.62-.09h-2.28v7.18h2.4a7.27 7.27 0 0 0 2.15-.27 3.94 3.94 0 0 0 1.42-.78 3.26 3.26 0 0 0 .84-1.2 3.9 3.9 0 0 0 .28-1.51z" fill="#1d1d1b"/><path d="m43.93 127.89a15.73 15.73 0 1 1 15.73-15.73 15.75 15.75 0 0 1 -15.73 15.73zm0-28.79a13.06 13.06 0 1 0 13.07 13.06 13.08 13.08 0 0 0 -13.07-13.06z" fill="#db1715"/><path d="m42.72 96.74h2.85v30.61h-2.85z" fill="#db1715" transform="matrix(.85653742 -.51608492 .51608492 .85653742 -51.49 38.85)"/><path d="m325.45 234.72h17.09v17.35h-17.09z" fill="#fcc000" transform="matrix(.71861196 -.69541128 .69541128 .71861196 -75.28 300.72)"/><path d="m333.87 256.05-12.53-13 12.77-12.35 12.54 12.95zm-11.57-12.94 11.59 12 11.79-11.41-11.58-12z" fill="#1d1d1b"/><rect fill="#1d1d1b" height="13.65" rx=".32" width="1.65" x="330.73" y="236.57"/><path d="m337.82 244.74-2-3.15v-4.59a.32.32 0 0 0 -.32-.32h-1a.32.32 0 0 0 -.32.32v5a.27.27 0 0 0 .09.21l2 3.1v4.63a.31.31 0 0 0 .31.32h1a.32.32 0 0 0 .32-.32v-5a.29.29 0 0 0 -.08-.2z" fill="#1d1d1b"/><path d="m121.6 258.51h19.95v20.25h-19.95z" fill="#fcc000" transform="matrix(.35461744 -.93501148 .93501148 .35461744 -166.26 296.4)"/><path d="m137.74 282.07-19.68-7.46 7.35-19.4 19.68 7.46zm-18.66-7.92 18.19 6.85 6.8-17.91-18.19-6.9z" fill="#1d1d1b"/><path d="m126.14 262.39-1.06.5a.39.39 0 0 0 -.19.5l6.47 13.75a.37.37 0 0 0 .5.18l1.06-.5a.37.37 0 0 0 .18-.5l-6.47-13.75a.37.37 0 0 0 -.49-.18z" fill="#1d1d1b"/><path d="m136.29 268.16-3.72-2.32-2.3-4.91a.39.39 0 0 0 -.5-.18l-1.06.5a.37.37 0 0 0 -.18.5l2.5 5.33a.46.46 0 0 0 .2.19l3.65 2.27 2.3 4.9a.38.38 0 0 0 .5.18l1.06-.5a.37.37 0 0 0 .18-.5l-2.48-5.28a.38.38 0 0 0 -.15-.18z" fill="#1d1d1b"/><path d="m90.06 36.87a3.54 3.54 0 0 0 -2-.6 5.33 5.33 0 0 1 -.79-.1c-2.18-.5-5.83-3.68-5.43-5.65 0 0-5.71-1-6.33-1.25l-.62-.33s-2.18 4.82-3.55 6.29a5.88 5.88 0 0 1 -1.66 1.28.76.76 0 0 0 -.26.12l-.08.09-.09.09v.05a1 1 0 0 0 -.1.27 5.75 5.75 0 0 1 -1.15 1.77c-1.36 1.47-6 4-6 4l.38.6c.32.6 1.71 6.23 1.71 6.23 1.94-.55 5.37 2.86 6 5a4.19 4.19 0 0 1 .15.77 3.61 3.61 0 0 0 .76 1.92 7.33 7.33 0 0 0 2.38 1.89c3 1.55 6.24-1.31 8.61-3.4a17.44 17.44 0 0 1 2.01-1.71 15.08 15.08 0 0 1 2-.86l.4-.15h.17l.14-.15.14-.15v-.17a4.13 4.13 0 0 0 .13-.41 14.6 14.6 0 0 1 .71-2 19.36 19.36 0 0 1 1.55-2.22c1.91-2.52 4.53-6 2.77-8.84a7.51 7.51 0 0 0 -1.95-2.38z" fill="#1d1d1b"/><path d="m87.11 53.19-.35.38h-.26l-.29.11h-.07a15.09 15.09 0 0 0 -1.88.83 17.18 17.18 0 0 0 -2.05 1.66c-2.46 2.17-5.83 5.14-9.07 3.46a7.64 7.64 0 0 1 -2.51-2 3.9 3.9 0 0 1 -.83-2.13 5.94 5.94 0 0 0 -.14-.71c-.65-2.09-4-5.18-5.53-4.73l-.41.11-.1-.41c-.53-2.15-1.46-5.73-1.67-6.13l-.59-.94.38-.21s4.61-2.5 5.91-3.91a5.18 5.18 0 0 0 1.06-1.57 1.66 1.66 0 0 1 .12-.31v-.1l.14-.15.13-.15h.1a1.35 1.35 0 0 1 .3-.14 5.44 5.44 0 0 0 1.56-1.15c1.31-1.4 3.45-6.13 3.47-6.18l.18-.4 1 .54c.39.17 4 .83 6.21 1.21l.42.07-.09.41c-.33 1.61 3 4.68 5.13 5.17a4.18 4.18 0 0 0 .71.09 3.94 3.94 0 0 1 2.19.67 8 8 0 0 1 2.17 2.36c1.91 3.11-.81 6.69-2.79 9.3a17.64 17.64 0 0 0 -1.51 2.16 14.41 14.41 0 0 0 -.69 1.94v.07a2.82 2.82 0 0 1 -.09.3v.26zm-.54-.43.24.16-.17-.16zm-.19 0 .08-.09.08.05v-.07-.07-.06c0-.09.06-.19.1-.34v-.06a15.25 15.25 0 0 1 .79-2.12 19.5 19.5 0 0 1 1.57-2.31c1.84-2.42 4.36-5.74 2.74-8.37a7 7 0 0 0 -1.94-2.11 3 3 0 0 0 -1.77-.53 5.36 5.36 0 0 1 -.85-.11c-2.19-.51-5.73-3.5-5.77-5.71-1.47-.25-5.5-1-6.07-1.22l-.26-.14c-.56 1.2-2.26 4.74-3.44 6a5.87 5.87 0 0 1 -1.78 1.36h-.07a.59.59 0 0 0 -.14.06.35.35 0 0 0 -.06.14v.07a6.09 6.09 0 0 1 -1.23 1.88 31.22 31.22 0 0 1 -5.85 3.99l.14.23c.32.58 1.32 4.54 1.68 6 2.2-.11 5.45 3.2 6.11 5.35a5.69 5.69 0 0 1 .17.84 3.18 3.18 0 0 0 .66 1.73 7.09 7.09 0 0 0 2.24 1.85c2.75 1.41 5.87-1.34 8.15-3.35a18.46 18.46 0 0 1 2.17-1.75 15.86 15.86 0 0 1 2-.89h.06l.33-.13h.06z" fill="#1d1d1b"/><path d="m89.59 37.54c-.87-.59-1.53-.35-2.48-.57-2.36-.55-6.19-3.47-5.64-6.13-.15.69-5.76-.55-6.33-.85-.42.56-1.69 5.67-5.17 7.29 0 0-.08 0-.09 0s0 .1 0 .1c-1.4 3.62-6.4 5.27-6.88 5.73.34.54 2 6 1.31 6.24 2.61-.73 5.81 2.87 6.52 5.18.29.94.1 1.62.76 2.44a6.73 6.73 0 0 0 2.11 1.67c3.4 1.75 7.54-3.61 9.91-5.08.77-.48 2.58-1.08 2.58-1.13a24.87 24.87 0 0 1 .93-2.65c1.29-2.47 6.34-7 4.34-10.25a6.65 6.65 0 0 0 -1.87-1.99z" fill="#fff"/><path d="m65.69 44.83a5.68 5.68 0 0 1 .68-.85 1.81 1.81 0 0 1 1-.66.9.9 0 0 1 .78.27 1 1 0 0 1 .21 1.06.92.92 0 0 1 .82.11c.38.19.79.44.94.48l-.56.61a4.33 4.33 0 0 1 -.78-.39c-.41-.24-.6-.2-.83 0l-.16.18 1 1-.55.59zm1.67.46.22-.24c.28-.3.29-.61.06-.82s-.51-.18-.77.1a2 2 0 0 0 -.23.28z" fill="#1d1d1b"/><path d="m71.51 43.86a1.69 1.69 0 0 1 -2.5 0 1.75 1.75 0 0 1 -.18-2.57 1.67 1.67 0 0 1 2.49 0 1.7 1.7 0 0 1 .19 2.58zm-.45-.47c.37-.4.21-1-.31-1.47s-1.08-.59-1.47-.18-.19 1 .3 1.47 1.11.58 1.48.18z" fill="#1d1d1b"/><path d="m71 39.09 1.51 1.4c.46.43.85.47 1.13.17s.24-.69-.23-1.13l-1.52-1.4.55-.6 1.48 1.37a1.41 1.41 0 0 1 .18 2.22c-.62.66-1.35.71-2.18-.07l-1.52-1.37z" fill="#1d1d1b"/><path d="m73.85 37-.66.71-.5-.47 1.88-2 .5.46-.66.72 2.13 2-.54.58z" fill="#1d1d1b"/><path d="m77.85 34.72-.9 1 .62.58 1-1.09.49.46-1.56 1.68-2.64-2.45 1.51-1.63.49.46-1 1 .55.5.9-1z" fill="#1d1d1b"/><path d="m77.16 45.24.9.84 2.94 7.44-1.46 1.48-2.6-7.15-2.65 2.85-1.18-1.11z" fill="#1d1d1b"/><path d="m83 41.38-2.23 2.39.82 1c.11-.14.21-.26.35-.41a3.87 3.87 0 0 1 2-1.21 2.41 2.41 0 0 1 2.25.7c1.15 1.06 1.25 3-.3 4.66a5.41 5.41 0 0 1 -1.94 1.39l-.95-1.27a4.86 4.86 0 0 0 1.59-1.11c.56-.6.86-1.5.21-2.1s-1.5-.46-2.65.77a6.67 6.67 0 0 0 -.71.88l-2.86-3.4 3.16-3.4z" fill="#1d1d1b"/><path d="m63.9 41.64h23.35v1.44h-23.35z" fill="#1d1d1b" transform="matrix(.68084871 -.73242408 .73242408 .68084871 -6.91 68.87)"/><path d="m133.65 120.46a2.51 2.51 0 0 0 -1.07-1 3.38 3.38 0 0 1 -.47-.3c-1.23-1-2.58-4.1-1.73-5.23 0 0-3.33-2.35-3.64-2.72l-.29-.39a25.43 25.43 0 0 1 -4.16 2.91 3.87 3.87 0 0 1 -1.44.3.67.67 0 0 0 -.2 0h-.08-.08a.47.47 0 0 0 -.14.14 4 4 0 0 1 -1.35.83 24.86 24.86 0 0 1 -5 .71l.05.49c0 .48-.8 4.47-.8 4.47 1.39.24 2.53 3.44 2.3 5a3.29 3.29 0 0 1 -.14.54 2.57 2.57 0 0 0 -.11 1.45 5.2 5.2 0 0 0 .94 1.92c1.43 1.89 4.35 1.06 6.49.45a13.2 13.2 0 0 1 1.85-.44 11 11 0 0 1 1.51 0h.3l.11.05.14-.06h.09l.14-.06v-.1l.21-.23a9.64 9.64 0 0 1 1.06-1.06 14 14 0 0 1 1.66-.94c2-1 4.68-2.4 4.44-4.76a5.2 5.2 0 0 0 -.59-1.97z" fill="#1d1d1b"/><path d="m126.82 129.91-.33.13-.17-.06h-.22a10 10 0 0 0 -1.44-.05 11.65 11.65 0 0 0 -1.81.43c-2.22.63-5.25 1.49-6.8-.56a5.58 5.58 0 0 1 -1-2 2.81 2.81 0 0 1 .12-1.61 3.92 3.92 0 0 0 .13-.49c.22-1.52-.94-4.48-2.07-4.68h-.3l.07-.29c.31-1.53.81-4.08.79-4.4l-.08-.78h.3a24.45 24.45 0 0 0 4.94-.69 3.76 3.76 0 0 0 1.16-.69.87.87 0 0 1 .17-.16h.05l.14-.06h.12.08a1.92 1.92 0 0 1 .24 0 3.69 3.69 0 0 0 1.32-.28 24.68 24.68 0 0 0 4.07-2.86l.24-.2.47.64c.2.23 2.3 1.76 3.58 2.66l.24.17-.18.23c-.7.92.47 3.88 1.68 4.84a2.39 2.39 0 0 0 .43.27 2.81 2.81 0 0 1 1.18 1.09 5.47 5.47 0 0 1 .66 2.16c.26 2.55-2.54 4-4.59 5a13.88 13.88 0 0 0 -1.62.92 9.93 9.93 0 0 0 -1 1l-.15.16-.08.17zm-.21-.44.11.18-.06-.16zm-.12 0h.08v.06-.05a1.56 1.56 0 0 0 .17-.18 10.48 10.48 0 0 1 1.26-1.3 13.27 13.27 0 0 1 1.7-1c1.9-1 4.5-2.31 4.28-4.47a4.81 4.81 0 0 0 -.59-1.93 2.25 2.25 0 0 0 -1-.88 3.57 3.57 0 0 1 -.51-.32c-1.24-1-2.57-4-1.93-5.38-.85-.6-3.19-2.27-3.48-2.61l-.12-.17a22.67 22.67 0 0 1 -4 2.77 4.3 4.3 0 0 1 -1.55.32.21.21 0 0 0 -.11 0h-.08a.6.6 0 0 0 -.08.08 4.39 4.39 0 0 1 -1.35.82 22.22 22.22 0 0 1 -4.81.71v.18c0 .47-.55 3.28-.76 4.31 1.43.6 2.49 3.68 2.26 5.25a4.45 4.45 0 0 1 -.15.58 2.18 2.18 0 0 0 -.11 1.3 5.13 5.13 0 0 0 .88 1.81c1.32 1.73 4.13.93 6.19.35a14.13 14.13 0 0 1 1.9-.46 11.62 11.62 0 0 1 1.56 0h.05.24z" fill="#1d1d1b"/><path d="m133.15 120.74c-.37-.64-.86-.69-1.4-1.12-1.33-1.06-2.87-4.08-1.71-5.6-.31.4-3.49-2.09-3.76-2.45-.44.22-2.79 3.07-5.49 3.05 0 0-.06 0-.07 0s0 0 0 0c-2 1.86-5.63 1.38-6.1 1.51.05.45-.58 4.44-1.07 4.36 1.88.33 2.81 3.58 2.56 5.27-.1.67-.43 1-.26 1.77a4.67 4.67 0 0 0 .84 1.7c1.62 2.15 5.87 0 7.82-.21.64-.07 2 .1 2 .07a18.64 18.64 0 0 1 1.39-1.4c1.57-1.18 6.15-2.51 5.87-5.18a4.69 4.69 0 0 0 -.62-1.77z" fill="#fff"/><path d="m115.78 118.1a4.09 4.09 0 0 1 .69-.33 1.24 1.24 0 0 1 .83-.11.66.66 0 0 1 .42.41.7.7 0 0 1 -.19.74.65.65 0 0 1 .49.31c.18.24.37.52.45.59l-.54.22a3.34 3.34 0 0 1 -.38-.49c-.18-.27-.32-.31-.54-.22l-.15.06.36.92-.53.21zm.92.8.21-.08c.27-.1.37-.3.29-.5s-.27-.27-.52-.17a.8.8 0 0 0 -.23.11z" fill="#1d1d1b"/><path d="m119.76 119.26a1.18 1.18 0 0 1 -1.57-.77 1.22 1.22 0 0 1 .66-1.68 1.17 1.17 0 0 1 1.58.75 1.19 1.19 0 0 1 -.66 1.69zm-.14-.44c.36-.14.44-.56.25-1s-.51-.71-.87-.56-.43.58-.26 1 .52.71.88.57z" fill="#1d1d1b"/><path d="m120.86 116.06.53 1.35c.16.41.4.55.67.45s.36-.37.19-.79l-.53-1.35.53-.21.52 1.32a1 1 0 0 1 -.56 1.46c-.59.24-1.07 0-1.36-.71l-.52-1.31z" fill="#1d1d1b"/><path d="m123.34 115.6-.63.25-.18-.45 1.81-.71.18.45-.64.25.75 1.91-.53.2z" fill="#1d1d1b"/><path d="m126.56 115.38-.86.34.22.56 1-.38.18.44-1.5.59-.93-2.35 1.45-.58.17.44-.92.36.19.49.87-.34z" fill="#1d1d1b"/><path d="m122.93 121.85.32.8-.42 5.6-1.37.54.53-5.33-2.52 1-.42-1.06z" fill="#1d1d1b"/><path d="m127.78 121.16-2.14.84.22.89a2.29 2.29 0 0 1 .35-.16 2.64 2.64 0 0 1 1.6-.17 1.68 1.68 0 0 1 1.22 1.12 2.27 2.27 0 0 1 -1.6 2.87 3.84 3.84 0 0 1 -1.66.29l-.15-1.06a3.38 3.38 0 0 0 1.35-.22c.53-.21 1-.69.77-1.27s-.81-.75-1.92-.31a4.76 4.76 0 0 0 -.71.34l-.78-3 3-1.19z" fill="#1d1d1b"/><path d="m114.59 119.04h16.42v1.01h-16.42z" fill="#1d1d1b" transform="matrix(.93041757 -.36650123 .36650123 .93041757 -35.27 53.33)"/><path d="m320.65 226.75a3.79 3.79 0 0 0 -2-.72 4.47 4.47 0 0 1 -.8-.14c-2.22-.63-5.79-4.08-5.27-6.08 0 0-5.81-1.3-6.43-1.62l-.62-.37s-2.48 4.83-4 6.26a5.84 5.84 0 0 1 -1.78 1.22 1 1 0 0 0 -.27.11l-.09.09-.09.08v.06a1.12 1.12 0 0 0 -.11.26 5.82 5.82 0 0 1 -1.28 1.74c-1.47 1.43-6.38 3.78-6.38 3.78l.35.62c.3.63 1.43 6.48 1.43 6.48 2-.46 5.35 3.22 5.91 5.45a4.56 4.56 0 0 1 .12.8 3.68 3.68 0 0 0 .66 2 7.6 7.6 0 0 0 2.34 2.06c3 1.75 6.47-1 9-3a19.17 19.17 0 0 1 2.26-1.64 16.08 16.08 0 0 1 2.05-.77l.42-.14h.17l.16-.16.16-.15v-.17q.06-.15.15-.42a15.18 15.18 0 0 1 .84-2 19.89 19.89 0 0 1 1.7-2.19c2.09-2.48 5-5.87 3.31-8.91a7.7 7.7 0 0 0 -1.91-2.53z" fill="#1d1d1b"/><path d="m316.76 243.33-.38.37h-.26l-.31.1h-.06a14.65 14.65 0 0 0 -2 .74 19.08 19.08 0 0 0 -2.19 1.6c-2.64 2.09-6.25 5-9.48 3.07a8.23 8.23 0 0 1 -2.47-2.18 4.12 4.12 0 0 1 -.74-2.23 3.58 3.58 0 0 0 -.11-.73c-.55-2.19-3.77-5.52-5.41-5.15l-.42.1-.09-.43c-.42-2.24-1.18-6-1.39-6.38l-.55-1 .4-.19c.05 0 4.86-2.33 6.27-3.7a5.43 5.43 0 0 0 1.17-1.58 1.83 1.83 0 0 1 .14-.32l.05-.1.15-.14.14-.15h.11a1.2 1.2 0 0 1 .31-.13 5.37 5.37 0 0 0 1.62-1.12c1.42-1.37 3.87-6.1 3.89-6.15l.2-.4 1 .6c.39.2 4.08 1.07 6.3 1.57l.43.1-.11.42c-.43 1.63 2.81 5 5 5.57a4.28 4.28 0 0 0 .73.13 4 4 0 0 1 2.2.8 8.24 8.24 0 0 1 2.1 2.58c1.79 3.3-1.19 6.82-3.36 9.39a18.68 18.68 0 0 0 -1.66 2.14 14.5 14.5 0 0 0 -.8 2v.07c0 .12-.08.22-.11.3v.26zm-.53-.47.24.17-.17-.17zm-.19 0 .09-.09.08.06v-.07-.07-.07l.12-.34v-.06a15.46 15.46 0 0 1 .87-2.1 19.26 19.26 0 0 1 1.75-2.26c2-2.38 4.77-5.65 3.26-8.43a7.21 7.21 0 0 0 -1.87-2.27 3.26 3.26 0 0 0 -1.79-.64 5.88 5.88 0 0 1 -.87-.15c-2.22-.64-5.68-3.9-5.61-6.16-1.5-.34-5.58-1.28-6.16-1.58l-.26-.15c-.64 1.2-2.57 4.74-3.84 6a6.36 6.36 0 0 1 -1.9 1.31h-.07a.39.39 0 0 0 -.15.06.52.52 0 0 0 -.07.15v.06a6.65 6.65 0 0 1 -1.36 1.87c-1.28 1.23-4.87 3.05-6.09 3.65l.13.24c.29.61 1.11 4.72 1.4 6.23 2.27 0 5.41 3.56 6 5.8a5.73 5.73 0 0 1 .13.87 3.25 3.25 0 0 0 .58 1.81 7.39 7.39 0 0 0 2.21 1.94c2.74 1.6 6.09-1.06 8.53-3a21.43 21.43 0 0 1 2.31-1.68 16 16 0 0 1 2.13-.8h.06l.35-.12h.06z" fill="#1d1d1b"/><path d="m320.14 227.42c-.86-.66-1.55-.45-2.51-.72-2.39-.68-6.16-3.89-5.46-6.58-.19.7-5.87-.87-6.44-1.21-.46.56-2 5.72-5.69 7.2 0 0-.08 0-.09 0s-.05.09-.05.09c-1.59 3.61-6.8 5-7.37 5.47.32.57 1.72 6.31 1 6.47 2.72-.61 5.8 3.25 6.41 5.66.25 1 0 1.66.65 2.54a6.85 6.85 0 0 0 2.08 1.82c3.39 2 7.92-3.3 10.43-4.68a27.05 27.05 0 0 1 2.7-1 27.23 27.23 0 0 1 1.09-2.68c1.46-2.46 6.88-6.82 5-10.27a6.9 6.9 0 0 0 -1.75-2.11z" fill="#fff"/><path d="m295.25 233.62a6.07 6.07 0 0 1 .74-.83 1.73 1.73 0 0 1 1.06-.62.92.92 0 0 1 .79.31 1 1 0 0 1 .16 1.1.93.93 0 0 1 .83.15c.38.22.79.5.94.55l-.61.59a3.89 3.89 0 0 1 -.78-.44c-.4-.26-.6-.24-.85 0l-.18.17 1 1-.6.58zm1.69.56.24-.23c.3-.29.33-.61.11-.84s-.52-.21-.8.06a2 2 0 0 0 -.25.28z" fill="#1d1d1b"/><path d="m301.27 232.93a1.73 1.73 0 0 1 -2.56-.14 1.8 1.8 0 0 1 -.06-2.64 1.72 1.72 0 0 1 2.56.12 1.75 1.75 0 0 1 .06 2.66zm-.44-.5c.41-.39.27-1-.23-1.52s-1.09-.67-1.5-.27-.26 1 .22 1.53 1.11.65 1.51.26z" fill="#1d1d1b"/><path d="m301 228 1.47 1.53c.45.46.85.52 1.16.22s.27-.69-.19-1.16l-1.48-1.53.6-.57 1.44 1.51a1.45 1.45 0 0 1 .06 2.28c-.67.65-1.42.65-2.24-.19l-1.43-1.48z" fill="#1d1d1b"/><path d="m304 226-.72.7-.49-.51 2-2 .49.5-.72.7 2.08 2.15-.6.58z" fill="#1d1d1b"/><path d="m308.25 223.9-1 .95.61.62 1.09-1.05.47.49-1.68 1.63-2.58-2.64 1.64-1.59.47.49-1 1 .53.55 1-1z" fill="#1d1d1b"/><path d="m307 234.65.88.91 2.58 7.78-1.53 1.49-2.29-7.48-2.84 2.75-1.16-1.19z" fill="#1d1d1b"/><path d="m313.14 231-2.41 2.33.79 1.08a4.62 4.62 0 0 1 .38-.41 3.85 3.85 0 0 1 2.07-1.13 2.45 2.45 0 0 1 2.27.83c1.12 1.15 1.11 3.14-.56 4.76a5.44 5.44 0 0 1 -2.07 1.32l-.78-1.34a5.16 5.16 0 0 0 1.69-1.05 1.5 1.5 0 0 0 .32-2.15c-.63-.65-1.52-.55-2.76.65a8.79 8.79 0 0 0 -.77.86l-2.75-3.63 3.42-3.31z" fill="#1d1d1b"/><path d="m293.53 230.88h23.97v1.48h-23.97z" fill="#1d1d1b" transform="matrix(.71788333 -.69616343 .69616343 .71788333 -75.05 278.02)"/><path d="m307.11 109.61a3.6 3.6 0 0 0 -2-.6 5 5 0 0 1 -.78-.1c-2.19-.5-5.84-3.67-5.43-5.65 0 0-5.72-1-6.34-1.25l-.62-.33s-2.18 4.83-3.54 6.29a6.06 6.06 0 0 1 -1.67 1.28.85.85 0 0 0 -.26.12h-.05l-.08.09-.09.09v.06a1.06 1.06 0 0 0 -.1.26 5.75 5.75 0 0 1 -1.15 1.75c-1.36 1.47-6 4-6 4l.37.59c.32.6 1.71 6.23 1.71 6.23 1.94-.55 5.37 2.86 6 5a5.69 5.69 0 0 1 .16.78 3.53 3.53 0 0 0 .74 1.93 7.6 7.6 0 0 0 2.38 1.89c3 1.54 6.24-1.32 8.61-3.41a19.4 19.4 0 0 1 2.1-1.71 15 15 0 0 1 2-.85l.4-.16h.17l.15-.16.15-.16v-.17l.12-.41a15.38 15.38 0 0 1 .72-2 19.1 19.1 0 0 1 1.54-2.23c1.92-2.51 4.53-6 2.77-8.83a7.55 7.55 0 0 0 -1.98-2.34z" fill="#1d1d1b"/><path d="m304.16 125.94-.35.37h-.26l-.29.11h-.06a14.56 14.56 0 0 0 -1.89.82 18.27 18.27 0 0 0 -2.05 1.67c-2.46 2.16-5.82 5.13-9.07 3.46a8 8 0 0 1 -2.51-2 4 4 0 0 1 -.83-2.12 4.06 4.06 0 0 0 -.14-.71c-.65-2.1-3.95-5.18-5.53-4.74l-.41.12-.1-.41c-.53-2.16-1.45-5.73-1.67-6.13l-.59-1 .38-.2s4.61-2.51 5.91-3.91a5.33 5.33 0 0 0 1.06-1.61 1.57 1.57 0 0 1 .12-.3v-.11l.14-.15.13-.14h.11a1.11 1.11 0 0 1 .29-.14 5.13 5.13 0 0 0 1.52-1.17c1.31-1.41 3.45-6.14 3.48-6.19l.17-.39 1 .53c.39.18 4 .84 6.21 1.21l.42.07-.08.42c-.33 1.6 3 4.67 5.12 5.16a3.46 3.46 0 0 0 .72.09 4 4 0 0 1 2.18.67 8 8 0 0 1 2.17 2.36c1.91 3.12-.81 6.69-2.79 9.3a18 18 0 0 0 -1.51 2.17 13.9 13.9 0 0 0 -.68 1.94v.06q-.06.18-.09.3v.26zm-.54-.44.24.16-.17-.16zm-.19 0 .08-.09.09.06v-.07-.06-.07c0-.08.06-.19.1-.33v-.07a16.56 16.56 0 0 1 .74-2.08 19.5 19.5 0 0 1 1.59-2.29c1.84-2.42 4.36-5.73 2.74-8.37a6.94 6.94 0 0 0 -1.93-2.11 3.22 3.22 0 0 0 -1.78-.53 5.24 5.24 0 0 1 -.84-.11c-2.2-.5-5.73-3.5-5.78-5.71-1.47-.25-5.49-1-6.07-1.22l-.26-.13c-.56 1.19-2.26 4.74-3.44 6a6.08 6.08 0 0 1 -1.78 1.37h-.06a.52.52 0 0 0 -.15.07.52.52 0 0 0 -.06.15v.06a6 6 0 0 1 -1.23 1.88c-1.17 1.27-4.58 3.22-5.74 3.87l.15.22c.31.58 1.31 4.54 1.67 6 2.21-.12 5.45 3.19 6.11 5.34a5.69 5.69 0 0 1 .17.84 3.16 3.16 0 0 0 .66 1.73 6.89 6.89 0 0 0 2.25 1.78c2.74 1.42 5.87-1.34 8.15-3.35a19.57 19.57 0 0 1 2.16-1.75 16.51 16.51 0 0 1 2-.89h.07l.33-.13h.06z" fill="#1d1d1b"/><path d="m306.65 110.29c-.87-.6-1.54-.36-2.49-.58-2.35-.54-6.18-3.47-5.64-6.13-.15.7-5.76-.54-6.33-.85-.41.57-1.69 5.67-5.17 7.3 0 0-.08 0-.09 0s0 .09 0 .09c-1.37 3.59-6.37 5.23-6.9 5.69.34.54 2 6.05 1.31 6.25 2.61-.74 5.81 2.87 6.52 5.18.29.93.1 1.61.76 2.43a6.7 6.7 0 0 0 2.11 1.67c3.41 1.76 7.54-3.61 9.91-5.08a26.77 26.77 0 0 1 2.58-1.12 26.54 26.54 0 0 1 .93-2.65c1.29-2.47 6.34-7 4.35-10.26a6.88 6.88 0 0 0 -1.85-1.94z" fill="#fff"/><path d="m282.74 117.57a6.24 6.24 0 0 1 .68-.85 1.73 1.73 0 0 1 1-.65.9.9 0 0 1 .78.26 1 1 0 0 1 .22 1.07.87.87 0 0 1 .81.1 9.3 9.3 0 0 0 .95.48l-.57.61a4.33 4.33 0 0 1 -.78-.39c-.4-.23-.6-.2-.83 0l-.16.18 1 1-.54.59zm1.68.46.22-.23c.27-.3.29-.61.06-.83s-.52-.17-.77.1a1.31 1.31 0 0 0 -.24.29z" fill="#1d1d1b"/><path d="m288.56 116.6a1.67 1.67 0 0 1 -2.49 0 1.74 1.74 0 0 1 -.19-2.56 1.67 1.67 0 0 1 2.49 0 1.7 1.7 0 0 1 .19 2.58zm-.45-.47c.38-.4.21-1-.3-1.46s-1.09-.6-1.47-.19-.2 1 .29 1.47 1.11.59 1.48.19z" fill="#1d1d1b"/><path d="m288 111.83 1.52 1.41c.45.42.85.46 1.13.16s.23-.69-.24-1.12l-1.51-1.41.55-.6 1.48 1.38a1.4 1.4 0 0 1 .17 2.21c-.61.67-1.34.71-2.18-.07l-1.47-1.37z" fill="#1d1d1b"/><path d="m290.91 109.71-.67.71-.5-.46 1.89-2 .5.47-.67.72 2.13 2-.55.59z" fill="#1d1d1b"/><path d="m294.9 107.46-.9 1 .62.58 1-1.08.49.45-1.56 1.68-2.63-2.45 1.5-1.62.49.45-.95 1 .54.51.91-1z" fill="#1d1d1b"/><path d="m294.21 118 .9.84 2.9 7.44-1.42 1.53-2.6-7.16-2.63 2.83-1.19-1.1z" fill="#1d1d1b"/><path d="m300 114.12-2.22 2.39.81 1c.12-.14.21-.27.35-.42a3.87 3.87 0 0 1 2-1.21 2.41 2.41 0 0 1 2.25.7c1.15 1.07 1.25 3-.3 4.66a5.21 5.21 0 0 1 -1.94 1.39l-.84-1.27a4.65 4.65 0 0 0 1.59-1.1c.56-.6.87-1.5.21-2.11s-1.5-.46-2.65.77a8.57 8.57 0 0 0 -.71.88l-2.85-3.4 3.15-3.39z" fill="#1d1d1b"/><path d="m280.95 114.39h23.35v1.44h-23.35z" fill="#1d1d1b" transform="matrix(.68084871 -.73242408 .73242408 .68084871 9.09 251.07)"/><path d="m205.49 282.52a3.5 3.5 0 0 0 2.06-.21 6.06 6.06 0 0 1 .76-.21c2.21-.36 6.8 1.17 7.18 3.15 0 0 5.65-1.29 6.33-1.27l.7.07s.17-5.29.87-7.17a5.84 5.84 0 0 1 1.05-1.82.91.91 0 0 0 .19-.2v-.05-.11-.11-.06a.94.94 0 0 0 0-.29 5.63 5.63 0 0 1 .39-2.06c.7-1.88 4-6 4-6l-.57-.4c-.53-.43-4-5.1-4-5.1-1.58 1.24-6-.6-7.48-2.32a4 4 0 0 1 -.44-.66 3.58 3.58 0 0 0 -1.43-1.5 7.55 7.55 0 0 0 -2.92-.83c-3.36-.28-5.26 3.6-6.65 6.44a18.74 18.74 0 0 1 -1.29 2.38 13.4 13.4 0 0 1 -1.48 1.54l-.32.3-.14.08s0 .11-.08.2a0 0 0 0 1 0 0 .08.08 0 0 0 0 0l-.07.2.06.15v.43a15.62 15.62 0 0 1 .12 2.14 19.71 19.71 0 0 1 -.58 2.64c-.81 3.06-1.91 7.24.82 9.23a7.53 7.53 0 0 0 2.92 1.42z" fill="#1d1d1b"/><path d="m202 266.3.18-.47.23-.12.23-.22a13.47 13.47 0 0 0 1.44-1.49 18.91 18.91 0 0 0 1.26-2.32c1.44-2.94 3.41-7 7.05-6.67a8.08 8.08 0 0 1 3.08.88 4 4 0 0 1 1.58 1.65 5.35 5.35 0 0 0 .4.61c1.4 1.69 5.63 3.27 6.92 2.25l.33-.26.25.34c1.32 1.79 3.54 4.74 3.9 5l.9.64-.27.34s-3.3 4.08-4 5.88a5.31 5.31 0 0 0 -.37 1.88 1.22 1.22 0 0 1 0 .33v.11l-.07.19-.04.15-.08.08a1.71 1.71 0 0 1 -.22.25 5.33 5.33 0 0 0 -1 1.66c-.67 1.8-.84 7-.84 7v.44l-1.13-.11c-.44 0-4 .76-6.21 1.26l-.41.09-.08-.41c-.31-1.61-4.55-3.18-6.71-2.82a4.55 4.55 0 0 0 -.7.19 4 4 0 0 1 -2.27.22 8 8 0 0 1 -2.91-1.35c-3-2.15-1.81-6.49-1-9.66a19.56 19.56 0 0 0 .57-2.58 17.72 17.72 0 0 0 -.11-2.05v-.07c0-.13 0-.23 0-.31l-.1-.24zm.67.2-.29-.05.22.08zm.16-.09v.12h-.1v.06h.05v.06.06.07.35.06a13.64 13.64 0 0 1 .11 2.21 18.65 18.65 0 0 1 -.59 2.72c-.77 2.94-1.83 7 .67 8.79a7.15 7.15 0 0 0 2.59 1.21 3.19 3.19 0 0 0 1.85-.2 5.73 5.73 0 0 1 .82-.22c2.22-.37 6.63 1 7.52 3.07 1.46-.33 5.44-1.22 6.08-1.2h.29c.06-1.32.27-5.25.88-6.86a6 6 0 0 1 1.13-1.95.6.6 0 0 0 .11-.12v-.09a.92.92 0 0 0 0-.16v-.06a6.43 6.43 0 0 1 .42-2.21 31.84 31.84 0 0 1 3.83-5.76l-.22-.16c-.51-.41-3-3.69-3.83-4.89-2 .95-6.26-.87-7.7-2.6a4.57 4.57 0 0 1 -.47-.71 3.35 3.35 0 0 0 -1.27-1.35 7.05 7.05 0 0 0 -2.76-.78c-3.08-.26-4.91 3.48-6.25 6.21a19 19 0 0 1 -1.33 2.44 13.6 13.6 0 0 1 -1.53 1.6h-.05l-.25.24z" fill="#1d1d1b"/><path d="m205.66 281.72c1 .21 1.55-.26 2.52-.42 2.38-.4 7 .84 7.55 3.5-.13-.69 5.53-1.69 6.17-1.63.17-.68-.6-5.88 2-8.72 0 0 .07 0 .07-.07s0-.1 0-.1c-.1-3.84 3.88-7.27 4.2-7.9-.52-.37-4.15-4.83-3.6-5.27-2.13 1.68-6.46-.43-8-2.29-.62-.75-.7-1.45-1.63-2a6.75 6.75 0 0 0 -2.59-.73c-3.82-.32-5.58 6.22-7.21 8.48a27.44 27.44 0 0 1 -2 2s.23 1.9.15 2.81c-.25 2.78-3.19 8.88-.09 11.14a6.83 6.83 0 0 0 2.46 1.2z" fill="#fff"/><path d="m225 265.84a6 6 0 0 1 -.3 1 1.77 1.77 0 0 1 -.68 1 .9.9 0 0 1 -.82.06 1 1 0 0 1 -.6-.9.89.89 0 0 1 -.79.22 9.84 9.84 0 0 0 -1.06-.09l.29-.78a5 5 0 0 1 .87.06c.46.07.63 0 .75-.35l.09-.23-1.33-.49.28-.76zm-1.72.22-.12.3c-.14.38 0 .67.26.78s.55 0 .68-.38a1.31 1.31 0 0 0 .1-.36z" fill="#1d1d1b"/><path d="m220 269a1.68 1.68 0 0 1 2.31-.94 1.74 1.74 0 0 1 1.16 2.3 1.68 1.68 0 0 1 -2.31 1 1.71 1.71 0 0 1 -1.16-2.36zm.6.26c-.19.52.18 1 .84 1.24s1.23.13 1.43-.39-.21-1-.84-1.25-1.24-.11-1.43.4z" fill="#1d1d1b"/><path d="m222.3 273.16-1.94-.72c-.59-.22-1-.11-1.11.28s.05.72.65.95l1.94.72-.28.76-1.9-.71a1.4 1.4 0 0 1 -1-2c.32-.85 1-1.17 2-.77l1.88.7z" fill="#1d1d1b"/><path d="m220.42 276.23.34-.91.64.23-1 2.6-.64-.24.34-.92-2.73-1 .28-.76z" fill="#1d1d1b"/><path d="m217.59 279.83.47-1.24-.8-.29-.52 1.38-.63-.23.8-2.15 3.38 1.26-.78 2.07-.62-.23.49-1.31-.7-.26-.47 1.24z" fill="#1d1d1b"/><path d="m214.21 269.85-1.16-.43-5.53-5.76.73-2 5.14 5.62 1.34-3.62 1.52.56z" fill="#1d1d1b"/><path d="m210.32 275.64 1.14-3.06-1.14-.62c0 .17-.09.32-.16.52a3.86 3.86 0 0 1 -1.34 1.86 2.4 2.4 0 0 1 -2.35.22c-1.47-.55-2.3-2.29-1.51-4.42a5.29 5.29 0 0 1 1.27-2l1.25.85a4.82 4.82 0 0 0 -1 1.63c-.29.77-.23 1.72.61 2s1.56-.15 2.15-1.73a7.64 7.64 0 0 0 .32-1.08l3.94 2-1.62 4.35z" fill="#1d1d1b"/><path d="m205.09 271.18h23.35v1.44h-23.35z" fill="#1d1d1b" transform="matrix(.34873563 -.93722114 .93722114 .34873563 -113.66 380.21)"/><path d="m263.58 267.99h72.13v20.15h-72.13z" fill="#307156" transform="matrix(.70128263 -.71288336 .71288336 .70128263 -108.72 296.68)"/><path d="m288.33 290.94-3.47 3.52 2.28 2.24 3.87-3.94 1.78 1.75-6 6.1-9.58-9.43 5.8-5.9 1.78 1.75-3.68 3.74 2 2 3.47-3.53z" fill="#fff"/><path d="m299.21 288-2.59-.84c-1-.31-1.74-.56-2.56-.84.36.74.62 1.47 1 2.44l1 2.49-2.44 2.47-2.12-7.54-7.36-2 2.45-2.49 2.57.88c.86.29 1.54.54 2.31.84-.38-.83-.63-1.44-.94-2.22l-1-2.54 2.47-2.45 2 7.3 7.7 2z" fill="#fff"/><path d="m295.37 272.72 9.58 9.43-2.12 2.16-9.59-9.43z" fill="#fff"/><path d="m300.87 270.77-2.55 2.59-1.82-1.79 7.25-7.36 1.82 1.79-2.57 2.61 7.77 7.64-2.13 2.16z" fill="#fff"/><path d="m316 267.75a6.36 6.36 0 0 0 .92-.94 5 5 0 0 0 1.24-2.4 3.83 3.83 0 0 0 -.56-2.84 3.54 3.54 0 0 1 -1.18 2.53 3.88 3.88 0 0 1 -5.71 0 4.71 4.71 0 0 1 .1-6.76c2.33-2.37 5.26-1.7 7.42.43a7.79 7.79 0 0 1 2.67 5.78 7.65 7.65 0 0 1 -2.2 4.83 10 10 0 0 1 -1 1zm-3.68-8.75c-.72.72-.59 1.91.37 2.86a1.87 1.87 0 0 0 2.77.15 2 2 0 0 0 .6-1.82 1.57 1.57 0 0 0 -.45-.64c-1-1-2.31-1.55-3.28-.56z" fill="#fff"/><path d="m164.21 280.15h33.19v9.27h-33.19z" fill="#307156" transform="matrix(.99997313 -.00733032 .00733032 .99997313 -2.06 1.32)"/><path d="m172.93 285.28h-2.27v1.47h2.54v1.15h-3.94v-6.18h3.8v1.15h-2.41v1.28h2.27z" fill="#fff"/><path d="m177.43 287.87-.57-1.12c-.23-.43-.38-.75-.56-1.11-.12.36-.28.68-.47 1.12l-.5 1.12h-1.6l1.77-3.14-1.75-3h1.61l.55 1.12c.18.38.32.68.47 1 .14-.4.26-.68.42-1l.51-1.13h1.6l-1.73 3 1.86 3.15z" fill="#fff"/><path d="m181.15 281.65v6.19h-1.4v-6.19z" fill="#fff"/><path d="m183.57 282.81h-1.67v-1.17h4.76v1.18h-1.66v5h-1.4z" fill="#fff"/><path d="m189.49 286.77a3.07 3.07 0 0 0 .61 0 2.43 2.43 0 0 0 1.18-.38 1.78 1.78 0 0 0 .74-1.11 1.57 1.57 0 0 1 -1.2.44 1.78 1.78 0 0 1 -1.87-1.85 2.17 2.17 0 0 1 2.23-2.16 2.27 2.27 0 0 1 2.28 2.55 3.56 3.56 0 0 1 -1 2.75 3.52 3.52 0 0 1 -2.29.86 4.39 4.39 0 0 1 -.63 0zm1.63-4c-.46 0-.81.43-.81 1a.86.86 0 0 0 .86 1 .88.88 0 0 0 .78-.39.69.69 0 0 0 .05-.38c0-.63-.24-1.26-.88-1.25z" fill="#fff"/><path d="m172.75 17.42h12.3v44.03h-12.3z" fill="#307156" transform="matrix(.06 -1 1 .06 128.36 215.52)"/><path d="m168.44 39.36-3-.19-.12 1.95 3.36.21-.09 1.52-5.21-.33.51-8.19 5 .32-.09 1.52-3.2-.2-.1 1.7 3 .19z" fill="#fff"/><path d="m174.15 43.2-.65-1.53c-.26-.59-.43-1-.63-1.52-.2.46-.43.87-.73 1.43l-.79 1.42-2.12-.13 2.63-4-2-4.18 2.13.13.62 1.54c.21.51.37.92.53 1.4.23-.51.41-.87.64-1.33l.79-1.45 2.11.13-2.56 3.89 2.17 4.34z" fill="#fff"/><path d="m179.66 35.32-.52 8.19-1.84-.12.51-8.19z" fill="#fff"/><path d="m182.75 37.07-2.21-.13.1-1.56 6.29.4-.1 1.55-2.23-.14-.41 6.63-1.85-.11z" fill="#fff"/><path d="m190.22 42.86a3.65 3.65 0 0 0 .8 0 3.06 3.06 0 0 0 1.6-.39 2.31 2.31 0 0 0 1.08-1.39 2.14 2.14 0 0 1 -1.64.47 2.36 2.36 0 0 1 -2.3-2.62 2.88 2.88 0 0 1 3.16-2.65c2 .12 2.89 1.74 2.77 3.59a4.71 4.71 0 0 1 -1.6 3.54 4.62 4.62 0 0 1 -3.1.92c-.31 0-.63 0-.84 0zm2.53-5.21c-.62 0-1.11.49-1.17 1.32a1.13 1.13 0 0 0 1 1.33 1.16 1.16 0 0 0 1.08-.44.93.93 0 0 0 .11-.47c.07-.84-.21-1.68-1.05-1.74z" fill="#fff"/><path d="m62.93 115.27h44.03v12.3h-44.03z" fill="#307156" transform="matrix(.99 -.14 .14 .99 -15.87 12.81)"/><path d="m74.68 123.43-3 .42.27 1.92 3.33-.46.21 1.51-5.17.72-1.12-8.13 5-.69.21 1.5-3.17.44.23 1.69 3-.41z" fill="#fff"/><path d="m81 126.05-.94-1.37c-.37-.52-.63-.92-.92-1.35-.11.49-.25.94-.44 1.55l-.46 1.56-2.1.29 1.78-4.44-2.82-3.7 2.11-.29.92 1.38c.31.46.54.84.8 1.27.12-.55.23-.93.37-1.43l.48-1.58 2.1-.29-1.74 4.28 3 3.83z" fill="#fff"/><path d="m84.86 117.24 1.14 8.13-1.83.25-1.17-8.13z" fill="#fff"/><path d="m88.25 118.34-2.2.31-.21-1.55 6.24-.86.22 1.54-2.22.31.91 6.58-1.83.26z" fill="#fff"/><path d="m96.71 122.53a4 4 0 0 0 .8-.11 3.17 3.17 0 0 0 1.49-.7 2.31 2.31 0 0 0 .78-1.58 2.11 2.11 0 0 1 -1.51.78 2.36 2.36 0 0 1 -2.78-2.11 2.88 2.88 0 0 1 2.51-3.24c2-.28 3.18 1.14 3.44 3a4.74 4.74 0 0 1 -.87 3.79 4.64 4.64 0 0 1 -2.86 1.52 7.64 7.64 0 0 1 -.83.11zm1.45-5.61c-.62.09-1 .7-.88 1.52a1.12 1.12 0 0 0 1.28 1.1 1.19 1.19 0 0 0 1-.65 1 1 0 0 0 0-.48c-.11-.83-.55-1.61-1.38-1.49z" fill="#fff"/><path d="m175.83 97.59h10.32v36.94h-10.32z" fill="#307156" transform="matrix(.48312958 -.87554886 .87554886 .48312958 -8.06 218.46)"/><path d="m173.08 112.26-2.22-1.26-.79 1.43 2.48 1.36-.62 1.12-3.84-2.11 3.33-6 3.71 2-.62 1.11-2.35-1.29-.69 1.25 2.22 1.22z" fill="#fff"/><path d="m176 117.21.06-1.39c0-.54 0-.93.06-1.38-.32.27-.64.5-1.07.81l-1.09.82-1.56-.85 3.43-2.09v-3.91l1.56.87-.08 1.39c0 .46-.05.83-.09 1.25.35-.3.62-.51 1-.77l1.12-.82 1.55.86-3.32 2 .09 4.07z" fill="#fff"/><path d="m183 113.21-3.32 6-1.36-.75 3.32-6z" fill="#fff"/><path d="m184.75 115.66-1.63-.9.63-1.15 4.64 2.56-.64 1.14-1.64-.91-2.69 4.89-1.36-.75z" fill="#fff"/><path d="m188.34 122.72a3 3 0 0 0 .59.33 2.63 2.63 0 0 0 1.35.28 2 2 0 0 0 1.32-.67 1.82 1.82 0 0 1 -1.41-.23 2 2 0 0 1 -.81-2.82 2.43 2.43 0 0 1 3.35-.88c1.49.82 1.57 2.36.82 3.72a4 4 0 0 1 -2.49 2.11 3.85 3.85 0 0 1 -2.68-.42 4.94 4.94 0 0 1 -.62-.34zm3.79-3a1 1 0 0 0 -1.36.58.94.94 0 0 0 .31 1.38 1 1 0 0 0 1 0 .85.85 0 0 0 .25-.31c.35-.61.44-1.36-.17-1.7z" fill="#fff"/><path d="m259.78 111.88h7.78v27.86h-7.78z" fill="#307156" transform="matrix(.11459039 -.99341283 .99341283 .11459039 108.47 373.33)"/><path d="m257.06 125.42-1.9-.22-.14 1.23 2.12.24-.11 1-3.28-.38.59-5.16 3.18.37-.11 1-2-.24-.13 1.08 1.9.21z" fill="#fff"/><path d="m260.54 128-.36-1c-.15-.38-.24-.67-.35-1-.14.28-.3.54-.51.88l-.53.88-1.33-.15 1.8-2.44-1.15-2.71 1.34.15.34 1c.12.33.21.59.3.9.16-.32.29-.54.45-.82l.55-.89 1.33.15-1.75 2.35 1.23 2.82z" fill="#fff"/><path d="m264.28 123.24-.59 5.16-1.17-.14.6-5.15z" fill="#fff"/><path d="m266.18 124.45-1.39-.16.11-1 4 .46-.11 1-1.41-.16-.48 4.17-1.16-.13z" fill="#fff"/><path d="m270.71 128.35a1.66 1.66 0 0 0 .5.06 1.93 1.93 0 0 0 1-.19 1.43 1.43 0 0 0 .73-.85 1.34 1.34 0 0 1 -1.05.25 1.5 1.5 0 0 1 -1.37-1.73 1.83 1.83 0 0 1 2.08-1.58 1.91 1.91 0 0 1 1.64 2.36 3 3 0 0 1 -1.13 2.19 2.94 2.94 0 0 1 -2 .47 2.67 2.67 0 0 1 -.53-.06zm1.77-3.2c-.39-.05-.72.27-.78.79a.72.72 0 0 0 .61.88.74.74 0 0 0 .69-.25.58.58 0 0 0 .09-.29c.07-.53-.08-1.07-.6-1.13z" fill="#fff"/><path d="m.17 120.67h20.16v72.14h-20.16z" fill="#307156" transform="matrix(.9999889 -.00471237 .00471237 .9999889 -.75 .05)"/><path d="m9.21 139.63v-4.94h-3.21v5.52h-2.49v-8.56l13.44-.06v8.27h-2.5v-5.24h-2.79v5z" fill="#fff"/><path d="m3.57 149.39 2.43-1.23c.93-.5 1.63-.83 2.41-1.21-.77-.28-1.47-.61-2.41-1l-2.44-1.09v-3.47l6.82 3.86 6.62-3.86v3.48l-2.45 1.19c-.81.41-1.47.71-2.23 1 .86.32 1.46.57 2.24.91l2.44 1.19v3.47l-6.58-3.76-6.86 4z" fill="#fff"/><path d="m17.05 157.52-13.44.06v-3l13.39-.1z" fill="#fff"/><path d="m14.52 162.77v-3.63h2.55l.05 10.33h-2.56v-3.67h-10.89v-3z" fill="#fff"/><path d="m5.89 175.61a5.31 5.31 0 0 0 0 1.32 5 5 0 0 0 .81 2.57 3.79 3.79 0 0 0 2.4 1.62 3.51 3.51 0 0 1 -1-2.63 3.88 3.88 0 0 1 4-4 4.73 4.73 0 0 1 4.69 4.87c0 3.33-2.53 4.92-5.56 4.93a7.78 7.78 0 0 1 -6-2.23 7.63 7.63 0 0 1 -1.84-5 10.53 10.53 0 0 1 0-1.38zm8.79 3.57c0-1-.92-1.77-2.28-1.77a1.85 1.85 0 0 0 -2.06 1.85 1.94 1.94 0 0 0 .84 1.71 1.5 1.5 0 0 0 .78.13c1.37 0 2.73-.52 2.72-1.9z" fill="#fff"/><path d="m246.58 60.11-44.73 13.92 10.31-45.7z" fill="#e52813"/><path d="m201.49 74.41a.53.53 0 0 1 -.15-.5l10.31-45.69a.52.52 0 0 1 .87-.27l34.41 31.77a.52.52 0 0 1 -.2.89l-44.73 13.92a.53.53 0 0 1 -.51-.12zm11-45.07-9.91 43.92 43-13.38z" fill="#1d1d1b"/><path d="m210.38 64.78 5.52-24.43 18.41 16.99z" fill="#fff"/><path d="m209.67 65.56a1.08 1.08 0 0 1 -.31-1l5.52-24.43a1 1 0 0 1 .71-.77 1 1 0 0 1 1 .23l18.41 17a1.06 1.06 0 0 1 .31 1 1 1 0 0 1 -.71.77l-23.9 7.43a1.08 1.08 0 0 1 -1.03-.23zm6.85-23.21-4.71 20.89 20.45-6.36z" fill="#fff"/><path d="m215.16 49.18 1.22-1.31.73-2.83.84.77-.39 1.07c-.12.32-.2.56-.32.84l.81-.39 1-.47.82.75-2.79.89-1.23 1.34z" fill="#e02e2c"/><path d="m221 48.61-3 3.21-.72-.67 3-3.21z" fill="#e02e2c"/><path d="m221.81 52.81-1.18-1.09-.7.76 1.31 1.21-.55.6-2-1.89 3-3.21 2 1.83-.55.59-1.25-1.15-.62.67 1.18 1.08z" fill="#e02e2c"/><path d="m224.16 51.54.72.67-2.4 2.6 1.28 1.19-.57.61-2-1.85z" fill="#e02e2c"/><path d="m226.54 53.83a8.36 8.36 0 0 1 1 .83 2.82 2.82 0 0 1 1 1.55 1.93 1.93 0 0 1 -.58 1.72 2.24 2.24 0 0 1 -1.73.81 3.16 3.16 0 0 1 -1.87-1 10.44 10.44 0 0 1 -.78-.8zm-1.69 3.28a1.82 1.82 0 0 0 .24.25 1.37 1.37 0 0 0 2.13-.11 1.25 1.25 0 0 0 -.08-2 1.78 1.78 0 0 0 -.35-.28z" fill="#e02e2c"/><path d="m127.19 245.71-14.22 27.06-16.33-25.85z" fill="#e52813"/><path d="m113 273.11a.37.37 0 0 1 -.3-.16l-16.34-25.85a.34.34 0 0 1 0-.34.35.35 0 0 1 .29-.18l30.55-1.22a.37.37 0 0 1 .3.16.34.34 0 0 1 0 .34l-14.22 27.07a.35.35 0 0 1 -.28.18zm-15.75-25.87 15.69 24.84 13.67-26z" fill="#1d1d1b"/><path d="m112.64 264.56-8.73-13.82 16.34-.65z" fill="#fff"/><path d="m112.67 265.25a.67.67 0 0 1 -.6-.32l-8.74-13.82a.69.69 0 0 1 .56-1.05l16.33-.65a.68.68 0 0 1 .61.32.66.66 0 0 1 0 .68l-7.6 14.47a.67.67 0 0 1 -.56.37zm-7.54-13.87 7.46 11.82 6.5-12.38z" fill="#fff"/><path d="m107.65 255.16v-1.17l-1-1.64h.74l.31.67a5 5 0 0 1 .24.54c.06-.19.12-.35.2-.56l.26-.69h.72l-.87 1.7v1.18z" fill="#e02e2c"/><path d="m110.07 252.21.12 2.85h-.65l-.11-2.85z" fill="#e02e2c"/><path d="m112.39 253.76h-1v.68h1.17v.53l-1.81.08-.12-2.85 1.76-.07v.52l-1.11.05v.59h1.05z" fill="#e02e2c"/><path d="m112.89 252.1h.64l.09 2.31h1.14v.54l-1.76.05z" fill="#e02e2c"/><path d="m115 252.05a5.3 5.3 0 0 1 .87-.09 1.76 1.76 0 0 1 1.18.25 1.26 1.26 0 0 1 .52 1.06 1.43 1.43 0 0 1 -.42 1.17 2 2 0 0 1 -1.3.42 4.87 4.87 0 0 1 -.73 0zm.74 2.3a1.61 1.61 0 0 0 .22 0 .88.88 0 0 0 .93-1 .8.8 0 0 0 -.93-.87 1.63 1.63 0 0 0 -.3 0z" fill="#e02e2c"/><path d="m268.24 251.31-29.39 8.4 7.42-29.66z" fill="#e52813"/><path d="m238.61 260a.33.33 0 0 1 -.09-.33l7.42-29.67a.34.34 0 0 1 .24-.25.36.36 0 0 1 .33.08l22 21.26a.34.34 0 0 1 .09.33.31.31 0 0 1 -.23.24l-29.43 8.34a.34.34 0 0 1 -.33 0zm7.85-29.24-7.14 28.5 28.26-8.07z" fill="#1d1d1b"/><path d="m244.56 253.81 3.97-15.86 11.75 11.36z" fill="#fff"/><path d="m244.08 254.3a.67.67 0 0 1 -.18-.66l4-15.86a.66.66 0 0 1 .48-.49.69.69 0 0 1 .67.16l11.74 11.37a.68.68 0 0 1 .19.66.7.7 0 0 1 -.47.49l-15.72 4.49a.69.69 0 0 1 -.71-.16zm4.83-15-3.4 13.56 13.49-3.86z" fill="#fff"/><path d="m247.91 243.7.82-.84.52-1.83.53.51-.27.69c-.08.21-.14.36-.22.55l.53-.24.68-.29.52.5-1.83.54-.82.86z" fill="#e02e2c"/><path d="m251.72 243.42-2 2-.46-.44 2-2.05z" fill="#e02e2c"/><path d="m252.19 246.16-.75-.73-.47.49.84.81-.36.38-1.31-1.26 2-2 1.26 1.22-.36.38-.8-.77-.41.43.75.73z" fill="#e02e2c"/><path d="m253.74 245.38.47.44-1.61 1.66.82.79-.38.39-1.28-1.24z" fill="#e02e2c"/><path d="m255.27 246.9a6 6 0 0 1 .66.56 1.85 1.85 0 0 1 .64 1 1.29 1.29 0 0 1 -.41 1.11 1.43 1.43 0 0 1 -1.14.5 2 2 0 0 1 -1.2-.65 5 5 0 0 1 -.5-.54zm-1.16 2.1a.8.8 0 0 0 .16.16.89.89 0 0 0 1.39 0 .82.82 0 0 0 0-1.28 1.67 1.67 0 0 0 -.23-.18z" fill="#e02e2c"/><path d="m44.65 288.42-27.59-27.4 37.52-10.18z" fill="#e52813"/><path d="m16.64 260.92a.42.42 0 0 1 .31-.31l37.52-10.19a.43.43 0 0 1 .53.58l-9.93 37.58a.42.42 0 0 1 -.31.31.43.43 0 0 1 -.42-.11l-27.58-27.4a.43.43 0 0 1 -.12-.46zm37.36-9.47-36.07 9.8 26.52 26.33z" fill="#1d1d1b"/><path d="m27.16 263.69 20.07-5.45-5.32 20.11z" fill="#fff"/><path d="m26.32 263.47a.89.89 0 0 1 .61-.62l20.07-5.44a.85.85 0 0 1 .84.22.87.87 0 0 1 .23.84l-5.32 20.1a.89.89 0 0 1 -.61.62.87.87 0 0 1 -.84-.23l-14.75-14.65a.85.85 0 0 1 -.23-.84zm19.68-4-17.16 4.66 12.61 12.53z" fill="#fff"/><path d="m40.46 261.14 1.43.38 2.36-.56-.23.91-.94.13c-.28 0-.49.07-.74.09l.59.44.75.58-.23.89-1.74-1.69-1.46-.39z" fill="#e02e2c"/><path d="m43.14 265.18-3.51-.92.21-.79 3.51.92z" fill="#e02e2c"/><path d="m40.38 267.42.34-1.29-.83-.22-.38 1.44-.65-.17.59-2.23 3.5.92-.57 2.13-.64-.17.36-1.37-.73-.19-.37 1.32z" fill="#e02e2c"/><path d="m42.22 268.65-.21.79-2.83-.75-.37 1.39-.67-.17.58-2.19z" fill="#e02e2c"/><path d="m41.47 271.29a7.64 7.64 0 0 1 -.2 1.08 2.4 2.4 0 0 1 -.75 1.35 1.64 1.64 0 0 1 -1.52.28 1.86 1.86 0 0 1 -1.26-1 2.56 2.56 0 0 1 0-1.74 6.68 6.68 0 0 1 .28-.88zm-3.06 0a1.07 1.07 0 0 0 -.09.27 1.12 1.12 0 0 0 .91 1.52 1 1 0 0 0 1.41-.82 1.84 1.84 0 0 0 .06-.36z" fill="#e02e2c"/><path d="m103.79 268.35a3.84 3.84 0 0 1 -.58 5.4l-21.68 17.47a3.84 3.84 0 0 1 -5.4-.58l-17.92-22.25a3.84 3.84 0 0 1 .58-5.4l21.68-17.46a3.84 3.84 0 0 1 5.4.58z" fill="#302880"/><path d="m97.87 271.53 2.18-4.4-1.72-.85-1.55 3.12-7.67-3.4-.11-.09-.59.48-5.41 4.41-3.53-4.38-.54-.67 4.07-3.28-1.2-1.5-4.08 3.29-2.17-2.69a4 4 0 0 0 -.27-4.9 3.65 3.65 0 1 0 -5.65 4.55 4.08 4.08 0 0 0 4.37 1.46l3.39 4.21a9.44 9.44 0 1 0 14.75 2.53l5.61 2.49zm-9.41 8.14a7.52 7.52 0 0 1 -9.92-11.29l4.13 5.12 6.33-5.08a7.93 7.93 0 0 1 .62.68 7.52 7.52 0 0 1 -1.16 10.57z" fill="#fff"/><path d="m261 280.22a2.71 2.71 0 0 1 -.54 3.8l-15.76 11.79a2.71 2.71 0 0 1 -3.8-.55l-12.09-16.17a2.71 2.71 0 0 1 .54-3.8l15.76-11.78a2.71 2.71 0 0 1 3.8.55z" fill="#302880"/><path d="m256.75 282.32 1.65-3.05-1.19-.65-1.21 2.17-5.33-2.6-.07-.07-.44.33-3.95 3-2.39-3.19-.36-.48 3-2.22-.82-1.09-3 2.22-1.46-1.95a2.84 2.84 0 0 0 -.07-3.48 2.58 2.58 0 1 0 -4.1 3.08 2.88 2.88 0 0 0 3 1.14l2.29 3.06a6.67 6.67 0 1 0 10.35 2.16l3.9 1.91zm-6.85 5.51a5.31 5.31 0 0 1 -6.72-8.22l2.78 3.72 4.59-3.43a6.4 6.4 0 0 1 .42.49 5.32 5.32 0 0 1 -1.07 7.44z" fill="#fff"/><rect fill="#302880" height="26.14" rx="2.77" width="25.62" x="123.95" y="321.43"/><path d="m144.81 343.91 3.21-1.49-.58-1.25-2.28 1.05-2.77-5.38v-.1h-5.59v-4.67h3.78v-1.39h-3.78v-2.48a2.88 2.88 0 0 0 2.07-2.88 2.64 2.64 0 1 0 -5.24 0 2.94 2.94 0 0 0 1.78 2.79v3.89a6.81 6.81 0 1 0 7.15 8.1l2 3.94zm-9 .31a5.42 5.42 0 0 1 -.46-10.83v4.75h5.85a4.87 4.87 0 0 1 0 .66 5.43 5.43 0 0 1 -5.37 5.42z" fill="#fff"/><path d="m134 102.43a2.76 2.76 0 0 1 -2 3.35l-19.51 4.76a2.77 2.77 0 0 1 -3.35-2l-4.88-20a2.76 2.76 0 0 1 2-3.35l19.51-4.76a2.77 2.77 0 0 1 3.35 2z" fill="#302880"/><path d="m129.12 102.7 2.78-2.21-.9-1.08-2 1.56-4-4.57v-.08l-.54.13-4.89 1.19-1-3.94-.15-.6 3.67-.9-.33-1.34-3.67.89-.59-2.42a2.88 2.88 0 0 0 1.33-3.28 2.64 2.64 0 1 0 -5.09 1.24 2.93 2.93 0 0 0 2.39 2.28l.93 3.8a6.8 6.8 0 1 0 8.94 6.18l2.89 3.34zm-8.64 2.43a5.42 5.42 0 0 1 -3-10.41l1.12 4.6 5.68-1.38c.08.21.14.42.2.63a5.43 5.43 0 0 1 -4 6.56z" fill="#fff"/><path d="m305.59 64.73a2.78 2.78 0 0 1 -.11 3.92l-14.62 13.78a2.78 2.78 0 0 1 -3.92-.12l-14.13-15a2.77 2.77 0 0 1 .12-3.92l14.61-13.77a2.78 2.78 0 0 1 3.92.11z" fill="#302880"/><path d="m301.51 67.35 1.32-3.28-1.28-.52-.94 2.33-5.71-2-.09-.05-.4.38-3.66 3.45-2.79-3-.42-.45 2.75-2.59-1-1-2.75 2.59-1.71-1.81a2.88 2.88 0 0 0 -.47-3.51 2.64 2.64 0 1 0 -3.81 3.59 3 3 0 0 0 3.21.81l2.68 2.84a6.8 6.8 0 1 0 10.75 1l4.17 1.48zm-6.31 6.39a5.43 5.43 0 0 1 -7.77-7.57l3.26 3.45 4.25-4c.17.15.34.3.49.46a5.43 5.43 0 0 1 -.23 7.66z" fill="#fff"/><path d="m74.93 300.94h24.69v25.06h-24.69z" fill="#fcc000" transform="matrix(.71873332 -.69528585 .69528585 .71873332 -193.41 148.87)"/><path d="m87.11 331.75-18.11-18.75 18.45-17.85 18.11 18.72zm-16.72-18.69 16.74 17.3 17-16.49-16.74-17.3z" fill="#1d1d1b"/><path d="m81.47 305.46v12.94c-1.57-.27-2.43-.48-2.43-.48l3.67 4.73h.58l3.71-4.73s-.66.16-1.86.38v-12.84z" fill="#1d1d1b"/><path d="m92.23 322.65v-12.95c1.57.28 2.44.48 2.44.48l-3.67-4.72h-.57l-3.67 4.72s.65-.15 1.86-.38v12.85z" fill="#1d1d1b"/><path d="m178.93 51.87h18.96v19.25h-18.96z" fill="#fcc000" transform="matrix(.22035696 -.9754193 .9754193 .22035696 86.92 231.73)"/><path d="m196 73.31-19.51-4.4 4.34-19.24 19.51 4.41zm-18.61-5 18 4.07 4-17.76-18-4.07z" fill="#1d1d1b"/><path d="m181.31 58.79 5.45 8.32c-1.12.48-1.76.72-1.76.72l4.34 1.49.19-.13.18-.12.37-4.58s-.35.38-1 1l-5.41-8.25z" fill="#1d1d1b"/><path d="m195.46 65.31-5.46-8.31c1.13-.48 1.77-.71 1.77-.71l-4.35-1.49-.19.12-.18.12-.37 4.58s.36-.38 1-1l5.4 8.26z" fill="#1d1d1b"/><path d="m132 307.71a.26.26 0 0 0 -.07-.19l-4.63-4.32-.07-6.51a.23.23 0 0 0 -.1-.19l-1.08-.82a.21.21 0 0 0 -.15 0c-9.08.28-9.19.4-9.27.49s-2.36 4.17-3.68 6.56a.26.26 0 0 0 0 .21.26.26 0 0 0 .15.14l1.39.44a.23.23 0 0 0 .26-.08l3.37-4.31h1.43l-3.11 6.18c-.27.39-6.17 7.68-8.43 10.48a.23.23 0 0 0 0 .27l1.28 2.13a.22.22 0 0 0 .1.09h.07a.21.21 0 0 0 .2-.07c.3-.29 6.57-6.43 8.2-8.08.08.4.22 1 .46 2 .15.63.34 1.41.34 1.54a.1.1 0 0 1 0 0c0 .14-.14 1-.51 7.74a.25.25 0 0 0 .18.25c.09 0 2.39.66 2.88.73a.25.25 0 0 0 .19-.05c.1-.08.31-.25 1.27-9.33v-.06c-.31-2.18-.87-6.11-1-7a23.19 23.19 0 0 0 2.7-2.25l1 2.24a.22.22 0 0 0 .09.1l4.73 3.11a.24.24 0 0 0 .28 0l1.48-1.18a.23.23 0 0 0 .05-.26z" fill="#1d1d1b"/><path d="m127.55 295.83c1.18.54 2.79-.44 3.6-2.19s.52-3.62-.66-4.17-2.8.44-3.61 2.19-.51 3.62.67 4.17z" fill="#1d1d1b"/><path d="m27.55 102.55a.24.24 0 0 0 0-.2l-3.78-5.35 1.35-6.63a.25.25 0 0 0 -.05-.22l-.93-1.15a.29.29 0 0 0 -.14 0c-9.27-1.7-9.41-1.6-9.52-1.53s-3.31 3.72-5.17 5.86a.24.24 0 0 0 -.06.2.26.26 0 0 0 .12.18l1.32.76a.24.24 0 0 0 .28 0l4.36-3.64 1.45.34-4.5 5.58c-.37.34-7.95 6.46-10.86 8.8a.24.24 0 0 0 -.08.28l.83 2.43a.27.27 0 0 0 .09.12h.06a.28.28 0 0 0 .22 0c.37-.23 8.07-5.09 10.1-6.4v2.1 1.64c-.06.14-.35 1-2.21 7.75a.25.25 0 0 0 .13.29c.09 0 2.28 1.19 2.77 1.37a.28.28 0 0 0 .2 0c.12-.06.37-.18 3.33-9.19 0 0 0 0 0-.06.16-2.28.45-6.4.52-7.33a26 26 0 0 0 3.24-1.71l.5 2.5a.29.29 0 0 0 .07.12l4.13 4.19a.24.24 0 0 0 .29 0l1.75-.88a.21.21 0 0 0 .19-.22z" fill="#1d1d1b"/><path d="m25.65 89.52c1.08.81 2.94.17 4.14-1.43s1.32-3.57.24-4.38-2.93-.17-4.14 1.43-1.31 3.57-.24 4.38z" fill="#1d1d1b"/><path d="m347.71 211.1a.26.26 0 0 0 -.14-.15l-6.15-2.34-2.62-6.23a.26.26 0 0 0 -.17-.15l-1.36-.35a.25.25 0 0 0 -.17 0c-8.61 3.83-8.67 4-8.72 4.12s-.63 4.93-1 7.75a.26.26 0 0 0 .07.2.25.25 0 0 0 .2.07l1.51-.11a.27.27 0 0 0 .23-.19l1.54-5.46 1.38-.54c-.12 1.51-.54 6.77-.56 7.15s-2.92 9.82-4 13.4a.25.25 0 0 0 .09.27l2.06 1.54a.27.27 0 0 0 .14 0h.08a.29.29 0 0 0 .17-.14c.17-.4 3.78-8.76 4.71-11 .23.35.61.89 1.21 1.72.39.54.88 1.22.94 1.35s0 0 0 0c0 .15.27 1 2.55 7.64a.26.26 0 0 0 .26.17c.11 0 2.57-.31 3.07-.44a.24.24 0 0 0 .16-.12c.06-.11.2-.36-2.45-9.47v-.05l-3.74-6.33a25 25 0 0 0 1.71-3.23l1.83 1.77a.21.21 0 0 0 .12.07l5.77 1.13a.25.25 0 0 0 .27-.13l1-1.71a.26.26 0 0 0 .01-.21z" fill="#1d1d1b"/><path d="m338.78 201.42c1.35.06 2.52-1.52 2.61-3.52s-.92-3.69-2.27-3.75-2.52 1.52-2.61 3.52.93 3.69 2.27 3.75z" fill="#1d1d1b"/><path d="m193.5 303.49a.22.22 0 0 1 .11-.1l4.3-1.64 1.84-4.37a.16.16 0 0 1 .11-.1l1-.25a.17.17 0 0 1 .12 0c6 2.69 6.07 2.8 6.1 2.88s.44 3.46.67 5.43a.17.17 0 0 1 0 .14.2.2 0 0 1 -.14.06l-1.06-.09a.16.16 0 0 1 -.16-.12l-1.08-3.83-1-.38c.08 1.06.38 4.74.39 5s2 6.87 2.81 9.38a.18.18 0 0 1 -.07.19l-1.44 1.1h-.1a.15.15 0 0 1 -.12-.1c-.12-.28-2.65-6.14-3.3-7.7-.16.25-.43.63-.85 1.21-.27.38-.62.85-.65.94 0 .11-.19.72-1.78 5.36a.16.16 0 0 1 -.19.11c-.07 0-1.8-.21-2.15-.3a.16.16 0 0 1 -.11-.09c-.05-.08-.14-.24 1.71-6.63l2.6-4.45a16.47 16.47 0 0 1 -1.2-2.26l-1.28 1.24a.13.13 0 0 1 -.09 0l-4 .79a.15.15 0 0 1 -.18-.08l-.68-1.2a.26.26 0 0 1 -.13-.14z" fill="#1d1d1b"/><path d="m199.76 296.71c-.95 0-1.77-1.06-1.83-2.47s.65-2.57 1.59-2.62 1.77 1.06 1.83 2.47-.65 2.58-1.59 2.62z" fill="#1d1d1b"/><path d="m220.91 103.13a.28.28 0 0 0 -.15-.15l-6.14-2.34-2.62-6.23a.24.24 0 0 0 -.16-.15l-1.37-.36a.3.3 0 0 0 -.16 0c-8.61 3.83-8.68 4-8.72 4.12s-.63 4.93-1 7.75a.23.23 0 0 0 .07.2.24.24 0 0 0 .2.07l1.51-.11a.27.27 0 0 0 .22-.19l1.54-5.46 1.39-.54-.57 7.15c-.1.49-2.91 9.82-4 13.4a.24.24 0 0 0 .09.27l2.06 1.54a.24.24 0 0 0 .14 0h.07a.24.24 0 0 0 .17-.14c.17-.4 3.79-8.77 4.72-11 .22.35.6.89 1.2 1.72a16 16 0 0 1 .94 1.35.12.12 0 0 1 0 0c0 .16.27 1 2.55 7.65a.26.26 0 0 0 .27.17c.1 0 2.56-.31 3.06-.44a.22.22 0 0 0 .16-.12c.07-.12.21-.36-2.44-9.47-1.16-2-3.24-5.54-3.71-6.35a25 25 0 0 0 1.71-3.23l1.82 1.77a.24.24 0 0 0 .13.07l5.77 1.13a.24.24 0 0 0 .26-.13l1-1.71a.26.26 0 0 0 -.01-.24z" fill="#1d1d1b"/><path d="m212 93.45c1.35.06 2.52-1.52 2.61-3.52s-.93-3.69-2.28-3.75-2.51 1.52-2.61 3.52.91 3.68 2.28 3.75z" fill="#1d1d1b"/></svg>