<?xml version="1.0" encoding="iso-8859-1"?>
<!-- Generator: Adobe Illustrator 19.0.0, SVG Export Plug-In . SVG Version: 6.00 Build 0)  -->
<svg version="1.1" id="Capa_1" xmlns="http://www.w3.org/2000/svg" xmlns:xlink="http://www.w3.org/1999/xlink" x="0px" y="0px"
	 viewBox="0 0 464 464" style="enable-background:new 0 0 464 464;" xml:space="preserve">
<path style="fill:#3FA9F5;" d="M243.792,216H60.208c-15.182,0.003-28.273,10.674-31.336,25.544l-13.816,67.064h273.888
	l-13.816-67.064C272.065,226.674,258.974,216.003,243.792,216z"/>
<path style="fill:#ED1C24;" d="M296,400H8v-80c0-8.837,7.163-16,16-16h256c8.837,0,16,7.163,16,16V400z"/>
<g>
	<path style="fill:#333333;" d="M8,432h40v32H8V432z"/>
	<path style="fill:#333333;" d="M256,432h40v32h-40V432z"/>
</g>
<path style="fill:#4D4D4D;" d="M0,400h304v32H0V400z"/>
<g>
	<circle style="fill:#F2F2F2;" cx="48" cy="344" r="16"/>
	<circle style="fill:#F2F2F2;" cx="256" cy="344" r="16"/>
</g>
<g>
	<path style="fill:#29485A;" d="M208,336H96c-4.418,0-8-3.582-8-8s3.582-8,8-8h112c4.418,0,8,3.582,8,8S212.418,336,208,336z"/>
	<path style="fill:#29485A;" d="M208,360H96c-4.418,0-8-3.582-8-8s3.582-8,8-8h112c4.418,0,8,3.582,8,8S212.418,360,208,360z"/>
	<path style="fill:#29485A;" d="M208,384H96c-4.418,0-8-3.582-8-8s3.582-8,8-8h112c4.418,0,8,3.582,8,8S212.418,384,208,384z"/>
</g>
<path style="fill:#0071BC;" d="M288,0h176v176H288V0z"/>
<path style="fill:#666666;" d="M360,176h32v288h-32V176z"/>
<path style="fill:#F2F2F2;" d="M352,152c-4.418,0-8-3.582-8-8V32c0-4.418,3.582-8,8-8h31.624c8.549-0.031,16.763,3.323,22.848,9.328
	c12.521,12.265,12.73,32.358,0.465,44.879c-0.153,0.157-0.308,0.312-0.465,0.465c-6.085,6.005-14.299,9.359-22.848,9.328H360v56
	C360,148.418,356.418,152,352,152z M360,72h23.624c4.343-0.007,8.513-1.706,11.624-4.736c6.221-6.062,6.349-16.02,0.287-22.241
	c-0.094-0.097-0.19-0.193-0.287-0.287c-3.111-3.03-7.281-4.729-11.624-4.736H360V72z"/>
<g>
</g>
<g>
</g>
<g>
</g>
<g>
</g>
<g>
</g>
<g>
</g>
<g>
</g>
<g>
</g>
<g>
</g>
<g>
</g>
<g>
</g>
<g>
</g>
<g>
</g>
<g>
</g>
<g>
</g>
</svg>
