<svg viewBox="0 0 4213.97 3724.19" xmlns="http://www.w3.org/2000/svg"><path d="m295.47 3145.64 3709.69 81.58s629.84-2607.8-570.73-2538.92-1496.35-455.73-2227.72-354c-1839.37 255.75-911.24 2811.34-911.24 2811.34z" fill="#daeff6"/><path d="m1978.16 3034.77s-26.57-151.49 78-249c0 0-124.52 43.54-137.8 195 0 0-39.85-200.25 1.65-337.83 0 0-89.65 104.48-61.43 353.51 0 0-48.14-236.83-28.22-351.76 0 0-28.23 50.5-29.89 125.37 0 0-10-142.79-59.76-182.85 0 0 32.26 96.36 32 232.05a224.89 224.89 0 0 0 -40.14 43c-8.36-78.65-15.11-170.32-8.43-221.1 0 0-30.7 85.88-22.14 282.09q-2.74 8.43-5 17.54a736.67 736.67 0 0 1 -23.09-111.47c-2.24-60.27.87-128.84 18.25-186.43 0 0-8.77 10.22-20 31.91 1.4-11.72 3.18-23.53 5.44-35.38 0 0-39 55.86-47.71 183.21-4.85 39.77-6.46 86.64-2.29 141.12-2.91-10.85-6.3-24.28-9.7-39.56-7-43.9-15-102.12-18.45-158a359.49 359.49 0 0 1 5.1-57.14s-2.65 4-6.86 11.43c-.32-28 1-54.13 4.78-75.85 0 0-28.22 50.5-29.88 125.37 0 0-10-142.79-59.78-182.85 0 0 47.21 141 26.88 322.05-4.87-75.69-16-191.3-39.74-233.23 0 0 7.1 87.59 2.47 164.61-7.25-73.27-12.28-153.26-6.21-199.43 0 0-22.24 62.21-23.58 201.64-14.21-68.18-27.08-172.19-.91-260.85 0 0-19.46 22.13-32.16 76.07-9.82 20.74-24.39 59.31-32.74 118.21a128.9 128.9 0 0 0 -34.45-30.51 332.91 332.91 0 0 1 4.3-36.66s-7.12 10.64-16.58 30c-1.5-.71-3-1.42-4.59-2.11 0 0 1.25 1.5 3.41 4.54a467 467 0 0 0 -45.24 199.91c-3.55-69.84-14.11-216.91-41.6-265.41 0 0 2.35 29 3.47 68.26a129 129 0 0 0 -41.12 37.61c-8-61.4-9.8-134.79 9.42-199.9 0 0-22.71 25.81-35.07 89.67-12.37-63.86-35.08-89.67-35.08-89.67 19.22 65.11 17.37 138.5 9.42 199.9a128.86 128.86 0 0 0 -41.12-37.61c1.12-39.27 3.47-68.26 3.47-68.26-27.48 48.5-38 195.57-41.59 265.41a467.14 467.14 0 0 0 -45.26-199.91c2.17-3 3.42-4.54 3.42-4.54-1.56.69-3.08 1.4-4.59 2.11-9.45-19.35-16.57-30-16.57-30a335.34 335.34 0 0 1 4.3 36.66 129 129 0 0 0 -34.46 30.51c-8.35-58.9-22.91-97.47-32.73-118.21-12.71-53.94-32.17-76.07-32.17-76.07 26.17 88.66 13.3 192.67-.91 260.85-1.34-139.43-23.58-201.64-23.58-201.64 6.08 46.17 1 126.16-6.21 199.43-4.62-77 2.48-164.61 2.48-164.61-23.77 41.93-34.88 157.54-39.75 233.23-20.33-181.06 26.88-322.05 26.88-322.05-49.72 40.14-59.72 182.93-59.72 182.93-1.66-74.87-29.89-125.37-29.89-125.37 3.77 21.72 5.1 47.83 4.78 75.85-4.21-7.47-6.86-11.43-6.86-11.43a360.66 360.66 0 0 1 5.1 57.14c-3.49 55.87-11.44 114.09-18.44 158-3.4 15.28-6.79 28.71-9.7 39.56 4.16-54.48 2.55-101.35-2.29-141.12-8.7-127.36-47.7-183.22-47.7-183.22 2.26 11.85 4 23.66 5.44 35.38-11.19-21.69-20-31.91-20-31.91 17.38 57.59 20.49 126.16 18.25 186.43a735.41 735.41 0 0 1 -23.09 111.47q-2.22-9.12-5-17.54c8.57-196.21-22.13-282.09-22.13-282.09 6.67 50.78-.08 142.45-8.44 221.1a224.26 224.26 0 0 0 -40.14-43c-.3-135.69 32-232.05 32-232.05-49.81 40.06-59.77 182.85-59.77 182.85-1.66-74.87-29.88-125.37-29.88-125.37 19.91 114.88-28.24 351.71-28.24 351.71 28.23-249-61.43-353.51-61.43-353.51 41.51 137.58 1.66 337.83 1.66 337.83-13.29-151.49-137.81-195-137.81-195 104.6 97.52 78 249 78 249-14.94-50.5-83-69.64-83-69.64 54.79 33.08 59.77 111.43 59.77 111.43h1585.2s5-78.35 59.76-111.43c.02-.02-68.04 19.12-82.99 69.62zm-207-167.07a777.12 777.12 0 0 1 -20.5 137.47s-1.28-8.47-3.31-23c.82-31.32 6.07-73 23.84-114.47zm-369.77-34.88a829.63 829.63 0 0 0 1 100.67 161.48 161.48 0 0 0 -16.17-27.07c-8.45-42-15.83-94.06-14.59-144.39 8.78 15.73 19.79 39.11 29.79 70.79zm-125.49-74.52c.85 44.09-.2 97.4-7.43 137.4a100.86 100.86 0 0 0 -8.17 9.32c-4-13.48-10.78-38.18-17-69.62 11.01-35.63 23.38-61.03 32.6-77.1zm-101.55 77.1c-6.26 31.44-13 56.14-17 69.62a102.37 102.37 0 0 0 -8.17-9.32c-7.23-40-8.28-93.31-7.44-137.4 9.2 16.07 21.57 41.47 32.61 77.1zm-128.42-73.4c1.24 50.33-6.14 102.44-14.59 144.39a161.48 161.48 0 0 0 -16.17 27.07 827.44 827.44 0 0 0 1-100.67c10.03-31.65 21.03-55.03 29.76-70.79zm-375.69 220.21c-2 14.49-3.32 23-3.32 23a776.15 776.15 0 0 1 -20.49-137.47c17.77 41.43 23.01 83.11 23.81 114.47z" fill="#90ba27"/><path d="m3884.91 3091.26s-26.56-151.49 78-249c0 0-124.53 43.53-137.8 195 0 0-39.86-200.27 1.64-337.84 0 0-89.64 104.49-61.43 353.51 0 0-48.15-236.83-28.21-351.76 0 0-28.24 50.5-29.89 125.38 0 0-10-142.8-59.77-182.85 0 0 32.26 96.35 32 232a224.25 224.25 0 0 0 -40.13 43.05c-8.36-78.65-15.11-170.33-8.43-221.1 0 0-30.71 85.88-22.13 282.08q-2.76 8.44-5 17.55a737.77 737.77 0 0 1 -23.1-111.46c-2.24-60.28.89-128.85 18.26-186.44 0 0-8.78 10.22-20 31.91 1.39-11.72 3.17-23.54 5.44-35.39 0 0-39 55.86-47.71 183.22-4.85 39.77-6.46 86.64-2.29 141.11-2.92-10.83-6.31-24.27-9.7-39.54-7-43.91-15-102.12-18.44-158a358.12 358.12 0 0 1 5.09-57.14s-2.67 4-6.86 11.43c-.31-28 1-54.12 4.78-75.85 0 0-28.22 50.5-29.89 125.38 0 0-9.95-142.8-59.77-182.85 0 0 47.22 141 26.87 322-4.86-75.68-16-191.31-39.73-233.22 0 0 7.1 87.57 2.47 164.59-7.26-73.26-12.29-153.26-6.2-199.42 0 0-22.24 62.19-23.59 201.64-14.2-68.18-27.07-172.19-.9-260.86 0 0-19.46 22.15-32.18 76.08-9.81 20.74-24.39 59.31-32.73 118.22a128.41 128.41 0 0 0 -34.45-30.52 340.33 340.33 0 0 1 4.29-36.66s-7.12 10.64-16.57 30q-2.25-1.07-4.6-2.11s1.25 1.51 3.42 4.54a467.43 467.43 0 0 0 -45.21 200.06c-3.55-69.85-14.12-216.93-41.6-265.4 0 0 2.35 29 3.47 68.24a129 129 0 0 0 -41.11 37.61c-8-61.4-9.81-134.78 9.41-199.9 0 0-22.7 25.83-35.06 89.68-12.38-63.85-35.09-89.68-35.09-89.68 19.23 65.12 17.37 138.5 9.41 199.9a128.83 128.83 0 0 0 -41.11-37.61c1.12-39.28 3.47-68.24 3.47-68.24-27.48 48.47-38.05 195.55-41.59 265.4a467.26 467.26 0 0 0 -45.25-200c2.15-3 3.41-4.54 3.41-4.54-1.55.7-3.09 1.4-4.58 2.11-9.46-19.34-16.58-30-16.58-30a340.33 340.33 0 0 1 4.29 36.66 128.36 128.36 0 0 0 -34.44 30.52c-8.36-58.91-22.92-97.48-32.74-118.22-12.71-53.93-32.17-76.08-32.17-76.08 26.17 88.67 13.3 192.68-.91 260.86-1.35-139.45-23.58-201.64-23.58-201.64 6.08 46.16 1 126.16-6.21 199.42-4.62-77 2.48-164.59 2.48-164.59-23.75 41.91-34.89 157.54-39.75 233.22-20.34-181.07 26.88-322 26.88-322-49.81 40.05-59.78 182.85-59.78 182.85-1.66-74.88-29.88-125.38-29.88-125.38 3.77 21.73 5.09 47.84 4.78 75.85-4.21-7.47-6.85-11.43-6.85-11.43a359.29 359.29 0 0 1 5.08 57.14c-3.48 55.88-11.43 114.09-18.44 158-3.4 15.27-6.78 28.71-9.71 39.54 4.19-54.47 2.56-101.34-2.27-141.11-8.67-127.36-47.72-183.22-47.72-183.22 2.26 11.85 4.05 23.67 5.45 35.39-11.21-21.69-20-31.91-20-31.91 17.37 57.59 20.5 126.16 18.25 186.44a734 734 0 0 1 -23.1 111.46c-1.47-6.08-3.15-11.92-5-17.55 8.56-196.2-22.12-282.08-22.12-282.08 6.67 50.77-.09 142.45-8.44 221.1a223.65 223.65 0 0 0 -40.14-43.05c-.29-135.69 32-232 32-232-49.79 40.05-59.76 182.85-59.76 182.85-1.66-74.91-29.86-125.41-29.86-125.41 19.92 114.93-28.23 351.76-28.23 351.76 28.23-249-61.44-353.51-61.44-353.51 41.51 137.57 1.66 337.84 1.66 337.84-13.27-151.51-137.8-195-137.8-195 104.6 97.52 78 249 78 249-14.94-50.51-83-69.65-83-69.65 54.81 33.06 59.81 111.42 59.81 111.42h1585.2s5-78.36 59.76-111.45c-.04 0-68.11 19.14-83.05 69.65zm-207-167.07a777.75 777.75 0 0 1 -20.49 137.46s-1.29-8.46-3.32-23c.81-31.32 6.07-72.98 23.84-114.46zm-369.75-34.88a821.39 821.39 0 0 0 1 100.67 162.37 162.37 0 0 0 -16.18-27.06c-8.45-42-15.83-94.07-14.58-144.4 8.76 15.73 19.76 39.11 29.79 70.79zm-125.54-74.53c.83 44.1-.21 97.41-7.43 137.41a98.27 98.27 0 0 0 -8.17 9.33c-4-13.49-10.79-38.2-17-69.63 11.03-35.64 23.4-61.04 32.63-77.11zm-101.57 77.11c-6.25 31.43-13 56.14-17 69.63a99.71 99.71 0 0 0 -8.17-9.33c-7.23-40-8.28-93.31-7.44-137.41 9.26 16.07 21.61 41.47 32.64 77.11zm-128.41-73.37c1.25 50.33-6.13 102.42-14.59 144.4a161.65 161.65 0 0 0 -16.17 27.06 825.56 825.56 0 0 0 1-100.67c10.12-31.68 21.12-55.06 29.79-70.79zm-375.64 220.18c-2 14.49-3.32 23-3.32 23a776.83 776.83 0 0 1 -20.49-137.46c17.81 41.43 23 83.09 23.81 114.46z" fill="#90ba27"/><path d="m0 3155.83c0 239.08 1597.15 141.62 1597.15 290s-884.77 99.79-782.3 221.72 3396.3-75.59 3399.12-396.82-4213.97-353.97-4213.97-114.9z" fill="#ebebec"/><path d="m524.79 339.37h357.71v64.2h-357.71z" fill="#acb1b0"/><path d="m524.79 752.12h357.71v73.38h-357.71z" fill="#acb1b0"/><path d="m1653 932.53a113.11 113.11 0 0 1 -113.11 113.1h-700.21a113.1 113.1 0 0 1 -113.1-113.1v-700.19a113.1 113.1 0 0 1 113.1-113.1h700.18a113.11 113.11 0 0 1 113.14 113.1z" fill="#3a52a0"/><path d="m973.66 293.33h226.09c133.53 0 217.91 76.19 217.91 191.7v1.64c0 128.61-103.22 195.77-229.38 195.77h-113.86v184.33h-100.76zm217.9 298.19c76.19 0 123.7-42.6 123.7-102.4v-1.64c0-67.17-48.34-102.4-123.7-102.4h-117.14v206.44z" fill="#fff"/><path d="m460.58 0h128.41v3494.6h-128.41z" fill="#525051"/><g fill="#ebebec"><path d="m842.45 3465.87c0 39.4-145.4 71.34-324.75 71.34s-324.7-31.94-324.7-71.34 145.39-71.34 324.74-71.34 324.71 31.93 324.71 71.34z"/><path d="m311 3608.55c0 20.39-53.1 36.91-118.61 36.91s-118.62-16.52-118.62-36.91 53.1-36.9 118.62-36.9 118.61 16.52 118.61 36.9z"/><path d="m4021 3624.55c0 29.21-115 52.89-256.89 52.89s-256.88-23.68-256.88-52.89 115-52.9 256.88-52.9 256.89 23.68 256.89 52.9z"/><path d="m3327.25 3675c0 27.17-47.37 49.21-105.8 49.21s-105.77-22-105.77-49.21 47.35-49.21 105.77-49.21 105.8 22.02 105.8 49.21z"/></g><path d="m1394.09 3315.79c0 81.52-63.28 147.61-141.33 147.61h-113.06c-78.06 0-141.34-66.09-141.34-147.61v-260.79c0-81.53 63.28-147.61 141.34-147.61h113.06c78 0 141.33 66.08 141.33 147.61z" fill="#2e2b29"/><path d="m3111.53 3315.79c0 81.52 63.27 147.61 141.33 147.61h113.06c78.07 0 141.33-66.09 141.33-147.61v-260.79c0-81.53-63.26-147.61-141.33-147.61h-113.06c-78.06 0-141.33 66.08-141.33 147.61z" fill="#2e2b29"/><path d="m3333.71 1881.5c-22.15 22.13 3.27 123.81 3.27 123.81l-35.25 2.62c-107-215.71-232.42-458.52-307.23-502.23-107-62.52-1372.8-62.52-1479.81 0-74.8 43.71-200.19 286.52-307.21 502.23l-35.27-2.62s25.43-101.68 3.29-123.81c-125.48-76.27-334.59 59-262.74 143.81 50.53 59.59 182.61 63 256.57 59.77-37.07 75.12-70.58 143-97.16 192.51-108.25 201.73-76.27 856.14-76.27 856.14s63.14 52.5 248.48 76.27c178.45 22.89 1842 22.89 2020.43 0 185.35-23.77 248.5-76.27 248.5-76.27s32-654.41-76.27-856.14c-26.59-49.54-60.1-117.39-97.16-192.51 73.95 3.24 206-.18 256.56-59.77 71.86-84.77-137.26-220.08-262.73-143.81z" fill="#d90e15"/><path d="m2948.88 1598.42c-54.94-48.05-648.58-47.17-694.28-47-45.71-.14-639.35-1-694.27 47-57.13 50-274.95 472.51-274.95 472.51h1938.44s-217.82-422.55-274.94-472.51z" fill="#b5c3c9"/><g fill="#13110c" opacity=".3"><path d="m1512.66 2843.81s-248-28.92-313.43 10.34-112.71 134.29-86.67 171.26 338.66 44.19 338.66 44.19z"/><path d="m2743.27 2542.86c-89.75-60.13-409-63.7-488.67-63.64s-398.92 3.51-488.67 63.64c-102.8 68.89-216.48 546.6-216.48 546.6h1410.3s-113.68-477.71-216.48-546.6z"/><path d="m2996.53 2843.81s248-28.92 313.45 10.34 112.71 134.29 86.67 171.26-338.65 44.19-338.65 44.19z"/></g><path d="m2813 2641.69h-1116.84c-34.61 71.08-67.21 166.45-92.85 250.95h1302.57c-25.63-84.5-58.23-179.87-92.88-250.95z" fill="#13110c" opacity=".2"/><path d="m3136.1 1908.56h-227.23v-80.06c0-50.29-51.25-91-114.47-91h-263.3c-63.22 0-114.48 40.76-114.48 91v80.06h-324v-80.06c0-50.29-51.25-91-114.48-91h-263.3c-63.22 0-114.48 40.76-114.48 91v80.06h-227.26c-49.18 89.11-87.72 162.37-87.72 162.37h1938.44s-38.55-73.26-87.72-162.37z" fill="#9facaf"/><path d="m1064.5 2281.8c-26.51 53.06-46.6 138.39-59.71 253.59l-.43 3.79 3.56 1.37c129.88 49.71 367.17 55.07 463.16 55.07 21.05 0 33.67-.27 33.78-.27h2.34l96.67-124.19-537.41-193.22z" fill="#fff"/><path d="m3504.41 2535.42c-13.11-115.21-33.2-200.52-59.72-253.59l-2-3.88-533.18 191.76 90.92 123.86 1.44 2.18 2.42 1.74c.12 0 12.76 2.43 33.81 2.43 96 0 333.27-7.51 463.14-57.23l3.56-2.87z" fill="#fff"/><path d="m1154.91 2313.48c-16.58 21.63-25.34 46.15-25.34 70.87 0 82.4 95.29 149.43 212.4 149.43 80.21 0 152.7-31.18 189.17-81.4l3.85-5.3-377.89-136.45z" fill="#e9e9e9"/><path d="m3354.31 2313.48-2.2-2.85-377.89 136.45 3.85 5.3c36.47 50.22 109 81.4 189.15 81.4 117.13 0 212.42-67 212.42-149.43 0-24.72-8.76-49.24-25.33-70.87z" fill="#e9e9e9"/></svg>