<?xml version="1.0"?>
<svg xmlns="http://www.w3.org/2000/svg" xmlns:xlink="http://www.w3.org/1999/xlink" xmlns:svgjs="http://svgjs.com/svgjs" version="1.1" width="512" height="512" x="0" y="0" viewBox="0 0 512 512" style="enable-background:new 0 0 512 512" xml:space="preserve" class=""><g>
<g xmlns="http://www.w3.org/2000/svg">
	<polygon style="" points="400.551,380.884 462.593,380.884 512,504.131 437.606,504.131  " fill="#090a0a" data-original="#c8e6eb"/>
	<polygon style="" points="279.947,380.884 340.867,380.884 365.57,504.131 291.176,504.131  " fill="#090a0a" data-original="#c8e6eb"/>
	<polygon style="" points="232.053,380.884 171.133,380.884 146.43,504.131 220.824,504.131  " fill="#090a0a" data-original="#c8e6eb"/>
	<polygon style="" points="111.45,380.884 49.407,380.884 0,504.131 74.394,504.131  " fill="#090a0a" data-original="#c8e6eb"/>
</g>
<path xmlns="http://www.w3.org/2000/svg" style="" d="M267.629,255.743c-1.784,0-3.597-0.285-5.381-0.885c-8.832-2.971-13.583-12.539-10.612-21.371  l24.823-73.792c1.213-3.606,3.61-6.697,6.801-8.77l63.423-41.195c7.814-5.076,18.264-2.856,23.34,4.959  c5.076,7.814,2.855,18.264-4.959,23.34l-58.496,37.994l-22.949,68.223C281.248,251.294,274.676,255.743,267.629,255.743z" fill="#ff9d7d" data-original="#ff9d7d"/>
<path xmlns="http://www.w3.org/2000/svg" style="" d="M251.636,233.488l24.823-73.792c1.213-3.606,3.61-6.697,6.801-8.77l63.423-41.195  c7.814-5.076,18.264-2.856,23.34,4.959c5.076,7.814,2.855,18.264-4.959,23.34l-58.496,37.994l-22.949,68.223L251.636,233.488z" fill="#323e6d" data-original="#323e6d"/>
<path xmlns="http://www.w3.org/2000/svg" style="" d="M315.734,299.286v50.468l-19.42,82.04c-2.743,11.586,4.426,23.201,16.012,25.944  c1.67,0.396,3.339,0.584,4.984,0.584c9.765,0,18.613-6.681,20.96-16.597l20-84.489c0.385-1.627,0.58-3.293,0.58-4.966v-52.984  H315.734z" fill="#ff9d7d" data-original="#ff9d7d"/>
<path xmlns="http://www.w3.org/2000/svg" style="" d="M420.811,344.907c-0.066-1.555-0.301-3.099-0.699-4.603l-10.866-41.018h-44.603l13.191,49.795  l3.774,88.596c0.493,11.583,10.039,20.641,21.522,20.641c0.31,0,0.622-0.007,0.934-0.02c11.896-0.507,21.127-10.561,20.621-22.456  L420.811,344.907z" fill="#ffb69e" data-original="#ffb69e"/>
<path xmlns="http://www.w3.org/2000/svg" style="" d="M402.093,115.105c-2.012-10.994-10.925-18.94-21.286-18.94c-13.342,0-22.726,0-37.535,0  c-10.382,0-19.27,7.924-21.286,18.94l-33.178,181.327c-0.536,2.93,0.17,5.964,1.921,8.273s4.368,3.656,7.129,3.656  c28.04,0,100.341,0,128.362,0c2.763,0,5.38-1.339,7.132-3.649c1.753-2.31,2.454-5.348,1.918-8.279L402.093,115.105z" fill="#414b82" data-original="#414b82"/>
<circle xmlns="http://www.w3.org/2000/svg" style="" cx="362.04" cy="45.099" r="37.23" fill="#ffb69e" data-original="#ffb69e"/>
<path xmlns="http://www.w3.org/2000/svg" style="" d="M430.891,235.366c-2.652,0-5.341-0.626-7.85-1.948l-61.358-32.323  c-4.397-2.316-7.55-6.455-8.616-11.31l-13.673-62.289c-1.998-9.102,3.76-18.1,12.862-20.097c9.104-1.999,18.099,3.76,20.097,12.862  l11.993,54.632l54.423,28.669c8.244,4.343,11.407,14.547,7.063,22.792C442.811,232.09,436.952,235.366,430.891,235.366z" fill="#ffb69e" data-original="#ffb69e"/>
<path xmlns="http://www.w3.org/2000/svg" style="" d="M423.041,233.419l-61.358-32.323c-4.397-2.316-7.55-6.455-8.616-11.31l-13.673-62.289  c-1.998-9.102,3.76-18.1,12.862-20.097c9.104-1.999,18.099,3.76,20.097,12.862l11.993,54.632l54.423,28.669L423.041,233.419z" fill="#323e6d" data-original="#323e6d"/>
<path xmlns="http://www.w3.org/2000/svg" style="" d="M133.178,344.895v35.768l-22.673,57.167c-3.048,7.685,0.711,16.386,8.396,19.434  c1.811,0.718,3.678,1.058,5.514,1.058c5.957,0,11.59-3.581,13.919-9.455l23.728-59.826c0.697-1.756,1.054-3.629,1.054-5.519v-38.627  H133.178z" fill="#ff9d7d" data-original="#ff9d7d"/>
<path xmlns="http://www.w3.org/2000/svg" style="" d="M210.929,372.262c-0.204-0.802-0.474-1.586-0.807-2.344l-11.006-25.022h-32.707l15.807,35.938  l16.802,66.199c1.72,6.778,7.812,11.291,14.499,11.291c1.219,0,2.458-0.15,3.693-0.464c8.013-2.034,12.861-10.179,10.827-18.192  L210.929,372.262z" fill="#ffb69e" data-original="#ffb69e"/>
<path xmlns="http://www.w3.org/2000/svg" style="" d="M209.734,269.82c-1.919-0.307-3.76-1.091-5.341-2.321l-49.016-31.155  c-5.107-3.973-6.026-11.334-2.054-16.441s11.333-6.027,16.441-2.054l44.058,27.299l38.43-12.869  c6.135-2.054,12.775,1.253,14.829,7.39c2.055,6.136-1.254,12.775-7.39,14.829l-44.385,14.863  C213.486,269.971,211.574,270.115,209.734,269.82z" fill="#7589c7" data-original="#7589c7"/>
<path xmlns="http://www.w3.org/2000/svg" style="" d="M267.082,239.669c-2.055-6.136-8.695-9.444-14.829-7.39l7.44,22.219  C265.828,252.444,269.136,245.804,267.082,239.669z" fill="#ffb69e" data-original="#ffb69e"/>
<path xmlns="http://www.w3.org/2000/svg" style="" d="M192.367,219.995c-1.397-7.634-7.587-13.152-14.781-13.152c-9.265,0-15.781,0-26.064,0  c-7.209,0-13.381,5.502-14.781,13.152l-23.039,125.912c-0.372,2.034,0.118,4.141,1.334,5.744s3.033,2.539,4.95,2.539  c19.471,0,69.676,0,89.133,0c1.918,0,3.736-0.93,4.952-2.534c1.217-1.604,1.704-3.714,1.332-5.749L192.367,219.995z" fill="#8093cf" data-original="#8093cf"/>
<circle xmlns="http://www.w3.org/2000/svg" style="" cx="164.56" cy="162.389" r="31.638" fill="#ffb69e" data-original="#ffb69e"/>
<path xmlns="http://www.w3.org/2000/svg" style="" d="M127.752,281.782c-1.263,0-2.53-0.042-3.809-0.126l-13.105-0.869l0.651-9.82l13.105,0.869  c25.945,1.718,48.453-17.989,50.174-43.935c0.447-6.748-4.679-12.602-11.427-13.049l-47.92-3.177l0.651-9.82l47.92,3.177  c12.163,0.806,21.402,11.357,20.596,23.52C182.593,258.633,157.475,281.779,127.752,281.782z" fill="#be1423" data-original="#be1423"/>
<path xmlns="http://www.w3.org/2000/svg" style="" d="M133.911,284.525c-0.795,11.99-11.159,21.065-23.149,20.271s-21.065-11.159-20.271-23.149  l4.743-71.551c0.795-11.99,11.159-21.065,23.149-20.271c11.99,0.795,21.065,11.159,20.271,23.149L133.911,284.525z" fill="#ff4f38" data-original="#ff4f38"/>
<path xmlns="http://www.w3.org/2000/svg" style="" d="M90.491,281.647l2.372-35.775l-6.304-0.418c-3.836-0.254-7.151,2.649-7.406,6.485l-1.473,22.225  c-0.254,3.836,2.649,7.151,6.485,7.406l6.313,0.418C90.483,281.873,90.484,281.76,90.491,281.647z" fill="#be1423" data-original="#be1423"/>
<path xmlns="http://www.w3.org/2000/svg" style="" d="M212.284,308.993c-0.298,1.195-0.798,2.361-1.511,3.45c-3.413,5.212-10.405,6.671-15.617,3.258  l-37.706-24.689c-3.16-2.069-5.075-5.583-5.101-9.361l-0.374-54.937c-0.041-6.23,4.974-11.315,11.204-11.357  c6.23-0.042,11.315,4.974,11.357,11.204l0.333,48.889l32.646,21.376C211.639,299.526,213.413,304.466,212.284,308.993z" fill="#ffb69e" data-original="#ffb69e"/>
<path xmlns="http://www.w3.org/2000/svg" style="" d="M195.156,315.701l-37.706-24.689c-3.16-2.069-5.075-5.583-5.101-9.361l-0.374-54.937  c-0.041-6.23,4.974-11.315,11.204-11.357c6.23-0.042,11.315,4.974,11.357,11.204l0.333,48.889l32.646,21.376L195.156,315.701z" fill="#96a5d7" data-original="#96a5d7"/>
<g xmlns="http://www.w3.org/2000/svg">
</g>
<g xmlns="http://www.w3.org/2000/svg">
</g>
<g xmlns="http://www.w3.org/2000/svg">
</g>
<g xmlns="http://www.w3.org/2000/svg">
</g>
<g xmlns="http://www.w3.org/2000/svg">
</g>
<g xmlns="http://www.w3.org/2000/svg">
</g>
<g xmlns="http://www.w3.org/2000/svg">
</g>
<g xmlns="http://www.w3.org/2000/svg">
</g>
<g xmlns="http://www.w3.org/2000/svg">
</g>
<g xmlns="http://www.w3.org/2000/svg">
</g>
<g xmlns="http://www.w3.org/2000/svg">
</g>
<g xmlns="http://www.w3.org/2000/svg">
</g>
<g xmlns="http://www.w3.org/2000/svg">
</g>
<g xmlns="http://www.w3.org/2000/svg">
</g>
<g xmlns="http://www.w3.org/2000/svg">
</g>
</g></svg>
