<svg height="512" viewBox="0 0 512 512" width="512" xmlns="http://www.w3.org/2000/svg"><g id="flat"><path d="m328 152h24v24h-24z" fill="#fec093"/><path d="m152 104h32v24h-32z" fill="#fec093"/><path d="m315.253 224h-52.553a38 38 0 0 1 -33.458-19.984l-45.242-84.016h32.4a24 24 0 0 1 21.932 14.253l25.668 57.747 52.834 6.6a12.748 12.748 0 0 1 11.166 12.653 12.747 12.747 0 0 1 -12.747 12.747z" fill="#ffd508"/><path d="m16 344h88l-80 144h-8z" fill="#ececec"/><path d="m24 488 80-144h88l-80 144z" fill="#7c8c9a"/><path d="m112 488 80-144h88l-80 144z" fill="#ececec"/><path d="m200 488 80-144h88l-80 144z" fill="#7c8c9a"/><path d="m288 488 80-144h88l-80 144z" fill="#ececec"/><path d="m376 488 80-144h40v86.4l-32 57.6z" fill="#7c8c9a"/><path d="m144 56v32a32 32 0 0 0 32 32 32 32 0 0 0 32-32v-32z" fill="#fec093"/><path d="m136 120h80v112h-80z" fill="#ffd508"/><path d="m368 112v32a24 24 0 0 1 -24 24 24 24 0 0 1 -24-24v-32z" fill="#fec093"/><path d="m392 304h-96l16-56h64z" fill="#3f51b5"/><path d="m208 384 21.6-72.008a31.989 31.989 0 0 0 .588-16.137l-14.188-63.855h-80v66.568a16 16 0 0 1 -3.307 9.741l-48.421 63.091a8 8 0 0 0 .689 10.527l28.98 28.981.012-.012a23.359 23.359 0 0 0 -.441-33.465l-1.512-1.431 48.082-54.951a32 32 0 0 0 7.918-21.073v-27.976h24.889l6.378 28.7a16.016 16.016 0 0 1 .071 6.609l-13.4 66.978a99.97 99.97 0 0 0 -1.938 19.613v6.1a8 8 0 0 0 8 8h40a24 24 0 0 0 -24-24z" fill="#3f51b5"/><path d="m341.174 304h-32l-28.815 93.647a8 8 0 0 0 7.646 10.353h37.169v-6.111a16 16 0 0 0 -8.845-14.311l-7.155-3.578z" fill="#fec093"/><path d="m400 384-16-80h-32l22.569 97.8a8 8 0 0 0 7.795 6.2h33.636v-4.875a18 18 0 0 0 -9.95-16.1z" fill="#fec093"/><path d="m370.462 384 4.107 17.8a8 8 0 0 0 7.795 6.2h33.636v-4.875a18 18 0 0 0 -9.95-16.1l-6.05-3.025z" fill="#3f51b5"/><path d="m284.558 384-4.2 13.647a8 8 0 0 0 7.647 10.353h37.169v-6.111a16 16 0 0 0 -8.845-14.311l-7.155-3.578z" fill="#3f51b5"/><path d="m458.65 247.89a10.453 10.453 0 0 1 -15.54 9.12l-48.35-23.62a24.026 24.026 0 0 1 -9.91-8.99l-8.85-14.4v38h-64l-7.87-78.67a23.856 23.856 0 0 1 7.87-1.33h64v.03a15.486 15.486 0 0 1 12.52 7.5l19.48 40.47 44.89 22.55a10.434 10.434 0 0 1 5.76 9.34z" fill="#e51c23"/><path d="m357.38 274.43a10.853 10.853 0 0 1 -15.22 2.92l-43.79-30.2a24 24 0 0 1 -10.37-19.75v-35.4a24.01 24.01 0 0 1 24-24v64l24.79 16 17.44 11.26a10.882 10.882 0 0 1 3.15 15.17z" fill="#c9191f"/><path d="m136 200v-80h-8a24 24 0 0 0 -24 24v64a24 24 0 0 0 24 24h75.04a12.96 12.96 0 0 0 12.96-12.96v-.061a12.96 12.96 0 0 0 -10.829-12.779z" fill="#e6c007"/><path d="m344 88h-35.931a16 16 0 0 0 -15.385 11.6l-12.684 44.4h4a24 24 0 0 0 19.2-9.6l16.8-22.4h24z" fill="#bc6549"/><g fill="#dd7b58"><path d="m144 80h8a24 24 0 0 0 24-24l32 8v-8a32 32 0 0 0 -32-32 32 32 0 0 0 -32 32z"/><path d="m368 128-24-8-24-8v-8a16 16 0 0 1 16-16h8a24 24 0 0 1 24 24z"/></g></g></svg>