<svg id="Flat" height="512" viewBox="0 0 64 64" width="512" xmlns="http://www.w3.org/2000/svg"><path d="m48 49v-2.879a5.12 5.12 0 0 0 -1.5-3.621 5.12 5.12 0 0 1 -1.5-3.621v-13.879c0-7.732-4-15-13-15s-13 7.268-13 15v13.879a5.12 5.12 0 0 1 -1.5 3.621 5.12 5.12 0 0 0 -1.5 3.621v2.879z" fill="#42210b"/><path d="m19.5 42.5a5.12 5.12 0 0 0 1.5-3.621v-13.879c0-7.435 3.713-14.422 12-14.949-.331-.021-.655-.051-1-.051-9 0-13 7.268-13 15v13.879a5.12 5.12 0 0 1 -1.5 3.621 5.12 5.12 0 0 0 -1.5 3.621v2.879h2v-2.879a5.12 5.12 0 0 1 1.5-3.621z" fill="#724118"/><path d="m11 61v-5.471a8 8 0 0 1 5.173-7.483l8.185-3.093a4 4 0 0 0 2.642-3.762v-4.191h10v4.191a4 4 0 0 0 2.642 3.762l8.185 3.093a8 8 0 0 1 5.173 7.483v5.471z" fill="#2096f3"/><path d="m19 61h-2a10.213 10.213 0 0 1 2-6.369v-.631h2v1a1 1 0 0 1 -.293.707 7.807 7.807 0 0 0 -1.707 5.293z" fill="#1f88e5"/><path d="m47 61h-2a7.794 7.794 0 0 0 -1.713-5.3 1.019 1.019 0 0 1 -.287-.7v-1h2v.631a10.213 10.213 0 0 1 2 6.369z" fill="#1f88e5"/><path d="m18.173 48.046 8.185-3.093a4 4 0 0 0 2.642-3.762v-4.191h-2v4.191a4 4 0 0 1 -2.642 3.762l-8.185 3.093a8 8 0 0 0 -5.173 7.483v5.471h2v-5.471a8 8 0 0 1 5.173-7.483z" fill="#64b5f6"/><rect fill="#f4cda5" height="6" rx="3" width="26" x="19" y="25"/><path d="m32 47c3.415 0 6.255-1.049 6.872-2.435a3.993 3.993 0 0 1 -1.872-3.374v-4.191h-10v4.191a3.993 3.993 0 0 1 -1.872 3.374c.617 1.386 3.457 2.435 6.872 2.435z" fill="#f4cda5"/><path d="m26.358 44.953a4 4 0 0 0 2.642-3.762v-4.191h-2v4.191a3.99 3.99 0 0 1 -1.328 2.961l.507.869z" fill="#fadcb4"/><path d="m37 36h-10v3.142a6.251 6.251 0 0 0 5 2.858 6.253 6.253 0 0 0 5-2.857z" fill="#f2be97"/><path d="m42 25v5.2c0 5.94-6.67 10.8-10 10.8-1.66 0-4.16-1.22-6.25-3.17a10.853 10.853 0 0 1 -3.75-7.63v-5.2c10-1 14-6 14-6a14.934 14.934 0 0 0 6 6z" fill="#fadcb4"/><path d="m24 30-.017-4.535s.017-.734.017-.734c-.64.106-1.3.2-2 .269v5.2a10.853 10.853 0 0 0 3.75 7.63c2.09 1.95 4.59 3.17 6.25 3.17a11.106 11.106 0 0 1 -8-11z" fill="#f9e5cf"/><path d="m29 46h6v6h-6z" fill="#f5f5f5"/><path d="m32 37a5.8 5.8 0 0 1 -3.627-1.227l1.254-1.558a4.018 4.018 0 0 0 4.746 0l1.254 1.558a5.8 5.8 0 0 1 -3.627 1.227z" fill="#eaa18c"/><path d="m27 29c-1.1 0-2-.673-2-1.5s.9-1.5 2-1.5 2 .673 2 1.5-.9 1.5-2 1.5z" fill="#42210b"/><path d="m37 29c-1.1 0-2-.673-2-1.5s.9-1.5 2-1.5 2 .673 2 1.5-.9 1.5-2 1.5z" fill="#42210b"/><path d="m41 22h-18a3 3 0 0 1 -3-3v-5h24v5a3 3 0 0 1 -3 3z" fill="#283593"/><path d="m47 15-3 2a33.337 33.337 0 0 0 -12-2 33.337 33.337 0 0 0 -12 2l-3-2 3-7 12-5 12 5z" fill="#1a237e"/><circle cx="32" cy="9" fill="#f9a825" r="3"/><path d="m37 41-6 13 7-3v-3l3-1z" fill="#1665c0"/><path d="m27 41 6 13-7-3v-3l-3-1z" fill="#1665c0"/><path d="m28.194 43.587-1.194-2.587-3.307 4.96 2.665-1.007a3.99 3.99 0 0 0 1.836-1.366z" fill="#42a5f5"/><path d="m31 52h2v9h-2z" fill="#1665c0"/><g fill="#253238"><path d="m22 57h6v2h-6z"/><path d="m36 57h6v2h-6z"/></g></svg>