<svg xmlns="http://www.w3.org/2000/svg" viewBox="0 0 86.37 145.5"><defs><style>.cls-1{fill:#4f2523;}.cls-1,.cls-10,.cls-11,.cls-12,.cls-15,.cls-16,.cls-17,.cls-18,.cls-19,.cls-2,.cls-20,.cls-3,.cls-5,.cls-6,.cls-7,.cls-8{fill-rule:evenodd;}.cls-14,.cls-2{fill:#cbecff;}.cls-3{fill:#b7d4f0;}.cls-4,.cls-6{fill:#f2c2a9;}.cls-5{fill:#c29180;}.cls-7{fill:#2c273e;}.cls-8,.cls-9{fill:#1a2e6b;}.cls-10{fill:#fff;}.cls-11{fill:#1a1a1a;}.cls-12{fill:#312b39;}.cls-13,.cls-16{fill:#fc0;}.cls-15{fill:#a7c1db;}.cls-17{fill:#3b4a87;}.cls-18{fill:#2e3e7d;}.cls-19{fill:#22316e;}.cls-20{fill:#41549c;}</style></defs><g id="Calque_2" data-name="Calque 2"><g id="Ñëîé_1" data-name="Ñëîé 1"><path class="cls-1" d="M43.94,73.47c-12.14,1-27.36,5-27.79-2.78-.41-7.3-.25-22.07,7.07-45.53l20.72,5.41Z"/><path class="cls-1" d="M43.94,74.09c12.13,1,4.71,2.66,7.75-4.47C54,64.18,64.18,58.27,64.16,36.22c0-3,0-8.4-1.08-11L43.94,30.57Z"/><path class="cls-2" d="M64.54,75.28s7.65,2,12.6,3.77c1.72.63,2.77,2.62,3.6,4.35,2.8,5.84,4.49,31.46,5.63,49a77,77,0,0,1-12.94,7Z"/><path class="cls-3" d="M73.43,139.46l-4.3-31.05L72.24,99l4.24,39.05C75.47,138.56,74.46,139,73.43,139.46Z"/><path class="cls-2" d="M21.79,75.28s-7.64,2-12.6,3.77c-1.72.63-2.77,2.62-3.6,4.35C2.82,89.18,1.14,114.33,0,131.87a75.19,75.19,0,0,0,13,7.24Z"/><path class="cls-3" d="M13,139.11l4.25-30.7L14.09,99,9.9,137.7C10.9,138.19,11.92,138.66,13,139.11Z"/><path class="cls-2" d="M68.17,141.46c1.58-17.3,6.69-48.59,8.9-62.38-8.36-4.44-14.73-6.25-23.61-8.73l-10.29.06-10.3-.06C24,72.83,17.63,74.64,9.26,79.08c2.2,13.71,7.27,44.72,8.88,62.08a76.79,76.79,0,0,0,50,.3Z"/><rect class="cls-4" x="34.61" y="57.49" width="17.11" height="18.87"/><polygon class="cls-5" points="34.69 57.49 51.72 57.49 51.72 71.84 46.89 70.93 34.61 58.75 34.69 57.49"/><path class="cls-6" d="M27.68,36.45c-5.85-2.32-5.8,3.19-4.72,7.06a7.91,7.91,0,0,0,3.86,5.11C31.92,51.22,26.09,39.35,27.68,36.45Z"/><path class="cls-5" d="M25.17,37.37a3.35,3.35,0,0,1,.79.08,22.8,22.8,0,0,0,.82,5.84,30.94,30.94,0,0,1,.75,4c-.35.08-1.67-1.29-1.9-1.6a7.49,7.49,0,0,1-1.25-2.6,11.72,11.72,0,0,1-.49-3.93,2.9,2.9,0,0,1,.43-1.45A1,1,0,0,1,25.17,37.37Z"/><path class="cls-6" d="M58.65,36.45c5.86-2.32,5.8,3.19,4.72,7.06a7.91,7.91,0,0,1-3.86,5.11C54.41,51.22,60.24,39.35,58.65,36.45Z"/><path class="cls-5" d="M61.16,37.37a3.23,3.23,0,0,0-.78.08,23.29,23.29,0,0,1-.83,5.84,29,29,0,0,0-.74,4c.34.08,1.67-1.29,1.9-1.6A7.86,7.86,0,0,0,62,43.12a12,12,0,0,0,.48-3.93A2.9,2.9,0,0,0,62,37.74,1,1,0,0,0,61.16,37.37Z"/><path class="cls-6" d="M36.76,16.54H49.57c6.73,0,13.16,5.57,12.23,12.23L59.49,45.4A28.15,28.15,0,0,1,54,58.62,12.76,12.76,0,0,1,43.17,64h0a12.76,12.76,0,0,1-10.85-5.41A28.63,28.63,0,0,1,26.85,45.4L24.53,28.77C23.6,22.11,30,16.54,36.76,16.54Z"/><path class="cls-3" d="M34.61,68.93c.69,3.21,5.73,6.06,8.8,7.24L34.9,81s-3.93-8.35-4.78-10A32.43,32.43,0,0,1,34.61,68.93Z"/><path class="cls-7" d="M83.24,95.19c.85,6.54,1.56,14.78,2.15,22.84l-1-1.2a25.26,25.26,0,0,1-1.63-2.24,20.8,20.8,0,0,1-1.74-3.22A23,23,0,0,1,79.8,106a43.22,43.22,0,0,1-.44-7A3.86,3.86,0,0,1,81,96.56,14.72,14.72,0,0,1,83,95.34Z"/><path class="cls-8" d="M83.43,96.69c.68,5.58,1.27,12.21,1.77,18.86a22.18,22.18,0,0,1-2.85-4.73c-1.32-3.17-1.71-10.3-1.58-11.64C80.86,98.22,82.49,97.2,83.43,96.69Z"/><rect class="cls-9" x="19.27" y="104.74" width="17.72" height="2.66"/><path class="cls-10" d="M37.75,53.81a37.15,37.15,0,0,0,10.84,0c-2,2.57-3.81,3.44-5.42,3.45S39.7,56.38,37.75,53.81Z"/><path class="cls-11" d="M35,39.27a1.61,1.61,0,1,1-1.61,1.61A1.61,1.61,0,0,1,35,39.27Z"/><path class="cls-11" d="M31.17,40.47h7S34.1,37.28,31.17,40.47Z"/><path class="cls-11" d="M39,36.46c.2-.52.31-.88.2-1.09-1.12-.46-2.63-.47-5.16-1.14-2.56-.5-3.63.77-4.84,2.14C31,35.26,32,34.5,34.07,35.27S38.69,37.35,39,36.46Z"/><path class="cls-11" d="M51.35,39.27A1.61,1.61,0,1,0,53,40.88,1.61,1.61,0,0,0,51.35,39.27Z"/><path class="cls-11" d="M55.16,40.47h-7S52.23,37.28,55.16,40.47Z"/><path class="cls-11" d="M47.31,36.46c-.2-.52-.31-.88-.2-1.09,1.12-.46,2.64-.47,5.16-1.14,2.56-.5,3.63.77,4.84,2.14-1.77-1.11-2.73-1.87-4.85-1.1S47.64,37.35,47.31,36.46Z"/><path class="cls-12" d="M44.44,82.34v0a14.68,14.68,0,0,0,2.77-3.89l-4.07-2.23h0l-4,2.26a14.62,14.62,0,0,0,2.76,3.86v0Z"/><path class="cls-12" d="M38,145.29c.91-20,1.78-34,2.69-57.07.2-2.89.63-5.76,1.16-6.78H44.5c.53,1,1,3.89,1.16,6.78.91,23.06,1.79,37.06,2.69,57.13-1.58.09-3.17.15-4.77.15C41.7,145.5,39.83,145.43,38,145.29Z"/><rect class="cls-13" x="39.61" y="108.18" width="6.71" height="0.95"/><path class="cls-1" d="M54.06,25.08c-2.21,4.1-5.87,5.21-8.85,6.92a8.21,8.21,0,0,0,2.1-6.23c-3,5.65-8,7.28-8.85,7.25a28.19,28.19,0,0,0,5.73-11.81c-2.33,2.88-5,10-9.64,10.57,3.1-3.84,2.71-6.65,1.32-8.16-1.88,2.54-9,7.27-9.52,16.23a28.4,28.4,0,0,1-1.87-21.56C29.22,4.75,48,1.7,53.78,9.07,66.29,12,63,34.35,60.08,38.8,59.59,28.68,55.51,34.52,54.06,25.08Z"/><path class="cls-3" d="M51.72,68.93C51,72.14,46,75,42.92,76.17L51.43,81s3.93-8.35,4.78-10A32.43,32.43,0,0,0,51.72,68.93Z"/><path class="cls-3" d="M19.42,110.4H37.27v18.32a1,1,0,0,1-1,1H20.4a1,1,0,0,1-1-1Z"/><path class="cls-2" d="M20.11,111.08v17.64a.3.3,0,0,0,.29.3H36.29a.3.3,0,0,0,.29-.3V111.08Z"/><polygon class="cls-3" points="26.21 112.47 30.48 112.47 30.78 112.47 30.78 112.9 30.78 129.28 30.78 129.71 30.48 129.71 26.21 129.71 25.91 129.71 25.91 129.28 25.91 112.9 25.91 112.47 26.21 112.47"/><rect class="cls-14" x="26.6" y="113.16" width="3.5" height="15.86"/><path class="cls-3" d="M28.31,116.39c-3.36-.31-4-.57-9.71-1,0-1.43,0-5,0-6.31H38c0,1.3,0,4.88,0,6.31C32.32,115.82,31.67,116.08,28.31,116.39Z"/><path class="cls-2" d="M28.31,115.7c.93-.09,1.85-.19,2.77-.31,2.09-.26,4.16-.49,6.25-.67,0-1.66,0-3.33,0-5H19.28c0,1.66,0,3.33,0,5,2.09.18,4.16.41,6.25.67C26.46,115.51,27.38,115.61,28.31,115.7Z"/><path class="cls-15" d="M28.49,113.34a1,1,0,1,1-1,1A1,1,0,0,1,28.49,113.34Z"/><path class="cls-3" d="M49.13,110.4H67v18.32a1,1,0,0,1-1,1H50.12a1,1,0,0,1-1-1Z"/><path class="cls-2" d="M49.82,111.08v17.64a.3.3,0,0,0,.3.3H66a.3.3,0,0,0,.29-.3V111.08Z"/><polygon class="cls-3" points="55.92 112.47 60.19 112.47 60.49 112.47 60.49 112.9 60.49 129.28 60.49 129.71 60.19 129.71 55.92 129.71 55.62 129.71 55.62 129.28 55.62 112.9 55.62 112.47 55.92 112.47"/><rect class="cls-14" x="56.31" y="113.16" width="3.5" height="15.86"/><path class="cls-3" d="M58,116.39c-3.36-.31-4-.57-9.71-1,0-1.43,0-5,0-6.31H67.74c0,1.3,0,4.88,0,6.31C62,115.82,61.39,116.08,58,116.39Z"/><path class="cls-2" d="M58,115.7c.93-.09,1.85-.19,2.78-.31,2.09-.26,4.15-.49,6.24-.67,0-1.66,0-3.33,0-5H49c0,1.66,0,3.33,0,5,2.1.18,4.16.41,6.25.67C56.17,115.51,57.09,115.61,58,115.7Z"/><path class="cls-15" d="M58,113.34a1,1,0,1,1-1,1A1,1,0,0,1,58,113.34Z"/><rect class="cls-13" x="42.31" y="107.54" width="1.27" height="2.21"/><path class="cls-3" d="M79.45,81.21a18.16,18.16,0,0,0-1,4c-.25,1-.6.31-7.57-2.6L59.83,78c-1.74-.73-3.72-1.73-4.36-3.35a3.13,3.13,0,0,1-.12-1.89c.49-2.24,2.87-1.33,4.51-.83a95.53,95.53,0,0,1,12.08,4.46C73.27,77,80,79.65,79.45,81.21Z"/><path class="cls-12" d="M79.45,81.21a18.16,18.16,0,0,0-1,4c-.25,1-.6.31-7.57-2.6L59.83,78l-.12-.06,1.77-5.51a92.44,92.44,0,0,1,10.46,4C73.27,77,80,79.65,79.45,81.21Z"/><path class="cls-16" d="M74.57,84.2l-.94-.42-.57-4.08,0-.38.37-.1,3-.8c.38.2.75.41,1.09.62L74,80Z"/><path class="cls-16" d="M73.28,83.63l-.94-.41-.61-4.39,0-.38.37-.1,2.71-.72,1.21.58-3.32.89Z"/><path class="cls-3" d="M79.45,81.21a18.16,18.16,0,0,0-1,4c-.14.58-.32.59-1.82-.07l1.76-5.5C79.15,80.19,79.62,80.75,79.45,81.21Z"/><path class="cls-15" d="M57.06,72.08a.85.85,0,1,0,.82.87A.85.85,0,0,0,57.06,72.08Z"/><rect class="cls-13" x="64.46" y="73.56" width="1.72" height="4.26" rx="0.37" transform="translate(-29 108.86) rotate(-68.58)"/><path class="cls-3" d="M6.88,81.21a18.16,18.16,0,0,1,1,4c.25,1,.61.31,7.57-2.6L26.5,78c1.74-.73,3.72-1.73,4.36-3.35A3.13,3.13,0,0,0,31,72.76c-.49-2.24-2.87-1.33-4.51-.83a95.53,95.53,0,0,0-12.08,4.46C13.07,77,6.31,79.65,6.88,81.21Z"/><path class="cls-12" d="M6.88,81.21a18.16,18.16,0,0,1,1,4c.25,1,.61.31,7.57-2.6L26.5,78l.13-.06-1.78-5.51a92.44,92.44,0,0,0-10.46,4C13.07,77,6.31,79.65,6.88,81.21Z"/><path class="cls-16" d="M11.77,84.2l.94-.42.56-4.08.06-.38-.38-.1-3-.8c-.39.2-.76.41-1.1.62l3.49.92Z"/><path class="cls-16" d="M13.05,83.63l.94-.41.61-4.39.05-.38-.37-.1-2.71-.72-1.21.58,3.32.89Z"/><path class="cls-3" d="M6.88,81.21a18.16,18.16,0,0,1,1,4c.14.58.33.59,1.82-.07L8,79.62C7.19,80.19,6.71,80.75,6.88,81.21Z"/><path class="cls-15" d="M29.27,72.08a.85.85,0,1,1-.82.87A.85.85,0,0,1,29.27,72.08Z"/><rect class="cls-13" x="18.89" y="74.84" width="4.26" height="1.72" rx="0.37" transform="translate(-26.19 12.9) rotate(-21.42)"/><path class="cls-1" d="M16.15,70.69c3.93-1.74,16.05-3.31,18.42-4C33,89.06,23.77,81.57,27,101.82,15,93.19,16.36,72.76,16.15,70.69Z"/><path class="cls-17" d="M59.48,6.37s4.05,17.25,4.05,18.77-.72,1.28-2.36,1.75S45.56,30.62,43,30.67c-4.31-.73-9.36-1.8-13.87-2.82,2.52-2.09,7.68-6.26,13.58-11.34Z"/><path class="cls-18" d="M26.85,6.37S22.8,23.62,22.8,25.14s.73,1.28,2.36,1.75c.47.13,2,.5,3.95,1h0c2.52-2.09,7.68-6.26,13.58-11.34l.47-.28Z"/><path class="cls-19" d="M26.85,6.37a45.56,45.56,0,0,1,9.7-1.8L31.09,8.94,26.85,6.37Zm23-1.8a46.17,46.17,0,0,1,9.73,1.8L55.36,8.94Z"/><path class="cls-20" d="M55.36,8.94C48.14,3,45.42,1.27,43.23,0,41,1.26,38.31,3,31.09,8.94l12.14,7.33Z"/><polygon class="cls-10" points="44.23 16.42 59.63 6.97 59.48 6.36 43.55 16 44.23 16.42"/><path class="cls-10" d="M27.34,6.21l15.89,9.6,1,.61-1,.6-.42.26c-4.63,4-8.84,7.44-11.65,9.73l-1.23,1-.88-.2c2.6-2.14,7.63-6.21,13.35-11.13l.46-.28L26.77,6.71l.08-.34Z"/></g></g></svg>