<svg viewBox="0 0 86.37 145.5" xmlns="http://www.w3.org/2000/svg"><path d="m43.94 73.47c-12.14 1-27.36 5-27.79-2.78-.41-7.3-.25-22.07 7.07-45.53l20.72 5.41z" fill="#4f2523" fill-rule="evenodd"/><path d="m43.94 74.09c12.13 1 4.71 2.66 7.75-4.47 2.31-5.44 12.49-11.35 12.47-33.4 0-3 0-8.4-1.08-11l-19.14 5.35z" fill="#4f2523" fill-rule="evenodd"/><path d="m64.54 75.28s7.65 2 12.6 3.77c1.72.63 2.77 2.62 3.6 4.35 2.8 5.84 4.49 31.46 5.63 49a77 77 0 0 1 -12.94 7z" fill="#cbecff" fill-rule="evenodd"/><path d="m73.43 139.46-4.3-31.05 3.11-9.41 4.24 39.05c-1.01.51-2.02.95-3.05 1.41z" fill="#b7d4f0" fill-rule="evenodd"/><path d="m21.79 75.28s-7.64 2-12.6 3.77c-1.72.63-2.77 2.62-3.6 4.35-2.77 5.78-4.45 30.93-5.59 48.47a75.19 75.19 0 0 0 13 7.24z" fill="#cbecff" fill-rule="evenodd"/><path d="m13 139.11 4.25-30.7-3.16-9.41-4.19 38.7c1 .49 2.02.96 3.1 1.41z" fill="#b7d4f0" fill-rule="evenodd"/><path d="m68.17 141.46c1.58-17.3 6.69-48.59 8.9-62.38-8.36-4.44-14.73-6.25-23.61-8.73l-10.29.06-10.3-.06c-8.87 2.48-15.24 4.29-23.61 8.73 2.2 13.71 7.27 44.72 8.88 62.08a76.79 76.79 0 0 0 50 .3z" fill="#cbecff" fill-rule="evenodd"/><path d="m34.61 57.49h17.11v18.87h-17.11z" fill="#f2c2a9"/><g fill-rule="evenodd"><path d="m34.69 57.49h17.03v14.35l-4.83-.91-12.28-12.18z" fill="#c29180"/><path d="m27.68 36.45c-5.85-2.32-5.8 3.19-4.72 7.06a7.91 7.91 0 0 0 3.86 5.11c5.1 2.6-.73-9.27.86-12.17z" fill="#f2c2a9"/><path d="m25.17 37.37a3.35 3.35 0 0 1 .79.08 22.8 22.8 0 0 0 .82 5.84 30.94 30.94 0 0 1 .75 4c-.35.08-1.67-1.29-1.9-1.6a7.49 7.49 0 0 1 -1.25-2.6 11.72 11.72 0 0 1 -.49-3.93 2.9 2.9 0 0 1 .43-1.45 1 1 0 0 1 .85-.34z" fill="#c29180"/><path d="m58.65 36.45c5.86-2.32 5.8 3.19 4.72 7.06a7.91 7.91 0 0 1 -3.86 5.11c-5.1 2.6.73-9.27-.86-12.17z" fill="#f2c2a9"/><path d="m61.16 37.37a3.23 3.23 0 0 0 -.78.08 23.29 23.29 0 0 1 -.83 5.84 29 29 0 0 0 -.74 4c.34.08 1.67-1.29 1.9-1.6a7.86 7.86 0 0 0 1.29-2.57 12 12 0 0 0 .48-3.93 2.9 2.9 0 0 0 -.48-1.45 1 1 0 0 0 -.84-.37z" fill="#c29180"/><path d="m36.76 16.54h12.81c6.73 0 13.16 5.57 12.23 12.23l-2.31 16.63a28.15 28.15 0 0 1 -5.49 13.22 12.76 12.76 0 0 1 -10.83 5.38 12.76 12.76 0 0 1 -10.85-5.41 28.63 28.63 0 0 1 -5.47-13.19l-2.32-16.63c-.93-6.66 5.47-12.23 12.23-12.23z" fill="#f2c2a9"/><path d="m34.61 68.93c.69 3.21 5.73 6.06 8.8 7.24l-8.51 4.83s-3.93-8.35-4.78-10a32.43 32.43 0 0 1 4.49-2.07z" fill="#b7d4f0"/><path d="m83.24 95.19c.85 6.54 1.56 14.78 2.15 22.84l-1-1.2a25.26 25.26 0 0 1 -1.63-2.24 20.8 20.8 0 0 1 -1.74-3.22 23 23 0 0 1 -1.22-5.37 43.22 43.22 0 0 1 -.44-7 3.86 3.86 0 0 1 1.64-2.44 14.72 14.72 0 0 1 2-1.22z" fill="#2c273e"/><path d="m83.43 96.69c.68 5.58 1.27 12.21 1.77 18.86a22.18 22.18 0 0 1 -2.85-4.73c-1.32-3.17-1.71-10.3-1.58-11.64.09-.96 1.72-1.98 2.66-2.49z" fill="#1a2e6b"/></g><path d="m19.27 104.74h17.72v2.66h-17.72z" fill="#1a2e6b"/><path d="m37.75 53.81a37.15 37.15 0 0 0 10.84 0c-2 2.57-3.81 3.44-5.42 3.45s-3.47-.88-5.42-3.45z" fill="#fff" fill-rule="evenodd"/><path d="m35 39.27a1.61 1.61 0 1 1 -1.61 1.61 1.61 1.61 0 0 1 1.61-1.61z" fill="#1a1a1a" fill-rule="evenodd"/><path d="m31.17 40.47h7s-4.07-3.19-7 0z" fill="#1a1a1a" fill-rule="evenodd"/><path d="m39 36.46c.2-.52.31-.88.2-1.09-1.12-.46-2.63-.47-5.16-1.14-2.56-.5-3.63.77-4.84 2.14 1.8-1.11 2.8-1.87 4.87-1.1s4.62 2.08 4.93 1.19z" fill="#1a1a1a" fill-rule="evenodd"/><path d="m51.35 39.27a1.61 1.61 0 1 0 1.65 1.61 1.61 1.61 0 0 0 -1.65-1.61z" fill="#1a1a1a" fill-rule="evenodd"/><path d="m55.16 40.47h-7s4.07-3.19 7 0z" fill="#1a1a1a" fill-rule="evenodd"/><path d="m47.31 36.46c-.2-.52-.31-.88-.2-1.09 1.12-.46 2.64-.47 5.16-1.14 2.56-.5 3.63.77 4.84 2.14-1.77-1.11-2.73-1.87-4.85-1.1s-4.62 2.08-4.95 1.19z" fill="#1a1a1a" fill-rule="evenodd"/><path d="m44.44 82.34a14.68 14.68 0 0 0 2.77-3.89l-4.07-2.23-4 2.26a14.62 14.62 0 0 0 2.76 3.86z" fill="#312b39" fill-rule="evenodd"/><path d="m38 145.29c.91-20 1.78-34 2.69-57.07.2-2.89.63-5.76 1.16-6.78h2.65c.53 1 1 3.89 1.16 6.78.91 23.06 1.79 37.06 2.69 57.13-1.58.09-3.17.15-4.77.15-1.88 0-3.75-.07-5.58-.21z" fill="#312b39" fill-rule="evenodd"/><path d="m39.61 108.18h6.71v.95h-6.71z" fill="#fc0"/><path d="m54.06 25.08c-2.21 4.1-5.87 5.21-8.85 6.92a8.21 8.21 0 0 0 2.1-6.23c-3 5.65-8 7.28-8.85 7.25a28.19 28.19 0 0 0 5.73-11.81c-2.33 2.88-5 10-9.64 10.57 3.1-3.84 2.71-6.65 1.32-8.16-1.88 2.54-9 7.27-9.52 16.23a28.4 28.4 0 0 1 -1.87-21.56c4.74-13.54 23.52-16.59 29.3-9.22 12.51 2.93 9.22 25.28 6.3 29.73-.49-10.12-4.57-4.28-6.02-13.72z" fill="#4f2523" fill-rule="evenodd"/><path d="m51.72 68.93c-.72 3.21-5.72 6.07-8.8 7.24l8.51 4.83s3.93-8.35 4.78-10a32.43 32.43 0 0 0 -4.49-2.07z" fill="#b7d4f0" fill-rule="evenodd"/><path d="m19.42 110.4h17.85v18.32a1 1 0 0 1 -1 1h-15.87a1 1 0 0 1 -1-1z" fill="#b7d4f0" fill-rule="evenodd"/><path d="m20.11 111.08v17.64a.3.3 0 0 0 .29.3h15.89a.3.3 0 0 0 .29-.3v-17.64z" fill="#cbecff" fill-rule="evenodd"/><path d="m26.21 112.47h4.27.3v.43 16.38.43h-.3-4.27-.3v-.43-16.38-.43z" fill="#b7d4f0" fill-rule="evenodd"/><path d="m26.6 113.16h3.5v15.86h-3.5z" fill="#cbecff"/><path d="m28.31 116.39c-3.36-.31-4-.57-9.71-1 0-1.43 0-5 0-6.31h19.4v6.31c-5.68.43-6.33.69-9.69 1z" fill="#b7d4f0" fill-rule="evenodd"/><path d="m28.31 115.7c.93-.09 1.85-.19 2.77-.31 2.09-.26 4.16-.49 6.25-.67 0-1.66 0-3.33 0-5h-18.05v5c2.09.18 4.16.41 6.25.67.93.12 1.85.22 2.78.31z" fill="#cbecff" fill-rule="evenodd"/><path d="m28.49 113.34a1 1 0 1 1 -1 1 1 1 0 0 1 1-1z" fill="#a7c1db" fill-rule="evenodd"/><path d="m49.13 110.4h17.87v18.32a1 1 0 0 1 -1 1h-15.88a1 1 0 0 1 -1-1z" fill="#b7d4f0" fill-rule="evenodd"/><path d="m49.82 111.08v17.64a.3.3 0 0 0 .3.3h15.88a.3.3 0 0 0 .29-.3v-17.64z" fill="#cbecff" fill-rule="evenodd"/><path d="m55.92 112.47h4.27.3v.43 16.38.43h-.3-4.27-.3v-.43-16.38-.43z" fill="#b7d4f0" fill-rule="evenodd"/><path d="m56.31 113.16h3.5v15.86h-3.5z" fill="#cbecff"/><path d="m58 116.39c-3.36-.31-4-.57-9.71-1 0-1.43 0-5 0-6.31h19.45v6.31c-5.74.43-6.35.69-9.74 1z" fill="#b7d4f0" fill-rule="evenodd"/><path d="m58 115.7c.93-.09 1.85-.19 2.78-.31 2.09-.26 4.15-.49 6.24-.67 0-1.66 0-3.33 0-5h-18.02v5c2.1.18 4.16.41 6.25.67.92.12 1.84.22 2.75.31z" fill="#cbecff" fill-rule="evenodd"/><path d="m58 113.34a1 1 0 1 1 -1 1 1 1 0 0 1 1-1z" fill="#a7c1db" fill-rule="evenodd"/><path d="m42.31 107.54h1.27v2.21h-1.27z" fill="#fc0"/><path d="m79.45 81.21a18.16 18.16 0 0 0 -1 4c-.25 1-.6.31-7.57-2.6l-11.05-4.61c-1.74-.73-3.72-1.73-4.36-3.35a3.13 3.13 0 0 1 -.12-1.89c.49-2.24 2.87-1.33 4.51-.83a95.53 95.53 0 0 1 12.08 4.46c1.33.61 8.06 3.26 7.51 4.82z" fill="#b7d4f0" fill-rule="evenodd"/><path d="m79.45 81.21a18.16 18.16 0 0 0 -1 4c-.25 1-.6.31-7.57-2.6l-11.05-4.61-.12-.06 1.77-5.51a92.44 92.44 0 0 1 10.46 4c1.33.57 8.06 3.22 7.51 4.78z" fill="#312b39" fill-rule="evenodd"/><path d="m74.57 84.2-.94-.42-.57-4.08v-.38l.37-.1 3-.8c.38.2.75.41 1.09.62l-3.52.96z" fill="#fc0" fill-rule="evenodd"/><path d="m73.28 83.63-.94-.41-.61-4.39v-.38l.37-.1 2.71-.72 1.21.58-3.32.89z" fill="#fc0" fill-rule="evenodd"/><path d="m79.45 81.21a18.16 18.16 0 0 0 -1 4c-.14.58-.32.59-1.82-.07l1.76-5.5c.76.55 1.23 1.11 1.06 1.57z" fill="#b7d4f0" fill-rule="evenodd"/><path d="m57.06 72.08a.85.85 0 1 0 .82.87.85.85 0 0 0 -.82-.87z" fill="#a7c1db" fill-rule="evenodd"/><rect fill="#fc0" height="4.26" rx=".37" transform="matrix(.36520176 -.93092839 .93092839 .36520176 -29 108.86)" width="1.72" x="64.46" y="73.56"/><path d="m6.88 81.21a18.16 18.16 0 0 1 1 4c.25 1 .61.31 7.57-2.6l11.05-4.61c1.74-.73 3.72-1.73 4.36-3.35a3.13 3.13 0 0 0 .14-1.89c-.49-2.24-2.87-1.33-4.51-.83a95.53 95.53 0 0 0 -12.08 4.46c-1.34.61-8.1 3.26-7.53 4.82z" fill="#b7d4f0" fill-rule="evenodd"/><path d="m6.88 81.21a18.16 18.16 0 0 1 1 4c.25 1 .61.31 7.57-2.6l11.05-4.61.13-.06-1.78-5.51a92.44 92.44 0 0 0 -10.46 4c-1.32.57-8.08 3.22-7.51 4.78z" fill="#312b39" fill-rule="evenodd"/><path d="m11.77 84.2.94-.42.56-4.08.06-.38-.38-.1-3-.8c-.39.2-.76.41-1.1.62l3.49.92z" fill="#fc0" fill-rule="evenodd"/><path d="m13.05 83.63.94-.41.61-4.39.05-.38-.37-.1-2.71-.72-1.21.58 3.32.89z" fill="#fc0" fill-rule="evenodd"/><path d="m6.88 81.21a18.16 18.16 0 0 1 1 4c.14.58.33.59 1.82-.07l-1.7-5.52c-.81.57-1.29 1.13-1.12 1.59z" fill="#b7d4f0" fill-rule="evenodd"/><path d="m29.27 72.08a.85.85 0 1 1 -.82.87.85.85 0 0 1 .82-.87z" fill="#a7c1db" fill-rule="evenodd"/><rect fill="#fc0" height="1.72" rx=".37" transform="matrix(.93092839 -.36520176 .36520176 .93092839 -26.19 12.9)" width="4.26" x="18.89" y="74.84"/><path d="m16.15 70.69c3.93-1.74 16.05-3.31 18.42-4-1.57 22.37-10.8 14.88-7.57 35.13-12-8.63-10.64-29.06-10.85-31.13z" fill="#4f2523" fill-rule="evenodd"/><path d="m59.48 6.37s4.05 17.25 4.05 18.77-.72 1.28-2.36 1.75-15.61 3.73-18.17 3.78c-4.31-.73-9.36-1.8-13.87-2.82 2.52-2.09 7.68-6.26 13.58-11.34z" fill="#3b4a87" fill-rule="evenodd"/><path d="m26.85 6.37s-4.05 17.25-4.05 18.77.73 1.28 2.36 1.75c.47.13 2 .5 3.95 1 2.52-2.09 7.68-6.26 13.58-11.34l.47-.28z" fill="#2e3e7d" fill-rule="evenodd"/><path d="m26.85 6.37a45.56 45.56 0 0 1 9.7-1.8l-5.46 4.37zm23-1.8a46.17 46.17 0 0 1 9.73 1.8l-4.22 2.57z" fill="#22316e" fill-rule="evenodd"/><path d="m55.36 8.94c-7.22-5.94-9.94-7.67-12.13-8.94-2.23 1.26-4.92 3-12.14 8.94l12.14 7.33z" fill="#41549c" fill-rule="evenodd"/><path d="m44.23 16.42 15.4-9.45-.15-.61-15.93 9.64z" fill="#fff" fill-rule="evenodd"/><path d="m27.34 6.21 15.89 9.6 1 .61-1 .6-.42.26c-4.63 4-8.84 7.44-11.65 9.73l-1.23 1-.88-.2c2.6-2.14 7.63-6.21 13.35-11.13l.46-.28-16.09-9.69.08-.34z" fill="#fff" fill-rule="evenodd"/></svg>