<?xml version="1.0"?>
<svg xmlns="http://www.w3.org/2000/svg" xmlns:xlink="http://www.w3.org/1999/xlink" xmlns:svgjs="http://svgjs.com/svgjs" version="1.1" width="512" height="512" x="0" y="0" viewBox="0 0 512 512" style="enable-background:new 0 0 512 512" xml:space="preserve" class=""><g><clipPath xmlns="http://www.w3.org/2000/svg" id="clip-path"><path d="m255.9485 31.0076a224.6832 224.6832 0 0 0 -73 12.1185c88.4315 30.3145 152.0036 114.1685 152.0064 212.8792s-63.5642 182.5684-151.994 212.8879a224.6844 224.6844 0 0 0 73 12.1144c124.2641-.0036 224.9971-100.7423 224.9936-225.0064s-100.7419-224.9972-225.006-224.9936z" fill="#000000" data-original="#000000" style=""/></clipPath><circle xmlns="http://www.w3.org/2000/svg" cx="255.955" cy="256.008" fill="#1e88e5" r="225" data-original="#0071bc" style="" class=""/><path xmlns="http://www.w3.org/2000/svg" d="m186.451 107.51 60.002 96.998-30 .001.006 200-60 .001-.006-200-30 .001z" fill="#ffffff" data-original="#ffffff" style=""/><path xmlns="http://www.w3.org/2000/svg" d="m325.459 404.506 59.997-97.002-30 .001-.005-200-60 .001.005 200-30 .001z" fill="#ff0300" data-original="#ff0300" style=""/><g xmlns="http://www.w3.org/2000/svg" opacity=".15"><g clip-path="url(#clip-path)" fill="#fff"><path d="m182.949 43.126.012 437.882h-.012z" fill="#ffffff" data-original="#ffffff" style=""/><path d="m480.948 31.004.01 349.261v100.743h-297.997l-.012-437.882v-12.122z" fill="#ffffff" data-original="#ffffff" style=""/><path d="m480.958 380.265-.01-349.261h.01z" fill="#ffffff" data-original="#ffffff" style=""/></g></g></g></svg>
