<?xml version="1.0"?>
<svg xmlns="http://www.w3.org/2000/svg" xmlns:xlink="http://www.w3.org/1999/xlink" xmlns:svgjs="http://svgjs.com/svgjs" version="1.1" width="512" height="512" x="0" y="0" viewBox="0 0 512 512" style="enable-background:new 0 0 512 512" xml:space="preserve" class=""><g><g xmlns="http://www.w3.org/2000/svg"><path d="m457 512h-402c-30.327 0-55-24.673-55-55v-402c0-30.327 24.673-55 55-55h402c30.327 0 55 24.673 55 55v402c0 30.327-24.673 55-55 55z" fill="#1e88e5" data-original="#8bb9ff" style="" class=""/><path d="m457 0h-201v512h201c30.327 0 55-24.673 55-55v-402c0-30.327-24.673-55-55-55z" fill="#2681ff" data-original="#2681ff" style="" class=""/><g><path d="m351 451c-4.557 0-8.866-2.071-11.713-5.629l-80-100c-4.195-5.244-4.457-12.747-.312-18.344 2.877-3.884 7.547-6.027 12.38-6.027h39.645v-245c0-8.284 6.716-15 15-15h50c8.284 0 15 6.716 15 15v245h39.645c4.833 0 9.503 2.143 12.38 6.027 4.145 5.597 3.884 13.1-.312 18.344l-80 100c-2.847 3.558-7.156 5.629-11.713 5.629z" fill="#ffffff" data-original="#daeaec" style="" class=""/><path d="m186 451h-50c-8.284 0-15-6.716-15-15v-245h-39.645c-4.833 0-9.503-2.143-12.38-6.027-4.145-5.597-3.884-13.1.312-18.344l80-100c2.847-3.558 7.156-5.629 11.713-5.629s8.866 2.071 11.713 5.629l80 100c4.195 5.244 4.457 12.747.312 18.344-2.877 3.884-7.547 6.027-12.38 6.027h-39.645v245c0 8.284-6.716 15-15 15z" fill="#ff5c5c" data-original="#ff5c5c" style="" class=""/></g></g></g></svg>
