<svg viewBox="0 0 1298.82 756.59" xmlns="http://www.w3.org/2000/svg" xmlns:xlink="http://www.w3.org/1999/xlink"><clipPath id="a" transform="translate(289.23 11)"><path d="m0 0h841.89v595.28h-841.89z"/></clipPath><linearGradient id="b" gradientUnits="userSpaceOnUse" x1="697.01" x2="697.01" y1="328.44" y2="-3.78"><stop offset="0" stop-color="#e5eef7"/><stop offset=".53" stop-color="#92bee5"/><stop offset="1" stop-color="#5daee2"/></linearGradient><linearGradient id="c" gradientTransform="matrix(1 .07 0 1 0 -26.12)" gradientUnits="userSpaceOnUse" x1="-118.76" x2="322.17" y1="312.96" y2="312.96"><stop offset="0" stop-color="#5a8768"/><stop offset="1" stop-color="#588466"/></linearGradient><linearGradient id="d" x1="303.27" x2="387.61" xlink:href="#c" y1="319.9" y2="319.9"/><linearGradient id="e" gradientUnits="userSpaceOnUse" x1="1032.07" x2="1032.07" y1="333.46" y2="410.2"><stop offset="0" stop-color="#fffffa"/><stop offset="1" stop-color="#d4d1c9"/></linearGradient><linearGradient id="f" gradientTransform="matrix(-1 0 0 1 1206.73 11)" x1="813.12" x2="813.12" xlink:href="#e" y1="323.58" y2="442.4"/><linearGradient id="g" gradientUnits="userSpaceOnUse" x1="671.83" x2="671.83" y1="329.62" y2="597.22"><stop offset="0" stop-color="#cececa"/><stop offset=".25" stop-color="#888"/><stop offset="1" stop-color="#595757"/></linearGradient><linearGradient id="h" x1="1032.07" x2="1032.07" xlink:href="#e" y1="332.94" y2="373.6"/><linearGradient id="i" gradientTransform="matrix(-1 0 0 1 1206.73 11)" x1="813.12" x2="813.12" xlink:href="#e" y1="322.82" y2="389.06"/><g clip-path="url(#a)"><path d="m241.69 0h910.63v459.7h-910.63z" fill="url(#b)"/><path d="m319.79 358.37c-1.2.48-26.49-24.09-27.68-23.58-2.89 1.23-5.24 3.71-8.27 4.65-6.92 2.12-16.38 2.42-24.7 2.52-8.6.11-16.61 0-24.57-.58-17.25-1.23-35-.12-52.77-2.26-8.86-1.06-19 .17-29.27.24s-21.07-.37-31.5.34c-23.28 1.57-48.03 1.93-72.41 5.3-4.14.57-8.56 1.42-12.77 2.4-8.35 2-13.79 1.71-20.12 1.76-10 .07-21.71 2.37-33.89 3.7-11.51 1.24-24 2.28-36 3.92-20.15 2.74-41.93 6-64.63 9.77v-155.55c.44-.15.86-.32 1.34-.44 3.07 0 2.75 3.87 5 4.83 3.17.18 4-1.25 6.33-.4 1.16-2.83-2.89-2.94-2.74-6.64 4.33-3 7.45-6.8 13.31-8.63 3.4 3.28 6.39 2.69 11 2.22 2.22 2.42 5.5 3.56 7.47 6.23 1.23 2.19-3.83 4.08-.87 4.49 2.84-.93 7.23 1.7 8.25 1.68 2.37 0 2.86-2 5.68-1.46 7.23 1.33 11.79 9.31 15.84 16.29 2.48 0-.72-4.13 1.39-4.43 1.41-1.91 3.9 1.32 5.14-.38-1-4.77 1.79-6.79 3.1-9.88.08-4.43.3-9.14 4.32-9.37 7.43-.44 7.14 14.21 13.54 16.63a12.89 12.89 0 0 1 9.26-3.29c2.75-2.48 3.84-6.19 9.55-6.4a.93.93 0 0 0 1.16.44c3.71 4 .82 8.88.36 12.44 3.73-1.64.89-5.24 4.67-6.05 5.72-1.22 14.58 10.2 16.37 16.15 2.76 2.43 7.81 1.78 9.78 5.2-.08 3-2.79 4.12-3.85 6.44 4.36.63 4.65 6.72 9.88 6.07 1.6 1.55.79 6.41 2.93 7.21 1.25.77 1.46-2.81 4-2.44 2.32-.09 2.66 2.54 5 2.44a2.87 2.87 0 0 1 4.27-1c.74-7.17 13.84-4.92 19.16-8.47 5 .81 8.35 3.87 12.39 5.91a14.44 14.44 0 0 0 2.12-6c-2.46-2.62-8.75-5.8-6.7-10.88 5 0 6.71 3.94 9.1-.88-.38-4.95-7.11-13.51-2.36-17.54 2.46-.63 3.94 2.52 5.31 1.48 1.23-4.73 3.1-8.92 10.08-8.87 1.85.83.74 3.57 1.74 4.6 3.57-.09 4.26-2.54 7.42-2.93.76-2.38 1-5.22 3.73-5.9 2 1 2.91 3.58 3.74 6.26 3.9 1.55 6.25.28 9.64-1.21-1.06-8.45 7.72-9 8.87.23 3.38-1.14 7.82-2.69 9.21.65 2.35 5.6-8.39 10.84-11.82 12.87-1.41 1-2.73-2.55-2.57-.23 1 2 3.24 2.09 5.78 1.76 1.67-.25-.13-3.42 2.38-3 3 1.75 4.78 3.91 7.21 5.69 2.84 2.09 5 1.57 7.91 3.29.72.42 1.83 1.9 2.91 2.84s2.46 1.92 3.29 2.79c4.35 4.59 4.32 9.57 5.78 14.94-.94 2.17-.18 4.54-2.51 6.1 1.89 1.31 2.14 5.16 3.93 6.6.5-1.21 1.56-2.17 2.86-1.72.13-1-.88-3.53.86-4.09 3.46-1.61 7.83-.17 9.59-3 2.73 1.28 5.26 5.41 7.52 1.65-.91-5.21-6.76-2.67-7.19-8.69 1.13-3 5.91-2.13 8.5-1.46 4.39-2.77 10.5-1 14.49-4.31 1.22 2.83 3.38 4.12 4.47 7.13a8.1 8.1 0 0 1 7.12-.47c.29 3.23 2.43 6.26 2.33 9.81 2.42.92 3.39-4 6.1-1.67.41 3.87-1.58 5.63-2.52 8.31 3.08 1.42 4.16 2.83 7.47.59a34.44 34.44 0 0 0 9.6 6c-.17-1.86-.28-3.69 1.41-3.92 2.52.84 3.23 4.73 3.8 8.85 1.62.62 3.63.58 4.71 2.1 1.72 1.06-1.08 3.38.5 3.17.9.75 1.57-2.33 3.19-.94-.4-1.36-1.23-1.61-.83-3.11.79-.87 2.47-1 3.36-1.76-1.26-1.59 1-2.93.92-4.59-.74-4.27-.55-7.72 1.06-9.86 3.43.52 2.16-2.56 4.92-3.93 1.29.1.87 3.15 2.13 3.3 1.72-1.3 3-1 4.4-2.64.65.85 1.78.87 2.48 1.63-.23 2 1 2.82 1.16 5.39 2.78 1.7 6.16 2.31 7.09 7.19-.17 1.81-2.14 2-4 2.23.13 1.74 1.14 1.9 1.7 2.88 2.17-.46 2.07-5.35 4.4-1.91-.72-4.4 1.46-5.32 4.53-4.67.95-1.62.87-4.21 3.31-4.42 1.29 1 1.07 4.17 1.22 6 1.55-1.1 4-.78 5 .73.35 3-.87 3.75-1.79 6.11 2 3.73 6.73-.65 8.8 2.69.41 2.28-2.58 2.85-1.69 4.53 1.8 1.46 1.71 4.91 3.57 7.42 1.33 1.79 3.29.23 4.58 2.4s-.8 4.85.43 7.35c1 2 5.27 4.22 6.16 6.34-5.5 6.62 12.21 39.24 3.64 42.68z" fill="url(#c)" fill-rule="evenodd" transform="translate(289.23 11)"/><path d="m510.79 325.21c.29-.67 1.7-1.28 2-1.92.41-.79-.29-1.7.15-2.4s1.07-.13 1.51-.69c.62-.78.59-1.92 1.19-2.36.3-.54-.7-.79-.57-1.52.69-1.07 2.29.47 2.95-.73-.31-.8-.72-1.07-.6-2a1.22 1.22 0 0 1 1.67-.16c0-.61 0-1.67.41-2 .83.11.8 1 1.12 1.53 1-.17 1.79.17 1.55 1.62.79-1.1.76.53 1.5.72.19-.31.54-.35.59-.93-.66-.11-1.33-.21-1.39-.82.32-1.61 1.48-1.76 2.44-2.28.06-.86.48-1.12.4-1.79.24-.25.63-.24.86-.51.48.58.94.48 1.53.95.45 0 .3-1.07.75-1.08 1 .5.52 1.52 1.73 1.4a4.31 4.31 0 0 1 .37 3.35c0 .56.78 1.05.33 1.57.31.29.91.35 1.19.66.14.52-.16.59-.3 1 .58-.44.81.62 1.14.38.56.1-.44-.74.18-1.07.38-.49 1.1-.44 1.68-.62.21-1.4.46-2.71 1.37-3 .61.11.56.73.5 1.37a11.72 11.72 0 0 0 3.49-1.9c1.22.83 1.62.36 2.75-.08-.35-.95-1.08-1.58-.93-2.91 1-.78 1.36.95 2.25.66 0-1.23.76-2.25.87-3.37a3.21 3.21 0 0 1 2.66.26c.41-1 1.23-1.47 1.69-2.45 1.51 1.23 3.85.67 5.54 1.7 1-.2 2.85-.45 3.29.63-.16 2.14-2.44 1.15-2.79 3 .87 1.37 1.86-.06 2.92-.47.69 1 2.41.59 3.77 1.22.69.23.29 1.12.34 1.48a1 1 0 0 1 1.13.67c.72-.49.82-1.87 1.57-2.31-.93-.6-.62-1.44-1-2.24.58-1.91.57-3.7 2.31-5.31.34-.3.87-.62 1.33-1a14.48 14.48 0 0 1 1.18-1c1.19-.6 2.06-.39 3.22-1.13a31.23 31.23 0 0 1 3-2c1-.16.29 1 1 1.1 1 .14 2 .13 2.41-.6.06-.86-.49.44-1.08.06-1.42-.77-5.85-2.75-4.89-4.79.58-1.21 2.4-.62 3.8-.19.48-3.38 4.16-3.17 3.72-.05 1.43.57 2.42 1.05 4.09.49.35-1 .73-2 1.59-2.32 1.2.26 1.28 1.33 1.61 2.22 1.37.16 1.67 1.08 3.22 1.13.43-.38-.05-1.41.76-1.72 3.07 0 3.89 1.61 4.44 3.41.61.4 1.27-.79 2.36-.53 2.14 1.57-.88 4.78-1 6.66 1.07 1.86 1.82.36 4.08.44.93 2-1.9 3.1-3 4.07a5.22 5.22 0 0 0 1 2.32c1.82-.72 3.34-1.84 5.61-2.07 2.44 1.45 8.54.78 8.89 3.6a1.53 1.53 0 0 1 2 .45c1.09.08 1.25-.94 2.35-.87 1.24-.1 1.34 1.32 1.94 1 1-.28.64-2.21 1.41-2.8 2.53.34 2.67-2.07 4.8-2.26-.52-.94-1.84-1.4-1.88-2.61 1-1.34 3.43-1 4.79-2 .89-2.37 5.31-6.89 8.19-6.36 1.92.35.48 1.79 2.38 2.49-.23-1.45-1.71-3.47.18-5.06.31 0 .49 0 .6-.18 2.93.11 3.49 1.64 4.92 2.67a7.91 7.91 0 0 1 4.84 1.42c3.4-1 3.24-7.05 7.22-6.85 2.17.11 2.29 2.08 2.34 3.94.71 1.31 2.23 2.17 1.68 4.18.68.72 2-.62 2.82.2 1.16.15-.6 1.84.76 1.89 2.24-2.92 4.78-6.28 8.85-6.82 1.59-.21 1.87.63 3.23.66.58 0 3.1-1.1 4.74-.68 1.72-.16-1.21-1-.5-1.95 1.14-1.16 3.05-1.64 4.34-2.69 2.74.21 4.51.47 6.53-1 3.51.82 5.4 2.51 8 3.85.09 1.64-2.37 1.67-1.67 2.94 1.43-.36 1.92.28 3.87.22 1.35-.42 1.15-2.17 3-2.14.3.06.56.14.83.2v69.82c-13.82-3.11-26.58-5.84-38-8.15-6.61-1.35-13.35-2.44-19.44-3.55-6.36-1-12.36-2.52-17.36-3.01a48.07 48.07 0 0 1 -9.86-1.63c-2-.57-4.14-1.1-6.1-1.51-11.31-2.33-22.42-3.46-32.49-4.95-4.4-.64-8.87-.88-13.1-1.27s-8.18-1.15-11.66-1.15c-6.85.15-13.54-.83-19.89-1-2.87-.06-5.74-.28-8.78-.59a35.65 35.65 0 0 1 -8.56-1.61c-1-.4-1.83-1.3-2.8-1.79-.41-.2-8.78 7.08-9.18 6.89-2.77-1.33 3-11.44 1.21-13.69z" fill="#5a8768" fill-rule="evenodd" transform="translate(289.23 11)"/><path d="m303.27 302.9a14.84 14.84 0 0 1 4.67-.11c.58-1.29 1-2.78 2.65-2.91 1.17 1.87-.92 4-.57 5.53.7-.41 1.11-1.07 2-1.27 1.68-.38 3.12.72 4.16.53.49.26.42 1.18.77 1.6a3.55 3.55 0 0 1 2.34.35 3.74 3.74 0 0 0 1.7-2.46c.73-.22 1.53.66 1.77-.24a5 5 0 0 1 -3.05-.94c-.47-.58.28-1.17 0-1.42-.47.42-1 1.13-1.77.64-.83-2.83.28-6.69 3-6.91.66.26.14 1.91.6 2.41.8-.31 1.2-1 1.91-1.43-1.85-.24-2.8-1.55-4.67-1.77-.22-2.39 2.29-1.81 2.57-3.65a16 16 0 0 1 4.59.17c.36-1.4 1.59-.68 2.76-1.21-.1-.46-.37-1 0-1.4 3.21-1.07 5.54 2.08 6.38 5.14a1.23 1.23 0 0 1 1.39.59c.18-.38.17-1 .83-.8 1.49.79 1.87 2.9 2.35 4.91-.64 1.37-2.52-.33-3.22.64.6 1.25 1.05 2.68 1.65 3.93.46-.25.7-.44 1.19-.22.67 1.35.6 4.23.17 5.91-1.14.69-2 .25-3.08-.11a1.44 1.44 0 0 0 .06 2c.9-1 3.31-1.09 4.56-1.12-.51-3-.09-8 2-7.91 1.34.07 1.63 2.45 2.14 4.07.27-1.78.67-3.42 2.06-3.95.58.3.53 1.37.89 1.93 1.26-.1.9-2 1.24-3.14 1.63-.62 2.13.9 3.49.91.1-.78.91-1.51 1.45-1.19.72 2.15-.27 4.42 1.46 5.59.36-.37 1.21-.9 1.79-.43.75 1.37-.8 2.51-.56 3.29.8.81 2.66-1.13 3.57.29-.24 2.86-1.29 5.73-1.39 8.13 1.08 0 1.62-.37 2.58-.1.5-2.72 2.71-6.05 5.15-4.77 1-3 3.22-.14 2.77 2.77.36-.45.95-.07 1.26.14a7.33 7.33 0 0 1 -.06 3.61 10.16 10.16 0 0 0 3.17 1c.38.23-.05 1.5.35 1.69a7.93 7.93 0 0 1 3.38-1.46c.7.92.28 3.06 0 3.95 1.18.15 1.84 1 3.11 1a3.1 3.1 0 0 1 3-1.83c.49.58.23 2.15.68 2.77 2.33-.72 2.27 2.1 1.31 3.29.94 1.86.82 3.94 2 5.46-.16.9-1.13.89-1.78 1.23-.7 4.69-3.31 7.68-7.12 8.34-16.34 2.84-32.82 2.78-51.85 5.19-5.31.67-11.19.63-16.59 1.44-1.9.29-3.74.91-5.48 1a11 11 0 0 1 -1.52 0z" fill="url(#d)" fill-rule="evenodd" transform="translate(289.23 11)"/><path d="m851.84 342.29c-1 .06-2 .09-3.08 0-3.57-.13-7.33-1-11.22-1.38-11.21-1.08-23.57-.83-34.9-1.71-41.73-3.24-79.5-2.72-118.51-6.93-9.33-1-15.76-5.88-17.49-13.65-1.63-.55-4-.53-4.43-2 2.83-2.53 2.53-6 4.88-9-2.39-2-2.55-6.64 3.22-5.42 1.14-1 .48-3.61 1.69-4.55 3.83 0 6 1.25 7.39 3.07 3.11 0 4.72-1.33 7.58-1.55-.79-1.47-1.81-5-.11-6.47 3.49.25 5.64 1.51 8.17 2.49 1-.31 0-2.39.86-2.74a33.08 33.08 0 0 0 7.58-1.55c-.43-1.63-1.12-4.08-.13-5.86.74-.33 2.14-.93 3-.18-1.08-4.73 4.24-9.2 6.57-4.37 5.74-2 10.91 3.49 12.08 7.89 2.25-.41 3.5.16 6 .24-.25-3.84-2.67-8.49-3.23-13.07 2.11-2.24 6.42 1 8.28-.29.54-1.23-3-3.14-1.29-5.29 1.33-.71 3.28.18 4.1.78 4-1.75 1.72-5.42 3.37-8.8a2.86 2.86 0 0 1 3.3 2c3.1.08 4.24-2.29 7.94-1.22.77 1.81 0 4.81 2.81 5.05.81-.87.7-2.57 2-3 3.13.92 4 3.53 4.63 6.35 1.14-2.53 1.78-6.25 4.76-6.28 4.6-.06 5.53 7.82 4.39 12.5 2.77.1 8.09.31 10.06 1.95 1.09-1 1.37-2.09.13-3.08-2.29.51-4.27 1.16-6.77 0-1-2.64-1.1-7.15.38-9.23a3.37 3.37 0 0 1 2.61.42c1.32-1.91 2.3-4.11 3.63-6-1.53-1.56-5.68 1-7.1-1.21 1.06-3.1 1.91-6.37 5.2-7.49 1.43-.2 1.42.71 1.82 1.3a3.11 3.11 0 0 1 3-.8c1.83-4.69 6.89-9.38 13.83-7.46.73.62.13 1.46-.08 2.16 2.52.92 5.15-.09 5.93 2.08a47.29 47.29 0 0 1 9.77.09c.59 2.83 5.86 2.14 5.41 5.76-3.95.22-6 2.15-9.88 2.38 1.5.66 2.37 1.8 4.05 2.32 1-.73-.11-3.28 1.27-3.65 5.76.54 8.09 6.48 6.33 10.74-1.68.7-2.71-.41-3.71-1.08-.67.36.91 1.3-.09 2.16-1.88.66-3.52 1.53-6.44 1.28.5 1.38 2.21.08 3.74.46.38 1.9 2 2.86 3.6 3.84a9.65 9.65 0 0 1 4.91-.42c.72-.63.59-2 1.6-2.4 2.17.35 5.18-1.24 8.67-.58 1.78.34 2.61 1.35 4 2 .73-2.35-3.58-5.62-1.16-8.37 3.45.28 4.25 2.56 5.45 4.53a41 41 0 0 1 9.52.41z" fill="#5a8768" fill-rule="evenodd" transform="translate(289.23 11)"/><path d="m1279.49 373.32-494.84-40.97v.28l494.84 77.04z" fill="url(#e)"/><path d="m66.01 399.6 655.21-66.73v.89l-655.21 118.82z" fill="url(#f)"/><path d="m64.17 447.34 661.58-114.73h58.9l494.84 72.66v351.32h-1214.55z" fill="url(#g)"/><path d="m790.88 340.18h-4.33v-235.62a4 4 0 0 0 -4-4h-601.55a4 4 0 0 0 -4 4v235.62h-4.32v-235.62a8.3 8.3 0 0 1 8.32-8.29h601.58a8.3 8.3 0 0 1 8.3 8.29z" fill="#dbdcdc" transform="translate(289.23 11)"/><path d="m1279.49 373.32-494.84-40.97 494.84 27.1z" fill="url(#h)"/><path d="m66.01 399.6 655.21-66.73-655.21 43.59z" fill="url(#i)"/><g fill="#dedede"><path d="m27.41 721.06-27.41.01 290.6-149.76h17.38z"/><path d="m453.69 493.54h-12.18l72.06-37.13h9.69z"/><path d="m575.51 428.52h-7.83l32.11-16.55h6.73z"/><path d="m633.21 397.73h-5.77l18.11-9.34h5.14z"/><path d="m666.87 379.76h-4.57l11.63-5.99h4.16z"/><path d="m688.93 367.98h-3.78l8.08-4.16h3.5z"/><path d="m704.5 359.68h-3.22l5.94-3.06h3.02z"/><path d="m716.08 353.5h-2.81l4.55-2.35h2.65z"/><path d="m725.02 348.72h-2.49l3.6-1.85h2.37z"/><path d="m732.14 344.92h-2.23l2.92-1.5h2.13z"/><path d="m737.95 341.82h-2.03l2.41-1.24h1.94z"/><path d="m742.76 339.26h-1.85l2.02-1.05h1.8z"/><path d="m746.83 337.08h-1.71l1.73-.88h1.65z"/><path d="m1272.27 710.16 26.55.01-205.91-145.38h-16.85z"/><path d="m974.17 489.29h11.8l-51.06-36.04h-9.4z"/><path d="m888.98 426.17h7.59l-22.76-16.06h-6.51z"/><path d="m848.62 396.28h5.59l-12.83-9.06h-4.98z"/><path d="m825.08 378.83h4.43l-8.24-5.81h-4.03z"/><path d="m809.66 367.4h3.66l-5.72-4.04h-3.4z"/><path d="m798.76 359.34h3.13l-4.21-2.97h-2.92z"/><path d="m790.67 353.34h2.73l-3.23-2.28h-2.57z"/><path d="m784.42 348.71h2.41l-2.55-1.81h-2.29z"/><path d="m779.44 345.01h2.16l-2.06-1.45h-2.07z"/><path d="m775.38 342.01h1.96l-1.7-1.2h-1.89z"/><path d="m772.01 339.51h1.8l-1.44-1.01h-1.73z"/><path d="m769.17 337.4h1.66l-1.23-.86h-1.6z"/></g><path d="m464.11 165.14h613.84v4.33h-613.84z" fill="#dbdcdc"/></g><rect fill="#0054a7" height="88.62" rx="6.13" width="170.91" x="883.48" y="92.85"/><path d="m759 171.55h-158.63a7.23 7.23 0 0 1 -7.21-7.21v-76.34a7.22 7.22 0 0 1 7.21-7.21h158.63a7.22 7.22 0 0 1 7.24 7.21v76.36a7.23 7.23 0 0 1 -7.24 7.19zm-158.63-88.62a5.06 5.06 0 0 0 -5 5v76.36a5.06 5.06 0 0 0 5 5h158.63a5.06 5.06 0 0 0 5.05-5v-76.29a5.06 5.06 0 0 0 -5.05-5z" fill="#fff" transform="translate(289.23 11)"/><rect fill="#0054a7" height="88.62" rx="6.13" width="385.08" x="478.94" y="92.85"/><g fill="#fff"><path d="m568.65 171.55h-372.81a7.23 7.23 0 0 1 -7.22-7.21v-76.34a7.22 7.22 0 0 1 7.22-7.21h372.81a7.22 7.22 0 0 1 7.22 7.21v76.36a7.23 7.23 0 0 1 -7.22 7.19zm-372.81-88.62a5.06 5.06 0 0 0 -5.06 5v76.36a5.06 5.06 0 0 0 5.06 5h372.81a5.06 5.06 0 0 0 5.05-5v-76.29a5.06 5.06 0 0 0 -5.05-5z" transform="translate(289.23 11)"/><path d="m1003.21 161.35-31.43-17.51-31.43 17.51h13.58v11.36h35.7v-11.36z"/><path d="m782 161.35-31.43-17.51-31.43 17.51h13.58v11.36h35.7v-11.36z"/><path d="m620.83 161.35-31.43-17.51-31.43 17.51h13.58v11.36h35.7v-11.36z"/></g></svg>