<?xml version="1.0"?>
<svg xmlns="http://www.w3.org/2000/svg" xmlns:xlink="http://www.w3.org/1999/xlink" xmlns:svgjs="http://svgjs.com/svgjs" version="1.1" width="512" height="512" x="0" y="0" viewBox="0 0 497 497" style="enable-background:new 0 0 512 512" xml:space="preserve" class=""><g><g xmlns="http://www.w3.org/2000/svg"><path d="m360.236 488.196 127.96-127.96c5.637-5.637 8.804-13.283 8.804-21.255v-180.962c0-7.972-3.167-15.618-8.804-21.255l-127.96-127.96c-5.637-5.637-13.283-8.804-21.255-8.804h-180.962c-7.972 0-15.618 3.167-21.255 8.804l-127.96 127.96c-5.637 5.637-8.804 13.283-8.804 21.255v180.962c0 7.972 3.167 15.618 8.804 21.255l127.959 127.96c5.637 5.637 13.283 8.804 21.255 8.804h180.962c7.973 0 15.619-3.167 21.256-8.804z" fill="#e53935" data-original="#df646e" style=""/><path d="m41.474 235.168v-60.404c0-7.695 3.057-15.074 8.498-20.515l104.277-104.277c5.441-5.441 12.82-8.497 20.515-8.497h147.472c7.695 0 15.074 3.057 20.515 8.497l104.277 104.278c5.441 5.441 8.497 12.82 8.497 20.515v147.472c0 7.695-3.057 15.074-8.497 20.515l-104.277 104.276c-5.441 5.441-12.82 8.497-20.515 8.497h-147.472c-7.694 0-15.074-3.057-20.515-8.497l-104.277-104.277c-5.441-5.441-8.498-12.82-8.498-20.515v-58.113" fill="#f7f7f7" data-original="#f7f7f7" style=""/><path d="m447.028 154.249-104.277-104.277c-5.441-5.441-12.82-8.497-20.515-8.497h-30c7.695 0 15.074 3.057 20.515 8.497l104.278 104.278c5.441 5.441 8.497 12.82 8.497 20.515v147.472c0 7.695-3.056 15.074-8.497 20.515l-104.278 104.276c-5.441 5.441-12.82 8.497-20.515 8.497h30c7.695 0 15.074-3.057 20.515-8.497l104.278-104.277c5.441-5.441 8.497-12.82 8.497-20.515v-147.472c0-7.694-3.057-15.074-8.498-20.515z" fill="#e8e8e8" data-original="#e8e8e8" style=""/><g fill="#828282"><path d="m119.612 265.198c0-21.002-44.945-14.561-44.945-47.745 0-20.862 17.922-28.003 34.024-28.003 8.261 0 26.603 1.96 26.603 11.201 0 3.22-2.24 9.661-7.281 9.661-4.34 0-7.561-5.321-19.321-5.321-10.081 0-15.821 4.061-15.821 10.781 0 17.362 44.944 11.341 44.944 47.605 0 20.022-14.001 30.383-33.323 30.383-18.342 0-32.344-9.241-32.344-17.362 0-3.92 3.641-9.801 7.98-9.801 5.74 0 9.521 10.781 23.803 10.781 8.4.001 15.681-3.779 15.681-12.18z" fill="#0a0a0a" data-original="#828282" style="" class=""/><path d="m222.524 190.15c3.92 0 5.74 4.2 5.74 8.121 0 4.34-2.1 8.261-5.74 8.261h-20.441v80.228c0 3.781-4.621 5.741-9.102 5.741-4.621 0-9.102-1.96-9.102-5.741v-80.228h-20.582c-3.641 0-5.74-3.781-5.74-8.261 0-3.921 1.82-8.121 5.74-8.121z" fill="#0a0a0a" data-original="#828282" style="" class=""/><path d="m249.411 261.278v-39.064c0-23.383 14.281-32.063 32.764-32.063s32.903 8.681 32.903 32.063v39.064c0 23.382-14.421 32.063-32.903 32.063s-32.764-8.681-32.764-32.063zm47.465-39.064c0-11.061-5.601-16.102-14.701-16.102-9.241 0-14.563 5.041-14.563 16.102v39.064c0 11.061 5.321 16.102 14.563 16.102 9.101 0 14.701-5.041 14.701-16.102z" fill="#0a0a0a" data-original="#828282" style="" class=""/><path d="m344.623 195.751c0-2.94 2.66-5.601 6.86-5.601h28.143c17.783 0 31.784 8.541 31.784 31.503v.84c0 22.962-14.421 31.783-32.903 31.783h-15.682v32.483c0 3.781-4.621 5.741-9.102 5.741-4.62 0-9.1-1.96-9.1-5.741zm18.202 10.361v33.884h15.682c9.101 0 14.701-5.181 14.701-16.102v-1.68c0-10.921-5.601-16.102-14.701-16.102z" fill="#0a0a0a" data-original="#828282" style="" class=""/></g></g></g></svg>
