<svg id="Layer_1" height="512" viewBox="0 0 512 512" width="512" xmlns="http://www.w3.org/2000/svg" xmlns:xlink="http://www.w3.org/1999/xlink" data-name="Layer 1"><clipPath id="clip-path"><path d="m265.009 31.9771a224.6836 224.6836 0 0 0 -73 12.1185c88.4319 30.3144 152.0036 114.1685 152.0064 212.8792s-63.5642 182.5684-151.994 212.8879a224.6844 224.6844 0 0 0 73 12.1144c124.2641-.0036 224.9971-100.7423 224.9936-225.0064s-100.7419-224.9972-225.006-224.9936z"/></clipPath><circle cx="265.015" cy="256.977" fill="#ff0300" r="225"/><path d="m115.015 206.977h300v100h-300z" fill="#fff"/><g opacity=".15"><g clip-path="url(#clip-path)" fill="#fff"><path d="m192.009 44.096.013 437.882h-.013z"/><path d="m490.009 31.974.01 349.261v100.743h-297.997l-.013-437.882v-12.122z"/><path d="m490.019 381.235-.01-349.261h.01z"/></g></g></svg>