<?xml version="1.0"?>
<svg xmlns="http://www.w3.org/2000/svg" xmlns:xlink="http://www.w3.org/1999/xlink" xmlns:svgjs="http://svgjs.com/svgjs" version="1.1" width="512" height="512" x="0" y="0" viewBox="0 0 512 512" style="enable-background:new 0 0 512 512" xml:space="preserve" class=""><g transform="matrix(1.2799999999999998,0,0,1.2799999999999998,-71.67991882324202,28.320000267028945)"><g xmlns="http://www.w3.org/2000/svg"><path d="m225.443 501.851v-155.782h60.892v155.782c0 5.605-4.544 10.149-10.149 10.149h-40.595c-5.605 0-10.148-4.544-10.148-10.149z" fill="#655e67" data-original="#655e67" style="" class=""/><path d="m255.889 346.069v155.782c0 5.605-4.544 10.149-10.149 10.149h30.446c5.605 0 10.149-4.544 10.149-10.149v-155.782z" fill="#544f56" data-original="#544f56" style="" class=""/><g><path d="m169.868 358.345-92.435-97.643c-3.701-3.909-5.697-9.129-5.55-14.51l3.679-134.24c.147-5.381 2.426-10.483 6.336-14.184l97.405-92.211c3.77-3.568 8.763-5.557 13.954-5.557h125.759c5.383 0 10.546 2.138 14.352 5.945l100.811 100.811c3.806 3.806 5.945 8.969 5.945 14.352v125.758c0 5.191-1.989 10.184-5.557 13.954l-92.323 97.525c-3.833 4.049-9.164 6.344-14.74 6.344h-142.896c-5.576 0-10.906-2.294-14.74-6.344z" fill="#e53935" data-original="#d87b7b" style="" class=""/><path d="m434.179 106.756-100.811-100.812c-3.806-3.805-8.969-5.944-14.352-5.944h-30.446c5.383 0 10.546 2.139 14.352 5.944l100.811 100.812c3.806 3.806 5.945 8.968 5.945 14.352v125.758c0 5.19-1.989 10.184-5.557 13.953l-92.323 97.525c-3.833 4.05-9.164 6.344-14.74 6.344h30.446c5.576 0 10.907-2.294 14.74-6.344l92.323-97.525c3.568-3.769 5.557-8.763 5.557-13.953v-125.758c0-5.384-2.138-10.546-5.945-14.352z" fill="#e53935" data-original="#d06161" style="" class=""/><path d="m185.973 331.071-80.649-85.194c-1.85-1.955-2.849-4.564-2.775-7.255l3.218-117.432c.074-2.691 1.213-5.242 3.168-7.092l85.43-80.873c1.885-1.784 4.382-2.779 6.977-2.779h109.266c2.692 0 5.273 1.069 7.176 2.972l88.921 88.921c1.903 1.903 2.972 4.485 2.972 7.176v109.266c0 2.595-.994 5.092-2.779 6.977l-80.76 85.311c-1.917 2.025-4.582 3.172-7.37 3.172h-125.425c-2.788.001-5.454-1.146-7.37-3.17z" fill="#f7f6f7" data-original="#f7f6f7" style="" class=""/><g fill="#655e67"><path d="m161.933 176.184c-7.465-2.752-14.414-5.751-16.55-6.686-1.648-1.326-1.593-3.172-1.482-3.943.154-1.071.932-3.688 4.826-4.86 8.558-2.581 16.488 3.683 16.718 3.865 3.217 2.669 7.991 2.243 10.685-.961 2.705-3.218 2.288-8.02-.929-10.724-.575-.483-14.261-11.758-30.864-6.756-8.397 2.53-14.338 9.149-15.503 17.274-1.095 7.624 2.21 14.957 8.624 19.14.336.219.689.411 1.055.575.352.157 8.723 3.883 18.152 7.36 2.662.982 8.767 3.753 7.962 8.263-.606 3.392-4.738 6.901-10.607 6.901-6.039 0-11.849-2.434-15.543-6.51-2.823-3.115-7.636-3.351-10.751-.529-3.115 2.823-3.352 7.636-.529 10.751 6.531 7.208 16.559 11.511 26.824 11.511 12.817 0 23.58-8.179 25.593-19.448 1.513-8.483-2.337-19.562-17.681-25.223z" fill="#655e67" data-original="#655e67" style="" class=""/><path d="m230.142 144.841h-33.572c-4.204 0-7.611 3.407-7.611 7.611s3.407 7.611 7.611 7.611h9.107v53.177c0 4.204 3.407 7.611 7.611 7.611s7.611-3.407 7.611-7.611v-53.177h9.242c4.204 0 7.611-3.407 7.611-7.611s-3.406-7.611-7.61-7.611z" fill="#655e67" data-original="#655e67" style="" class=""/><path d="m361.369 144.841h-16.927c-4.204 0-7.611 3.407-7.611 7.611v34.385 26.404c0 4.204 3.407 7.611 7.611 7.611s7.612-3.407 7.612-7.611v-18.835c3.416-.017 7.16-.033 9.315-.033 13.841 0 25.102-11.11 25.102-24.766s-11.261-24.766-25.102-24.766zm0 34.31c-2.157 0-5.895.016-9.315.033v-19.119h9.315c5.355 0 9.879 4.371 9.879 9.543s-4.525 9.543-9.879 9.543z" fill="#655e67" data-original="#655e67" style="" class=""/><path d="m283.602 144.841c-20.956 0-38.006 17.05-38.006 38.006s17.05 38.006 38.006 38.006 38.006-17.05 38.006-38.006-17.05-38.006-38.006-38.006zm0 60.789c-12.563 0-22.783-10.22-22.783-22.783s10.22-22.783 22.783-22.783 22.783 10.22 22.783 22.783-10.22 22.783-22.783 22.783z" fill="#655e67" data-original="#655e67" style="" class=""/></g></g></g></g></svg>
