<svg id="Capa_1" enable-background="new 0 0 512 512" height="512" viewBox="0 0 512 512" width="512" xmlns="http://www.w3.org/2000/svg"><g><path d="m177.77 461.31h156.46v30h-156.46z" fill="#4b5055"/><path d="m256 461.31h78.23v30h-78.23z" fill="#2d2d2d"/><path d="m221.477 428.614-40.896 83.386h-69.046l40.896-83.386 38.453-10.114z" fill="#5f7883"/><path d="m359.569 428.614 40.896 83.386h-69.046l-40.896-83.386 34.523-10.114z" fill="#4b5055"/><path d="m428.61 359.57c0 38.13-30.91 69.04-69.04 69.04h-207.14c-38.13 0-69.04-30.91-69.04-69.04l172.61-14z" fill="#ff5f7b"/><path d="m428.61 359.57c0 38.13-30.91 69.04-69.04 69.04h-103.57v-83.04z" fill="#ea344a"/><path d="m359.57 69.05h-207.14l34.52-69.05h138.1z" fill="#ff5f7b"/><path d="m359.57 69.05h-103.57v-69.05h69.05z" fill="#ea344a"/><path d="m428.61 221.48v69.04l-103.56 69.05h-138.1l-103.56-69.05v-69.04l172.61-14z" fill="#f0f7ff"/><path d="m428.61 221.48v69.04l-103.56 69.05h-69.05v-152.09z" fill="#d7e9fc"/><path d="m83.39 55.05v166.43h345.22v-166.43z" fill="#d7e9fc"/><path d="m256 55.05h172.61v166.43h-172.61z" fill="#c0dbf2"/><path d="m113.39 85.05h285.22v106.43h-285.22z" fill="#00b3ff"/><path d="m256 85.05h142.61v106.43h-142.61z" fill="#3a80e8"/><path d="m208.5 273.5h95v30h-95z" fill="#d7e9fc"/><path d="m256 273.5h47.5v30h-47.5z" fill="#c0dbf2"/><path d="m186.954 359.569-34.523-69.046h-69.045v69.046z" fill="#ffe987"/><path d="m428.614 290.523h-69.045l-34.523 69.046h103.568z" fill="#fecb6e"/></g></svg>