<svg viewBox="0 0 825.24 839.19" xmlns="http://www.w3.org/2000/svg"><path d="m203.69 839.19a6.21 6.21 0 0 1 -2.3-12l615.34-246a6.2 6.2 0 1 1 4.61 11.52l-615.34 246.03a6.19 6.19 0 0 1 -2.31.45z" fill="#0f0f0f"/><path d="m6.2 797a6.2 6.2 0 0 1 -1.63-12.2l748.31-203.8a6.2 6.2 0 1 1 3.26 12l-748.3 203.77a6.22 6.22 0 0 1 -1.64.23z" fill="#0f0f0f"/><path d="m644.12 327a3.71 3.71 0 0 1 -.93-.12l-126.06-32.74a3.72 3.72 0 0 1 1.87-7.21l74.86 19.44-221.86-92.37a3.72 3.72 0 0 1 2.84-6.88l144.63 58.77a3.75 3.75 0 0 1 2.16 2.34l123.93 51.61a3.72 3.72 0 0 1 -1.43 7.16z" fill="#21160c"/><path d="m518.05 280.78a2.48 2.48 0 0 1 -1.27-.35l-79.06-46.9a2.48 2.48 0 0 1 -1.19-2.53 2.51 2.51 0 0 1 1.93-2l108.63-23.7a2.49 2.49 0 0 1 2.42.82l49.51 58a2.47 2.47 0 0 1 .45 2.47 2.49 2.49 0 0 1 -1.94 1.59l-79.09 12.58zm-72.38-48.3 72.87 43.22 73.84-11.7-45.68-53.53z" fill="#2e1e11"/><path d="m533.24 315.41h-.24a2.48 2.48 0 0 1 -2.28-2.66l6.52-83.08-74.4 32.45a2.48 2.48 0 1 1 -2-4.55l78.18-34.1a2.48 2.48 0 0 1 3.47 2.47l-6.84 87.19a2.48 2.48 0 0 1 -2.41 2.28z" fill="#2e1e11"/><ellipse cx="530.75" cy="667.93" fill="#0d0707" rx="16.2" ry="32.4"/><ellipse cx="595.29" cy="650.97" fill="#0d0707" rx="13.12" ry="26.23"/><path d="m684.69 597.56c11.6 17.22-18.18 40.73-60.37 50.07s-72 17.48-99.26 32-54.38-17-76.82 0-69.6 22.69-82 18.62-80.05-12.9-92.89-6.33-87.36 25.5-83.56-12.29 7.53-26.82 54.85-29.61 440.05-52.46 440.05-52.46z" fill="#140b0b"/><path d="m189.33 660c-6.24 14 199.55 28.11 229 13.39s307.05-77.82 288.12-88.33c-17-9.42-422 34.13-510.1 54.36-10.35 2.4-6.35 19.23-7.02 20.58z" fill="#331b1d"/><path d="m713.28 375.32c-1.37 3.16-24.78 4.69-61 4.81-139.54.51-469.37-19.62-465-45.8a8.9 8.9 0 0 1 .45-1.61c7.1-19.16 84.21-58.89 186.42-58.89q7.62 0 16 .58c26.46 1.76 58.42 7.53 91.85 15.5 79.43 18.92 167 50.27 207.91 69.88 13.88 6.65 22.36 12 23.34 15a.67.67 0 0 1 .03.53z" fill="#b3926a"/><path d="m713.28 375.32c-10.1 2.11-31.81 3.72-61 4.81-139.54.51-469.37-19.62-465-45.8a8.9 8.9 0 0 1 .45-1.61c33.34-16.69 99.5-34.07 174-34.07 82.72 0 258.29 39.19 328.2 61.14 17.81 5.59 28.77 10.07 29.55 12.49.4 1.12-1.8 2.13-6.2 3.04z" fill="#9e815e"/><path d="m708.55 505.83c-6.3 10.5-172.46-8.68-271.29 12q-6.67 1.4-13.47 2.42c-63 9.7-133.57-2-179.9-12.69-18.95-4.36-33.83-8.58-42.49-11.1-2.57-.74-4.59-1.35-6-1.76-3.5-1-6.54-7-9.06-16.16-11-39.64-12-138.39 3.44-145.78 8.25-4 57.25-5.6 110.23-6.66 36.93-.74 75.8-1.2 104.17-2 17.22-.47 30.56-1 37.28-1.89 33.65-4.21 252.37 40 271.85 52.58 13.21 8.53 1.55 120.51-4.76 131.04z" fill="#c9c9c7"/><path d="m474.11 324c71.51 8.49 223.14 40.36 239.2 50.77 13.21 8.54 1.55 120.52-4.76 131.05a2.94 2.94 0 0 1 -1.25 1 17.81 17.81 0 0 0 -.85-1.66c-6.31-10.51-269.19-9.06-290.23-4.85h-.13c-19.4-53.13-33.83-120.38-11.91-176.25 8.83-.24 16.65-.5 23.08-.83z" fill="#dbdbd9"/><path d="m497.81 497.15h-64.71v-141.62l64.71 6.21z" fill="#b5b5b3"/><path d="m700.25 585.09c-23.14-4.21-237.76 46.27-271.41 56.78-5.44 1.7-15.16 3-27.62 3.87-7.17.52-15.25.92-24 1.22-25.82.86-57.15.83-86.57.26-49.88-1-94.3-3.38-97.12-5.35-6-4.21-4.48-21 1.83-35.75.9-2.12 1.35-5.78 1.46-10.53.71-28.27-10-94.84-1.46-100.93 21.2 8.48 57.78 11.74 95.29 12.31 31 .47 62.53-.87 86.57-2.58 18.93-1.36 33.18-2.95 38.83-4.05l294.95 6.49c6.83 14.93 11.4 82.29-10.75 78.26z" fill="#f4ad05"/><path d="m422.91 504.39v135.12c-33.88.87-93.61 8.28-132.22 7.71v-140.22c40.63.44 100.67-.9 132.22-2.61z" fill="#eb9900"/><path d="m497.81 620.86-64.71 16.13v-136.66l64.71-1.24z" fill="#db9b05"/><path d="m401.22 645.74c-64.43 4.67-202.6-.35-207.65-3.87-6-4.21-4.48-21 1.83-35.75.9-2.12 1.35-5.78 1.46-10.53 15.36-4.2 145.76-2.11 181.51 0 34.74 2.06 25.43 38.41 22.85 50.15z" fill="#f4c133"/><path d="m202.2 497.05-.8-.63a68.33 68.33 0 0 1 -15.06-17.92c-11-39.64-12-138.39 3.44-145.78 8.25-4 57.25-5.6 110.23-6.66 24.64 55.86-2.76 158.21-49.41 179.07z" fill="#ebebe9"/><path d="m194.49 362.27c2.48-6.2 33.5-16.75 33.5-6.2s-1.86 129.05-4.34 132.77-27.3 6.82-29.16 0 0-126.57 0-126.57z" fill="#1d1812"/><path d="m328.5 351.59c6.83-6.07 86.86-11.94 93.68 0s2.48 137.25 2.48 137.25h-96.16z" fill="#231c16"/><g fill="#1d1812"><path d="m436.45 373.44v111.68l25.44-3.11v-108.57z"/><path d="m468.09 374.68 17.99 1.86 1.24 108.58h-18.61z"/><path d="m457.55 505.59v87.48l-21.1 2.48v-89.96z"/><path d="m472.44 505.59h9.31v86.86h-9.31z"/><path d="m532 364.76v127.18h35.36v-122.22z"/><path d="m572.32 371.58v121.6h24.82v-116.64z"/><path d="m604.58 378.41c5.59-1.25 24.2 5.58 24.2 5.58v109.19h-24.2z"/><path d="m636.84 384.61 19.24 5.58v104.23h-19.24z"/><path d="m662.28 393.3 18.61 3.72v99.26l-18.61-1.24z"/><path d="m686.48 399.5 17.37 4.96v94.3l-17.37-1.24z"/></g><path d="m525.06 513.86s173.11-10.89 178.79-6 3.52 32.48 3.52 32.48l-182.31 8.66s-8.28-27.69 0-35.14z" fill="#f4b520"/><path d="m238.54 351.59c5-4.83 65.76-7 74.45 0s0 137.25 0 137.25h-79.99z" fill="#231c16"/><circle cx="286.15" cy="588.66" fill="#582500" r="19.43"/><circle cx="286.15" cy="588.66" fill="#d4a77d" r="12.43" transform="matrix(.70710678 -.70710678 .70710678 .70710678 -332.43 374.76)"/><circle cx="287.16" cy="588.43" fill="#f5e7da" r="4.53"/><circle cx="355.09" cy="628.05" fill="#540b00" r="9.71" transform="matrix(.38493975 -.9229417 .9229417 .38493975 -361.26 714.01)"/><ellipse cx="212.89" cy="622.61" fill="#540b00" rx="9.38" ry="6.52" transform="matrix(.30785483 -.95143334 .95143334 .30785483 -445.02 633.47)"/><path d="m464.88-201.05h1.24v641.46h-1.24z" fill="#414042" transform="matrix(.37136784 -.92848583 .92848583 .37136784 181.51 507.45)"/><path d="m464.83 226.36h147.89v4.96h-147.89z" fill="#414042" transform="matrix(.38638903 -.9223359 .9223359 .38638903 119.5 637.32)"/><path d="m194.74 679.65c7.22-1.59 137.55 10.72 151 10.05 15.7-.78 42.14 5.38 41.89 5.76-2.56 3.81-193.24-7.33-197.49-8.69s-.36-6.02 4.6-7.12z" fill="#887672"/><path d="m189.1 698.27c4.76-4 181.86 2.59 188.16 4.25s-192.92-.22-188.16-4.25z" fill="#887672"/><path d="m242.8 297v-58.22l204.2-9.94v68.16s-32-15.94-101.62-15.94-102.58 15.94-102.58 15.94z" fill="#746868"/><path d="m252.43 248.92 186.56-10.14v35.05l-184.65 4.47z" fill="#453d3b"/><path d="m447 228.84 21.09 9.94v58.25h-21.09z" fill="#595050"/><path d="m290.69 413.48h-53.15l-2.48 74.12 55.63-1.24z" fill="#312c26"/><path d="m329.74 412.24h87.36v75.36h-87.36z" fill="#312c26"/><path d="m194.49 371.58h18.4v117.26h-18.4z" fill="#312c26"/><path d="m559.21 420.46-25.97-2.48v73.96h25.97z" fill="#312c26"/><path d="m587.73 491.94h-14.16v-68.99l14.16 1.24z" fill="#312c26"/><path d="m621.37 491.94h-14.56v-65.34l14.56 1.24z" fill="#312c26"/><path d="m651.4 494h-14.56v-62.86l14.56 1.24z" fill="#312c26"/><path d="m676.84 495.24h-14.56v-61.62l14.56 1.24z" fill="#312c26"/><path d="m701.03 497.73h-14.55v-60.39l14.55 1.24z" fill="#312c26"/><path d="m468.09 249.2h42.1v47.83h-42.1z" fill="#7b7263"/><path d="m538.77 305.72-28.58-8.69v-47.83l28.58 8.68z" fill="#554e46"/></svg>