<svg id="Layer_1" enable-background="new 0 0 512 512" height="512" viewBox="0 0 512 512" width="512" xmlns="http://www.w3.org/2000/svg"><g><path d="m194.189 256h114.411l9.211-256c-11.939 5.286-33.542 13.02-61.519 13.074-28.292.054-50.126-7.771-62.103-13.074z" fill="#ebf4ff"/><path d="m300.43 6.459c-3.503 32.145-9.184 67.933-18.222 106.418-11.132 47.402-25.058 89.109-39.157 124.58-.834 6.181-1.669 12.362-2.503 18.544h68.052l9.211-256c-4.487 1.985-10.339 4.317-17.381 6.458z" fill="#dceafc"/><g><path d="m481.095 277.609v68.111l-15.453 20.517 15.453 20.517v114.944c0 5.69-4.612 10.302-10.302 10.302h-152.982c-34.137 0-61.811-27.674-61.811-61.811v-194.189c14.613-30.02 29.909-67.645 41.66-112.218 14.648-55.558 19.336-105.028 20.151-143.782 10.073 3.889 20.146 7.778 30.219 11.666 6.839 2.64 13.678 20.733 20.517 23.373s13.678-10.172 20.517-7.532c12.552 4.846 25.104 9.691 37.656 14.537 5.131 1.981 7.795 7.634 6.066 12.855-9.22 27.843-25.297 93.648 6.039 160.106 11.397 24.169 26.187 42.324 39.213 55.283 1.951 1.942 3.057 4.568 3.057 7.321z" fill="#efd06f"/><path d="m405.159 45.652c-7.17 18.974-32.892 93.741 2.761 169.354 11.397 24.169 26.187 42.324 39.213 55.283 1.951 1.941 3.056 4.567 3.056 7.32v224.09c0 5.69-4.612 10.302-10.302 10.302h30.905c5.69 0 10.302-4.612 10.302-10.302v-114.945l-15.453-20.517 15.453-20.517v-68.111c0-2.752-1.105-5.378-3.056-7.32-13.025-12.958-27.816-31.113-39.213-55.283-31.337-66.458-15.26-132.263-6.039-160.106 1.729-5.221-.936-10.875-6.066-12.855-5.863-2.263-11.726-4.527-17.589-6.79z" fill="#ebc56a"/><path d="m256 345.72h225.095v41.034h-225.095z" fill="#dceafc"/><path d="m450.189 345.72h30.905v41.034h-30.905z" fill="#cbe0fd"/><path d="m389.064 27.508-41.034-15.842v334.054h41.034z" fill="#ebf4ff"/></g><g><path d="m30.905 277.609v68.111l15.453 20.517-15.453 20.517v114.944c0 5.69 4.612 10.302 10.302 10.302h152.982c34.137 0 61.811-27.674 61.811-61.811v-194.189c-14.613-30.02-29.909-67.645-41.66-112.218-14.648-55.558-19.336-105.028-20.151-143.782-10.073 3.889-20.146 7.778-30.219 11.666-6.839 2.64-13.678 20.733-20.517 23.373s-13.678-10.172-20.517-7.532c-12.552 4.846-25.104 9.691-37.656 14.537-5.131 1.981-7.795 7.634-6.066 12.855 9.22 27.843 25.297 93.648-6.039 160.106-11.396 24.169-26.187 42.324-39.213 55.283-1.951 1.942-3.057 4.568-3.057 7.321z" fill="#f6df7f"/><g fill="#ebf4ff"><path d="m30.905 345.72h225.095v41.034h-225.095z"/><path d="m122.936 27.508 41.034-15.842v334.054h-41.034z"/></g></g></g></svg>