<svg id="Capa_1" enable-background="new 0 0 512 512" height="512" viewBox="0 0 512 512" width="512" xmlns="http://www.w3.org/2000/svg"><circle cx="256" cy="256" fill="#e2dfe2" r="256"/><path d="m272.442 511.485c-5.44.34-10.92.515-16.442.515-141.382 0-256-114.618-256-256s114.618-256 256-256c5.522 0 11.002.175 16.442.515-133.718 8.478-239.559 119.625-239.559 255.485s105.841 247.007 239.559 255.485z" fill="#cbcbcb"/><circle cx="256" cy="256" fill="#665e66" r="209.939"/><ellipse cx="256" cy="412.606" fill="#6bbcd5" rx="139.806" ry="53.332"/><path d="m256 473.665c-120.021 0-217.665-97.644-217.665-217.665s97.644-217.665 217.665-217.665 217.665 97.644 217.665 217.665-97.644 217.665-217.665 217.665zm0-419.877c-111.5 0-202.212 90.711-202.212 202.212s90.712 202.212 202.212 202.212 202.212-90.712 202.212-202.212-90.712-202.212-202.212-202.212z" fill="#cbcbcb"/><path d="m254.676 83.038c-95 .711-172.142 78.892-171.641 173.894.177 33.525 9.892 64.798 26.574 91.235 10.743 17.026 34.465 19.758 48.701 5.523l1.066-1.066c10.412-10.412 12.007-26.572 4.212-39.064-10.575-16.948-16.616-37.017-16.433-58.509.51-59.866 50.022-108.456 109.887-107.895 59.641.559 107.807 49.071 107.807 108.844 0 21.275-6.099 41.126-16.647 57.895-7.761 12.339-5.889 28.418 4.418 38.726l1.069 1.069c14.182 14.182 37.881 11.585 48.602-5.365 16.897-26.715 26.676-58.381 26.676-92.325 0-95.97-78.155-173.682-174.291-172.962z" fill="#e2dfe2"/><path d="m378.3 133.694-45.338 45.338c19.697 19.687 31.884 46.904 31.884 76.965 0 21.273-6.099 41.125-16.648 57.896-7.757 12.342-5.882 28.412 4.42 38.725l1.071 1.071c14.186 14.175 37.88 11.579 48.604-5.367 16.895-26.713 26.671-58.381 26.671-92.325.001-47.759-19.356-90.996-50.664-122.303z" fill="#da4a54"/><path d="m293.31 120.814-75.336 109.791c-9.297 13.549-10.638 31.036-3.515 45.844 10.983 22.833 38.397 32.44 61.231 21.456 14.808-7.123 24.676-21.622 25.87-38.011l9.673-132.801c.728-10.01-12.243-14.555-17.923-6.279z" fill="#ecbe6b"/><circle cx="256" cy="256" fill="#818181" r="19.98"/><path d="m256.021 283.721c-3.087 0-6.184-.523-9.184-1.573-6.984-2.448-12.598-7.468-15.806-14.137 0 0 0 0 0-.001-6.622-13.768-.809-30.356 12.959-36.978 6.668-3.208 14.187-3.626 21.173-1.18 6.984 2.448 12.598 7.468 15.806 14.137 6.622 13.769.809 30.357-12.959 36.979-3.805 1.831-7.887 2.753-11.989 2.753zm-11.064-22.41c1.419 2.95 3.901 5.171 6.991 6.253 3.09 1.083 6.415.897 9.364-.522 6.089-2.929 8.66-10.266 5.731-16.355-1.419-2.949-3.901-5.17-6.991-6.252-3.091-1.083-6.416-.897-9.364.522-6.088 2.929-8.659 10.265-5.731 16.354z" fill="#e7a52e"/><g fill="#e2dfe2"><path d="m224.483 441.65c-4.268 0-7.726-3.459-7.726-7.726v-34.258c0-4.267 3.459-7.726 7.726-7.726s7.726 3.459 7.726 7.726v34.258c0 4.267-3.458 7.726-7.726 7.726z"/><path d="m256 441.65c-4.268 0-7.726-3.459-7.726-7.726v-34.258c0-4.267 3.459-7.726 7.726-7.726s7.726 3.459 7.726 7.726v34.258c0 4.267-3.458 7.726-7.726 7.726z"/><path d="m287.517 441.65c-4.268 0-7.726-3.459-7.726-7.726v-34.258c0-4.267 3.459-7.726 7.726-7.726 4.268 0 7.726 3.459 7.726 7.726v34.258c0 4.267-3.458 7.726-7.726 7.726z"/></g></svg>