<?xml version="1.0" encoding="iso-8859-1"?>
<!-- Generator: Adobe Illustrator 19.0.0, SVG Export Plug-In . SVG Version: 6.00 Build 0)  -->
<svg version="1.1" id="Layer_1" xmlns="http://www.w3.org/2000/svg" xmlns:xlink="http://www.w3.org/1999/xlink" x="0px" y="0px"
	 viewBox="0 0 511.999 511.999" style="enable-background:new 0 0 511.999 511.999;" xml:space="preserve">
<path style="fill:#FF6465;" d="M266.56,398.903c104.547,0,151.011-5.28,209.092,4.224c66.53,19.008,26.4-141.507,0-221.765
	C449.252,101.104,361.602,107.44,256,107.44s-193.252-6.335-219.653,73.922s-66.53,240.773,0,221.765
	c58.081-9.504,104.547-4.224,209.092-4.224L266.56,398.903L266.56,398.903z"/>
<path style="fill:#99EEFF;" d="M473.246,363.873c-23.866-3.436-47.697-4.866-79.718-4.866c-14.752,0-30.226,0.278-48.143,0.598
	c-22.576,0.405-48.162,0.864-78.825,0.864h-21.121c-30.667,0-56.254-0.459-78.827-0.864c-17.916-0.321-33.39-0.598-48.141-0.598
	c-32.018,0-55.848,1.43-79.71,4.865c-0.781-10.301-0.387-29.41,5.742-62.434c8.406-45.296,22.628-90.663,28.353-108.066
	c6.673-20.287,18.316-31.417,40.185-38.419c26.511-8.487,64.367-9.196,100.867-9.196c6.663,0,13.435,0.029,20.301,0.057
	c7.168,0.03,14.437,0.06,21.79,0.06c7.357,0,14.624-0.031,21.792-0.06c6.864-0.029,13.634-0.057,20.3-0.057
	c36.497,0,74.349,0.71,100.864,9.199c21.873,7.001,33.515,18.133,40.189,38.417c5.725,17.407,19.951,62.782,28.357,108.067
	C473.633,334.465,474.028,353.573,473.246,363.873z"/>
<path style="fill:#FFFFFF;" d="M351.272,147.103c-17.054-1.176-35.28-1.346-53.18-1.346c-6.667,0-13.436,0.029-20.3,0.057
	c-7.166,0.03-14.434,0.06-21.792,0.06c-7.354,0-14.622-0.031-21.79-0.06c-6.865-0.029-13.637-0.057-20.301-0.057
	c-36.502,0-74.357,0.71-100.867,9.196c-19.159,6.133-30.469,15.436-37.465,31.289l0.001,0.001
	c50.612,2.798,90.929,44.853,90.929,96.15c0,3.631-0.202,7.217-0.595,10.745l-0.009-0.001l214.376-25.685l-0.152,0.01
	c-2.56-39.385-14.504-86.427-28.853-120.355"/>
<g>
	<path style="fill:#99EEFF;" d="M300.774,209.473c-3.533,0-6.798-2.29-7.878-5.845c-3.085-10.16-6.319-19.204-9.89-27.651
		c-1.771-4.189,0.189-9.022,4.378-10.793c4.188-1.772,9.022,0.189,10.793,4.378c3.798,8.985,7.228,18.562,10.481,29.281
		c1.321,4.352-1.137,8.952-5.488,10.273C302.372,209.358,301.567,209.473,300.774,209.473z"/>
	<path style="fill:#99EEFF;" d="M311.121,252.874c-3.925,0-7.4-2.814-8.102-6.814c-0.981-5.587-2.163-11.416-3.616-17.82
		c-1.007-4.436,1.773-8.847,6.21-9.853c4.432-1.008,8.847,1.775,9.853,6.21c1.513,6.671,2.749,12.76,3.776,18.617
		c0.786,4.48-2.208,8.748-6.688,9.536C312.072,252.832,311.594,252.874,311.121,252.874z"/>
	<path style="fill:#99EEFF;" d="M217.897,223.612c-3.131,0-6.123-1.794-7.502-4.829c-5.708-12.557-13.05-24.27-21.822-34.814
		c-2.909-3.497-2.432-8.689,1.064-11.599c3.496-2.908,8.689-2.433,11.599,1.064c9.711,11.674,17.838,24.639,24.155,38.533
		c1.882,4.141,0.052,9.023-4.089,10.905C220.195,223.375,219.037,223.612,217.897,223.612z"/>
	<path style="fill:#99EEFF;" d="M198.239,272.428c-4.03,0-7.553-2.96-8.142-7.066c-2.314-16.116-8.257-32.216-17.184-46.559
		c-2.404-3.862-1.222-8.941,2.64-11.344c3.862-2.404,8.94-1.221,11.344,2.64c10.124,16.265,16.87,34.566,19.505,52.922
		c0.647,4.502-2.479,8.676-6.982,9.323C199.023,272.401,198.628,272.428,198.239,272.428z"/>
	<path style="fill:#99EEFF;" d="M159.712,197.596c-2.07,0-4.142-0.775-5.743-2.333c-4.368-4.251-9.066-8.184-13.963-11.69
		c-3.698-2.649-4.549-7.793-1.901-11.49s7.793-4.548,11.49-1.901c5.566,3.986,10.903,8.453,15.86,13.277
		c3.26,3.172,3.332,8.386,0.159,11.646C164.001,196.762,161.857,197.596,159.712,197.596z"/>
</g>
<path style="fill:#464655;" d="M388.455,266.471c-0.541-4.516-4.634-7.737-9.157-7.198l-107.281,12.854
	c-0.01,0.001-0.019,0.002-0.029,0.003l-107.067,12.828c-4.516,0.541-7.738,4.641-7.198,9.157c0.502,4.184,4.056,7.257,8.168,7.257
	c0.326,0,0.658-0.02,0.989-0.059l93.663-11.222l-10.933,28.693l-126.054,48.913c-4.24,1.646-6.344,6.417-4.699,10.658
	c1.266,3.261,4.38,5.259,7.68,5.259c0.99,0,1.999-0.18,2.977-0.56l129.467-50.238c2.173-0.843,3.887-2.567,4.716-4.746
	l15.314-40.192l102.245-12.25C385.774,275.087,388.997,270.987,388.455,266.471z"/>
<g style="opacity:0.1;">
	<path d="M115.409,181.362c21.598-65.658,84.194-73.36,164.071-73.989c-7.714,0.032-15.546,0.068-23.48,0.068
		c-105.602,0-193.252-6.336-219.653,73.921c-26.4,80.258-66.53,240.773,0,221.765c18.17-2.974,35.203-4.499,53.233-5.193
		C62.554,368.23,93.645,247.526,115.409,181.362z"/>
</g>
<g>
</g>
<g>
</g>
<g>
</g>
<g>
</g>
<g>
</g>
<g>
</g>
<g>
</g>
<g>
</g>
<g>
</g>
<g>
</g>
<g>
</g>
<g>
</g>
<g>
</g>
<g>
</g>
<g>
</g>
</svg>
