<svg height="512" viewBox="0 0 64 64" width="512" xmlns="http://www.w3.org/2000/svg"><g id="Highway"><rect fill="#1e88e5" height="56" rx="5" width="56" x="4" y="4"/><g fill="#fafafa"><path d="m55 26h-46a1 1 0 0 0 -1 1v4a1 1 0 0 0 1 1h2v5a1 1 0 0 0 1 1h4a1 1 0 0 0 1-1v-5h30v5a1 1 0 0 0 1 1h4a1 1 0 0 0 1-1v-5h2a1 1 0 0 0 1-1v-4a1 1 0 0 0 -1-1z"/><path d="m23.7139 24h5.2861a1 1 0 0 0 1-1v-12a1 1 0 0 0 -1-1h-3a1 1 0 0 0 -.9824.813l-2.2862 12a1 1 0 0 0 .9825 1.187z"/><path d="m29 34h-7.5713a1 1 0 0 0 -.9824.813l-3.4287 18a1 1 0 0 0 .9824 1.187h11a1 1 0 0 0 1-1v-18a1 1 0 0 0 -1-1z"/><path d="m42.5713 34h-7.5713a1 1 0 0 0 -1 1v18a1 1 0 0 0 1 1h11a1 1 0 0 0 .9824-1.187l-3.4287-18a1 1 0 0 0 -.9824-.813z"/><path d="m35 24h5.2861a1 1 0 0 0 .9825-1.187l-2.2862-12a1 1 0 0 0 -.9824-.813h-3a1 1 0 0 0 -1 1v12a1 1 0 0 0 1 1z"/></g></g></svg>