<svg id="Layer_1" height="512" viewBox="0 0 512 512" width="512" xmlns="http://www.w3.org/2000/svg" xmlns:xlink="http://www.w3.org/1999/xlink" data-name="Layer 1"><clipPath id="clip-path"><path d="m487.583 407.0761-177.9281-355.8309c-22.1131-44.2223-85.221-44.22-107.3316.003l-16.8333 33.6692 161.093 322.1626c19.9479 39.8934-9.0606 86.833-53.6631 86.8343l141-.004c44.6025-.0012 73.611-46.9403 53.6631-86.8342z"/></clipPath><path d="m202.3235 51.2482-177.9079 355.841c-19.9456 39.8946 9.0652 86.8326 53.6681 86.8313l355.836-.01c44.6029-.0013 73.6113-46.9409 53.6631-86.8344l-177.928-355.8309c-22.1128-44.2223-85.2211-44.2205-107.3313.003z" fill="#ff0300"/><path d="m78.0832 475.9205a42.001 42.001 0 0 1 -37.5681-60.7821l177.9078-355.841a42.0008 42.0008 0 0 1 75.1329-.0017l177.928 355.83a42.001 42.001 0 0 1 -37.5646 60.7843z" fill="#fff"/><path d="m293.4938 214.9144.0026 93.5455a10 10 0 0 1 -15 8.6607l-81.6747-47.152-.3266.566v-.566l-26.9957.0008a13.0042 13.0042 0 0 0 -13.0039 13.0046l.0045 143.996 40-.0012-.0027-93.68a10 10 0 0 1 15-8.6607l82.0013 47.34v-.054l27-.0008a13 13 0 0 0 13-13l-.0041-144z" fill="#1d1d1b"/><g opacity=".15"><g clip-path="url(#clip-path)" fill="#fff"><path d="m185.49 84.917.012 408.997h-.012z"/><path d="m493.983 7.023.014 486.891h-308.495l-.012-408.997v-77.894z"/><path d="m493.997 493.914-.014-486.891h13.548v486.891z"/></g></g></svg>