<!-- Generated by IcoMoon.io -->
<svg version="1.1" xmlns="http://www.w3.org/2000/svg" width="32" height="32" viewBox="0 0 32 32">
<title>alpha-a-circle-outline</title>
<path d="M14.667 9.333h2.667c1.473 0 2.667 1.194 2.667 2.667v0 10.667h-2.667v-5.333h-2.667v5.333h-2.667v-10.667c0-1.473 1.194-2.667 2.667-2.667v0zM14.667 12v2.667h2.667v-2.667h-2.667zM16 26.667c5.891 0 10.667-4.776 10.667-10.667v0c0-5.891-4.776-10.667-10.667-10.667v0c-5.891 0-10.667 4.776-10.667 10.667v0c0 5.891 4.776 10.667 10.667 10.667v0zM16 2.667c7.364 0 13.333 5.97 13.333 13.333v0c0 7.364-5.97 13.333-13.333 13.333v0c-7.364 0-13.333-5.97-13.333-13.333v0c0-7.364 5.97-13.333 13.333-13.333v0z"></path>
</svg>
