<svg xmlns="http://www.w3.org/2000/svg"  viewBox="0 0 128 128" width="512px" height="512px"><path fill="#fff" d="M89,124H39c-11.05,0-20-8.95-20-20V54c0-11.05,8.95-20,20-20h50c11.05,0,20,8.95,20,20v50 C109,115.05,100.05,124,89,124z"/><path fill="#71c2ff" d="M74,79c0-5.52-4.48-10-10-10s-10,4.48-10,10c0,4.48,2.94,8.27,7,9.54V99c0,1.66,1.34,3,3,3s3-1.34,3-3V88.54 C71.06,87.27,74,83.48,74,79z"/><path fill="#444b54" d="M95,31.8V19c0-9.93-8.07-18-18-18H51c-9.93,0-18,8.07-18,18v12.8C23.22,34.45,16,43.39,16,54v50 c0,12.68,10.32,23,23,23h50c12.68,0,23-10.32,23-23V54C112,43.39,104.78,34.45,95,31.8z M39,19c0-6.62,5.38-12,12-12h26 c6.62,0,12,5.38,12,12v12H39V19z M106,104c0,9.37-7.63,17-17,17H39c-9.37,0-17-7.63-17-17V54c0-9.37,7.63-17,17-17h50 c9.37,0,17,7.63,17,17V104z"/></svg>