<?xml version="1.0"?>
<svg xmlns="http://www.w3.org/2000/svg" xmlns:xlink="http://www.w3.org/1999/xlink" xmlns:svgjs="http://svgjs.com/svgjs" version="1.1" width="512" height="512" x="0" y="0" viewBox="0 0 60 60" style="enable-background:new 0 0 512 512" xml:space="preserve" class=""><g><g xmlns="http://www.w3.org/2000/svg"><g fill="#44464a"><path d="m32.31 42.89c.19.2.45.3.71.3.1 0 .21-.02.31-.05l5.78-1.93-5.11-5.12-1.93 5.78c-.12.36-.02.76.24 1.02z" fill="#44464a" data-original="#44464a" style=""/><path d="m35.71 27.76h15.5v8h-15.5z" transform="matrix(.707 -.707 .707 .707 -9.73 40.03)" fill="#44464a" data-original="#44464a" style=""/><path d="m54.24 20.97c-1.51-1.51-4.14-1.51-5.66 0l-1.06 1.06 5.66 5.66 1.06-1.06c.76-.75 1.17-1.76 1.17-2.83s-.41-2.07-1.17-2.83z" fill="#44464a" data-original="#44464a" style=""/></g><path d="m32.3 34.87c.15-.44.4-.84.73-1.17l9.57-9.57v-11.13c0-1.1-.88-2-1.95-2h-6.13c.06.32.1.66.1 1v2c0 1.65-1.35 3-3 3h-16c-1.65 0-3-1.35-3-3v-2c0-.34.04-.68.1-1h-6.17c-1.07 0-1.95.9-1.95 2v39c0 1.1.88 2 1.95 2h34.1c1.07 0 1.95-.9 1.95-2v-10.9l-1.09 1.09c-.32.32-.73.57-1.17.72l-6.36 2.12c-.31.11-.63.16-.95.16-.8 0-1.56-.32-2.12-.88-.81-.81-1.09-1.99-.73-3.07zm-9.7-12.87h14c.55 0 1 .45 1 1s-.45 1-1 1h-14c-.55 0-1-.45-1-1s.45-1 1-1zm-4 26c0 .55-.45 1-1 1h-6c-.55 0-1-.45-1-1v-6c0-.55.45-1 1-1h6c.55 0 1 .45 1 1zm0-11c0 .55-.45 1-1 1h-6c-.55 0-1-.45-1-1v-6c0-.55.45-1 1-1h6c.55 0 1 .45 1 1zm0-11c0 .55-.45 1-1 1h-6c-.55 0-1-.45-1-1v-6c0-.55.45-1 1-1h6c.55 0 1 .45 1 1zm10.22 20h-6.22c-.55 0-1-.45-1-1s.45-1 1-1h6.23c.55 0 1 .45 1 1s-.45 1-1.01 1zm-6.22-11c-.55 0-1-.45-1-1s.45-1 1-1h7.9c.55 0 1 .45 1 1s-.45 1-1 1z" fill="#1880f1" data-original="#3773b5" style="" class=""/><path d="m32.62 12v2c0 .55-.45 1-1 1h-16c-.55 0-1-.45-1-1v-2c0-1.65 1.34-3 3-3h2.11c.44-1.72 2.01-3 3.87-3s3.43 1.28 3.87 3h2.15c1.64 0 3 1.35 3 3z" fill="#1880f1" data-original="#3773b5" style="" class=""/></g></g></svg>
