<svg id="Flat" height="512" viewBox="0 0 64 64" width="512" xmlns="http://www.w3.org/2000/svg"><path d="m43.22 26.373v3.727a11.222 11.222 0 0 1 -22.443.038v-3.765z" fill="#576972"/><path d="m43.221 13.221v13.157h-22.442v-13.157a7.865 7.865 0 0 1 .048-.957 11.213 11.213 0 0 1 22.346 0 7.865 7.865 0 0 1 .048.957z" fill="#d9d9d8"/><g fill="#576972"><path d="m43.221 13.221v.3h-5.421a.629.629 0 1 1 0-1.257h5.369a7.865 7.865 0 0 1 .052.957z"/><path d="m43.221 16.539v1.261h-5.421a.629.629 0 1 1 0-1.258z"/><path d="m43.221 21.028v1.258h-5.421a.629.629 0 1 1 0-1.258z"/><path d="m26.825 12.893a.627.627 0 0 1 -.629.628h-5.417v-.3a7.865 7.865 0 0 1 .048-.957h5.373a.628.628 0 0 1 .625.629z"/><path d="m26.825 17.168a.628.628 0 0 1 -.629.629h-5.417v-1.258h5.421a.628.628 0 0 1 .625.629z"/><path d="m26.825 21.657a.628.628 0 0 1 -.629.629h-5.417v-1.258h5.421a.634.634 0 0 1 .625.629z"/><path d="m34.436 48.807v9.1h-4.875v-9.1a19.367 19.367 0 0 0 4.875 0z"/><path d="m39.928 62v-2.01a2.083 2.083 0 0 0 -2.083-2.082h-11.69a2.083 2.083 0 0 0 -2.083 2.082v2.01z"/><path d="m49.8 24.331a.677.677 0 0 0 -.677.677v4.313h-5.9a.677.677 0 1 0 0 1.354h5.882c-.305 7.537-5.643 17.612-17.105 17.612s-16.8-10.075-17.106-17.612h5.882a.677.677 0 0 0 0-1.354h-5.9v-4.313a.677.677 0 0 0 -1.354 0v4.992c0 9.656 6.91 19.644 18.475 19.644s18.478-9.99 18.478-19.644v-4.99a.677.677 0 0 0 -.675-.679z"/></g></svg>