<?xml version="1.0"?>
<svg xmlns="http://www.w3.org/2000/svg" xmlns:xlink="http://www.w3.org/1999/xlink" xmlns:svgjs="http://svgjs.com/svgjs" version="1.1" width="512" height="512" x="0" y="0" viewBox="0 0 512.072 512.072" style="enable-background:new 0 0 512 512" xml:space="preserve" class=""><g><g xmlns="http://www.w3.org/2000/svg"><g><g><path d="m286.108 113.059c-.011-28.91 11.083-57.895 33.141-79.953 44.094-44.094 115.585-44.094 159.679 0s44.094 115.585 0 159.679c-22.094 22.094-51.066 33.117-80.023 33.071z" fill="#685e68" data-original="#685e68" style="" class=""/><path d="m479.003 192.858c-22.09 22.09-51.066 33.113-80.027 33.069l-17.543-17.543c28.961.044 57.937-10.979 80.027-33.069 41.125-41.125 43.895-106.101 8.289-150.434 3.202 2.558 6.286 5.322 9.254 8.289 44.092 44.092 44.092 115.596 0 159.688z" fill="#685e68" data-original="#554e56" style="" class=""/><path d="m471.106 202.518-161.589-161.589c-3.42-3.42-3.42-8.965 0-12.384l19.691-19.691c3.42-3.42 8.965-3.42 12.384 0l161.589 161.589c3.42 3.42 3.42 8.965 0 12.384l-19.691 19.691c-3.419 3.42-8.964 3.42-12.384 0z" fill="#26a6fe" data-original="#26a6fe" style="" class=""/><path d="m502.971 183.032-19.276 19.276c-3.531 3.531-9.269 3.538-12.799.007l-14.459-14.459c3.538 3.538 9.276 3.531 12.807 0l19.276-19.276c3.531-3.531 3.531-9.261-.007-12.799l14.459 14.459c3.53 3.531 3.53 9.262-.001 12.792z" fill="#26a6fe" data-original="#0593fc" style="" class=""/></g><g><path d="m96.499 415.536-28.217-28.217-64.362 73.537c-5.492 6.275-5.178 15.734.719 21.631l12.455 12.455 12.455 12.455c5.897 5.897 15.356 6.211 21.631.719l73.537-64.362z" fill="#e2dee2" data-original="#e2dee2" style="" class=""/><path d="m124.714 443.749-73.536 64.37c-6.279 5.49-15.731 5.175-21.63-.724l-17.361-17.361c5.892 5.892 15.35 6.213 21.622.716l73.543-64.362z" fill="#e2dee2" data-original="#cbc4cc" style="" class=""/></g><g><path d="m342.542 169.493-56.063-56.062-32.396 50.23-1.459 1.076-2.559 3.95-181.783 218.632 28.217 28.217 28.217 28.217 218.633-181.783 3.949-2.559.202-.875 50.959-33.126z" fill="#685e68" data-original="#685e68" style="" class=""/><path d="m398.82 225.778-51.383 33.362-.139.271-3.949 2.559-218.635 181.779-17.36-17.361 218.627-181.786 55.627-36.037z" fill="#685e68" data-original="#554e56" style="" class=""/><path d="m342.542 169.493-56.434-56.434-33.484 51.678 47.337 47.337 47.337 47.337 51.678-33.484z" fill="#e2dee2" data-original="#e2dee2" style="" class=""/><path d="m398.976 225.933-51.68 33.479-17.367-17.368 51.503-33.654z" fill="#e2dee2" data-original="#cbc4cc" style="" class=""/><path d="m210.6 302.368-.934-.934c-7.637-7.637-7.637-20.019 0-27.655l27.902-27.902c7.637-7.637 20.019-7.637 27.655 0l.934.934c7.637 7.637 7.637 20.019 0 27.655l-27.902 27.902c-7.636 7.637-20.018 7.637-27.655 0z" fill="#e2dee2" data-original="#e2dee2" style="" class=""/><path d="m266.148 275.026-27.254 27.254c-7.979 7.979-20.922 7.979-28.901 0-2.63-2.63-4.396-5.799-5.282-9.154 6.812 1.817 14.384.052 19.733-5.297l27.254-27.254c3.989-3.989 5.984-9.22 5.984-14.451 0-1.773-.229-3.554-.687-5.282 3.354.887 6.523 2.652 9.154 5.282 3.989 3.989 5.984 9.22 5.984 14.451s-1.995 10.461-5.985 14.451z" fill="#e2dee2" data-original="#cbc4cc" style="" class=""/><path d="m223.875 253.85h28.351v40.82h-28.351z" fill="#685e68" transform="matrix(.707 -.707 .707 .707 -124.208 248.656)" data-original="#433f43" style="" class=""/><path d="m231.081 271.249h28.351v20.436h-28.351z" fill="#685e68" transform="matrix(.707 -.707 .707 .707 -127.193 255.862)" data-original="#333133" style="" class=""/></g></g><g><g><path d="m165.273 31.708c-4.686 14.955-16.856 42.134-45.232 52.744-2.317.866-2.317 4.2 0 5.066 28.376 10.61 40.546 37.789 45.232 52.744.793 2.53 4.388 2.53 5.18 0 4.686-14.955 16.856-42.134 45.232-52.744 2.317-.866 2.317-4.2 0-5.066-28.376-10.61-40.546-37.789-45.232-52.744-.792-2.53-4.387-2.53-5.18 0z" fill="#fdb441" data-original="#fdb441" style="" class=""/><path d="m215.685 89.519c-28.377 10.606-40.544 37.784-45.227 52.742-.796 2.533-4.393 2.533-5.189 0-2.088-6.668-5.655-15.734-11.475-24.707 5.241-11.165 10.213-22.153 25.958-28.035 2.316-.868 2.316-4.197 0-5.065-15.744-5.892-20.716-16.881-25.958-28.046 5.82-8.963 9.386-18.039 11.475-24.696.796-2.533 4.393-2.533 5.189 0 4.683 14.948 16.85 42.125 45.227 52.742 2.315.868 2.315 4.197 0 5.065z" fill="#fdb441" data-original="#fea613" style="" class=""/></g><g><path d="m327.859 357.423c-3.425 10.93-12.319 30.794-33.057 38.548-1.693.633-1.693 3.07 0 3.703 20.738 7.754 29.633 27.618 33.057 38.548.579 1.849 3.207 1.849 3.786 0 3.425-10.93 12.319-30.794 33.057-38.548 1.693-.633 1.693-3.07 0-3.703-20.738-7.754-29.633-27.618-33.057-38.548-.579-1.849-3.206-1.849-3.786 0z" fill="#fdb441" data-original="#fdb441" style="" class=""/><path d="m364.703 399.674c-20.739 7.752-29.631 27.614-33.054 38.546-.582 1.851-3.211 1.851-3.793 0-1.526-4.873-4.133-11.499-8.386-18.057 3.83-8.16 3.3-16.191 14.807-20.49 1.692-.635 1.692-3.067 0-3.702-11.507-4.306-10.976-12.338-14.807-20.497 4.254-6.55 6.86-13.184 8.386-18.049.582-1.851 3.211-1.851 3.793 0 3.422 10.925 12.315 30.787 33.054 38.546 1.692.636 1.692 3.069 0 3.703z" fill="#fdb441" data-original="#fea613" style="" class=""/></g><g><path d="m440.446 260.929c-4.315 13.772-15.523 38.802-41.655 48.573-2.134.798-2.134 3.868 0 4.666 26.132 9.771 37.34 34.801 41.655 48.573.73 2.33 4.041 2.33 4.771 0 4.315-13.772 15.523-38.802 41.655-48.573 2.134-.798 2.134-3.868 0-4.666-26.132-9.771-37.339-34.801-41.655-48.573-.73-2.33-4.041-2.33-4.771 0z" fill="#fdb441" data-original="#fdb441" style="" class=""/><path d="m486.871 314.168c-26.132 9.768-37.337 34.796-41.65 48.571-.733 2.332-4.046 2.332-4.779 0-1.923-6.14-5.207-14.489-10.567-22.753 4.827-10.282 4.159-20.401 18.658-25.818 2.132-.8 2.132-3.865 0-4.665-14.499-5.426-13.831-15.546-18.658-25.828 5.36-8.254 8.644-16.612 10.567-22.743.733-2.332 4.046-2.332 4.779 0 4.313 13.766 15.518 38.794 41.65 48.571 2.133.8 2.133 3.866 0 4.665z" fill="#fdb441" data-original="#fea613" style="" class=""/></g></g></g></g></svg>
