<?xml version="1.0"?>
<svg xmlns="http://www.w3.org/2000/svg" xmlns:xlink="http://www.w3.org/1999/xlink" xmlns:svgjs="http://svgjs.com/svgjs" version="1.1" width="512" height="512" x="0" y="0" viewBox="0 0 512 512" style="enable-background:new 0 0 512 512" xml:space="preserve" class=""><g><g xmlns="http://www.w3.org/2000/svg"><path d="m63.441 319.493-49.258-20.713c-4.462-1.876-7.364-6.245-7.364-11.085v-63.388c0-4.84 2.902-9.209 7.364-11.085l49.258-20.713 14.591 63.491z" fill="#4a80aa" data-original="#4a80aa" style=""/><path d="m373.271 167.865-14.895 88.135 14.895 88.135c28.472-18.965 47.232-51.359 47.232-88.135s-18.76-69.17-47.232-88.135z" fill="#4a80aa" data-original="#4a80aa" style=""/><path d="m300.25 69.834c-60.339 57.706-140.613 89.912-224.104 89.912h-8.631c-2.25 0-4.074 1.824-4.074 4.074v184.36c0 2.25 1.824 4.074 4.074 4.074h8.63c83.491 0 163.765 32.206 224.105 89.912l21.239 20.312v-412.956z" fill="#a2b9e2" data-original="#b9cbea" style="" class=""/><path d="m300.25 69.834c-6.436 6.155-13.099 12.02-19.968 17.587v163.832c0 71.871-71.003 121.984-138.833 98.224-23.105-8.094-49.101-14.165-78.008-16.626v15.329c0 2.25 1.824 4.074 4.074 4.074h8.63c83.492 0 163.765 32.206 224.105 89.912l21.239 20.312 25.891-199.144-25.891-213.812z" fill="#a2b9e2" data-original="#a2b9e2" style="" class=""/><circle cx="115.379" cy="211.187" fill="#4a80aa" r="20.268" data-original="#4a80aa" style=""/><path d="m505.181 256c0 31.367-8.258 61.462-23.741 87.805-6.295 10.711-21.048 12.541-29.833 3.756-6.132-6.132-7.314-15.62-2.933-23.105 24.673-42.153 24.673-94.758 0-136.911-4.381-7.484-3.199-16.972 2.933-23.105 8.785-8.785 23.538-6.954 29.833 3.757 15.483 26.345 23.741 56.446 23.741 87.803z" fill="#ffe07d" data-original="#ffe07d" style=""/><path d="m347.38 0c-14.299 0-25.891 11.592-25.891 25.891v460.218c0 14.299 11.592 25.891 25.891 25.891 14.299 0 25.891-11.592 25.891-25.891v-460.218c0-14.299-11.592-25.891-25.891-25.891z" fill="#e7ecf6" data-original="#e7ecf6" style="" class=""/></g></g></svg>
